<svg width="18" height="18" viewBox="0 0 18 18" fill="none" xmlns="http://www.w3.org/2000/svg">
<path d="M5.02558 1.35105L5.94785 1.07585C6.81356 0.818246 7.73669 1.23505 8.10783 2.04946L8.84411 3.67188C9.16468 4.37829 8.98725 5.2095 8.40354 5.7263L6.78013 7.16472C6.87956 8.02553 7.18984 8.87274 7.70926 9.70635C8.20279 10.5129 8.86471 11.2189 9.65582 11.7824L11.6058 11.1744C12.3455 10.9448 13.1504 11.2096 13.6029 11.8312L14.6598 13.2792C15.1869 14.0024 15.0926 14.9992 14.4386 15.612L13.7375 16.2688C13.0398 16.9224 12.0429 17.16 11.1215 16.8912C8.94525 16.2576 6.9447 14.3768 5.119 11.2488C3.29074 8.11593 2.64531 5.4567 3.18359 3.27427C3.40988 2.35586 4.11016 1.62386 5.02558 1.35105Z" fill="#141E30"/>
</svg>
