<svg width="16" height="16" viewBox="0 0 16 16" fill="none" xmlns="http://www.w3.org/2000/svg">
<path d="M5.25 12.5C4.425 12.5 3.7575 13.175 3.7575 14C3.7575 14.825 4.425 15.5 5.25 15.5C6.075 15.5 6.75 14.825 6.75 14C6.75 13.175 6.075 12.5 5.25 12.5ZM0.75 1.25C0.75 1.6625 1.0875 2 1.5 2H2.25L4.95 7.6925L3.9375 9.5225C3.39 10.5275 4.11 11.75 5.25 11.75H13.5C13.9125 11.75 14.25 11.4125 14.25 11C14.25 10.5875 13.9125 10.25 13.5 10.25H5.25L6.075 8.75H11.6625C12.225 8.75 12.72 8.4425 12.975 7.9775L15.66 3.11C15.7232 2.99632 15.7556 2.8681 15.7541 2.73804C15.7525 2.60798 15.717 2.48058 15.6511 2.36845C15.5852 2.25631 15.4911 2.16334 15.3783 2.09871C15.2654 2.03409 15.1376 2.00007 15.0075 2H3.9075L3.405 0.927501C3.34472 0.799481 3.24922 0.691281 3.12968 0.615571C3.01014 0.539861 2.8715 0.499773 2.73 0.500001H1.5C1.0875 0.500001 0.75 0.837501 0.75 1.25ZM12.75 12.5C11.925 12.5 11.2575 13.175 11.2575 14C11.2575 14.825 11.925 15.5 12.75 15.5C13.575 15.5 14.25 14.825 14.25 14C14.25 13.175 13.575 12.5 12.75 12.5Z" fill="white"/>
</svg>
