<svg width="18" height="18" viewBox="0 0 18 18" fill="none" xmlns="http://www.w3.org/2000/svg">
<path fill-rule="evenodd" clip-rule="evenodd" d="M1.125 9C1.125 11.0886 1.95469 13.0916 3.43153 14.5685C4.90838 16.0453 6.91142 16.875 9 16.875C11.0886 16.875 13.0916 16.0453 14.5685 14.5685C16.0453 13.0916 16.875 11.0886 16.875 9C16.875 6.91142 16.0453 4.90838 14.5685 3.43153C13.0916 1.95469 11.0886 1.125 9 1.125C6.91142 1.125 4.90838 1.95469 3.43153 3.43153C1.95469 4.90838 1.125 6.91142 1.125 9ZM15.525 9C15.525 10.7305 14.8375 12.3902 13.6139 13.6139C12.3902 14.8375 10.7305 15.525 9 15.525C7.26946 15.525 5.6098 14.8375 4.38613 13.6139C3.16245 12.3902 2.475 10.7305 2.475 9C2.475 7.26946 3.16245 5.6098 4.38613 4.38613C5.6098 3.16245 7.26946 2.475 9 2.475C10.7305 2.475 12.3902 3.16245 13.6139 4.38613C14.8375 5.6098 15.525 7.26946 15.525 9Z" fill="#141E30"/>
<path fill-rule="evenodd" clip-rule="evenodd" d="M5.625 9.00001C5.625 13.0698 6.9669 16.425 9 16.425C11.0331 16.425 12.375 13.0698 12.375 9.00001C12.375 4.93021 11.0331 1.57501 9 1.57501C6.9669 1.57501 5.625 4.93021 5.625 9.00001ZM11.025 9.00001C11.025 12.3858 9.9495 15.075 9 15.075C8.0505 15.075 6.975 12.3858 6.975 9.00001C6.975 5.61421 8.0505 2.92501 9 2.92501C9.9495 2.92501 11.025 5.61421 11.025 9.00001Z" fill="#141E30"/>
<path d="M3.242 4.92029L4.1474 3.91949C4.2374 4.00049 4.3355 4.08149 4.4399 4.15979C5.5838 5.01659 7.4099 5.54579 9.4034 5.54579C11.1053 5.54579 12.6902 5.16149 13.8413 4.50359C14.1185 4.34519 14.3651 4.17329 14.5784 3.99059L15.455 5.01749C15.1621 5.2659 14.8463 5.48589 14.5118 5.67449C13.1474 6.45569 11.3312 6.89489 9.4034 6.89489C7.13359 6.89489 5.0249 6.28469 3.6299 5.23979C3.49576 5.13931 3.36632 5.0327 3.242 4.92029ZM3.242 13.0941L4.1474 14.0949C4.2374 14.013 4.3355 13.9329 4.4399 13.8546C5.5838 12.9978 7.4099 12.4686 9.4034 12.4686C11.1053 12.4686 12.6902 12.8529 13.8413 13.5108C14.1185 13.6692 14.3651 13.8411 14.5784 14.0238L15.455 12.9969C15.1618 12.749 14.846 12.529 14.5118 12.3399C13.1474 11.5587 11.3312 11.1195 9.4034 11.1195C7.13359 11.1195 5.0249 11.7297 3.6299 12.7746C3.49575 12.8751 3.36632 12.9817 3.242 13.0941ZM1.5752 9.67499V8.32499H16.4252V9.67499H1.5752Z" fill="#141E30"/>
</svg>
