<svg width="74" height="80" viewBox="0 0 74 80" fill="none" xmlns="http://www.w3.org/2000/svg">
<path d="M40.0185 79.5972C38.9364 79.5972 36.5909 79.6101 36.5909 79.6101H36.4609C35.4539 79.6101 34.3956 79.5972 33.1652 79.5972C32.7605 79.5972 30.838 79.6137 30.838 79.6137C28.943 79.6137 26.9619 79.5405 25.4019 78.6671C23.4007 77.5484 20.9783 76.1917 17.3036 75.9994C13.2059 75.7815 9.36091 71.552 8.44727 69.8236C7.55925 68.1409 2.63764 64.0487 2.5882 64.0085C2.52814 63.9578 2.48485 63.8902 2.46405 63.8144C2.44325 63.7387 2.44592 63.6584 2.47171 63.5842C2.4975 63.51 2.5452 63.4454 2.6085 63.3989C2.67179 63.3524 2.74771 63.3261 2.82623 63.3237L36.3932 62.4741H36.4737H36.7282H36.8051L70.3684 63.3237C70.4472 63.3255 70.5236 63.3514 70.5873 63.398C70.651 63.4445 70.6989 63.5094 70.7246 63.5839C70.7503 63.6585 70.7526 63.7391 70.7312 63.815C70.7097 63.8909 70.6655 63.9584 70.6046 64.0085C70.5552 64.0487 65.6317 68.1409 64.7455 69.8236C63.83 71.552 59.985 75.7815 55.8892 75.9994C52.2163 76.1917 49.7958 77.5466 47.8495 78.636C46.2327 79.5405 44.2516 79.6137 42.3566 79.6137C42.3474 79.6137 40.4249 79.5972 40.0185 79.5972Z" fill="white"/>
<path d="M36.7221 62.8548L70.3513 63.7172C70.3513 63.7172 65.3308 67.8808 64.3952 69.6495C63.4595 71.4182 59.6621 75.4188 55.8611 75.6184C52.06 75.818 49.5296 77.2535 47.5943 78.3374C46.1826 79.1265 44.3736 79.2327 42.3468 79.2327C41.5979 79.2327 40.8179 79.2181 40.0178 79.2181C38.7837 79.2181 37.7273 79.2181 36.7221 79.2291H36.4603C35.4551 79.2291 34.3968 79.2181 33.1645 79.2181C32.3662 79.2181 31.5881 79.2327 30.8374 79.2327C28.8123 79.2327 26.9924 79.1265 25.5899 78.3374C23.6545 77.2535 21.1242 75.818 17.3249 75.6184C13.5257 75.4188 9.72096 71.4072 8.789 69.6422C7.85704 67.8771 2.83107 63.7172 2.83107 63.7172L36.4603 62.8658H36.7221V62.8548ZM36.4603 62.0913L36.3449 62.1005L2.81093 62.9372C2.65352 62.941 2.50102 62.9927 2.37383 63.0855C2.24665 63.1783 2.15085 63.3078 2.09928 63.4565C2.0477 63.6053 2.0428 63.7663 2.08523 63.9179C2.12766 64.0695 2.21541 64.2046 2.33671 64.3049C3.70077 65.4365 7.39381 68.6644 8.10239 70.0029C9.04533 71.7881 13.0258 76.1604 17.2791 76.3838C20.8642 76.5668 23.2426 77.9034 25.1523 78.9746L25.2054 79.0039C26.8532 79.9193 28.8856 79.9999 30.8319 79.9999C31.1981 79.9999 31.5826 79.9999 31.9653 79.9999C32.3479 79.9999 32.7562 79.9999 33.159 79.9999C34.243 79.9999 35.1896 79.9999 36.0886 79.9999H37.0993C37.9928 79.9999 38.9302 79.9999 40.0196 79.9999C40.4224 79.9999 40.8216 79.9999 41.2152 79.9999C41.6089 79.9999 41.9769 79.9999 42.3486 79.9999C44.2967 79.9999 46.3328 79.923 47.9751 79.0039L48.0319 78.9727C49.9416 77.9035 52.3218 76.5742 55.905 76.3838C60.1602 76.1585 64.1443 71.7881 65.0818 70.0029C65.7885 68.6644 69.4761 65.4365 70.8475 64.3049C70.9688 64.2046 71.0565 64.0695 71.0989 63.9179C71.1414 63.7663 71.1365 63.6053 71.0849 63.4565C71.0333 63.3078 70.9375 63.1783 70.8103 63.0855C70.6831 62.9927 70.5306 62.941 70.3732 62.9372L36.8356 62.0895L36.7221 62.0803H36.4621L36.4603 62.0913Z" fill="#001E94"/>
<path d="M47.5951 78.3304C48.8767 77.6163 50.4129 76.7503 52.405 76.1827C54.9482 72.8174 58.1066 68.1777 58.1066 68.1777L51.9711 69.5766C50.8725 70.9278 45.3466 78.2517 44.6729 79.1415C45.7641 79.0298 46.7528 78.8028 47.5951 78.3304Z" fill="white"/>
<path d="M47.5942 78.3302L47.7773 78.6671C49.059 77.953 50.5622 77.1071 52.503 76.5542L52.7063 76.415C55.2605 73.0369 58.4189 68.3973 58.4207 68.3936C58.4642 68.3294 58.4874 68.2535 58.4872 68.1759C58.487 68.0983 58.4635 68.0225 58.4196 67.9585C58.3757 67.8945 58.3136 67.8451 58.2413 67.8169C58.169 67.7887 58.0899 67.783 58.0142 67.8004L51.8787 69.1974L51.6663 69.3292C50.5531 70.697 45.0419 78.0116 44.3644 78.9143C44.3193 78.9742 44.2925 79.046 44.2875 79.1208C44.2824 79.1957 44.2993 79.2704 44.336 79.3358C44.3727 79.4012 44.4276 79.4546 44.4941 79.4893C44.5606 79.524 44.6358 79.5386 44.7105 79.5313C45.831 79.4196 46.8728 79.1853 47.7847 78.6744L47.6016 78.3394L47.4185 78.0006C46.6421 78.4364 45.7084 78.658 44.6482 78.7623L44.6849 79.1468L44.9943 79.3794C45.6644 78.4932 51.1939 71.1602 52.2833 69.8291L51.9702 69.5764L52.0563 69.9554L58.1918 68.5584L58.1058 68.1812L57.7854 67.9633C57.7854 67.9633 56.998 69.1205 55.8921 70.6988C54.7862 72.2771 53.3618 74.2765 52.0947 75.9536L52.4042 76.1862L52.298 75.82C50.2565 76.4004 48.6837 77.2847 47.4057 78.0006L47.5942 78.3302Z" fill="#001E94"/>
<path d="M24.1693 77.5592C23.0707 73.6043 21.5345 67.1044 21.5345 67.1044C21.5345 67.1044 14.6483 64.5173 15.4612 67.1044C15.9886 68.7798 17.6401 72.9891 18.7386 75.7502C20.64 76.0338 22.4776 76.6459 24.1693 77.5592Z" fill="white"/>
<path d="M24.1695 77.5594L24.5357 77.4551C23.9865 75.485 23.3255 72.8777 22.8073 70.7574C22.2892 68.6372 21.9138 67.0131 21.912 67.0131C21.8974 66.9513 21.8679 66.8939 21.8261 66.846C21.7843 66.7982 21.7315 66.7612 21.6721 66.7385C21.6721 66.7385 20.894 66.4474 19.8888 66.1544C18.8836 65.8614 17.6532 65.5667 16.6773 65.5648C16.2991 65.548 15.9224 65.6221 15.5787 65.7809C15.4122 65.8648 15.2708 65.9911 15.1686 66.1471C15.0652 66.3161 15.0118 66.511 15.0148 66.7092C15.0173 66.8799 15.0463 67.0491 15.1008 67.2109C15.6373 68.9173 17.2852 73.1175 18.3965 75.8841C18.4211 75.9476 18.4623 76.0034 18.5158 76.0455C18.5692 76.0877 18.633 76.1148 18.7005 76.124C20.5595 76.4013 22.3562 76.9998 24.0103 77.8927C24.077 77.9271 24.1524 77.9413 24.2272 77.9336C24.3019 77.9258 24.3728 77.8964 24.4311 77.849C24.4894 77.8016 24.5326 77.7382 24.5554 77.6666C24.5782 77.595 24.5796 77.5183 24.5595 77.4459L24.1933 77.5503L24.3764 77.2061C22.6455 76.2736 20.7659 75.6485 18.8213 75.3586L18.7682 75.7413L19.1344 75.5985C18.0358 72.8429 16.388 68.6244 15.8662 66.9802C15.8356 66.893 15.8196 66.8015 15.8186 66.7092L15.8533 66.5572C15.9138 66.4804 15.9994 66.4273 16.095 66.4071C16.2958 66.3514 16.5039 66.3267 16.7121 66.3338C17.5342 66.3338 18.7261 66.6085 19.7075 66.8923C20.1964 67.0333 20.623 67.1742 20.9397 67.2823C21.2565 67.3903 21.4341 67.4654 21.4341 67.4654L21.5714 67.0992L21.1942 67.1871C21.1942 67.1871 22.7213 73.6888 23.8345 77.6583L24.2007 77.5539L24.3838 77.2097L24.1695 77.5594Z" fill="#001E94"/>
<path d="M34.4777 79.2147L33.3791 68.229L27.9741 68.1851C27.9741 68.1851 29.5231 75.5766 30.618 79.233C31.4328 79.233 32.286 79.2184 33.1612 79.2184L34.4777 79.2147Z" fill="white"/>
<path d="M34.4775 79.2147L34.862 79.1762L33.7635 68.1905C33.7536 68.0957 33.7095 68.0078 33.6393 67.9434C33.5692 67.879 33.4779 67.8425 33.3826 67.8407L27.9776 67.7986C27.9196 67.7977 27.8621 67.8099 27.8095 67.8343C27.7569 67.8587 27.7104 67.8947 27.6737 67.9396C27.6374 67.9845 27.6116 68.0368 27.5979 68.0928C27.5843 68.1489 27.5833 68.2072 27.595 68.2637C27.595 68.2637 29.1421 75.6553 30.248 79.3447C30.2717 79.4237 30.32 79.4931 30.3859 79.5428C30.4517 79.5925 30.5317 79.6199 30.6142 79.6211H30.8522C31.6011 79.6211 32.3719 79.6047 33.1592 79.6047H34.4739C34.528 79.6049 34.5816 79.5938 34.6312 79.572C34.6807 79.5503 34.7252 79.5183 34.7616 79.4783C34.798 79.4382 34.8256 79.3909 34.8426 79.3395C34.8596 79.2881 34.8656 79.2337 34.8602 79.1799L34.4757 79.2183V78.832H33.1574C32.3609 78.832 31.5883 78.8466 30.8504 78.8466H30.616V79.233L30.9822 79.1213C30.4329 77.3123 29.7775 74.5439 29.2556 72.2515C28.7338 69.9592 28.3402 68.1081 28.3402 68.1062L27.9612 68.185V68.5713L33.0201 68.6116L34.0839 79.2604L34.4684 79.222L34.4775 79.2147Z" fill="#001E94"/>
<path d="M41.0145 67.2492C41.0145 67.2492 39.7329 75.375 39.1177 79.2127H40.0203C40.6062 79.2127 41.183 79.2218 41.7433 79.2255C42.948 76.0158 45.2807 69.7045 45.8648 67.4689C46.6612 64.4112 41.0145 67.2492 41.0145 67.2492Z" fill="white"/>
<path d="M41.0144 67.2493L40.6299 67.1962C40.6299 67.1962 40.3113 69.2267 39.914 71.7388C39.5166 74.2509 39.0424 77.2317 38.733 79.1578C38.7247 79.2119 38.7279 79.267 38.7425 79.3197C38.757 79.3724 38.7824 79.4214 38.8172 79.4636C38.8539 79.5058 38.8992 79.5398 38.95 79.5631C39.0008 79.5865 39.0561 79.5988 39.112 79.5991H40.0147C40.5987 79.5991 41.1718 79.5991 41.7339 79.6119C41.8134 79.6131 41.8913 79.5896 41.9569 79.5447C42.0225 79.4998 42.0725 79.4356 42.1001 79.3611C43.3086 76.1441 45.6375 69.8547 46.2363 67.5679C46.2925 67.3632 46.3226 67.1521 46.326 66.9399C46.3358 66.747 46.2982 66.5547 46.2165 66.3798C46.1348 66.2049 46.0114 66.0527 45.8572 65.9365C45.5579 65.7422 45.2048 65.6474 44.8484 65.6655C44.0226 65.6655 43.0467 65.9841 42.2466 66.2899C41.4465 66.5956 40.8441 66.9014 40.8368 66.9051C40.7817 66.9337 40.7342 66.9751 40.6982 67.0257C40.6622 67.0763 40.6388 67.1347 40.6299 67.1962L41.0125 67.2566L41.1865 67.6027C41.1865 67.6027 41.3275 67.5313 41.5691 67.4196C42.0751 67.1872 42.5927 66.9813 43.12 66.8025C43.6752 66.5949 44.2584 66.4715 44.8502 66.4363C45.0415 66.4211 45.2329 66.4638 45.3995 66.559C45.4856 66.6286 45.5387 66.6927 45.546 66.9362C45.5435 67.0824 45.522 67.2277 45.4819 67.3683C44.9106 69.5655 42.5743 75.8841 41.3714 79.0864L41.7376 79.2219V78.8356C41.1883 78.8356 40.6024 78.8228 40.0128 78.8228H39.1102V79.2091L39.491 79.2695C40.1099 75.4245 41.3879 67.3061 41.3879 67.3061L41.007 67.2456L41.181 67.5917L41.0144 67.2493Z" fill="#001E94"/>
<path d="M8.54405 65.0319L3.62793 63.6917L4.1937 64.8781C5.75184 66.2458 8.16687 68.4704 8.78574 69.6386C9.4046 70.8067 11.2356 72.9087 13.4968 74.2874C11.7061 70.7921 8.7363 65.4109 8.5532 65.0283" fill="white"/>
<path d="M8.6465 64.6603L3.72855 63.3182C3.65737 63.2984 3.58198 63.2996 3.51148 63.3217C3.44097 63.3438 3.37837 63.3858 3.33123 63.4427C3.28391 63.4995 3.25377 63.5686 3.24437 63.6419C3.23496 63.7152 3.24668 63.7897 3.27814 63.8565L3.84573 65.0448L3.93911 65.1693C4.71361 65.8486 5.70232 66.7421 6.56837 67.6082C7.43441 68.4742 8.18144 69.3201 8.44327 69.8236C9.11156 71.0705 10.9627 73.1907 13.2953 74.6207C13.3671 74.6663 13.452 74.6869 13.5367 74.6793C13.6214 74.6718 13.7013 74.6364 13.7639 74.5788C13.8265 74.5213 13.8683 74.4446 13.8829 74.3608C13.8975 74.277 13.884 74.1907 13.8446 74.1154C12.9474 72.3632 11.7555 70.1422 10.7649 68.3112C9.77437 66.4803 8.97241 65.0283 8.89002 64.8599L8.19792 65.2059C8.30594 65.4202 9.08959 66.8538 10.0801 68.6848C11.0707 70.5157 12.2681 72.7257 13.1525 74.4669L13.4967 74.2838L13.6981 73.9543C11.501 72.625 9.68465 70.5212 9.12072 69.4538C8.75453 68.7873 7.99285 67.9414 7.10667 67.0534C6.22048 66.1654 5.22444 65.2664 4.44079 64.5816L4.18629 64.8709L4.53417 64.7061L4.33094 64.2795L8.43594 65.3982L8.63918 64.653L8.6465 64.6603Z" fill="#001E94"/>
<path d="M64.3956 65.0318L59.9116 74.5198C61.9513 73.1484 63.828 70.7096 64.3956 69.6348C64.8223 68.8274 66.1021 67.5201 67.3655 66.3391L68.7057 63.6604L64.3956 65.0318Z" fill="white"/>
<path d="M64.3956 65.032L64.0477 64.8672L59.5619 74.3607C59.5255 74.437 59.5152 74.5233 59.5328 74.606C59.5503 74.6888 59.5947 74.7634 59.6589 74.8184C59.7233 74.8736 59.8038 74.9063 59.8884 74.9115C59.973 74.9168 60.057 74.8944 60.1277 74.8477C62.2497 73.4123 64.1228 70.9716 64.738 69.8236C65.053 69.3069 65.4266 68.8283 65.8512 68.3973C66.3731 67.8315 67.0029 67.2163 67.6309 66.6286L67.7133 66.5187L69.0499 63.8419C69.0863 63.7738 69.1016 63.6964 69.0936 63.6196C69.0856 63.5428 69.0548 63.4702 69.0051 63.411C68.9555 63.3519 68.8892 63.309 68.815 63.2879C68.7407 63.2668 68.6618 63.2684 68.5885 63.2926L64.2803 64.6566C64.2295 64.6725 64.1826 64.6988 64.1426 64.7337C64.1026 64.7687 64.0702 64.8117 64.0477 64.8599L64.3956 65.0247L64.5128 65.3908L67.9513 64.3014L67.0139 66.1727L67.3581 66.3466L67.0944 66.0628C66.4591 66.6579 65.8128 67.2859 65.2763 67.8736C64.8055 68.3524 64.3931 68.8852 64.0477 69.4611C63.5259 70.4626 61.6474 72.8978 59.6882 74.2051L59.9043 74.5273L60.254 74.6903L64.738 65.1986L64.3883 65.032L64.5055 65.3982L64.3956 65.032Z" fill="#001E94"/>
<path d="M17.6684 56.3935C17.5691 56.3938 17.4732 56.3573 17.3992 56.291C16.8463 55.7966 3.84649 43.9796 1.28315 38.126C-0.514854 34.0119 0.519637 29.8867 3.74029 28.3304C4.16324 28.1254 4.1431 26.9059 4.12479 25.8293C4.10282 24.4946 4.08085 23.1122 4.69422 22.2498C5.67378 20.8729 6.46475 20.6019 7.16052 20.3603C7.5569 20.2532 7.92337 20.0565 8.23163 19.7853C8.57585 19.4631 8.6381 18.6245 8.70584 17.7383C8.80289 16.4109 8.92556 14.7594 10.0296 13.5638C11.4303 12.0459 12.2011 11.9836 13.4755 11.8811C13.9259 11.8445 14.4367 11.8024 15.0849 11.698C17.282 11.3098 17.9064 9.57409 17.9302 9.50086C18.8274 7.16272 19.6147 5.63937 22.3465 5.63937C23.1507 5.6544 23.952 5.73955 24.7414 5.89387C25.0821 5.96114 25.4286 5.99427 25.7759 5.99274C26.8744 5.99274 28.3538 5.68331 29.2052 4.22404C30.7085 1.62957 32.1458 0.39917 36.2544 0.39917H36.7836C40.2825 0.39917 42.2618 1.46479 43.8602 4.21122C44.7116 5.67599 46.1929 5.97993 47.2878 5.97993C47.6288 5.98173 47.9692 5.94984 48.304 5.88472C49.1 5.72951 49.9081 5.64435 50.719 5.63021C53.4508 5.63021 54.2381 7.15357 55.1298 9.47522C55.1591 9.56494 55.7724 11.3062 57.9806 11.6889C58.6287 11.8024 59.1396 11.8445 59.59 11.8719C60.8716 11.9745 61.6351 12.0367 63.0358 13.5546C64.1344 14.7502 64.2626 16.4017 64.3596 17.7292C64.4255 18.6154 64.4896 19.4539 64.8338 19.7762C65.1421 20.0474 65.5086 20.2441 65.9049 20.3511C66.6025 20.591 67.3917 20.8638 68.3712 22.2407C68.9846 23.103 68.9626 24.4854 68.9407 25.8202C68.9224 26.8968 68.9022 28.1162 69.3252 28.3213C72.5458 29.8831 73.5785 33.9972 71.7805 38.1169C69.2281 43.965 56.8472 55.7801 56.3217 56.28C56.2474 56.3515 56.1484 56.3915 56.0452 56.3917L17.6684 56.3935Z" fill="white"/>
<path d="M36.7786 0.800128C40.2043 0.800128 42.0188 1.84927 43.5128 4.41627C44.4796 6.07695 46.1714 6.38272 47.2864 6.38272C47.6552 6.38508 48.0233 6.35011 48.385 6.27835C49.1539 6.12816 49.9344 6.04545 50.7177 6.03117C53.0796 6.03117 53.8138 7.16453 54.7458 9.61802C54.7458 9.61802 55.4159 11.6449 57.9023 12.0843C60.3888 12.5237 60.9637 11.9195 62.7342 13.8347C64.5048 15.7499 63.4977 19.0932 64.5505 20.0783C65.6033 21.0633 66.5646 20.406 68.0294 22.4805C69.1371 24.0405 67.8664 28.0741 69.1279 28.6911C72.3705 30.2639 72.9986 34.2847 71.391 37.9667C68.8405 43.8075 56.0219 55.9998 56.0219 55.9998H17.667C17.667 55.9998 4.1967 43.8075 1.64801 37.9667C0.0385949 34.2847 0.668445 30.2639 3.91107 28.6911C5.17992 28.0741 3.91107 24.0405 5.0188 22.4805C6.49455 20.406 7.45031 21.0633 8.49762 20.0783C9.54492 19.0932 8.52691 15.77 10.3158 13.8347C12.1046 11.8994 12.663 12.5201 15.1513 12.0843C17.6396 11.6485 18.3097 9.61802 18.3097 9.61802C19.249 7.16453 19.9814 6.02934 22.3378 6.03117C23.1186 6.04597 23.8967 6.12867 24.6631 6.27835C25.0248 6.35031 25.3929 6.38528 25.7617 6.38272C26.8768 6.38272 28.5704 6.07695 29.5353 4.41627C31.0422 1.84927 32.4081 0.800128 36.2531 0.800128H36.7822H36.7786ZM36.7822 0H36.2531C31.9778 0 30.4087 1.35125 28.8597 4.01346C28.1053 5.30978 26.7669 5.58076 25.7764 5.58076C25.4649 5.58346 25.1539 5.55525 24.8481 5.49653C24.0206 5.3351 23.1807 5.24627 22.3378 5.23104C19.357 5.23104 18.4745 6.93017 17.5554 9.33056C17.5224 9.42577 16.9658 10.9491 15.0067 11.2952C14.4865 11.3833 13.9622 11.4444 13.4357 11.4783C11.9893 11.5955 11.1672 11.7291 9.72802 13.2891C8.52874 14.5854 8.40057 16.3157 8.29804 17.7035C8.24494 18.4029 8.18086 19.2745 7.95016 19.4887C7.68359 19.723 7.36556 19.8911 7.02186 19.9794C6.30596 20.2248 5.41428 20.5287 4.36148 22.0136C3.67121 22.984 3.69502 24.4323 3.71699 25.833C3.72797 26.5525 3.74811 27.7573 3.53389 27.9807C0.139297 29.6285 -0.973924 33.9679 0.915623 38.2853C3.50643 44.2176 16.5758 56.0914 17.1306 56.5949C17.278 56.7287 17.4698 56.8031 17.6689 56.8036H56.0457C56.2505 56.8029 56.4471 56.7236 56.595 56.5821C57.1242 56.0804 69.56 44.2103 72.1472 38.2871C74.0331 33.9697 72.9198 29.6304 69.4996 27.9715C69.3074 27.7628 69.3275 26.558 69.3385 25.8385C69.3623 24.4378 69.3861 22.9895 68.6958 22.0191C67.643 20.5378 66.7513 20.2302 66.0336 19.9849C65.6906 19.8957 65.3729 19.7284 65.1053 19.496C64.8746 19.28 64.8105 18.4084 64.7574 17.709C64.6549 16.3211 64.5267 14.5964 63.3293 13.2946C61.8883 11.7346 61.0662 11.6009 59.6216 11.4838C59.0945 11.45 58.5695 11.3889 58.0488 11.3007C56.0549 10.9491 55.5184 9.38915 55.5129 9.37267C54.581 6.93017 53.6985 5.23104 50.7177 5.23104C49.8895 5.24649 49.0643 5.33409 48.2514 5.49287C47.9334 5.55431 47.6102 5.58436 47.2864 5.58259C46.2977 5.58259 44.9593 5.31161 44.2049 4.01529C42.5241 1.12604 40.4405 0 36.7786 0H36.7822Z" fill="#001E94"/>
<path d="M18.3101 56.3938L18.0501 56.295C17.5155 55.8116 4.92033 44.3937 2.44854 38.7306C0.710959 34.7538 1.71615 30.7696 4.82878 29.2609C5.23891 29.0613 5.22061 27.884 5.19497 26.844C5.17483 25.5514 5.15286 24.2166 5.74426 23.3817C6.69086 22.0506 7.45437 21.7869 8.1245 21.5507C8.50745 21.4508 8.86171 21.2627 9.15899 21.0014C9.49223 20.6883 9.55265 19.8791 9.61673 19.0222C9.71194 17.7405 9.83095 16.1421 10.8984 14.9941C12.2533 13.5293 12.9985 13.4652 14.2307 13.3664C14.6665 13.3316 15.1609 13.2894 15.7871 13.1833C17.9201 12.8171 18.5115 11.1308 18.5335 11.0593C19.4087 8.78896 20.1759 7.30954 22.8179 7.30954C23.595 7.32466 24.3693 7.40675 25.1323 7.55489C25.4621 7.61978 25.7977 7.65106 26.1338 7.64827C27.1921 7.64827 28.6257 7.35349 29.446 5.94182C30.8998 3.44256 32.2913 2.25244 36.2535 2.25244H36.7625C40.1424 2.25244 42.0613 3.28693 43.6084 5.94182C44.4305 7.35349 45.8624 7.64827 46.9206 7.64827C47.2506 7.65102 47.5799 7.62097 47.9039 7.55855C48.6727 7.40821 49.4532 7.3249 50.2365 7.30954C52.8786 7.30954 53.6403 8.77431 54.5008 11.0264C54.5301 11.1143 55.1233 12.7914 57.2564 13.1668C57.8826 13.2748 58.3769 13.3169 58.8127 13.3499C60.0449 13.4487 60.7901 13.5092 62.1432 14.9776C63.2107 16.1329 63.3297 17.724 63.4249 19.0057C63.489 19.8626 63.5494 20.6719 63.8808 20.985C64.1791 21.2457 64.5339 21.4337 64.9171 21.5342C65.5891 21.7668 66.3544 22.0304 67.2974 23.3652C67.8906 24.1983 67.8686 25.5349 67.8466 26.8275C67.8283 27.8675 67.81 29.0448 68.2128 29.2444C71.3255 30.7531 72.3215 34.7373 70.5931 38.7141C68.1231 44.3663 56.156 55.7878 55.6488 56.273C55.5762 56.3405 55.4806 56.3778 55.3815 56.3774L18.3101 56.3938Z" fill="white"/>
<path d="M36.7702 2.6401C40.0824 2.6401 41.8365 3.65445 43.283 6.13539C44.2149 7.73931 45.8463 8.03593 46.9284 8.03593C47.2873 8.0388 47.6456 8.00506 47.9977 7.93522C48.738 7.78845 49.4897 7.70636 50.2443 7.68987C52.5293 7.68987 53.2379 8.78845 54.1479 11.1595C54.1479 11.1595 54.7942 13.1187 57.1982 13.5398C59.6023 13.9609 60.1571 13.3805 61.8672 15.2334C63.5773 17.0863 62.6087 20.3143 63.6249 21.2756C64.6411 22.2368 65.5657 21.5923 66.9939 23.5991C68.065 25.1041 66.8382 29.0059 68.0631 29.6009C71.1977 31.1206 71.8056 35.0096 70.2603 38.5726C67.7921 44.2175 55.4021 56.0052 55.4021 56.0052H18.3105C18.3105 56.0052 5.26863 44.2175 2.80233 38.5726C1.24968 35.0151 1.85573 31.1261 4.99948 29.6009C6.22439 29.0059 4.99948 25.1041 6.06876 23.5991C7.49508 21.585 8.41971 22.2295 9.43772 21.2756C10.4557 20.3216 9.46702 17.112 11.1936 15.2334C12.9202 13.3549 13.4603 13.9701 15.8644 13.5489C18.2684 13.1278 18.9148 11.1687 18.9148 11.1687C19.8302 8.78845 20.5333 7.69903 22.8184 7.69903C23.5728 7.7137 24.3244 7.79396 25.0649 7.93888C25.417 8.00872 25.7753 8.04246 26.1342 8.03959C27.2126 8.03959 28.8477 7.74297 29.7815 6.13905C31.2261 3.66177 32.5389 2.6401 36.2539 2.6401H36.7629H36.7702ZM36.7629 1.86743H36.2539C32.1196 1.86743 30.6036 3.17473 29.1132 5.74723C28.3808 6.9996 27.0991 7.26326 26.1342 7.26326C25.8326 7.26484 25.5315 7.23725 25.2352 7.18087C24.4388 7.02386 23.63 6.93747 22.8184 6.9227C19.9346 6.9227 19.0814 8.57056 18.1915 10.8867C18.1604 10.9801 17.6239 12.4522 15.7307 12.7836C15.2276 12.8703 14.7204 12.9314 14.211 12.9667C12.814 13.0802 12.0139 13.2102 10.626 14.7171C9.46702 15.9731 9.34434 17.6466 9.24364 18.9869C9.1942 19.6643 9.13195 20.5029 8.90857 20.7135C8.65031 20.9377 8.34301 21.0983 8.01141 21.1822C7.3193 21.4221 6.45692 21.7205 5.44807 23.1523C4.7816 24.0898 4.80357 25.4904 4.82554 26.8435C4.83653 27.5393 4.85484 28.7019 4.64244 28.9198C1.35588 30.5091 0.279275 34.7038 2.10474 38.8784C4.60766 44.6111 17.2632 56.0894 17.8015 56.5764C17.9435 56.705 18.1282 56.7761 18.3197 56.776H55.3966C55.5952 56.7754 55.7863 56.6995 55.9312 56.5636C56.4402 56.0784 68.4623 44.602 70.9615 38.8802C72.7925 34.7038 71.7086 30.5091 68.3982 28.907C68.2151 28.7019 68.2316 27.5393 68.2426 26.8435C68.2645 25.4904 68.2865 24.0971 67.62 23.1523C66.6002 21.7205 65.7396 21.4221 65.0475 21.1822C64.7154 21.0982 64.4076 20.9377 64.1485 20.7135C63.927 20.5029 63.8647 19.6643 63.8153 18.9869C63.7146 17.6448 63.5901 15.9731 62.4329 14.7171C61.0396 13.2102 60.2449 13.0802 58.8479 12.9667C58.4213 12.9319 57.9324 12.8935 57.3282 12.7836C55.4387 12.4504 54.9004 10.9856 54.8784 10.916C53.9794 8.56507 53.128 6.9227 50.2443 6.9227C49.445 6.93675 48.6486 7.02069 47.864 7.17354C47.5566 7.23475 47.2437 7.26481 46.9302 7.26326C45.9745 7.26326 44.6818 6.9996 43.9531 5.74723C42.3235 2.95319 40.3095 1.86743 36.7702 1.86743H36.7629Z" fill="#001E94"/>
<path d="M20.5314 8.37646C19.8558 8.93857 19.409 9.85771 18.9147 11.1687C18.6165 11.9121 18.0894 12.5412 17.4096 12.9648C17.3873 13.2975 17.4163 13.6316 17.4957 13.9554C18.1951 16.7568 26.6065 34.5518 26.6065 34.5518L20.5314 8.37646Z" fill="#001E94"/>
<path d="M21.5361 7.85306L29.5923 36.3464C29.5923 36.3464 25.9304 12.5971 24.1489 7.79447C23.0302 7.64799 22.1934 7.66447 21.5361 7.85306Z" fill="#001E94"/>
<path d="M10.0703 18.3975L19.7744 35.9088L11.8903 14.5635C11.6439 14.7745 11.4109 15.0008 11.1927 15.2409C10.3797 16.1216 10.1674 17.2989 10.0703 18.3975Z" fill="#001E94"/>
<path d="M6.69351 22.845L17.9942 42.4325L4.89551 24.9451L6.69351 22.845Z" fill="#001E94"/>
<path d="M2.17383 32.5909C5.83574 36.8223 21.8218 54.5624 21.8218 54.5624C21.8218 54.5624 6.35207 32.9663 3.90042 30.3096C2.78903 31.2489 2.32397 31.0859 2.17383 32.5909Z" fill="#001E94"/>
<path d="M22.9169 56.3937C22.8573 56.3942 22.7984 56.3807 22.745 56.3543C22.6916 56.3279 22.6451 56.2894 22.6093 56.2417L3.31834 30.7951C3.26163 30.7198 3.23425 30.6264 3.24133 30.5324C3.24841 30.4384 3.28945 30.3502 3.35679 30.2842C3.78649 29.8642 4.28108 29.5161 4.82156 29.2534C5.20423 29.0703 5.15479 28.3105 5.0962 27.4334C5.04127 26.6022 4.97719 25.6592 5.26465 24.8207C5.28792 24.7516 5.33044 24.6906 5.3872 24.6449C5.44397 24.5991 5.51261 24.5705 5.58507 24.5625H5.63084C5.69625 24.5628 5.76051 24.5797 5.81754 24.6118C5.87457 24.6438 5.92249 24.6899 5.95675 24.7456C7.63391 27.4005 10.2101 31.3517 14.0624 37.1778C15.7469 39.6972 17.4442 42.2642 19.0426 44.6756C22.3145 49.6027 25.1397 53.8578 26.3664 55.795C26.4032 55.8533 26.4237 55.9205 26.4256 55.9894C26.4275 56.0583 26.4109 56.1265 26.3774 56.1868C26.3446 56.2475 26.2959 56.2981 26.2366 56.3332C26.1772 56.3684 26.1095 56.3867 26.0405 56.3864L22.9169 56.3937Z" fill="white"/>
<path d="M5.63889 24.9451C7.61083 28.0687 10.6209 32.6498 13.7482 37.3846C18.8199 45.0563 24.2139 53.1217 26.0467 56H22.9176L3.62849 30.5607C4.03076 30.1688 4.4939 29.8448 4.99988 29.6012C6.09846 29.0666 5.04566 26.6827 5.63889 24.9451ZM5.63889 24.1724H5.54917C5.40437 24.1895 5.2673 24.2469 5.15364 24.3383C5.03998 24.4296 4.95433 24.551 4.9065 24.6888C4.59524 25.6043 4.65932 26.5856 4.72341 27.4535C4.7527 27.9076 4.80946 28.7498 4.67214 28.8963C4.089 29.1777 3.55537 29.5518 3.09202 30.004C2.95788 30.1356 2.87626 30.3115 2.86244 30.4989C2.84863 30.6863 2.90356 30.8723 3.01695 31.0221L22.3079 56.4723C22.3798 56.5674 22.4728 56.6445 22.5796 56.6976C22.6863 56.7506 22.8039 56.7782 22.9231 56.7781H26.0522C26.1908 56.7782 26.3269 56.741 26.4461 56.6705C26.5654 56.5999 26.6635 56.4986 26.7301 56.3771C26.7968 56.2556 26.8295 56.1184 26.8249 55.9799C26.8203 55.8414 26.7786 55.7066 26.704 55.5898C25.4718 53.6508 22.6448 49.3939 19.3802 44.4649C17.78 42.0536 16.0845 39.4866 14.4055 36.958C10.5605 31.1356 7.98068 27.1862 6.30535 24.5331C6.23518 24.42 6.13691 24.327 6.02011 24.2632C5.90332 24.1993 5.77198 24.1668 5.63889 24.1688V24.1724Z" fill="#001E94"/>
<path d="M27.7068 56.3938C27.638 56.3942 27.5704 56.3763 27.5108 56.3419C27.4513 56.3074 27.402 56.2577 27.3681 56.1978L8.20713 21.9992C8.18058 21.9503 8.16487 21.8962 8.16106 21.8407C8.15726 21.7851 8.16545 21.7294 8.18507 21.6773C8.2047 21.6252 8.2353 21.5779 8.2748 21.5387C8.31431 21.4995 8.36179 21.4692 8.41403 21.4499L8.59712 21.384C8.83881 21.3016 8.83881 21.3016 9.16289 20.9977C9.48697 20.6937 9.55838 19.8753 9.62063 19.0166C9.67922 18.2549 9.74147 17.3907 10.0015 16.5777C10.0254 16.5043 10.0705 16.4396 10.1311 16.3917C10.1917 16.3438 10.2651 16.3149 10.342 16.3086H10.3713C10.4435 16.3083 10.5143 16.3284 10.5755 16.3667C10.6368 16.4049 10.6859 16.4597 10.7174 16.5246L29.9424 55.8353C29.9697 55.894 29.9818 55.9586 29.9777 56.0232C29.9735 56.0878 29.9532 56.1503 29.9185 56.205C29.8839 56.2597 29.8361 56.3048 29.7795 56.3362C29.7229 56.3675 29.6593 56.3842 29.5945 56.3846L27.7068 56.3938Z" fill="white"/>
<path d="M10.3807 16.6908L29.6058 55.9996H27.7071L8.54426 21.8101C9.01665 21.6417 8.98186 21.7021 9.43777 21.2755C10.2214 20.5431 9.81494 18.4613 10.3807 16.6981V16.6908ZM10.3807 15.9236H10.3239C10.17 15.9345 10.0229 15.9912 9.90146 16.0865C9.78007 16.1818 9.68999 16.3113 9.64283 16.4582C9.4111 17.2824 9.27773 18.1312 9.24552 18.9868C9.19425 19.6642 9.132 20.5046 8.90862 20.7152C8.64496 20.9605 8.64496 20.9605 8.48201 21.0173L8.28243 21.0851C8.17701 21.1235 8.08118 21.1843 8.00152 21.2633C7.92187 21.3423 7.86029 21.4377 7.82103 21.5428C7.78132 21.6479 7.76516 21.7604 7.77371 21.8724C7.78225 21.9844 7.81528 22.0931 7.87047 22.1909L27.0314 56.3786C27.0983 56.499 27.1963 56.5992 27.3152 56.6687C27.434 56.7383 27.5693 56.7747 27.7071 56.7741H29.5984C29.7297 56.7734 29.8588 56.7395 29.9734 56.6755C30.088 56.6114 30.1845 56.5194 30.2539 56.4079C30.3237 56.2967 30.3639 56.1695 30.3706 56.0384C30.3773 55.9074 30.3504 55.7767 30.2924 55.659L11.0746 16.3502C11.0112 16.2201 10.9125 16.1105 10.7898 16.0338C10.6672 15.9571 10.5254 15.9164 10.3807 15.9163V15.9236Z" fill="#001E94"/>
<path d="M31.2792 56.3934C31.2013 56.3953 31.1246 56.3736 31.0592 56.3311C30.9939 56.2886 30.9429 56.2273 30.913 56.1554L13.5629 13.9152C13.54 13.8592 13.5306 13.7986 13.5354 13.7383C13.5401 13.678 13.5589 13.6196 13.5902 13.5679C13.6215 13.5161 13.6645 13.4724 13.7157 13.4402C13.7669 13.408 13.8249 13.3882 13.8851 13.3824L14.2513 13.3531C14.6871 13.3183 15.1796 13.2762 15.8076 13.17C17.959 12.791 18.554 11.0644 18.554 11.0479L18.7371 10.5883C18.766 10.5152 18.8165 10.4526 18.882 10.4091C18.9475 10.3655 19.0247 10.3431 19.1033 10.3448H19.118C19.1952 10.3515 19.2686 10.3813 19.3287 10.4303C19.3888 10.4792 19.4328 10.5452 19.4549 10.6195L33.7473 55.8917C33.7661 55.9494 33.7708 56.0108 33.7609 56.0707C33.751 56.1306 33.7269 56.1873 33.6906 56.2359C33.6546 56.2846 33.6077 56.3242 33.5536 56.3516C33.4996 56.3789 33.4399 56.3932 33.3793 56.3934H31.2792Z" fill="white"/>
<path d="M19.0865 10.7279L33.3789 56.0001H31.2788L13.9159 13.7673C14.4267 13.7196 15.0328 13.6922 15.8585 13.5475C18.2626 13.1246 18.9089 11.1673 18.9089 11.1673C18.9675 11.0153 19.0242 10.8707 19.081 10.7297L19.0865 10.7279ZM19.081 9.95703C18.928 9.95708 18.7786 10.0028 18.6517 10.0882C18.5248 10.1737 18.4263 10.295 18.3688 10.4367L18.1857 10.8817C18.16 10.986 17.6236 12.4508 15.7303 12.784C15.2278 12.8706 14.7212 12.9317 14.2125 12.9671L13.8463 12.9982C13.7258 13.0092 13.6095 13.0483 13.5069 13.1124C13.4042 13.1765 13.3181 13.2639 13.2554 13.3674C13.1927 13.4709 13.1552 13.5877 13.1458 13.7083C13.1365 13.829 13.1557 13.9501 13.2018 14.062L30.5593 56.2967C30.6177 56.4386 30.7169 56.5599 30.8443 56.6453C30.9718 56.7307 31.1217 56.7764 31.2752 56.7764H33.3789C33.5002 56.7758 33.6195 56.7467 33.7274 56.6914C33.8353 56.6361 33.9286 56.5563 33.9999 56.4582C34.0712 56.3602 34.1185 56.2468 34.1378 56.1271C34.1572 56.0074 34.1481 55.8849 34.1113 55.7694L19.8225 10.4953C19.7768 10.3415 19.6841 10.2058 19.5573 10.1073C19.4306 10.0088 19.2762 9.95239 19.1158 9.94604L19.081 9.95703Z" fill="#001E94"/>
<path d="M34.4667 56.3934C34.3795 56.3933 34.2948 56.3638 34.2264 56.3096C34.1579 56.2555 34.1097 56.1798 34.0896 56.0949L22.9061 7.79795C22.8929 7.74125 22.8926 7.68231 22.9053 7.62549C22.918 7.56868 22.9433 7.51544 22.9793 7.46972C23.0154 7.42401 23.0613 7.38699 23.1135 7.3614C23.1658 7.33581 23.2232 7.32231 23.2814 7.3219H23.3052C23.9194 7.36346 24.5307 7.43987 25.1362 7.55077C25.4657 7.61792 25.8014 7.64984 26.1377 7.64598C27.196 7.64598 28.6297 7.3512 29.4499 5.93953C29.5799 5.71615 29.7081 5.50559 29.8381 5.30419C29.8727 5.24919 29.9204 5.20366 29.977 5.1717C30.0336 5.13974 30.0972 5.12235 30.1622 5.12109L30.2501 5.13025C30.3274 5.14868 30.3972 5.19029 30.4502 5.24952C30.5032 5.30875 30.5369 5.38277 30.5467 5.46165L36.717 55.9448C36.7241 55.999 36.7194 56.0542 36.7034 56.1065C36.6873 56.1588 36.6603 56.207 36.624 56.248C36.5877 56.2889 36.5431 56.3216 36.4932 56.3438C36.4432 56.3661 36.389 56.3774 36.3343 56.3769L34.4667 56.3934Z" fill="white"/>
<path d="M30.1592 5.51839L36.3313 55.9997H34.4674L23.2821 7.71005C23.8804 7.75063 24.4759 7.82582 25.0655 7.93525C25.4175 8.00509 25.7758 8.03883 26.1348 8.03596C27.2132 8.03596 28.8482 7.73934 29.782 6.13542C29.9084 5.91754 30.0347 5.71247 30.1592 5.51839ZM30.1592 4.7439C30.0303 4.74404 29.9034 4.77645 29.7902 4.83817C29.677 4.89989 29.581 4.98896 29.511 5.09727C29.3774 5.30234 29.2455 5.51839 29.1119 5.74726C28.3795 6.99964 27.0978 7.26329 26.1348 7.26329C25.8331 7.26488 25.5321 7.23728 25.2358 7.1809C24.605 7.06309 23.968 6.98178 23.3279 6.93738H23.2821C23.1652 6.93597 23.0494 6.96118 22.9437 7.01112C22.8379 7.06107 22.7449 7.13442 22.6717 7.22563C22.5984 7.31684 22.5469 7.42352 22.5211 7.53759C22.4952 7.65165 22.4956 7.77011 22.5223 7.88399L33.7058 56.1755C33.7454 56.3458 33.8416 56.4976 33.9786 56.6063C34.1155 56.7151 34.2852 56.7742 34.4601 56.7742H36.324C36.4336 56.7743 36.5419 56.751 36.6417 56.706C36.7416 56.6611 36.8308 56.5953 36.9033 56.5133C36.9759 56.4312 37.0301 56.3346 37.0625 56.23C37.0949 56.1254 37.1047 56.015 37.0912 55.9063L30.9282 5.42318C30.9083 5.26564 30.8406 5.11799 30.7342 5.00013C30.6278 4.88226 30.4878 4.79986 30.3331 4.76404L30.1592 4.7439Z" fill="#001E94"/>
<path d="M28.0625 7.77222L34.6723 42.4322L30.1589 5.51831C30.0344 5.71239 29.9081 5.91746 29.7818 6.13534C29.1135 7.298 28.9963 7.59828 28.0625 7.77222Z" fill="#001E94"/>
<path d="M40.0184 56.3935C39.9654 56.3939 39.9129 56.3832 39.8644 56.3621C39.8158 56.341 39.7722 56.3099 39.7364 56.2709C39.6994 56.2329 39.6711 56.1874 39.6534 56.1375C39.6357 56.0875 39.629 56.0343 39.6339 55.9816L43.0028 6.28025C43.0081 6.19961 43.0387 6.12269 43.0903 6.06053C43.142 5.99836 43.212 5.95414 43.2903 5.9342L43.3892 5.92139C43.4531 5.9213 43.5161 5.93716 43.5723 5.96753C43.6286 5.9979 43.6764 6.04183 43.7114 6.09533C44.55 7.377 45.925 7.64798 46.9321 7.64798C47.2608 7.6509 47.5889 7.62084 47.9116 7.55826C48.5625 7.43716 49.2206 7.35887 49.8817 7.3239H49.8982C49.9543 7.32343 50.0097 7.33521 50.0607 7.35842C50.1117 7.38162 50.157 7.4157 50.1935 7.45826C50.2299 7.50081 50.2566 7.55082 50.2717 7.60479C50.2868 7.65875 50.29 7.71536 50.2809 7.77065L42.5542 56.0676C42.5391 56.1582 42.4923 56.2404 42.4223 56.2998C42.3522 56.3591 42.2634 56.3917 42.1716 56.3917L40.0184 56.3935Z" fill="white"/>
<path d="M43.3948 6.30745C44.3432 7.76123 45.8995 8.03405 46.9377 8.03405C47.2953 8.03691 47.6523 8.00379 48.0033 7.93517C48.6311 7.81674 49.266 7.73967 49.9039 7.70447L42.1772 55.9996H40.0185L43.3948 6.30745ZM43.3948 5.53296L43.1989 5.55859C43.0419 5.59935 42.9017 5.68848 42.7982 5.81336C42.6947 5.93824 42.6331 6.09252 42.6221 6.25436L39.2532 55.9484C39.2462 56.054 39.2609 56.1599 39.2964 56.2596C39.332 56.3594 39.3876 56.4507 39.4598 56.5281C39.532 56.6055 39.6194 56.6673 39.7164 56.7096C39.8135 56.7519 39.9181 56.7738 40.024 56.7741H42.1772C42.3611 56.7738 42.539 56.7081 42.6789 56.5887C42.8188 56.4692 42.9116 56.3039 42.9407 56.1223L50.6674 7.82715C50.6851 7.71667 50.6787 7.60365 50.6485 7.4959C50.6183 7.38816 50.565 7.28826 50.4924 7.20312C50.4198 7.11797 50.3296 7.04962 50.228 7.00277C50.1263 6.95593 50.0157 6.93172 49.9039 6.93181H49.8709C49.1987 6.96896 48.5296 7.04969 47.8678 7.1735C47.5615 7.23356 47.2499 7.263 46.9377 7.26138C46.0222 7.26138 44.7845 7.02336 44.0411 5.8845C43.9713 5.77656 43.8756 5.68783 43.7627 5.62642C43.6498 5.56501 43.5233 5.53288 43.3948 5.53296Z" fill="#001E94"/>
<path d="M44.2533 56.3933C44.1959 56.3935 44.1392 56.381 44.0873 56.3566C44.0353 56.3323 43.9895 56.2966 43.953 56.2523C43.9164 56.2081 43.8902 56.1561 43.8766 56.1002C43.8629 56.0444 43.8621 55.9862 43.8743 55.93C45.9341 46.0978 50.9858 21.9658 53.4044 10.2001C53.4192 10.1181 53.4602 10.0432 53.5213 9.98674C53.5825 9.93024 53.6603 9.89521 53.7432 9.88696H53.7835C53.8586 9.88716 53.932 9.90927 53.9948 9.95057C54.0576 9.99187 54.1069 10.0506 54.1368 10.1195C54.2595 10.3996 54.3822 10.7017 54.503 11.035C54.5341 11.1229 55.1274 12.8 57.2604 13.1754C57.8866 13.2834 58.381 13.3255 58.8168 13.3585C59.2934 13.3759 59.7661 13.4509 60.2248 13.5818C60.3201 13.6126 60.3997 13.6794 60.4465 13.768C60.4934 13.8565 60.5038 13.9599 60.4756 14.0561L48.1551 56.1095C48.1316 56.1886 48.0834 56.2582 48.0175 56.308C47.9516 56.3577 47.8715 56.385 47.7889 56.3859L44.2533 56.3933Z" fill="white"/>
<path d="M53.7828 10.2717C53.9018 10.5463 54.0227 10.8429 54.149 11.1652C54.149 11.1652 54.7953 13.1243 57.1994 13.5454C58.5982 13.7908 59.3709 13.6974 60.1088 13.9409L47.7883 55.9998H44.2527C45.6827 49.1704 51.2103 22.7716 53.7828 10.2717ZM53.7828 9.49902H53.7023C53.5387 9.51659 53.385 9.58563 53.2632 9.6962C53.1415 9.80676 53.058 9.95314 53.0248 10.1142C50.6098 21.869 45.5563 46.001 43.4947 55.8405C43.4713 55.9532 43.4733 56.0696 43.5005 56.1814C43.5278 56.2932 43.5796 56.3975 43.6522 56.4867C43.7248 56.576 43.8163 56.6479 43.9202 56.6973C44.0241 56.7468 44.1377 56.7725 44.2527 56.7725H47.7883C47.9548 56.773 48.117 56.7198 48.2509 56.6209C48.3848 56.522 48.4832 56.3825 48.5316 56.2232L60.8503 14.1661C60.9069 13.9731 60.8862 13.7656 60.7926 13.5876C60.699 13.4095 60.5397 13.2749 60.3486 13.2122C59.8602 13.0721 59.3568 12.991 58.8491 12.9705C58.3403 12.9352 57.8337 12.8741 57.3312 12.7874C55.405 12.4505 54.8851 10.9382 54.8796 10.9217C54.7404 10.5555 54.6159 10.2461 54.4914 9.96226C54.4312 9.82447 54.3321 9.70724 54.2062 9.62496C54.0803 9.54268 53.9332 9.49891 53.7828 9.49902Z" fill="#001E94"/>
<path d="M49.8712 56.3937C49.8101 56.394 49.7498 56.3798 49.6953 56.3521C49.6408 56.3243 49.5938 56.284 49.5581 56.2344C49.5222 56.1841 49.4988 56.1259 49.4899 56.0648C49.481 56.0037 49.4868 55.9413 49.5068 55.8828L62.5634 17.7037C62.5899 17.6276 62.6393 17.5615 62.7049 17.5146C62.7705 17.4678 62.849 17.4423 62.9296 17.4419H62.9662C63.0528 17.4501 63.134 17.4873 63.1968 17.5475C63.2596 17.6076 63.3003 17.6872 63.3123 17.7733C63.3709 18.1944 63.4038 18.6137 63.4331 19.0129C63.4954 19.8697 63.5558 20.679 63.889 20.9921C64.1878 21.2522 64.5424 21.4402 64.9254 21.5414C65.5642 21.7254 66.1457 22.0687 66.6153 22.5393C66.6713 22.5944 66.709 22.6654 66.7234 22.7427C66.7378 22.8199 66.7282 22.8998 66.6959 22.9714L51.7992 56.1593C51.77 56.2277 51.7216 56.2862 51.6598 56.3278C51.5981 56.3694 51.5257 56.3923 51.4513 56.3937H49.8712Z" fill="white"/>
<path d="M62.9289 17.828C63.1285 19.2726 63.004 20.6934 63.6247 21.2757C64.4797 22.0758 65.2726 21.7554 66.3437 22.821L51.4507 55.9998H49.876L62.9289 17.828ZM62.9289 17.0553C62.7674 17.0548 62.6098 17.1051 62.4783 17.1991C62.3469 17.293 62.2484 17.4259 62.1965 17.579L49.14 55.7508C49.1 55.8672 49.0885 55.9916 49.1063 56.1134C49.1241 56.2353 49.1708 56.3511 49.2424 56.4512C49.3141 56.5514 49.4087 56.6329 49.5182 56.6891C49.6278 56.7453 49.7492 56.7745 49.8724 56.7743H51.4507C51.5997 56.7747 51.7457 56.7319 51.8708 56.651C51.996 56.57 52.0949 56.4545 52.1556 56.3184L67.0541 23.1377C67.1184 22.9941 67.1374 22.8343 67.1086 22.6796C67.0798 22.5249 67.0046 22.3826 66.893 22.2717C66.3838 21.7586 65.7544 21.381 65.062 21.1731C64.7301 21.0874 64.4225 20.9264 64.163 20.7026C63.9414 20.492 63.8792 19.6516 63.8279 18.9741C63.7968 18.5695 63.7675 18.1502 63.7071 17.7144C63.6832 17.542 63.6019 17.3826 63.4764 17.262C63.3508 17.1414 63.1883 17.0667 63.015 17.0498L62.9289 17.0553Z" fill="#001E94"/>
<path d="M53.399 56.3934C53.3341 56.3933 53.2703 56.3769 53.2134 56.3456C53.1565 56.3144 53.1085 56.2693 53.0736 56.2146C53.0388 56.1598 53.0183 56.0972 53.014 56.0325C53.0098 55.9677 53.0219 55.9029 53.0492 55.8441L67.1256 26.5708C67.1574 26.5054 67.2068 26.4501 67.2682 26.4113C67.3297 26.3725 67.4008 26.3516 67.4735 26.3511L67.5632 26.3621C67.6489 26.3825 67.725 26.4316 67.7789 26.5012C67.8329 26.5708 67.8614 26.6567 67.8598 26.7447C67.8415 27.8836 67.8232 29.0646 68.226 29.2641C69.2756 29.7627 70.1375 30.5848 70.685 31.6096C70.718 31.6706 70.7339 31.7394 70.731 31.8087C70.7281 31.878 70.7065 31.9452 70.6685 32.0032L54.9022 56.2103C54.8673 56.2639 54.8195 56.3079 54.7632 56.3383C54.7069 56.3687 54.6439 56.3845 54.5799 56.3843L53.399 56.3934Z" fill="white"/>
<path d="M67.4736 26.732C67.4535 28.0521 67.415 29.2954 68.0632 29.6048C69.0399 30.0687 69.8421 30.8337 70.3519 31.7873L54.58 55.9999H53.399L67.4736 26.732ZM67.4736 25.9575C67.3283 25.9578 67.1859 25.999 67.0629 26.0764C66.9398 26.1538 66.8411 26.2642 66.7778 26.3951L52.7014 55.6611C52.6447 55.779 52.6188 55.9094 52.6262 56.04C52.6337 56.1706 52.6741 56.2972 52.7438 56.4079C52.8136 56.5186 52.9103 56.6098 53.0249 56.673C53.1394 56.7361 53.2682 56.7691 53.399 56.7689H54.58C54.7085 56.7688 54.8349 56.7366 54.9478 56.6752C55.0607 56.6138 55.1564 56.5251 55.2263 56.4173L71 32.1992C71.0764 32.083 71.1198 31.9482 71.1256 31.8092C71.1314 31.6703 71.0994 31.5323 71.033 31.4101C70.4476 30.313 69.5252 29.4331 68.4019 28.8999C68.2188 28.6948 68.2353 27.5285 68.2463 26.8327V26.7357C68.2496 26.559 68.1921 26.3866 68.0834 26.2473C67.9747 26.1079 67.8215 26.0102 67.6494 25.9703L67.4736 25.9575Z" fill="#001E94"/>
<path d="M43.0946 24.2526C43.3345 22.3392 44.3763 11.7709 44.7901 7.56341C44.221 7.27705 43.7392 6.8433 43.3949 6.30737L41.0146 41.3629C41.0146 41.3629 42.7962 26.6511 43.0946 24.2526Z" fill="#001E94"/>
<path d="M49.204 7.7597L44.958 40.4734L51.9706 8.02153C51.3078 7.7066 50.4381 7.62604 49.204 7.7597Z" fill="#001E94"/>
<path d="M41.0142 10.2717C41.0142 10.2717 40.9831 10.821 40.9117 11.6559C40.8403 12.4908 40.7286 13.5858 40.6169 14.6898C40.4759 15.7884 40.3349 16.887 40.2287 17.7146C40.1226 18.5422 40.02 19.086 40.02 19.086C40.02 19.086 40.0511 18.5367 40.1226 17.7018C40.194 16.8668 40.3056 15.7701 40.4173 14.6679C40.5583 13.5693 40.6993 12.4707 40.8055 11.6431C40.9117 10.8155 41.0142 10.2717 41.0142 10.2717Z" fill="#001E94"/>
<path d="M39.3282 16.1526C39.3282 16.1526 39.3282 16.8154 39.2989 17.8004C39.2696 18.7855 39.211 20.1148 39.1616 21.4367C39.0774 22.7587 38.995 24.0788 38.9327 25.0712C38.8705 26.0636 38.7954 26.719 38.7954 26.719C38.7954 26.719 38.7954 26.0562 38.8247 25.0712C38.854 24.0861 38.9108 22.755 38.962 21.4331C39.0462 20.1129 39.1286 18.791 39.1909 17.8004C39.2531 16.8099 39.3282 16.1526 39.3282 16.1526Z" fill="#001E94"/>
<path d="M44.8596 10.2607L44.1528 17.8189L44.3524 17.8391L45.0592 10.2791" fill="#001E94"/>
<path d="M53.3989 16.1526C53.3989 16.1526 53.3403 16.6378 53.2286 17.3629C53.1169 18.0879 52.9448 19.0492 52.7836 20.0122C52.5877 20.9698 52.3937 21.9256 52.2472 22.6452C52.1007 23.3647 51.9707 23.8353 51.9707 23.8353C51.9707 23.8353 52.0293 23.3501 52.141 22.625C52.2527 21.9 52.4248 20.9405 52.5859 19.9756C52.7818 19.018 52.9759 18.0604 53.1224 17.3427C53.2689 16.625 53.3989 16.1526 53.3989 16.1526Z" fill="#001E94"/>
<path d="M55.8621 22.845C55.8621 22.845 55.7302 23.5078 55.5306 24.4928C55.3311 25.4779 55.0198 26.8017 54.7269 28.12C54.4028 29.4328 54.0787 30.7437 53.837 31.7269C53.5953 32.7102 53.3994 33.3583 53.3994 33.3583C53.3994 33.3583 53.5312 32.6955 53.7308 31.7105C53.9304 30.7254 54.2417 29.4016 54.5346 28.0815C54.8587 26.7705 55.1809 25.4596 55.4263 24.4764L55.8621 22.845Z" fill="#001E94"/>
<path d="M16.3926 16.1526C16.3926 16.1526 16.7588 17.0681 17.319 18.4157C17.8793 19.7632 18.5732 21.5997 19.291 23.4197L21.1769 28.4584L22.0045 30.76L21.078 28.4969C20.5287 27.131 19.822 25.311 19.1061 23.4911C18.4194 21.6601 17.7328 19.8291 17.2202 18.4541L16.3926 16.1526Z" fill="#001E94"/>
<path d="M23.6494 29.3208C23.6494 29.3208 23.8636 29.8445 24.1621 30.6409C24.4605 31.4374 24.8377 32.5048 25.2222 33.5705C25.5774 34.6471 25.9308 35.7237 26.1963 36.5293C26.4618 37.3349 26.6064 37.886 26.6064 37.886C26.6064 37.886 26.3922 37.3605 26.0937 36.5659C25.7953 35.7713 25.4199 34.702 25.0336 33.6364C24.6802 32.5598 24.325 31.4832 24.0614 30.6757C23.7977 29.8683 23.6494 29.3208 23.6494 29.3208Z" fill="#001E94"/>
<path d="M25.1284 37.8862C25.1284 37.8862 25.2822 38.2341 25.4946 38.7651L26.227 40.7205C26.4614 41.4419 26.6939 42.1652 26.8715 42.7071C27.0491 43.2491 27.1333 43.6226 27.1333 43.6226C27.1333 43.6226 26.9777 43.2747 26.7671 42.7437C26.5566 42.2128 26.3021 41.4987 26.0347 40.7883C25.8004 40.0669 25.566 39.3437 25.3921 38.8017C25.2181 38.2597 25.1284 37.8862 25.1284 37.8862Z" fill="#001E94"/>
<path d="M4.89551 31.5017C4.89551 31.5017 5.24156 31.8825 5.74507 32.4666L7.55955 34.6326L9.30079 36.8554C9.76952 37.467 10.068 37.8863 10.068 37.8863C10.068 37.8863 9.72008 37.5072 9.2184 36.9232L7.40392 34.7571L5.66085 32.5344C5.19395 31.921 4.89551 31.5017 4.89551 31.5017Z" fill="#001E94"/>
<path d="M11.4443 35.9087C11.4443 35.9087 11.7794 36.3738 12.2628 37.086L14.0022 39.7098C14.6082 40.6838 15.2124 41.6561 15.6647 42.3866C16.1169 43.1172 16.3971 43.6207 16.3971 43.6207C16.3971 43.6207 16.0602 43.1556 15.5786 42.4434C15.0971 41.7311 14.4801 40.7736 13.8392 39.8178C13.1984 38.862 12.6345 37.8715 12.1731 37.1428C11.7117 36.414 11.4443 35.9087 11.4443 35.9087Z" fill="#001E94"/>
<path d="M8.54395 44.8198C8.54395 44.8198 8.9669 45.2483 9.5821 45.9184L11.8085 48.3627L13.9654 50.8675C14.5458 51.5578 14.9212 52.0283 14.9212 52.0283C14.9212 52.0283 14.5 51.5999 13.8848 50.9389L11.6584 48.4854L9.50154 45.9807C8.91929 45.2904 8.54395 44.8198 8.54395 44.8198Z" fill="#001E94"/>
<path d="M25.1291 50.1535C25.1291 50.1535 24.7629 49.6206 24.2466 48.8095C23.7303 47.9984 23.051 46.8998 22.3662 45.8104C21.7125 44.7119 21.0571 43.5968 20.5664 42.7656C20.0757 41.9343 19.7754 41.363 19.7754 41.363C19.7754 41.363 20.1416 41.8958 20.6579 42.7088L22.5383 45.7079C23.192 46.8156 23.8456 47.9215 24.3381 48.7528C24.8307 49.584 25.1291 50.1535 25.1291 50.1535Z" fill="#001E94"/>
<path d="M33.3791 50.1535C33.3791 50.1535 33.2362 49.5108 33.0477 48.5404L32.3885 44.9756C32.1816 43.6756 31.9765 42.3738 31.8209 41.396C31.6653 40.4183 31.5957 39.7646 31.5957 39.7646C31.5957 39.7646 31.7385 40.4091 31.9271 41.3796C32.1157 42.35 32.3464 43.6481 32.5863 44.9426C32.7913 46.2444 32.9982 47.5462 33.1538 48.5221C33.3095 49.498 33.3791 50.1535 33.3791 50.1535Z" fill="#001E94"/>
<path d="M26.0459 8.95142C26.0459 8.95142 26.1979 9.5007 26.4011 10.3283C26.6043 11.1559 26.857 12.2673 27.117 13.3659C27.344 14.4791 27.5729 15.5923 27.7414 16.4254C27.9098 17.2585 27.994 17.8242 27.994 17.8242C27.994 17.8242 27.8421 17.2749 27.637 16.4492C27.4319 15.6234 27.1829 14.5175 26.9156 13.4116C26.6904 12.2984 26.4615 11.1852 26.2912 10.3521C26.121 9.51901 26.0459 8.95142 26.0459 8.95142Z" fill="#001E94"/>
<path d="M35.4609 32.6404C35.4609 32.6404 35.5598 33.2483 35.6825 34.1637C35.8052 35.0792 35.9443 36.3041 36.0963 37.5254C36.2135 38.7521 36.3288 39.977 36.4167 40.898C36.5046 41.819 36.5302 42.4324 36.5302 42.4324C36.5302 42.4324 36.4332 41.8245 36.3105 40.909C36.1878 39.9935 36.0468 38.7704 35.8967 37.5474C35.7795 36.3206 35.6642 35.0957 35.5763 34.1766C35.4884 33.2574 35.4609 32.6404 35.4609 32.6404Z" fill="#001E94"/>
<path d="M44.2536 37.5344C44.2536 37.5344 44.1987 38.1185 44.0943 38.9992C43.9899 39.8799 43.8288 41.0334 43.6768 42.196C43.4937 43.3532 43.3106 44.5122 43.166 45.3801C43.0214 46.2479 42.9023 46.8229 42.9023 46.8229C42.9023 46.8229 42.9554 46.2388 43.0598 45.3581C43.1642 44.4774 43.3253 43.3221 43.4791 42.1612L43.9881 38.9754C44.1364 38.113 44.2536 37.5344 44.2536 37.5344Z" fill="#001E94"/>
<path d="M49.8986 33.1401C49.8986 33.1401 49.7759 33.8835 49.591 34.9967C49.406 36.11 49.1167 37.5894 48.8439 39.0688C48.54 40.5464 48.2361 42.0185 48.0072 43.1262L47.5952 44.9571C47.5952 44.9571 47.7179 44.2138 47.9028 43.0987C48.0877 41.9837 48.377 40.5079 48.6498 39.0267C48.9538 37.5619 49.2577 36.077 49.4866 34.9711L49.8986 33.1401Z" fill="#001E94"/>
<path d="M62.3965 22.0229C62.3965 22.0229 62.2848 22.7242 62.0432 23.7532C61.8015 24.7822 61.4097 26.1334 60.9629 27.4554C60.5161 28.7773 59.9998 30.0883 59.5695 31.0514C59.1393 32.0145 58.7969 32.6407 58.7969 32.6407C58.7969 32.6407 58.9086 31.9376 59.1484 30.9086C59.3883 29.8796 59.7838 28.5283 60.2305 27.2064C60.6773 25.8844 61.1936 24.5735 61.6257 23.6104C62.0578 22.6473 62.3965 22.0229 62.3965 22.0229Z" fill="#001E94"/>
<path d="M61.8763 29.3208C61.8763 29.3208 61.7133 29.8701 61.446 30.6775C61.1787 31.485 60.7997 32.5616 60.4298 33.6364C60.0289 34.702 59.6279 35.7658 59.3313 36.5659C59.0347 37.366 58.8003 37.886 58.8003 37.886C58.8003 37.886 58.9632 37.3367 59.2306 36.5293C59.4979 35.7218 59.8732 34.6452 60.2394 33.5686L61.338 30.6391C61.6548 29.8445 61.8763 29.3208 61.8763 29.3208Z" fill="#001E94"/>
<path d="M66.9298 30.3096C66.9298 30.3096 66.7998 30.6391 66.5819 31.1225L65.7525 32.8766L64.837 34.5885C64.5788 35.0518 64.3921 35.352 64.3921 35.352C64.3921 35.352 64.5221 35.0225 64.74 34.5391C64.9579 34.0557 65.2691 33.424 65.5712 32.7869L66.4867 31.0731C66.743 30.6117 66.9298 30.3096 66.9298 30.3096Z" fill="#001E94"/>
<path d="M65.6622 37.5344C65.6622 37.5344 65.3546 38.0178 64.873 38.7264L63.0787 41.3044C62.3994 42.2198 61.7201 43.1353 61.2111 43.8293C60.7021 44.5232 60.3359 44.9571 60.3359 44.9571C60.3359 44.9571 60.6417 44.4738 61.1251 43.767C61.6085 43.0603 62.2658 42.1191 62.9176 41.1872C63.5694 40.2552 64.2762 39.3562 64.787 38.6641C65.2978 37.972 65.6622 37.5344 65.6622 37.5344Z" fill="#001E94"/>
<path d="M32.4858 5.51831C32.4858 5.51831 32.5737 6.12985 32.6799 7.04899C32.7861 7.96813 32.9051 9.19853 33.0333 10.4271C33.1267 11.6575 33.2164 12.8879 33.2933 13.8107C33.3702 14.7335 33.3794 15.3524 33.3794 15.3524C33.3794 15.3524 33.2915 14.7408 33.1871 13.8199C33.0827 12.8989 32.9582 11.6722 32.8337 10.4363C32.7385 9.20586 32.6506 7.97362 32.5719 7.05265C32.4932 6.13168 32.4858 5.51831 32.4858 5.51831Z" fill="#001E94"/>
<path d="M39.3282 37.8862C39.3282 37.8862 39.3282 38.5454 39.2989 39.5341C39.2696 40.5228 39.211 41.8393 39.1616 43.1557C39.0774 44.4722 38.995 45.7886 38.9327 46.7755C38.8705 47.7624 38.7954 48.4234 38.7954 48.4234C38.7954 48.4234 38.7954 47.7624 38.8247 46.7755C38.854 45.7886 38.9108 44.4685 38.962 43.1521C39.0462 41.8374 39.1286 40.521 39.1909 39.5323C39.2531 38.5435 39.3282 37.8862 39.3282 37.8862Z" fill="#001E94"/>
<path d="M68.2628 39.0471L55.794 56.302L54.9976 55.6978L68.2628 39.0471Z" fill="#001E94"/>
<path d="M21.1636 56.8861L4.89551 37.8862L21.9106 56.2214L21.1636 56.8861Z" fill="#001E94"/>
<path d="M38.6138 71.4731C37.1014 71.4731 36.4679 71.3284 36.4404 71.3211L36.1493 71.3339C34.7816 71.3339 30.0339 71.2845 26.3885 70.6601C25.3686 70.477 24.3506 70.3635 23.2759 70.239C20.7125 69.9369 17.8178 69.5963 14.3481 68.3769C12.9131 67.9024 11.4543 67.5033 9.97761 67.1813C6.4988 66.3592 3.20307 65.581 1.63211 62.9207C1.17254 62.1425 1.09381 61.401 1.40324 60.7235C2.36266 58.5996 6.83203 57.7427 9.78719 57.177L11.3325 56.8694C14.1595 56.2963 17.0817 55.703 20.707 55.1208C26.5038 54.1852 36.1255 54.176 36.532 54.176C36.6309 54.176 46.5546 54.1852 52.3588 55.1208C55.9841 55.703 58.9081 56.2963 61.7351 56.8694L63.2768 57.177C66.2338 57.7427 70.7031 58.5996 71.6607 60.7235C71.9702 61.4065 71.8933 62.148 71.4319 62.9207C69.8627 65.581 66.5725 66.3592 63.0882 67.1813C61.6115 67.5033 60.1527 67.9024 58.7177 68.3769C55.2792 69.5854 52.7598 69.882 50.092 70.1969C49.0026 70.3251 47.8748 70.4587 46.6755 70.6601C42.662 71.3321 40.0785 71.4731 38.6138 71.4731Z" fill="white"/>
<path d="M36.5304 54.5626C36.5761 54.5626 46.4688 54.5626 52.2949 55.5037C56.2058 56.1317 59.2818 56.7689 62.3469 57.3896C65.4119 58.0103 73.2154 59.1418 71.097 62.7305C68.9786 66.3191 63.4271 66.3118 58.5916 68.0128C53.756 69.7137 50.6745 69.5965 46.6134 70.2795C42.7373 70.9295 40.1831 71.0888 38.6176 71.0888C37.1327 71.0888 36.534 70.946 36.534 70.946H36.1532C34.7928 70.946 30.0762 70.8984 26.4491 70.2795C22.9099 69.6716 19.3084 69.7119 14.471 68.0128C9.6336 66.3136 4.07664 66.3118 1.95823 62.725C-0.16019 59.1381 7.64701 58.0029 10.712 57.3841C13.7771 56.7652 16.8531 56.1262 20.764 55.4982C26.6066 54.5626 36.5304 54.5626 36.5304 54.5626ZM36.5304 53.7899C36.0854 53.7899 26.4601 53.8009 20.6468 54.7383C17.0142 55.3224 14.0865 55.9175 11.2558 56.4906L10.5637 56.6316C10.3111 56.6828 10.0254 56.7359 9.71599 56.7963C5.86 57.5306 2.01499 58.4296 1.04824 60.559C0.799231 61.1082 0.639938 62.0036 1.29725 63.1223C2.95061 65.9145 6.31957 66.7146 9.8881 67.5624C11.3514 67.8804 12.7969 68.2758 14.2183 68.747C17.7301 69.9792 20.6505 70.3234 23.2285 70.6274C24.2996 70.7537 25.3121 70.8709 26.3228 71.0448C29.9993 71.6765 34.7726 71.7241 36.1495 71.7241H36.4553C37.1693 71.8348 37.8916 71.8826 38.614 71.8669C40.0916 71.8669 42.7025 71.7241 46.7379 71.0467C47.9281 70.8471 49.0504 70.7134 50.1362 70.5871C52.8259 70.2703 55.3654 69.9701 58.8442 68.7561C60.2636 68.2818 61.7072 67.8833 63.169 67.5624C66.7357 66.7183 70.1046 65.9145 71.758 63.1223C72.4153 62.0072 72.256 61.1082 72.007 60.559C71.0512 58.4296 67.1971 57.5306 63.352 56.7909C63.0408 56.7304 62.7552 56.6773 62.5025 56.6261L61.8122 56.4851C58.9816 55.912 56.0557 55.3169 52.4212 54.7329C46.5951 53.7936 36.9442 53.7844 36.534 53.7844L36.5304 53.7899Z" fill="#001E94"/>
<path d="M38.5174 69.9847C37.0838 69.9847 36.4869 69.8675 36.4631 69.8602L36.1683 69.8712C34.8647 69.8712 30.3349 69.8309 26.8561 69.3219C25.8802 69.1773 24.8969 69.0784 23.8826 68.974C21.4419 68.7268 18.6754 68.4467 15.3631 67.4415C14.0027 67.0277 12.5709 66.7366 11.1867 66.4546C7.86721 65.7753 4.72895 65.1363 3.23123 62.9428C2.81194 62.3276 2.71856 61.7363 2.95292 61.1851C3.68531 59.4842 7.32708 58.7481 11.0091 58.1403L12.4739 57.8876C15.1764 57.417 17.9668 56.9263 21.4328 56.4448C26.9732 55.674 36.4466 55.6648 36.5382 55.6648C36.6297 55.6648 46.1049 55.6648 51.6436 56.4448C55.1004 56.9263 57.889 57.4152 60.586 57.8857L62.0709 58.1329C65.7438 58.7408 69.3947 59.4787 70.1142 61.1778C70.3504 61.7271 70.2571 62.3203 69.8378 62.9355C68.3382 65.1327 65.2018 65.768 61.8823 66.4473C60.4962 66.7293 59.0663 67.0204 57.704 67.4342C54.4229 68.4302 52.0189 68.6737 49.4739 68.9337C48.4229 69.0399 47.3591 69.148 46.2129 69.3146C42.3862 69.8639 39.9181 69.9847 38.5229 69.9847H38.5174Z" fill="white"/>
<path d="M36.5304 56C36.5304 56 46.0093 56 51.5882 56.7763C55.3233 57.2963 58.2602 57.8218 61.1879 58.3326C64.1156 58.8434 71.5713 59.7809 69.5481 62.7416C67.5248 65.7022 62.2242 65.7022 57.5974 67.1047C52.9706 68.5072 50.0374 68.4139 46.1576 68.976C42.4517 69.5124 40.0129 69.6424 38.517 69.6424C37.8527 69.6613 37.1879 69.6221 36.5304 69.5252H36.1642C34.8697 69.5252 30.3619 69.4868 26.9014 68.976C23.5233 68.4743 20.0811 68.5091 15.4598 67.1047C10.8384 65.7004 5.53414 65.7022 3.51093 62.7416C1.48773 59.7809 8.94155 58.8453 11.8711 58.3326C14.8006 57.8199 17.7301 57.2963 21.469 56.7763C27.0497 56 36.5268 56 36.5268 56H36.5304ZM36.5268 55.3152C36.4315 55.3152 26.938 55.3243 21.3756 56.097C17.8968 56.5804 15.1082 57.0711 12.4039 57.5435L11.7521 57.657L10.9391 57.7943C7.17285 58.4168 3.4322 59.1822 2.6339 61.0443C2.43799 61.5002 2.33363 62.2344 2.94334 63.1297C4.52162 65.4386 7.72213 66.0904 11.1131 66.7825C12.4899 67.0644 13.9144 67.3537 15.2602 67.762C18.6035 68.7764 21.3866 69.0602 23.8437 69.3092C24.8672 69.4136 25.8358 69.5106 26.8007 69.6534C30.3033 70.1734 34.8569 70.2137 36.1642 70.2137H36.4682C37.1461 70.3031 37.8297 70.3416 38.5133 70.329C39.9213 70.329 42.406 70.2119 46.2528 69.6552C47.3898 69.4905 48.4628 69.3806 49.4991 69.2744C52.0624 69.0144 54.4811 68.7691 57.7933 67.762C59.1409 67.3537 60.5636 67.0644 61.9404 66.7825C65.3314 66.0904 68.5319 65.4386 70.112 63.1297C70.7217 62.2362 70.6173 61.5002 70.4214 61.0443C69.6268 59.184 65.8843 58.4168 62.118 57.7943L61.3033 57.657L60.6331 57.5416C57.9343 57.0674 55.1403 56.5785 51.6797 56.097C46.121 55.3243 36.6201 55.3152 36.5304 55.3152H36.5268Z" fill="#001E94"/>
<path d="M3.51465 62.7411C3.51465 62.7411 9.33709 61.811 11.9993 61.0109C14.6615 60.2108 20.3045 58.8137 23.2817 58.8137C26.2588 58.8137 31.8872 59.2129 34.672 58.8137C37.4569 58.4146 43.7316 58.0136 47.5949 58.8137C51.4583 59.6139 53.8623 61.0805 57.061 60.5476C60.2597 60.0148 67.4334 60.8736 69.5481 62.7448" fill="white"/>
<path d="M3.5675 63.0799C3.57665 63.0799 9.38994 62.1535 12.0979 61.3387C14.7327 60.5459 20.3922 59.1416 23.2814 59.1544C25.2515 59.1544 28.4081 59.3375 31.1417 59.3375C32.337 59.3558 33.5322 59.2946 34.7194 59.1544C37.0842 58.8478 39.4664 58.6943 41.851 58.6948C43.8852 58.6948 45.9304 58.8193 47.5269 59.1507C50.7714 59.8154 53.0088 60.9982 55.6875 61.0055C56.1673 61.0057 56.6462 60.9659 57.1193 60.8865C57.8563 60.7769 58.6008 60.726 59.3458 60.7345C61.2682 60.7467 63.1847 60.9485 65.0675 61.3369C66.9333 61.7269 68.5701 62.3238 69.3208 62.9976L69.7749 62.4849C68.8265 61.6536 67.1328 61.0769 65.2085 60.6649C63.2807 60.2658 61.3181 60.0585 59.3494 60.0461C58.5671 60.0373 57.7852 60.0906 57.0113 60.2053C56.575 60.2781 56.1335 60.3148 55.6912 60.3152C53.2377 60.3152 51.0149 59.1727 47.6698 58.4751C45.9981 58.129 43.92 58.0064 41.8565 58.0064C39.4394 58.0042 37.0247 58.1596 34.6279 58.4714C33.4733 58.6051 32.3112 58.6632 31.149 58.6454C28.4484 58.6454 25.29 58.4623 23.2887 58.4623C20.2237 58.4623 14.5954 59.8739 11.9075 60.6777C10.6039 61.0696 8.48545 61.5017 6.70393 61.8331C4.92241 62.1645 3.47046 62.3952 3.4668 62.397L3.57482 63.0745L3.5675 63.0799Z" fill="#001E94"/>
<path d="M35.7834 62.3718C33.8894 62.3718 32.0379 61.8101 30.4631 60.7578C28.8884 59.7055 27.661 58.2099 26.9363 56.46C26.2115 54.7101 26.022 52.7846 26.3917 50.927C26.7613 49.0694 27.6735 47.3632 29.0129 46.024C30.3523 44.6849 32.0587 43.773 33.9164 43.4038C35.774 43.0345 37.6995 43.2244 39.4492 43.9494C41.199 44.6745 42.6944 45.9021 43.7464 47.4771C44.7984 49.0521 45.3597 50.9037 45.3593 52.7977C45.3559 55.3362 44.3459 57.7697 42.5508 59.5645C40.7556 61.3593 38.3219 62.3689 35.7834 62.3718Z" fill="white"/>
<path d="M35.7829 43.6204C37.5974 43.6208 39.371 44.1592 40.8795 45.1675C42.3881 46.1758 43.5638 47.6087 44.258 49.2851C44.9522 50.9615 45.1337 52.8062 44.7796 54.5858C44.4256 56.3653 43.5518 58 42.2687 59.283C40.9857 60.566 39.3511 61.4398 37.5715 61.7939C35.7919 62.148 33.9473 61.9664 32.2708 61.2722C30.5944 60.578 29.1615 59.4024 28.1532 57.8938C27.1449 56.3853 26.6065 54.6117 26.6062 52.7972C26.6059 51.592 26.8431 50.3986 27.3042 49.2851C27.7653 48.1716 28.4412 47.1599 29.2934 46.3077C30.1456 45.4555 31.1574 44.7796 32.2708 44.3185C33.3843 43.8574 34.5777 43.6202 35.7829 43.6204ZM35.7829 42.8203C33.8096 42.82 31.8805 43.4048 30.2396 44.5008C28.5986 45.5969 27.3196 47.1549 26.5642 48.9779C25.8088 50.8009 25.6109 52.807 25.9957 54.7425C26.3804 56.6779 27.3305 58.4558 28.7257 59.8513C30.1209 61.2468 31.8986 62.1971 33.834 62.5822C35.7694 62.9674 37.7755 62.7699 39.5987 62.0148C41.4218 61.2597 42.9801 59.981 44.0764 58.3403C45.1728 56.6995 45.758 54.7705 45.758 52.7972C45.7551 50.1524 44.7033 47.6167 42.8332 45.7463C40.9632 43.876 38.4277 42.8237 35.7829 42.8203Z" fill="#001E94"/>
<path d="M42.9022 48.4194C42.9022 48.4194 44.2406 50.8528 44.0008 52.7972C43.4515 57.3032 40.3187 61.0183 35.7779 61.0183C34.2019 61.0175 32.6592 60.564 31.3335 59.7116C30.0078 58.8592 28.955 57.6438 28.3003 56.2102C28.3003 56.2102 28.6665 54.2144 30.7941 53.9453C32.9216 53.6761 42.1368 55.2654 42.9022 48.4194Z" fill="#001E94"/>
<path d="M36.5299 44.8201C36.5299 44.8201 29.9384 44.3056 27.994 50.1537C27.994 50.1537 27.7578 50.6298 28.8765 50.1537C29.9952 49.6777 32.2052 45.9864 36.5299 44.8201Z" fill="#001E94"/>
<path d="M37.993 68.3439C35.86 68.4793 32.9268 68.3439 30.3927 67.6792C27.8587 67.0146 26.5257 66.6099 23.6493 66.4781C20.7729 66.3463 20.5257 66.0771 17.9935 65.1452C15.4613 64.2132 12.5262 64.746 10.0673 63.6804C7.60829 62.6148 10.0673 61.5071 10.0673 61.5071L3.34766 62.4628L3.51427 62.743C5.52833 65.7036 10.8381 65.7036 15.4631 67.1061C20.0881 68.5086 23.5193 68.4757 26.9048 68.9774C30.9878 69.5816 36.5301 69.5267 36.5301 69.5267C36.5301 69.5267 38.947 70.0228 46.1573 68.9774C46.6498 68.906 47.1277 68.8437 47.5946 68.7943C47.5927 68.787 40.1261 68.212 37.993 68.3439Z" fill="#001E94"/>
<path d="M69.5481 62.7415L69.5939 62.67C69.1898 62.3681 68.7406 62.1321 68.2628 61.9706C65.7727 61.154 60.6057 60.4216 60.6057 60.4216C60.6057 60.4216 63.9399 61.8717 62.4055 62.7415C60.8712 63.6112 58.209 63.7338 54.6404 65.5721C51.0719 67.4104 47.3587 67.6118 44.6159 67.4122C41.8732 67.2126 35.7047 66.9581 32.4859 68.1116C29.267 69.2651 28.3003 69.1608 28.3003 69.1608C31.0352 69.4201 33.7814 69.5423 36.5286 69.527C36.5286 69.527 38.9455 70.0232 46.1558 68.9777C50.0356 68.4156 52.9761 68.5108 57.5956 67.1064C62.2151 65.7021 67.5249 65.7021 69.5481 62.7415Z" fill="#001E94"/>
<path d="M14.6487 60.6833L13.757 60.9836C12.9761 61.2433 12.2097 61.5446 11.461 61.8863C11.3145 61.9491 11.1777 62.0323 11.0545 62.1334C11.0326 62.0455 11.0545 62.1426 11.1552 62.1902C11.2624 62.2547 11.3759 62.3081 11.494 62.3495C12.0715 62.5342 12.663 62.6719 13.2627 62.7614C14.5297 62.9775 15.9047 63.1167 17.2816 63.351C17.969 63.4811 18.6432 63.6736 19.2957 63.9259C19.9383 64.153 20.5627 64.391 21.1797 64.5723C21.7653 64.7611 22.3714 64.8791 22.985 64.9238C23.5728 64.9623 24.1386 64.9623 24.6585 65.0117C25.493 65.0754 26.3235 65.1823 27.1468 65.3321C27.4593 65.3789 27.7661 65.4581 28.0623 65.5683C27.7614 65.4685 27.4509 65.4003 27.1358 65.3651C26.3102 65.2458 25.4791 65.1682 24.6457 65.1325C24.1294 65.1032 23.5728 65.1216 22.9722 65.1051C22.3418 65.0817 21.7162 64.9847 21.1083 64.8158C20.4748 64.651 19.8376 64.4331 19.1913 64.228C18.5501 64.0071 17.8909 63.8423 17.2212 63.7355C15.8626 63.5524 14.4748 63.459 13.1931 63.2833C12.5573 63.213 11.9284 63.0905 11.3127 62.9171C11.1525 62.8656 10.9979 62.7981 10.8513 62.7157C10.7349 62.6637 10.6349 62.581 10.562 62.4765C10.4891 62.372 10.4461 62.2496 10.4375 62.1224C10.4434 62.0053 10.4782 61.8915 10.539 61.7911C10.5997 61.6908 10.6843 61.6071 10.7854 61.5475C10.9032 61.4652 11.0254 61.3894 11.1516 61.3205C11.9099 60.936 12.6886 60.5931 13.4842 60.2933L14.3814 59.9509L14.6487 60.6833Z" fill="#001E94"/>
<path d="M48.7466 66.5811C48.7466 66.5811 49.6621 66.2625 51.0243 65.7443C51.6999 65.4752 52.4891 65.1438 53.313 64.7831L54.5361 64.1294C54.948 63.917 55.3966 63.6552 55.8086 63.4263C56.239 63.1911 56.685 62.9856 57.1434 62.8111L58.4378 62.2801C58.8022 62.1023 59.1567 61.9049 59.4998 61.6887L59.6023 61.5935V61.5734L59.5859 61.5587C59.4908 61.4644 59.3799 61.3875 59.2581 61.3317C58.755 61.117 58.2211 60.9829 57.6762 60.9344C57.4834 60.9107 57.2885 60.9107 57.0958 60.9344L57.0134 60.1654C57.2643 60.1503 57.5162 60.1638 57.7641 60.2057C58.3873 60.2906 58.9927 60.4761 59.5566 60.755C59.7743 60.8662 59.9625 61.0275 60.1059 61.2255C60.1558 61.309 60.1869 61.4024 60.1971 61.4992C60.2072 61.5959 60.1961 61.6938 60.1644 61.7858L60.007 62.0275L59.8788 62.1355C59.4779 62.3767 59.0599 62.5884 58.6283 62.769L57.31 63.2377C56.857 63.3825 56.4152 63.5599 55.988 63.7687L54.6917 64.4004L53.41 65.0083C52.555 65.3287 51.7622 65.6198 51.0664 65.8578C49.6785 66.3101 48.7466 66.5811 48.7466 66.5811Z" fill="#001E94"/>
<path d="M58.8129 61.1174C58.8129 61.1174 58.52 61.2346 58.0055 61.4341C57.491 61.6337 56.7732 61.945 55.9292 62.3496C55.4952 62.5419 55.1034 62.8312 54.6475 63.0912C54.133 63.3878 53.7155 63.7229 53.1388 63.9774C52.5692 64.2503 51.9775 64.4745 51.3701 64.6475L50.4546 64.9148L49.5043 65.0814C48.2227 65.3469 46.941 65.2297 45.7472 65.1638L42.479 64.9459C41.7143 64.8914 40.9473 64.8767 40.1811 64.902C39.9682 64.917 39.757 64.9495 39.5494 64.999L39.3242 65.0393L39.5476 64.9917C39.7557 64.9351 39.9682 64.8965 40.1829 64.8764C40.95 64.8216 41.7195 64.8069 42.4881 64.8324L45.7435 64.9331C46.3386 64.9551 46.9501 64.9514 47.5635 64.9441C48.1883 64.9348 48.8102 64.8574 49.4183 64.7134L50.3338 64.5175L51.2163 64.2245C51.7801 64.0394 52.3281 63.8092 52.855 63.5361C53.3622 63.2981 53.8474 62.8916 54.2721 62.6334C54.7482 62.335 55.1876 61.9944 55.6179 61.7857C56.4711 61.3316 57.1962 60.9819 57.7143 60.7585L58.5181 60.407L58.8129 61.1174Z" fill="#001E94"/>
<path d="M11.6787 68.6719L14.5002 75.0125L13.7678 75.2908L11.6787 68.6719Z" fill="#001E94"/>
<path d="M9.4083 66.8828L10.9976 71.7568L8.82422 67.1153L9.4083 66.8828Z" fill="#001E94"/>
<path d="M12.6709 68.9905L15.7579 75.2597L15.0365 75.5654L12.6709 68.9905Z" fill="#001E94"/>
<path d="M15.1975 68.3164C15.1975 68.3164 15.6314 69.6658 16.0635 71.0134L16.9534 73.7013L15.701 71.1599C15.084 69.8782 14.4688 68.6075 14.4688 68.6075L15.1975 68.3164Z" fill="#001E94"/>
<path d="M24.621 78.5809L23.4346 71.345L25.3864 78.4125L24.621 78.5809Z" fill="#001E94"/>
<path d="M28.1042 70.9553L29.1845 77.5596L27.3389 71.1274L28.1042 70.9553Z" fill="#001E94"/>
<path d="M28.8091 79.76L27.251 73.218L29.5598 79.5348L28.8091 79.76Z" fill="#001E94"/>
<path d="M34.9082 79.6467L35.1426 73.8975L35.3769 79.6467H34.9082Z" fill="#001E94"/>
<path d="M39.5602 71.7937L38.5386 76.7721L39.0952 71.7205L39.5602 71.7937Z" fill="#001E94"/>
<path d="M38.5389 73.7017L38.3027 79.5058L37.834 79.4747L38.5389 73.7017Z" fill="#001E94"/>
<path d="M35.7962 71.3359L35.7834 75.9884L35.3257 71.3561L35.7962 71.3359Z" fill="#001E94"/>
<path d="M45.8678 71.1183L44.0332 75.6755L45.4247 70.9626L45.8678 71.1183Z" fill="#001E94"/>
<path d="M42.5581 79.5516L45.3851 73.7017L42.9884 79.742L42.5581 79.5516Z" fill="#001E94"/>
<path d="M50.0759 70.3691L46.6392 75.1003L49.684 70.1091L50.0759 70.3691Z" fill="#001E94"/>
<path d="M47.318 73.218L43.8117 79.7637L43.4053 79.5293L47.318 73.218Z" fill="#001E94"/>
<path d="M59.0547 68.4559L56.4126 72.1746L58.5182 68.1282L59.0547 68.4559Z" fill="#001E94"/>
<path d="M57.4312 71.345L55.0125 76.1457L54.4688 75.8308L57.4312 71.345Z" fill="#001E94"/>
<path d="M58.3862 74.9667L61.1162 69.9004L58.9538 75.234L58.3862 74.9667Z" fill="#001E94"/>
<path d="M61.7572 67.7783L58.9741 72.1744L61.2079 67.4744L61.7572 67.7783Z" fill="#001E94"/>
</svg>
