<svg width="58" height="80" viewBox="0 0 58 80" fill="none" xmlns="http://www.w3.org/2000/svg">
<path d="M13.8363 74.8866C13.4427 74.8866 13.3211 74.7281 13.2897 74.5955C13.25 74.4275 13.2336 74.4206 13.0286 74.3222C12.5839 74.1249 12.1698 73.8649 11.7988 73.5501C11.0895 72.9858 9.86647 72.8669 8.79237 72.7616C8.04897 72.6879 7.34657 72.625 6.90655 72.4104C6.7043 72.3134 6.67833 72.1904 6.692 72.1043C6.76853 71.6274 9.17227 71.212 11.2221 70.9442C10.8531 70.6503 9.40868 69.9671 8.11457 69.4287L8.02438 69.318L8.06947 69.1813C8.18289 69.0788 8.52453 68.7618 11.5856 68.7618C12.3495 68.7618 12.9371 68.7823 12.9371 68.7823C15.6237 68.6456 16.9001 68.1099 17.1501 67.9883C17.843 65.9658 17.3073 59.2192 17.3032 59.1509C17.2034 58.6234 17.09 58.2121 16.9998 57.8814C16.7771 57.0724 16.6664 56.6652 17.1734 55.9477C17.7815 55.0896 17.3674 50.2698 17.1556 48.4864L17.2021 48.3594L17.3059 48.3184L19.2191 48.6641L19.3161 48.727L19.3393 48.8417C18.9294 50.8437 19.2027 54.7179 19.5785 55.3424C20.3656 56.6379 19.4678 59.1687 19.4295 59.2794C18.8323 61.7555 19.5047 68.3108 20.3287 69.8017C20.9095 70.8608 19.8846 71.8201 17.7883 73.2181C16.0733 74.366 14.5387 74.8866 13.8363 74.8866Z" fill="white"/>
<path d="M17.306 48.4658L19.1891 48.8075C18.7627 50.8723 19.0524 54.7546 19.446 55.4174C20.2071 56.6678 19.2861 59.2246 19.2861 59.2246C18.6889 61.6926 19.312 68.2738 20.1948 69.8768C20.6977 70.7924 19.86 71.6533 17.7009 73.0977C16.0733 74.1909 14.5414 74.7376 13.8363 74.7376C13.6067 74.7376 13.4646 74.6774 13.4346 74.5599C13.3184 74.0803 13.1339 74.4315 11.8876 73.4407C10.6413 72.45 7.99845 72.7752 6.96808 72.2819C5.93771 71.7886 11.341 71.0875 11.341 71.0875C12.1076 70.9236 8.172 69.2905 8.172 69.2905C8.5191 68.9694 10.3038 68.9093 11.5884 68.9093C12.3495 68.9093 12.9344 68.9298 12.9344 68.9298C16.0487 68.7685 17.2732 68.0934 17.2732 68.0934C18.0179 66.0874 17.4549 59.1358 17.4549 59.1358C17.1105 57.2855 16.635 56.9698 17.2991 56.0324C18.074 54.9391 17.3087 48.4658 17.3087 48.4658H17.306ZM17.3087 48.1638C17.2319 48.1635 17.158 48.1929 17.1023 48.2458C17.068 48.2782 17.0418 48.3182 17.0257 48.3626C17.0095 48.407 17.004 48.4545 17.0094 48.5014C17.3005 50.9611 17.5683 55.1304 17.0532 55.8574C16.5065 56.6336 16.6432 57.116 16.8564 57.9168C16.9466 58.2462 17.06 58.6548 17.1584 59.1904C17.1584 59.2273 17.6831 65.8154 17.0299 67.8762C16.6883 68.0265 15.4297 68.4993 12.9194 68.6291C12.9194 68.6291 12.3386 68.6073 11.5884 68.6073C8.46718 68.6073 8.10641 68.9434 7.97112 69.0705C7.93399 69.1046 7.90606 69.1475 7.88993 69.1952C7.8738 69.243 7.86999 69.294 7.87884 69.3436C7.8877 69.3933 7.90895 69.4398 7.94061 69.479C7.97227 69.5183 8.01332 69.5488 8.05995 69.5679C8.99449 69.9478 9.90777 70.3779 10.7958 70.8566C6.63738 71.4264 6.55949 71.887 6.53215 72.0865C6.51849 72.178 6.51849 72.4035 6.83006 72.5525C7.29605 72.7738 7.97659 72.8408 8.76645 72.9173C9.82552 73.0212 11.0253 73.1374 11.699 73.6744C12.0817 74.0004 12.5087 74.2705 12.9672 74.4766L13.1134 74.549L13.1435 74.6378C13.179 74.7895 13.3184 75.0478 13.8363 75.0478C14.5606 75.0478 16.1307 74.5189 17.869 73.3587C19.7001 72.1288 21.1582 71.0165 20.4654 69.7415C19.6455 68.2615 18.9882 61.7746 19.5854 59.3052C19.6154 59.2273 20.5351 56.6268 19.7111 55.2698C19.3776 54.7232 19.0565 50.9748 19.4911 48.8785C19.499 48.8392 19.499 48.7987 19.491 48.7593C19.4831 48.72 19.4675 48.6827 19.4449 48.6494C19.4224 48.6162 19.3935 48.5879 19.3599 48.566C19.3263 48.544 19.2886 48.5291 19.2492 48.5219L17.3552 48.1707L17.3087 48.1638Z" fill="#001E94"/>
<path d="M18.1367 61.9672C18.2966 62.6095 18.2433 60.009 19.2859 59.2246C19.2859 59.2246 20.207 56.6678 19.4458 55.4174C19.1069 54.8585 18.8527 52.001 19.0359 49.8788L17.4233 49.6465C17.5723 51.2481 17.7745 54.0631 17.5108 55.4174C17.9426 55.7672 18.5084 56.2865 18.6669 56.732C18.9402 57.4795 18.7202 58.3349 18.3936 59.0838C18.067 59.8327 17.9768 61.3277 18.1367 61.9672Z" fill="#001E94"/>
<path d="M16.2222 50.405C16.2222 50.405 17.2129 52.3728 17.4275 52.8976C17.642 53.4223 18.6136 53.2515 19.1807 53.1285C19.7478 53.0056 20.8206 52.0462 21.4588 51.8303H20.3355C20.3355 51.8303 21.4041 51.3384 22.0464 51.2373C22.6886 51.1361 20.9244 50.405 20.9244 50.405H16.2222Z" fill="white"/>
<path d="M16.2221 50.4049L16.0854 50.4719C16.0854 50.4719 16.3328 50.9638 16.6075 51.5214C16.8821 52.0789 17.1841 52.7021 17.2907 52.9549C17.3265 53.0391 17.3794 53.115 17.4459 53.1778C17.5125 53.2406 17.5913 53.2889 17.6775 53.3197C17.8527 53.3824 18.0381 53.4116 18.2241 53.4058C18.5587 53.3957 18.8915 53.3522 19.2176 53.276C19.5537 53.1981 19.9569 52.9207 20.3791 52.6378C20.8014 52.355 21.225 52.0666 21.5092 51.9723L21.6104 51.8056C21.6046 51.7706 21.5866 51.7388 21.5596 51.7158C21.5325 51.6928 21.4983 51.6801 21.4628 51.6799H20.3395V51.8302L20.4023 51.9669C20.4023 51.9669 20.6661 51.8452 21.0091 51.71C21.3516 51.5678 21.7066 51.458 22.0695 51.382L22.2349 51.3246C22.2653 51.3057 22.2905 51.2796 22.3084 51.2486C22.3263 51.2176 22.3362 51.1827 22.3374 51.1469C22.3323 51.0696 22.297 50.9974 22.239 50.9461C22.0162 50.7617 21.7682 50.6103 21.5024 50.4965C21.2291 50.3598 20.9818 50.2628 20.9804 50.2614L20.9244 50.2505H16.2221L16.0936 50.3215V50.4678L16.2303 50.4008V50.5621H20.9326V50.4117L20.8738 50.5484C20.8738 50.5484 21.1854 50.6782 21.4956 50.834C21.6371 50.904 21.7741 50.983 21.9055 51.0704L22.0258 51.1633L22.0422 51.1852L22.0941 51.1565H22.0367V51.1852L22.0887 51.1565H22.1146L22.0668 51.0827L22.0313 51.1565H22.1146L22.0668 51.0827L22.0176 51.0936C21.3343 51.2043 20.2766 51.6977 20.2684 51.699L20.1851 51.8671L20.3313 51.986H21.4546V51.8357L21.4054 51.699C21.0487 51.822 20.6237 52.1186 20.2028 52.4014C19.7819 52.6843 19.3747 52.948 19.1451 52.9931C18.8403 53.0653 18.529 53.107 18.2159 53.1175C18.0682 53.1223 17.921 53.1001 17.7813 53.0519C17.7329 53.0364 17.6883 53.0107 17.6506 52.9765C17.6128 52.9423 17.5829 52.9005 17.5627 52.8538C17.3413 52.3071 16.3533 50.3516 16.3519 50.3489L16.2153 50.4172L16.2221 50.4049Z" fill="#001E94"/>
<path d="M13.6167 73.9121L14.4448 73.3751C14.9409 73.0553 15.6173 72.6563 16.2746 72.2299C16.8892 71.8637 17.4824 71.4627 18.0511 71.0287C18.236 70.8858 18.4038 70.7221 18.5513 70.5409C18.5993 70.4661 18.64 70.3869 18.6729 70.3044L18.6579 70.3728C18.6485 70.4411 18.6296 70.5078 18.6018 70.5709C18.4868 70.7863 18.3398 70.983 18.1659 71.1544C17.9243 71.3952 17.6663 71.619 17.3938 71.824C17.0945 72.0454 16.7679 72.2709 16.4372 72.4854C16.1065 72.7 15.754 72.8872 15.4315 73.0662C15.109 73.2452 14.7933 73.3915 14.5282 73.5226C13.9898 73.7755 13.6167 73.9121 13.6167 73.9121Z" fill="#001E94"/>
<path d="M8.47266 72.5881C8.47266 72.5881 9.07393 72.599 9.97585 72.5266C10.4254 72.5143 10.9434 72.4296 11.5023 72.3899L12.3564 72.2533C12.6461 72.2013 12.9453 72.1754 13.2337 72.0975C13.8117 71.9526 14.4103 71.8761 14.9378 71.6875C15.4652 71.499 15.9845 71.3965 16.3918 71.2106L17.7651 70.6257C17.7651 70.6257 17.2185 70.8908 16.4177 71.2912C16.0078 71.4894 15.5008 71.6288 14.9692 71.8187C14.4376 72.0087 13.8391 72.103 13.2569 72.256C12.9645 72.3312 12.6625 72.353 12.3714 72.4022L11.5091 72.5225C10.9461 72.5608 10.4159 72.6181 9.97175 72.6168C9.52763 72.6154 9.15183 72.6168 8.87852 72.6086C8.60521 72.6004 8.47266 72.5881 8.47266 72.5881Z" fill="#001E94"/>
<path d="M10.2012 71.1324C10.2012 71.1324 10.6726 71.0354 11.3805 70.9111C11.7344 70.8564 12.1458 70.7744 12.5899 70.7197C13.034 70.6651 13.5041 70.5831 13.9756 70.512C14.9239 70.3986 15.8682 70.2701 16.572 70.1677C17.2758 70.0652 17.765 70.031 17.765 70.031C17.765 70.031 17.3058 70.1677 16.6061 70.3385C16.2549 70.415 15.8491 70.5312 15.405 70.6118L14.0152 70.8291C13.0668 70.9657 12.113 71.0477 11.3955 71.0914C10.6781 71.1352 10.2012 71.1324 10.2012 71.1324Z" fill="#001E94"/>
<path d="M9.15625 69.6786L10.3725 69.557C10.7387 69.5255 11.1705 69.5146 11.6297 69.49L13.0714 69.4203L16.9879 69.2358L13.096 69.6198L11.6707 69.7565C11.2156 69.8057 10.7906 69.8357 10.4285 69.8863L9.22048 70.0708L9.15625 69.6786Z" fill="#001E94"/>
<path d="M24.1986 79.8497C23.8036 79.8497 23.6834 79.6912 23.652 79.5586C23.611 79.3906 23.5946 79.3851 23.391 79.2935C22.9459 79.0968 22.5317 78.8368 22.1611 78.5214C21.4518 77.9571 20.2274 77.8382 19.1547 77.7316C18.4113 77.6592 17.7102 77.5949 17.2689 77.3804C17.0666 77.2834 17.0406 77.1604 17.0543 77.0756C17.1308 76.6001 19.5346 76.1847 21.5858 75.9155C21.225 75.6162 19.7819 74.9288 18.4878 74.3918L18.3962 74.2783L18.4427 74.1417C18.5548 74.0365 18.8978 73.7208 21.9602 73.7208C22.7241 73.7208 23.309 73.7413 23.309 73.7413C25.9956 73.6046 27.2719 73.0676 27.522 72.9473C28.2162 70.9235 27.6805 64.1769 27.6751 64.1099C27.5767 63.5824 27.4632 63.1711 27.3717 62.8404C27.1503 62.03 27.0383 61.6242 27.5452 60.9067C28.1533 60.0486 27.7393 55.2301 27.5288 53.4454L27.5753 53.317L27.6778 53.2773L29.5909 53.6203L29.688 53.6859L29.7112 53.7994C29.3012 55.8054 29.5745 59.6755 29.9503 60.3C30.7361 61.5968 29.8397 64.1263 29.8 64.237C29.2029 66.7145 29.8766 73.2685 30.7006 74.7594C31.2827 75.8184 30.2565 76.7777 28.1588 78.1757C26.437 79.3291 24.901 79.8497 24.1986 79.8497Z" fill="white"/>
<path d="M27.6668 53.432L29.5512 53.7736C29.1249 55.8385 29.4064 59.7208 29.8082 60.3822C30.568 61.6326 29.6469 64.1908 29.6469 64.1908C29.0497 66.6574 29.6742 73.24 30.5557 74.8429C31.0599 75.7585 30.2222 76.6194 28.0631 78.0639C26.4355 79.1571 24.9036 79.7037 24.1985 79.7037C23.9676 79.7037 23.8254 79.645 23.7967 79.5274C23.6792 79.0464 23.4947 79.399 22.2498 78.4082C21.0049 77.4175 18.3607 77.7427 17.3303 77.2494C16.2999 76.7561 21.7032 76.0551 21.7032 76.0551C22.4726 75.8883 18.5383 74.2567 18.5383 74.2567C18.884 73.9369 20.6715 73.8754 21.9547 73.8754C22.7144 73.8754 23.298 73.8973 23.298 73.8973C26.4123 73.736 27.6381 73.061 27.6381 73.061C28.3815 71.0549 27.8198 64.1019 27.8198 64.1019C27.4741 62.253 26.9999 61.9373 27.6627 60.9985C28.4375 59.9053 27.6723 53.4334 27.6723 53.4334L27.6668 53.432ZM27.6723 53.1313C27.5957 53.1323 27.5222 53.1615 27.4659 53.2133C27.4316 53.2454 27.4054 53.2852 27.3895 53.3294C27.3736 53.3736 27.3684 53.4209 27.3744 53.4675C27.6641 55.9273 27.9333 60.098 27.4181 60.825C26.8715 61.6012 27.0081 62.0849 27.2213 62.8857C27.3115 63.2137 27.4235 63.6223 27.5233 64.158C27.5233 64.1962 28.0481 70.7816 27.3867 72.8437C27.045 72.994 25.7878 73.4668 23.2761 73.5967C23.2761 73.5967 22.6967 73.5762 21.9478 73.5762C18.8253 73.5762 18.4631 73.9096 18.3279 74.0367C18.2911 74.0709 18.2634 74.1139 18.2475 74.1615C18.2316 74.2092 18.2279 74.2601 18.2367 74.3096C18.2456 74.3591 18.2667 74.4056 18.2981 74.4448C18.3295 74.484 18.3703 74.5147 18.4167 74.5341C19.3527 74.9142 20.2673 75.3448 21.1566 75.8241C16.9996 76.394 16.9203 76.8545 16.893 77.054C16.8793 77.1442 16.8793 77.371 17.1923 77.52C17.6569 77.74 18.3388 77.8083 19.1273 77.8835C20.1863 77.9873 21.3875 78.1049 22.0612 78.6419C22.4431 78.9658 22.8698 79.2328 23.328 79.4345L23.4729 79.5069L23.5029 79.5971C23.5398 79.7488 23.6792 80.0071 24.1971 80.0071C24.9214 80.0071 26.4929 79.4782 28.2284 78.3181C30.061 77.0882 31.5204 75.9772 30.818 74.7022C30.0049 73.2222 29.3408 66.7353 29.938 64.2646C29.968 64.1867 30.8877 61.5875 30.0651 60.2319C29.7316 59.6853 29.4105 55.9369 29.8451 53.8392C29.8531 53.7999 29.8533 53.7593 29.8455 53.7199C29.8378 53.6805 29.8223 53.643 29.8 53.6096C29.7775 53.5762 29.7485 53.5477 29.7147 53.5258C29.6808 53.504 29.6429 53.4893 29.6032 53.4825L27.7187 53.1395L27.6723 53.1313Z" fill="#001E94"/>
<path d="M28.4982 66.9318C28.6595 67.5714 28.6048 64.9709 29.6475 64.1878C29.6475 64.1878 30.5685 61.6297 29.8087 60.3793C29.4698 59.8204 29.2156 56.9629 29.3988 54.8421L27.7876 54.6084C27.9366 56.2113 28.1388 59.0251 27.8737 60.3793C28.3055 60.7291 28.8713 61.2498 29.0312 61.6953C29.2976 62.4441 29.0844 63.2982 28.7578 64.0471C28.4312 64.7959 28.3383 66.2896 28.4982 66.9318Z" fill="#001E94"/>
<path d="M23.979 78.8753L24.8071 78.3382C25.3032 78.0198 25.9796 77.6194 26.6369 77.193C27.251 76.8261 27.8441 76.425 28.4134 75.9919C28.5975 75.849 28.7648 75.6858 28.9122 75.5054C28.9598 75.4297 29.0009 75.3501 29.0352 75.2676L29.0202 75.3373C29.0099 75.405 28.9911 75.4711 28.9641 75.5341C28.8485 75.749 28.7011 75.9452 28.5269 76.1162C28.2865 76.3577 28.0289 76.5815 27.7561 76.7858C27.4568 77.0086 27.1302 77.234 26.7995 77.4486C26.4688 77.6631 26.1163 77.8503 25.7938 78.0307C25.4713 78.2111 25.1556 78.3546 24.8905 78.4858C24.3507 78.7386 23.979 78.8753 23.979 78.8753Z" fill="#001E94"/>
<path d="M18.8369 77.5499C18.8369 77.5499 19.4382 77.5609 20.3333 77.4898C20.7829 77.4775 21.3008 77.3914 21.8597 77.3532L22.7138 77.2165C23.0035 77.1659 23.3028 77.14 23.5925 77.0607C24.1705 76.9241 24.7691 76.8407 25.2966 76.6508C25.824 76.4608 26.342 76.3583 26.7505 76.1725L28.1308 75.5903L26.7847 76.2531C26.3748 76.4526 25.8678 76.592 25.3362 76.7819C24.8046 76.9719 24.2061 77.0662 23.6225 77.2192C23.3301 77.293 23.0295 77.3163 22.737 77.3641L21.8761 77.4857C21.3131 77.524 20.7829 77.58 20.3374 77.5786C19.8919 77.5773 19.5175 77.5786 19.2441 77.5718C18.9708 77.565 18.8369 77.5499 18.8369 77.5499Z" fill="#001E94"/>
<path d="M20.5635 76.0945C20.5635 76.0945 21.0336 75.9974 21.7414 75.8744C22.0954 75.8184 22.5067 75.7378 22.9508 75.6818C23.3949 75.6257 23.8664 75.5451 24.3379 75.474C25.2862 75.362 26.2305 75.2335 26.9343 75.131C27.6381 75.0285 28.1259 74.9944 28.1259 74.9944C28.1259 74.9944 27.6681 75.131 26.9684 75.3019C26.6172 75.3784 26.21 75.4945 25.7673 75.5752L24.3775 75.7911C23.4277 75.9277 22.4739 76.0097 21.7565 76.0535C21.039 76.0972 20.5635 76.0945 20.5635 76.0945Z" fill="#001E94"/>
<path d="M19.5161 74.6418L20.7351 74.5202C21.1013 74.4887 21.5331 74.4778 21.9923 74.4518L23.434 74.3835L27.3505 74.2031L23.4586 74.5885L22.0333 74.7251C21.5782 74.773 21.1532 74.8044 20.7911 74.8618L19.5817 75.0435L19.5161 74.6418Z" fill="#001E94"/>
<path d="M46.516 49.7956C44.7149 49.7956 40.5251 48.731 40.3474 48.6859C39.9511 48.7798 39.5437 48.8189 39.1367 48.8021C38.1935 48.7859 37.2522 48.7138 36.3175 48.5862L36.1904 48.4878L36.215 48.3279L39.82 43.8033L39.9266 43.7418L50.2439 42.6199C53.0016 43.4207 57.1436 45.4705 57.1614 46.4968C57.1614 46.6143 57.1163 46.8275 56.7787 46.9409C56.6117 46.991 56.4408 47.0267 56.2676 47.0475C55.4113 47.139 54.5501 47.1774 53.689 47.1623C52.0601 47.1623 50.1606 47.0857 48.8924 47.0256C50.0403 47.4041 51.0475 47.8387 51.0611 47.8455L51.1581 47.9999L51.0488 48.1448C49.5921 48.6395 47.0708 48.7133 45.6975 48.7133C45.5444 48.7133 45.4009 48.7133 45.2711 48.7133C46.2072 49.1232 47.0394 49.4498 47.0476 49.4526L47.146 49.6056L47.0203 49.7491C46.8542 49.7817 46.6852 49.7973 46.516 49.7956Z" fill="white"/>
<path d="M50.2601 42.7728C53.5781 43.7526 58.1724 46.3012 56.728 46.7836C56.5703 46.8303 56.4089 46.8632 56.2456 46.882C55.3964 46.9722 54.5426 47.0105 53.6888 46.9968C50.9489 46.9968 47.4833 46.7836 47.4833 46.7836C49.0562 47.143 50.9981 47.9848 50.9981 47.9848C49.5851 48.4658 47.1608 48.5451 45.6972 48.5451C44.9607 48.5451 44.4674 48.5246 44.4674 48.5246C45.6685 49.0712 46.9914 49.5918 46.9914 49.5918C46.8345 49.6201 46.6752 49.6329 46.5158 49.6301C44.7133 49.6301 40.3869 48.5246 40.3869 48.5246C39.9758 48.6098 39.5562 48.6474 39.1365 48.6366C38.2006 48.6206 37.2665 48.5489 36.3392 48.4221L39.9441 43.8961L50.2601 42.7728ZM50.2601 42.4517H50.226L39.9099 43.575C39.8679 43.5796 39.8272 43.5925 39.7901 43.6129C39.7531 43.6333 39.7204 43.6608 39.694 43.6938L36.0891 48.2198C36.0538 48.264 36.0308 48.3167 36.0225 48.3726C36.0142 48.4286 36.0209 48.4857 36.0419 48.5382C36.0628 48.5907 36.0974 48.6367 36.1419 48.6715C36.1864 48.7063 36.2394 48.7287 36.2954 48.7364C37.2372 48.8662 38.186 48.9387 39.1365 48.9537C39.5548 48.9625 39.9729 48.9281 40.3841 48.8512C40.9909 49.0042 44.8049 49.9444 46.5158 49.9444C46.6991 49.9479 46.8822 49.9328 47.0624 49.8993C47.1297 49.8849 47.1906 49.8492 47.2361 49.7976C47.2816 49.7459 47.3093 49.681 47.3151 49.6124C47.321 49.5438 47.3046 49.4752 47.2684 49.4166C47.2323 49.358 47.1783 49.3126 47.1143 49.2871C47.1061 49.2871 46.6648 49.1094 46.0648 48.858C47.7047 48.8443 49.7982 48.7213 51.1046 48.2827C51.166 48.2618 51.2196 48.2229 51.2584 48.1709C51.2972 48.119 51.3194 48.0566 51.3221 47.9918C51.3248 47.9271 51.3078 47.863 51.2733 47.8081C51.2389 47.7532 51.1887 47.71 51.1292 47.6841C51.0896 47.6691 50.6236 47.4669 49.9718 47.2222C51.1128 47.2687 52.478 47.3111 53.6929 47.3111C54.5599 47.3256 55.427 47.2868 56.2893 47.1949C56.4722 47.1731 56.6529 47.1351 56.8291 47.0815C57.2814 46.9312 57.3238 46.6128 57.3224 46.483C57.3005 45.2763 52.7336 43.1623 50.353 42.4599L50.2601 42.4517Z" fill="#001E94"/>
<path d="M47.3179 38.2428C46.2711 38.1827 44.1748 37.8424 44.0901 37.8329C43.9917 37.7809 41.357 35.7284 37.7726 31.857C37.2 31.6178 37.2929 31.2448 37.297 31.2284L37.4145 31.115H37.4514L37.5703 31.1669L37.9584 31.5878C38.2185 31.6724 38.4888 31.7215 38.762 31.734H38.8986C39.1635 31.7316 39.4256 31.6787 39.6707 31.5782C39.7623 31.3391 39.9891 31.1068 40.3471 30.8867C40.4594 30.8005 40.5932 30.7466 40.7339 30.731C40.7771 30.7364 40.818 30.7535 40.8522 30.7805C40.8864 30.8074 40.9126 30.8432 40.9279 30.884C40.9785 31.1327 40.4551 31.5673 39.9426 31.8092C39.9426 32.0579 40.2392 32.2273 40.3786 32.2929L40.4879 32.3107C40.7858 32.3107 41.3338 32.0743 42.1168 31.6083C42.2453 31.5331 42.2535 31.5249 42.3081 31.5249L42.4598 31.6356C42.4967 31.749 42.4967 31.749 42.1482 32.0046C41.9137 32.1778 41.6691 32.337 41.4158 32.4815C42.1332 32.4309 43.0816 32.3749 43.7266 32.3749C44.3716 32.3749 44.5793 32.4214 44.6162 32.5908C44.6531 32.7603 44.4796 32.8368 44.4208 32.8641C44.2486 32.9461 44.0723 33.0199 43.9015 33.0882C44.496 33.0418 45.1601 33.0021 45.6493 33.0021C46.2643 33.0021 46.4761 33.0568 46.5239 33.2249C46.554 33.3329 46.4979 33.4299 46.3586 33.5132C45.893 33.7621 45.3955 33.9461 44.88 34.0599C45.9937 34.2293 46.0142 34.4042 46.0251 34.4985C46.047 34.6844 45.8365 34.7554 45.7668 34.7787C45.4548 34.8599 45.1323 34.8935 44.8103 34.8784C44.0593 34.8645 43.3095 34.813 42.5637 34.724C42.8993 34.9565 43.2126 35.2195 43.4997 35.5098C44.0286 36.0386 45.0918 36.1999 46.0292 36.3406C46.5758 36.424 47.0541 36.495 47.3848 36.6331C47.4764 36.6713 47.6663 36.7506 47.6322 36.92C47.598 37.0895 47.419 37.1127 47.0254 37.1127C46.5854 37.1127 45.8885 37.0662 45.2134 37.0225L45.1068 37.0143C47.6773 37.8137 47.6581 37.949 47.6376 38.0898C47.6267 38.1636 47.5748 38.2497 47.3835 38.2497L47.3179 38.2428Z" fill="white"/>
<path d="M40.7235 30.884C40.9093 30.884 40.4747 31.3992 39.7915 31.6916C39.8434 31.4825 40.0334 31.2529 40.4201 31.0165C40.5101 30.9495 40.6136 30.9029 40.7235 30.8799V30.884ZM37.4438 31.2584L37.8537 31.7094C37.37 31.5194 37.4438 31.2584 37.4438 31.2584ZM42.3004 31.6684C42.3004 31.6684 42.2266 31.7271 42.0203 31.8775C40.979 32.6386 40.4174 32.6974 40.4174 32.6974C40.4174 32.6974 42.5546 32.5129 43.7189 32.5129C44.3011 32.5129 44.6386 32.5594 44.3448 32.6974C43.7422 32.9707 43.1166 33.1902 42.4754 33.3533C42.4754 33.3533 44.517 33.1401 45.6416 33.1401C46.2033 33.1401 46.5367 33.1934 46.2689 33.3533C45.4667 33.8343 43.8638 34.0749 43.8638 34.0749C43.8638 34.0749 46.5094 34.329 45.7072 34.6037C45.4129 34.6766 45.1096 34.7069 44.8067 34.6939C43.5877 34.6939 41.7798 34.4425 41.7798 34.4425C41.7798 34.4425 42.5013 34.7158 43.3841 35.5985C44.2669 36.4813 46.4465 36.3925 47.3197 36.756C47.6258 36.8845 47.4441 36.9268 47.0218 36.9268C46.2429 36.9268 44.64 36.7806 43.7845 36.756C43.7845 36.756 48.1725 38.0651 47.3799 38.0651H47.3197C46.2689 38.0037 44.1084 37.6552 44.1084 37.6552C44.1084 37.6552 41.4914 35.6259 37.8578 31.7025C38.143 31.8008 38.4407 31.8579 38.742 31.872H38.8855C39.1966 31.868 39.5038 31.8015 39.7887 31.6766C39.7122 31.9854 39.9445 32.2478 40.3026 32.4159L40.4802 32.4487C41.0733 32.4487 42.2745 31.6629 42.3004 31.6629V31.6684ZM40.7235 30.5669C40.5554 30.585 40.395 30.6472 40.2588 30.7473C39.9586 30.9082 39.711 31.1521 39.5455 31.4497C39.337 31.5281 39.1164 31.5693 38.8937 31.5713H38.7748C38.5288 31.5589 38.2852 31.5171 38.0491 31.447C37.9302 31.3185 37.81 31.1887 37.6897 31.0562C37.6597 31.0229 37.623 30.9964 37.582 30.9783C37.5411 30.9602 37.4967 30.9508 37.452 30.9509L37.3768 30.9605C37.3209 30.974 37.2697 31.0024 37.2286 31.0425C37.1875 31.0827 37.158 31.1332 37.1431 31.1887C37.0912 31.38 37.15 31.7572 37.6788 31.9922C41.2646 35.8568 43.8938 37.908 43.9198 37.9285L44.0646 37.9914C44.1535 38.0064 46.2511 38.3467 47.3088 38.4013H47.3881C47.7311 38.4013 47.7898 38.1731 47.798 38.1034C47.8308 37.8738 47.8513 37.7413 46.3782 37.2439C46.6255 37.2548 46.8469 37.263 47.0273 37.263C47.3553 37.263 47.7283 37.263 47.7912 36.9419C47.8304 36.7442 47.716 36.5888 47.4482 36.4759C47.0997 36.331 46.6146 36.2572 46.0543 36.1725C45.1866 36.0358 44.107 35.8787 43.6164 35.3867C43.4429 35.2145 43.2775 35.0642 43.119 34.933C43.6656 34.985 44.2888 35.0301 44.8121 35.0301C45.1505 35.0451 45.4891 35.0087 45.8165 34.9221C46.1664 34.8019 46.1964 34.5873 46.1814 34.4698C46.165 34.3249 46.1473 34.1691 45.5678 34.0202C45.8712 33.9262 46.1635 33.7998 46.4397 33.643C46.7226 33.4736 46.6993 33.2604 46.6761 33.1757C46.5886 32.8586 46.1937 32.834 45.6471 32.834C45.3642 32.834 45.0294 32.8477 44.6823 32.8668C44.7225 32.8254 44.7517 32.7745 44.7672 32.7189C44.7828 32.6633 44.7841 32.6047 44.7711 32.5484C44.7001 32.23 44.3284 32.2068 43.7244 32.2068C43.2475 32.2068 42.6202 32.2369 42.0367 32.2724L42.2157 32.1453C42.582 31.8788 42.6844 31.8037 42.6106 31.5782C42.5895 31.514 42.5486 31.4581 42.494 31.4184C42.4393 31.3787 42.3735 31.3571 42.3059 31.3568C42.206 31.3635 42.1106 31.4007 42.0326 31.4634C41.0883 32.025 40.6661 32.1467 40.4857 32.1467H40.4419C40.3153 32.0935 40.2053 32.0071 40.1235 31.8966C40.554 31.6684 41.1594 31.2311 41.0801 30.8539C41.0635 30.772 41.0188 30.6984 40.9536 30.646C40.8885 30.5936 40.8071 30.5656 40.7235 30.5669Z" fill="#001E94"/>
<path d="M49.167 45.5645C48.5729 45.5441 47.9862 45.4264 47.4301 45.2161C44.6479 44.2472 43.6749 39.9221 43.6353 39.739L43.6421 39.6461L44.447 37.6113L44.544 37.5184L44.5959 37.5088L44.6779 37.532C44.6984 37.5443 46.8166 38.7756 47.7034 38.7756H47.7882C48.0301 38.7469 48.4017 38.6731 48.8199 38.5897C49.5975 38.4367 50.5636 38.244 51.1731 38.244C51.3783 38.2256 51.5844 38.2689 51.7648 38.3683C52.1119 38.6129 53.4525 39.8046 53.5905 40.6532C53.6091 40.7417 53.6094 40.8331 53.5913 40.9217C53.5732 41.0103 53.5371 41.0943 53.4853 41.1684C53.1846 41.5783 52.69 41.8284 52.392 41.9815C53.3131 42.3067 53.7682 42.58 53.7477 42.7932C53.7395 42.8738 53.6848 42.9777 53.4743 43.005C53.2475 43.0304 53.0193 43.0423 52.7911 43.0405H52.7105C52.9373 43.1909 53.1395 43.3712 53.1737 43.5516C53.1835 43.6036 53.1801 43.6572 53.1639 43.7076C53.1477 43.758 53.1191 43.8035 53.0808 43.84C52.7801 44.1406 51.9165 44.4166 51.3439 44.5998L51.0952 44.6804C50.9919 44.7326 50.8993 44.8035 50.8219 44.8895C50.6105 45.114 50.3534 45.2904 50.0678 45.4069C49.7823 45.5234 49.4751 45.5771 49.167 45.5645Z" fill="#001E94"/>
<path d="M44.5956 37.6702C44.5956 37.6702 46.7615 38.9356 47.7031 38.9356H47.8069C48.5066 38.8495 50.2571 38.4054 51.1727 38.4054C51.3449 38.3904 51.5179 38.423 51.6729 38.4997C52.1539 38.8372 53.8361 40.421 53.3564 41.0728C52.8768 41.7247 51.8328 41.9638 52.0733 42.0445C52.3138 42.1251 54.0875 42.7646 53.4398 42.8452C53.2198 42.8707 52.9985 42.8825 52.777 42.8808C52.3479 42.8808 51.9926 42.8452 51.9926 42.8452C51.9926 42.8452 53.2745 43.4069 52.9492 43.7267C52.624 44.0464 51.5075 44.3689 51.0265 44.5275C50.6698 44.6477 50.3924 45.4102 49.1612 45.4102C48.585 45.3908 48.0161 45.2758 47.4776 45.07C44.7445 44.1134 43.7879 39.7104 43.7879 39.7104L44.5915 37.6756L44.5956 37.6702ZM44.5915 37.3545L44.4876 37.3723C44.4439 37.3876 44.404 37.4122 44.3705 37.4442C44.337 37.4763 44.3108 37.5151 44.2936 37.5581L43.4887 39.5915L43.4736 39.7787C43.5146 39.9659 44.5067 44.3744 47.3724 45.372C47.9448 45.591 48.5499 45.7125 49.1625 45.7314C49.4896 45.7408 49.815 45.6811 50.1174 45.556C50.4198 45.431 50.6923 45.2434 50.9172 45.0057C50.9804 44.9394 51.0515 44.8811 51.129 44.8322L51.3763 44.7529C52.1525 44.5042 52.8795 44.2569 53.1774 43.9535C53.234 43.8984 53.2761 43.8301 53.2999 43.7547C53.3238 43.6794 53.3286 43.5994 53.3141 43.5217C53.2842 43.3973 53.2209 43.2834 53.131 43.1923C53.254 43.1923 53.3701 43.1759 53.4767 43.1636C53.8293 43.1199 53.8867 42.8999 53.8976 42.8097C53.9126 42.6539 53.9372 42.3998 52.7743 41.9556C53.0969 41.784 53.381 41.5482 53.6093 41.2628C53.6745 41.1722 53.7203 41.0691 53.7438 40.96C53.7673 40.8509 53.768 40.7381 53.7459 40.6287C53.5983 39.7159 52.229 38.4997 51.8546 38.2373C51.707 38.1321 51.4898 38.0842 51.1713 38.0842C50.5455 38.0842 49.5711 38.2769 48.7867 38.4327C48.3658 38.516 48.001 38.5885 47.7659 38.6172H47.7017C47.002 38.6172 45.339 37.7358 44.7568 37.3955L44.5915 37.3545Z" fill="#001E94"/>
<path d="M45.3583 38.0842C45.3583 38.0842 49.4948 40.2707 48.6872 40.16C47.8796 40.0493 47.6117 39.679 47.8796 40.052C48.1474 40.4251 50.711 42.0294 50.0155 42.0896C49.5728 42.121 49.1285 42.121 48.6858 42.0896C48.6858 42.0896 50.7876 43.3194 50.1344 43.5326C49.7298 43.6584 49.2967 43.6584 48.8922 43.5326C48.8922 43.5326 50.4418 44.2801 50.0155 44.3881C49.6796 44.4472 49.336 44.4472 49.0001 44.3881C49.0001 44.3881 50.5498 45.9377 49.1067 45.7765C47.6637 45.6152 45.3569 44.3881 45.3569 44.3881L45.3583 38.0842Z" fill="white"/>
<path d="M45.3584 38.0841L45.2833 38.2208C45.2833 38.2208 46.1401 38.6731 46.9969 39.1541C47.4233 39.3946 47.8524 39.6433 48.1694 39.8442C48.3279 39.944 48.4591 40.0328 48.5452 40.0997L48.6367 40.1776L48.6449 40.1872L48.731 40.1298H48.6299L48.6449 40.1872L48.731 40.1298H48.7679L48.7064 40.0055L48.6299 40.1298H48.7666L48.7051 40.0055L48.7488 40.0943L48.7324 39.9959L48.7051 40.0055L48.7488 40.0943L48.7324 39.9959H48.7023C48.4972 39.971 48.2957 39.9214 48.1024 39.8483L47.9316 39.7759L47.8715 39.7485L47.7813 39.7294L47.6761 39.7663L47.6132 39.8961L47.6378 39.9877L47.743 40.1462C47.8877 40.3074 48.0505 40.4514 48.2282 40.5753C48.5643 40.8363 49.0153 41.1615 49.3788 41.4499C49.5605 41.5947 49.7191 41.7314 49.8284 41.8394L49.9473 41.976L49.9705 42.0129L50.0238 41.9992H49.9705V42.0129L50.0238 41.9992H50.0634L50.0101 41.9227L49.9705 41.9992H50.0634L50.0101 41.9227L50.032 41.9541L50.0211 41.9159L50.0101 41.9227L50.032 41.9541L50.0211 41.9159H49.9992C49.7723 41.9336 49.5523 41.9405 49.3583 41.9405C48.9702 41.9405 48.6955 41.9159 48.6955 41.9159C48.6592 41.9132 48.623 41.9228 48.5928 41.9431C48.5626 41.9634 48.54 41.9933 48.5288 42.0279L48.6012 42.2151C48.6012 42.2151 48.9893 42.4434 49.376 42.7167C49.5602 42.843 49.7351 42.9823 49.8994 43.1335L50.0566 43.307L50.0894 43.3671L50.0962 43.3835H50.1372L50.1071 43.3562L50.0962 43.3835H50.1372L50.1071 43.3562L50.0812 43.3671C49.8997 43.4254 49.7102 43.4549 49.5195 43.4546C49.3786 43.4539 49.2381 43.4393 49.1 43.4109L48.9825 43.3808L48.9442 43.3685C48.9248 43.3603 48.904 43.3561 48.883 43.3559C48.862 43.3558 48.8411 43.3598 48.8217 43.3678C48.7823 43.3838 48.7509 43.4148 48.7345 43.4539C48.718 43.4931 48.7177 43.5371 48.7337 43.5765C48.7497 43.6158 48.7807 43.6472 48.8199 43.6637C48.8199 43.6637 49.1164 43.8072 49.4088 43.9752C49.5451 44.0511 49.677 44.1346 49.8038 44.2253L49.9172 44.3237L49.9336 44.3442L49.9937 44.3101H49.9268L49.9336 44.3442L49.9937 44.3101H50.0347L49.9623 44.2294L49.9268 44.3101H50.0347L49.9623 44.2294L50.006 44.2786L49.9787 44.2171L49.9623 44.2294L50.006 44.2786L49.9787 44.2171C49.8442 44.2474 49.7066 44.2616 49.5687 44.2595C49.4436 44.2593 49.3185 44.2516 49.1943 44.2363C49.0945 44.2253 49.0358 44.2144 49.0358 44.2144L48.865 44.2964L48.8937 44.485L49.0016 44.5998C49.134 44.7428 49.2564 44.8949 49.3679 45.0548C49.4713 45.1844 49.54 45.3382 49.5674 45.5017L49.54 45.5673C49.4677 45.6049 49.3862 45.621 49.305 45.6137L49.1314 45.6028C48.4482 45.5263 47.5107 45.1846 46.7605 44.8594C46.3861 44.6968 46.054 44.5396 45.8176 44.4221C45.5812 44.3046 45.439 44.2308 45.439 44.2308L45.3639 44.3674H45.5238V38.0841H45.3639L45.2887 38.2208L45.3639 38.0841H45.2026V44.3811L45.2887 44.5178C45.2983 44.5178 47.5954 45.7476 49.0959 45.9239C49.1652 45.9329 49.2351 45.9374 49.305 45.9376C49.4532 45.9463 49.6005 45.9096 49.7273 45.8324C49.7768 45.794 49.8164 45.7443 49.8428 45.6875C49.8692 45.6307 49.8816 45.5684 49.8789 45.5058C49.8707 45.2133 49.6685 44.9346 49.484 44.6858C49.3673 44.5372 49.2428 44.3949 49.1109 44.2595L48.9975 44.3743L48.9688 44.5314C49.1639 44.5638 49.3614 44.5803 49.5592 44.5806C49.7247 44.5836 49.8899 44.5661 50.0511 44.5287L50.1768 44.4672L50.2465 44.3087C50.2428 44.2321 50.2101 44.1598 50.155 44.1064C49.9438 43.9171 49.708 43.7571 49.4539 43.6309C49.1929 43.486 48.962 43.3753 48.9606 43.374L48.8896 43.5188L48.8349 43.6691C49.0557 43.7401 49.2863 43.7756 49.5182 43.7744C49.7428 43.7751 49.966 43.7401 50.1796 43.6705L50.3463 43.5694L50.416 43.3822C50.4115 43.2887 50.3781 43.1989 50.3203 43.1253C50.1372 42.8656 49.7573 42.5868 49.4116 42.3504C49.0658 42.114 48.7638 41.9405 48.7625 41.9405L48.6818 42.0771L48.6682 42.237C48.6682 42.237 48.9565 42.2616 49.3583 42.2616C49.5578 42.2616 49.7874 42.2548 50.0238 42.237L50.1932 42.1837L50.2903 41.9965C50.2817 41.894 50.2383 41.7975 50.1673 41.7232C49.9445 41.4499 49.4553 41.0878 48.9852 40.7352C48.7515 40.5589 48.5233 40.3895 48.3443 40.2487C48.2215 40.1596 48.1075 40.059 48.004 39.9481L47.9316 39.8456L47.922 39.8292L47.8141 39.8852H47.9343L47.922 39.8292L47.8141 39.8852H47.7799L47.8756 40.0068L47.9343 39.8852H47.7799L47.8756 40.0068L47.7813 39.8879V40.0396L47.8756 40.0068L47.7813 39.8879V39.9248L47.7499 40.0355H47.7813V39.9207L47.7499 40.0314C47.7827 40.0437 47.8865 40.0997 48.0437 40.1544C48.2423 40.2259 48.448 40.2759 48.6572 40.3034H48.7283L48.8404 40.2801L48.9442 40.1175C48.9425 40.0845 48.9342 40.0522 48.9199 40.0224C48.9056 39.9926 48.8855 39.9659 48.8609 39.944C48.6381 39.7518 48.3963 39.5829 48.1393 39.4397C47.1226 38.8179 45.4254 37.9242 45.4254 37.9229H45.2669L45.189 38.0595L45.3584 38.0841Z" fill="#001E94"/>
<path d="M27.7415 55.852C27.1949 55.852 26.8437 55.442 26.3749 54.6945C25.7149 53.6382 22.9941 51.3232 19.2088 51.3232C15.4235 51.3232 6.77329 49.4101 3.90356 45.0057C-0.0129478 38.9724 -0.148235 31.3909 0.388815 27.8625C0.608828 26.4139 1.16774 22.4441 1.40689 20.7346L1.38776 20.777L1.2511 20.8548L1.11445 20.777L1.12128 20.6034C1.14315 20.5077 1.17594 20.2126 1.21284 19.8737C1.30576 19.0319 1.44242 17.7965 1.67473 17.1748L1.57087 17.2499C1.55433 17.2842 1.52912 17.3136 1.49772 17.3352C1.46632 17.3568 1.42982 17.3698 1.39186 17.3729L1.2552 17.3046C1.20054 17.2308 1.13358 17.1406 1.80182 14.8858C2.43179 11.4694 2.3949 6.47747 2.38123 5.51269C2.35527 3.67333 3.3993 2.20703 3.44303 2.14554C4.53626 0.897883 6.53688 0.159951 8.79987 0.159951C10.0263 0.150317 11.2423 0.386358 12.3761 0.854154C13.5445 1.35158 14.9343 2.66755 14.9917 2.72358L15.0409 2.8534C15.0409 2.8534 15.0067 3.34399 15.2445 4.69003C15.459 5.90079 16.3377 7.32746 16.3377 7.34112L16.3609 7.42312C16.3773 9.33627 15.2117 11.3683 15.0258 11.6799C15.0258 12.0325 15.0122 14.5701 15.7774 16.6842C16.324 18.2065 19.6461 21.9918 19.9932 22.3854C20.5986 22.5794 26.4364 24.4557 27.3821 25.2906C28.3277 26.1256 32.7977 28.1289 32.8455 28.1508C35.3996 28.6209 36.5994 30.4357 37.3934 31.6355C37.6667 32.0536 37.9085 32.413 38.1245 32.5921C38.518 32.9132 38.5863 33.2671 38.6533 33.6101C38.749 34.1048 38.8405 34.5667 39.9324 35.0737C40.1688 35.1817 45.7293 37.7398 45.952 38.6267C45.9837 38.719 45.9936 38.8174 45.9808 38.9142C45.968 39.0109 45.9329 39.1034 45.8782 39.1843L45.7265 39.3113C46.2335 39.6653 47.0931 40.3158 47.1559 40.723C47.1659 40.7685 47.1655 40.8157 47.1549 40.8611C47.1442 40.9065 47.1236 40.949 47.0944 40.9854C47.0531 41.0278 47.0028 41.0604 46.9473 41.081C46.8917 41.1016 46.8323 41.1095 46.7733 41.1042C46.6607 41.1015 46.5489 41.0859 46.4398 41.0578C48.1303 42.6908 47.9922 42.9709 47.943 43.0652C47.9119 43.1234 47.8639 43.1708 47.8054 43.2013C47.7469 43.2317 47.6806 43.2439 47.6151 43.236C47.3734 43.2141 47.1375 43.1498 46.9181 43.0461C47.365 43.6323 47.9608 44.481 47.9608 44.8376C47.9608 45.0836 47.8023 45.2298 47.5385 45.2298C47.3177 45.2123 47.1 45.1664 46.8908 45.0932C46.7592 45.052 46.6256 45.0178 46.4904 44.9907L46.3538 44.9661C46.1774 44.9294 45.9981 44.9079 45.8181 44.9019C45.6867 44.8972 45.5557 44.9202 45.4338 44.9694C45.3118 45.0186 45.2016 45.0929 45.1102 45.1875C44.7071 45.5906 44.1536 45.6849 43.8243 45.7409C43.7505 45.7511 43.6775 45.7662 43.6056 45.786C43.3856 45.8598 40.8152 46.7658 38.9075 47.4682C38.1641 47.7415 38.0042 47.8618 37.9769 47.9082L37.8525 48.0176C37.9131 48.085 37.9496 48.1705 37.9564 48.2608C37.9741 48.4822 37.8197 48.7227 37.4781 49.0138C37.0681 49.3623 36.8208 49.5823 36.6773 49.7189L37.3865 49.7736L37.5232 49.8774L37.4849 50.0469C37.3075 50.1984 37.1152 50.3317 36.911 50.4446C36.7606 50.5347 36.6008 50.6263 36.4586 50.7069L36.747 50.7356L36.8836 50.8409L36.8467 51.0076C36.5968 51.2219 36.3139 51.3944 36.009 51.5187L36.2099 51.5801L36.322 51.7168L36.2345 51.874C35.2575 52.3632 33.8322 52.4862 33.7748 52.4916C32.5695 52.4916 32.1773 52.6542 31.0225 53.3471C29.917 54.0099 29.9293 55.3668 29.9293 55.3805L29.8829 55.4967L29.7694 55.5445C29.2478 55.5457 28.7289 55.6202 28.228 55.7659C28.0715 55.8207 27.9072 55.8498 27.7415 55.852Z" fill="white"/>
<path d="M8.79876 0.321151C10.0037 0.312942 11.1981 0.545233 12.3121 1.00442C13.4669 1.49638 14.8799 2.84242 14.8799 2.84242C14.8799 2.84242 14.8389 3.32344 15.0862 4.72004C15.3076 5.97726 16.2068 7.42853 16.2068 7.42853C16.2232 9.43461 14.873 11.6361 14.873 11.6361C14.873 11.6361 14.791 14.4184 15.6328 16.7415C16.2286 18.3813 19.9087 22.5274 19.9087 22.5274C19.9087 22.5274 26.3192 24.5636 27.2881 25.4136C28.2569 26.2636 32.7843 28.2983 32.7843 28.2983C36.2321 28.9392 37.1463 31.9948 38.0277 32.7164C38.9091 33.4379 37.9457 34.3371 39.8684 35.2199C41.7911 36.1026 45.6407 38.024 45.8006 38.6663C45.929 39.1787 45.5437 39.2293 45.3906 39.2293H45.325C45.325 39.2293 46.928 40.272 47.0086 40.7516C47.0318 40.8965 46.9334 40.947 46.7831 40.947C46.4347 40.947 45.806 40.6737 45.806 40.6737C45.806 40.6737 47.9706 42.6771 47.8094 42.9968C47.7897 43.0264 47.762 43.0497 47.7296 43.0642C47.6972 43.0787 47.6614 43.0838 47.6263 43.0788C47.2259 43.0788 46.3663 42.5951 46.3663 42.5951C46.3663 42.5951 47.8094 44.3593 47.8094 44.8403C47.8094 45.0139 47.7042 45.0726 47.5484 45.0726C47.2751 45.0726 46.8337 44.8909 46.5276 44.8403C46.2965 44.7899 46.0615 44.7593 45.8252 44.7487C45.673 44.7437 45.5215 44.7706 45.3803 44.8275C45.2391 44.8845 45.1114 44.9703 45.0052 45.0794C44.5242 45.5618 43.8041 45.5618 43.5635 45.6411C43.323 45.7204 40.7457 46.6318 38.8613 47.3247C37.3936 47.8713 38.1152 47.8317 37.6314 47.9123C37.1476 47.9929 38.4226 48.0161 37.38 48.8976C36.3373 49.779 36.3386 49.861 36.3386 49.861L37.38 49.9402C37.2099 50.0815 37.0268 50.2064 36.8333 50.3133C36.4234 50.5647 35.9342 50.8216 35.9342 50.8216L36.7363 50.9023C36.4152 51.2234 35.5338 51.5432 35.5338 51.5432L36.1678 51.7331C35.2113 52.2142 33.7627 52.3344 33.7627 52.3344C32.5615 52.3344 32.1447 52.4916 30.9408 53.2131C29.7369 53.9346 29.7711 55.3873 29.7711 55.3873H29.7574C29.2202 55.3881 28.6859 55.4658 28.1708 55.6182C28.0317 55.6684 27.8855 55.6961 27.7376 55.7002C27.284 55.7002 26.9724 55.364 26.5078 54.6152C25.9065 53.6586 23.1734 51.1688 19.2063 51.1688C15.2393 51.1688 6.80225 49.1777 4.03773 44.925C0.348076 39.2361 -0.0482206 31.8062 0.546224 27.8925C0.830465 26.0258 1.67772 19.9665 1.67772 19.9665C1.67772 19.9665 1.35385 20.5132 1.26776 20.6648C1.35522 20.3423 1.50827 17.8416 1.87997 17.1009C1.93736 16.9847 1.91276 16.9437 1.85127 16.9437C1.69221 16.9755 1.54646 17.0546 1.43311 17.1706L1.38665 17.2225C1.27596 17.2225 1.95513 14.9431 1.95513 14.9431C2.5728 11.5951 2.5605 6.84365 2.54137 5.52084C2.51678 3.71427 3.57448 2.25071 3.57448 2.25071C4.67864 0.992122 6.71752 0.33755 8.80013 0.33755L8.79876 0.321151ZM1.26639 20.6539L1.25546 20.684L1.24589 20.6949L1.26639 20.6539ZM8.79876 1.40918e-05C6.49067 1.40918e-05 4.44633 0.758444 3.3326 2.02796C3.26837 2.11542 2.19427 3.62271 2.22024 5.51537C2.23527 6.47195 2.27216 11.4503 1.64082 14.8734C0.957553 17.1706 1.01768 17.2581 1.1229 17.4002C1.15353 17.4416 1.19322 17.4754 1.23893 17.4991C1.28465 17.5228 1.33517 17.5357 1.38665 17.5368H1.39621C1.23472 18.3037 1.11881 19.0794 1.04911 19.8599C1.01905 20.1333 0.98625 20.4366 0.964386 20.5432C0.939862 20.5893 0.926871 20.6406 0.926529 20.6927C0.926187 20.7449 0.938502 20.7964 0.96242 20.8427C0.986338 20.8891 1.02114 20.9289 1.06385 20.9589C1.10656 20.9888 1.1559 21.008 1.20763 21.0147C0.949354 22.854 0.436901 26.4808 0.230554 27.8392C-0.316063 31.3922 -0.172576 39.0202 3.76989 45.0945C6.66696 49.5549 15.3923 51.4858 19.2118 51.4858C23.2978 51.4858 25.8327 54.1273 26.2413 54.7805C26.6635 55.4556 27.0694 56.0104 27.7445 56.0104C27.9267 56.0071 28.1071 55.9744 28.2788 55.9134C28.7597 55.7733 29.2579 55.7011 29.7588 55.6988C29.8022 55.6994 29.8453 55.6914 29.8856 55.6752C29.926 55.6591 29.9627 55.6352 29.9938 55.6049C30.0249 55.5746 30.0497 55.5384 30.0668 55.4985C30.0839 55.4586 30.093 55.4157 30.0936 55.3722C30.0936 55.3203 30.0936 54.0931 31.1075 53.4796C32.25 52.7963 32.6039 52.646 33.7641 52.646C33.8515 52.646 35.3069 52.5093 36.3127 52.0119C36.3577 51.9893 36.3967 51.9565 36.4267 51.9161C36.4567 51.8757 36.4767 51.8288 36.4852 51.7791C36.4937 51.7295 36.4905 51.6786 36.4757 51.6305C36.4609 51.5824 36.435 51.5385 36.4001 51.5022C36.6052 51.4028 36.7948 51.2744 36.9632 51.1209C37.0063 51.0781 37.0364 51.0239 37.0499 50.9646C37.0635 50.9053 37.0599 50.8434 37.0397 50.7861L36.9181 50.629L37.0001 50.5798C37.2165 50.4626 37.4192 50.3214 37.6041 50.1589C37.6473 50.1154 37.6772 50.0605 37.6902 50.0007C37.7032 49.9408 37.6988 49.8784 37.6776 49.821C37.6563 49.7635 37.619 49.7133 37.5702 49.6763C37.5213 49.6393 37.4629 49.6171 37.4018 49.6123L37.0615 49.5863C37.1982 49.4688 37.3649 49.3198 37.5849 49.134C37.9717 48.8074 38.1411 48.5259 38.1193 48.2457L38.0701 48.053L38.1165 47.9888C38.1274 47.982 38.2532 47.8781 38.9665 47.6171C40.8715 46.9161 43.4392 46.0101 43.6592 45.9363C43.7234 45.9193 43.7887 45.9065 43.8546 45.898C44.2031 45.8379 44.788 45.7368 45.2212 45.2981C45.298 45.2189 45.3906 45.1568 45.493 45.1158C45.5955 45.0748 45.7054 45.0559 45.8156 45.0603C45.986 45.0664 46.1556 45.087 46.3226 45.1218L46.4592 45.1478C46.5883 45.1737 46.716 45.2061 46.8419 45.2448C47.0652 45.3211 47.2978 45.367 47.5333 45.3815C47.6091 45.3885 47.6855 45.3793 47.7574 45.3544C47.8293 45.3295 47.8951 45.2895 47.9502 45.2371C48.0054 45.1846 48.0487 45.121 48.0772 45.0504C48.1057 44.9799 48.1188 44.904 48.1155 44.828C48.1155 44.5096 47.7452 43.907 47.3475 43.3521C47.4339 43.3734 47.5223 43.3848 47.6112 43.3863C47.7063 43.3944 47.8017 43.3742 47.8854 43.3283C47.969 43.2823 48.0372 43.2127 48.0813 43.128C48.1674 42.9558 48.3027 42.6853 46.8692 41.249C47.001 41.2397 47.1237 41.1788 47.2108 41.0796C47.2551 41.0255 47.2869 40.9623 47.3039 40.8945C47.3209 40.8267 47.3228 40.756 47.3092 40.6874C47.2395 40.2692 46.5467 39.6953 45.9851 39.2908L45.9987 39.273C46.0696 39.1737 46.116 39.0591 46.1341 38.9384C46.1521 38.8177 46.1413 38.6945 46.1026 38.5788C45.8757 37.6755 41.3689 35.5492 39.9928 34.9179C38.9774 34.4532 38.8995 34.0433 38.8053 33.5691C38.7356 33.2165 38.6577 32.8161 38.2217 32.4581C38.0236 32.2968 37.7913 31.9456 37.5221 31.5398C36.7172 30.3222 35.5023 28.4855 32.8758 27.9868C31.3111 27.283 28.22 25.8099 27.4944 25.1676C26.5378 24.3299 21.058 22.5534 20.0891 22.2446C19.6204 21.7116 16.4623 18.0889 15.9335 16.6281C15.201 14.6056 15.186 12.1923 15.1914 11.7222C15.4374 11.304 16.5429 9.30615 16.5265 7.42169L16.4787 7.25498C16.4705 7.24131 15.6096 5.84061 15.4019 4.65855C15.1682 3.34804 15.1996 2.86975 15.1996 2.86975C15.203 2.82234 15.1959 2.77477 15.1789 2.73038C15.1619 2.68599 15.1354 2.64587 15.1012 2.61284C15.0425 2.55135 13.6336 1.21487 12.4351 0.706515C11.2822 0.230958 10.0459 -0.00925236 8.79876 1.40918e-05Z" fill="#001E94"/>
<path d="M45.7952 40.6671C45.7952 40.6671 47.0784 41.2287 46.9978 40.7463C46.9172 40.2639 45.3142 39.2199 45.3142 39.2199C45.3142 39.2199 45.9551 39.3005 45.7952 38.6596C45.6354 38.0187 42.2258 35.9115 40.6188 34.5409C39.1238 33.2714 39.4477 33.1853 38.569 32.4637C37.6903 31.7422 36.2308 28.9367 32.7831 28.2958C32.7831 28.2958 28.2489 26.2596 27.2868 25.411C26.7402 24.9314 24.4622 24.0732 22.5791 23.4172C22.5791 23.4172 25.7987 26.3621 25.3122 26.7229C24.8257 27.0837 23.9456 26.3621 23.9675 26.7229C23.9894 27.0837 24.7123 28.2466 24.7123 28.2466C24.7123 28.2466 23.947 27.8476 23.9675 28.2466C23.988 28.6456 24.7123 29.8495 24.8325 30.3306C24.9528 30.8116 24.3515 30.9305 24.7123 31.4115C25.073 31.8925 26.5913 32.9748 26.4327 33.4613C26.2742 33.9478 27.2363 34.9208 28.5604 35.3936C29.8846 35.8664 31.0858 35.9826 31.4452 36.2231C31.8046 36.4636 28.4388 36.2231 27.8389 36.2231C27.239 36.2231 26.5926 35.2351 26.4341 36.331C26.2756 37.427 27.172 37.5459 27.0245 38.3877C26.8769 39.2295 26.2319 39.8308 26.4341 40.0713C26.6364 40.3118 28.4402 40.5509 28.4402 40.5509C28.4402 40.5509 29.763 41.0319 30.725 41.8737C31.6871 42.7155 30.3547 42.6677 31.4356 43.3892C32.5166 44.1108 33.1192 44.5863 34.2015 45.1903C35.2838 45.7943 35.7648 44.5863 36.966 45.1903C38.1672 45.7943 37.6876 47.0721 36.0095 47.5531C34.3313 48.0341 31.8019 48.3935 33.2449 48.9948C34.0977 49.3514 35.6665 49.2858 37.0535 49.1738L37.3774 48.9005C38.42 48.0191 37.1478 47.9958 37.6288 47.9152C38.1098 47.8346 37.3883 47.8674 38.8587 47.3276C40.7432 46.6348 43.3204 45.7246 43.561 45.644C43.8015 45.5634 44.5175 45.5648 45.0027 45.0824C45.4878 44.6 46.0453 44.7626 46.5264 44.8432C47.0074 44.9238 47.8082 45.3242 47.8082 44.8432C47.8082 44.3622 46.3651 42.598 46.3651 42.598C46.3651 42.598 47.6483 43.3195 47.8082 42.9998C47.9681 42.68 45.7952 40.6671 45.7952 40.6671Z" fill="#001E94"/>
<path d="M21.0159 11.7523L20.8601 11.6307C20.7535 11.2044 19.4034 10.6851 18.8513 10.558L18.6928 10.5443C18.294 10.5733 17.8992 10.6433 17.5148 10.7534C17.084 10.8878 16.6409 10.9794 16.192 11.0267C15.3598 10.8409 13.7869 10.5716 13.7705 10.5689C13.5289 10.6033 13.2848 10.6184 13.0408 10.614C12.4269 10.6028 11.8142 10.5567 11.2055 10.476L11.0689 10.3393L11.1741 10.1699C11.4429 10.0448 11.6957 9.88794 11.9271 9.70253C11.2247 9.6137 10.4075 9.2584 9.82258 8.98236C9.57544 8.87477 9.30762 8.82298 9.03819 8.83068C8.78745 8.83533 8.53749 8.86 8.29069 8.90447C8.19305 8.92164 8.09449 8.93305 7.99552 8.93863C7.94901 8.93657 7.90427 8.92026 7.86736 8.8919C7.83044 8.86354 7.80315 8.82452 7.78917 8.78011C7.73997 8.44941 9.38119 7.87 9.39759 7.86317C9.79798 7.72651 10.4102 7.69918 10.853 7.69918C11.1632 7.69918 11.3886 7.71421 11.3886 7.71421C11.5895 7.71421 11.7986 7.73061 12.0145 7.74018C12.3438 7.75658 12.6677 7.77297 12.9506 7.77297C13.6339 7.77297 13.7172 7.66912 13.7241 7.65818C13.5683 7.1348 13.7582 5.6562 13.7801 5.48948L13.8634 5.36923L13.9386 5.3501L14.0097 5.3665C14.7481 5.73322 15.5183 6.03191 16.3109 6.25885C16.9546 6.46246 17.7554 6.7139 19.0577 7.20313C21.8427 8.24716 21.1813 11.5843 21.1731 11.6157C21.1654 11.6513 21.1461 11.6833 21.1181 11.7066C21.0901 11.7299 21.0551 11.7431 21.0186 11.7441L21.0159 11.7523Z" fill="white"/>
<path d="M13.9388 5.50991C15.6443 6.35033 16.0242 6.23554 19.0019 7.35337C21.6871 8.36051 21.0134 11.5896 21.0134 11.5896C20.8768 11.0239 19.2834 10.4964 18.8857 10.4008C18.8215 10.3867 18.756 10.3803 18.6903 10.3816C18.2766 10.4103 17.8671 10.4827 17.4686 10.5975C17.0476 10.7263 16.6151 10.8142 16.1772 10.8599C15.3833 10.6686 13.8022 10.398 13.8022 10.398C13.551 10.4279 13.2981 10.4416 13.0451 10.439C12.438 10.4319 11.8317 10.3913 11.229 10.3174C11.6389 10.1684 12.3755 9.55077 12.3755 9.55077H12.2389C11.5269 9.55077 10.5771 9.149 9.89387 8.8265C9.62554 8.70814 9.33432 8.65074 9.04115 8.65842C8.57379 8.65842 8.15699 8.76637 7.99848 8.76637H7.98891C7.7484 8.75817 8.80883 8.23069 9.45521 8.01068C9.83511 7.88086 10.4296 7.85489 10.8586 7.85489C11.1634 7.85489 11.3848 7.86856 11.3848 7.86856C11.915 7.88496 12.4903 7.92732 12.9563 7.92732C13.5466 7.92732 13.9593 7.85899 13.8787 7.58842C13.7338 7.10193 13.9443 5.50444 13.9443 5.50444L13.9388 5.50991ZM13.9388 5.19287L13.7885 5.22977C13.7446 5.25362 13.7069 5.28743 13.6784 5.32849C13.6499 5.36954 13.6315 5.4167 13.6245 5.46618C13.589 5.72446 13.4346 6.96937 13.5425 7.56519C13.3483 7.60028 13.1509 7.61494 12.9536 7.60891C12.6734 7.60891 12.3509 7.59252 12.0243 7.57748C11.8139 7.56792 11.5993 7.55699 11.3916 7.55015C11.3916 7.55015 11.1648 7.53649 10.8559 7.53649C10.1945 7.53649 9.68615 7.59525 9.35272 7.71004C8.68448 7.93688 7.57621 8.37964 7.63771 8.80327C7.65567 8.88189 7.69871 8.95253 7.76033 9.00454C7.82196 9.05655 7.89883 9.08711 7.97934 9.09161C8.09261 9.08756 8.20542 9.07523 8.31688 9.05471C8.55563 9.01227 8.79733 8.98851 9.03978 8.98365C9.28562 8.97591 9.53013 9.02258 9.75585 9.12031C10.3239 9.40144 10.9192 9.62397 11.5324 9.78445C11.4041 9.87512 11.2667 9.95207 11.1224 10.014C11.0554 10.039 10.9986 10.0856 10.9611 10.1465C10.9236 10.2074 10.9075 10.2791 10.9154 10.3502C10.9232 10.4213 10.9545 10.4877 11.0044 10.5389C11.0543 10.5902 11.1199 10.6233 11.1907 10.6331C11.8069 10.7101 12.4269 10.7521 13.0478 10.7588C13.2984 10.7603 13.5489 10.7475 13.7981 10.7205C14.0714 10.767 15.412 11.0007 16.1212 11.1647L16.1936 11.1729H16.2182C16.6789 11.1268 17.1339 11.0352 17.5766 10.8995C17.9451 10.7927 18.3239 10.7249 18.7067 10.6973L18.8297 10.7069C19.4883 10.8599 20.6472 11.3792 20.7182 11.6634C20.7356 11.7329 20.7757 11.7946 20.8322 11.8387C20.8886 11.8828 20.9582 11.9067 21.0298 11.9067C21.1025 11.9054 21.1725 11.8793 21.2284 11.8329C21.2843 11.7864 21.3227 11.7223 21.3373 11.6511C21.3455 11.617 22.0342 8.14596 19.1249 7.0541C17.8184 6.56351 17.0149 6.3107 16.3699 6.10845C15.5854 5.88306 14.823 5.58713 14.0919 5.2243L13.9388 5.19287Z" fill="#001E94"/>
<path d="M20.6347 11.1101C20.621 11.1005 18.8473 9.27753 16.3656 9.19691C16.2112 9.19691 16.0636 9.19691 15.9201 9.19691C14.0644 9.18871 13.0408 9.56587 12.2195 9.56587C12.1062 9.56626 11.993 9.55895 11.8806 9.54401L11.8369 9.86105C11.9637 9.87858 12.0916 9.88725 12.2195 9.88701C13.1351 9.88701 14.1054 9.51395 15.9256 9.51395C16.065 9.51395 16.2098 9.51668 16.3602 9.52214C17.5231 9.55767 18.5384 10.0114 19.2627 10.4596C19.5594 10.6432 19.8425 10.8477 20.1099 11.0718C20.2083 11.1538 20.2849 11.2221 20.3354 11.2699L20.4106 11.3424L20.6347 11.1101Z" fill="#001E94"/>
<path d="M14.9912 7.76213C14.9912 7.76213 16.6762 8.40304 16.7923 8.24589C16.9085 8.08874 15.5228 7.72524 14.9912 7.76213Z" fill="#001E94"/>
<path d="M8.72635 6.20558C8.58488 6.20485 8.44369 6.19297 8.30408 6.17005C7.91599 6.10992 7.65224 5.94457 7.51559 5.68219C7.25868 5.17794 7.59622 4.50833 7.61125 4.481L7.63585 4.43181L7.68914 4.41814C7.81585 4.38807 7.94564 4.37294 8.07587 4.37305C9.13494 4.37305 9.9494 5.36789 9.98903 5.41025L10.0328 5.46355L10.0082 5.52777C9.99176 5.55647 9.73349 6.20558 8.72635 6.20558Z" fill="white"/>
<path d="M8.07598 4.4932C9.08995 4.4932 9.89075 5.4853 9.89075 5.4853C9.89075 5.4853 9.66254 6.08522 8.72646 6.08522C8.58918 6.08441 8.45215 6.07344 8.31649 6.05242C7.04015 5.85154 7.71385 4.53556 7.71385 4.53556C7.83069 4.50765 7.95039 4.49343 8.07052 4.4932H8.07598ZM8.07052 4.25269C7.9324 4.25283 7.79478 4.26934 7.66055 4.30188L7.5526 4.32785L7.5034 4.42624C7.46377 4.5014 7.12897 5.1874 7.40774 5.73675C7.5608 6.03602 7.8546 6.22187 8.28233 6.28336C8.42826 6.3073 8.57585 6.31964 8.72372 6.32026C9.81695 6.32026 10.1012 5.59736 10.1121 5.56593L10.1613 5.42928L10.0766 5.32952C10.0424 5.28989 9.19245 4.25269 8.07598 4.25269H8.07052Z" fill="#001E94"/>
<path d="M8.00416 5.16557C8.0007 5.28387 8.0324 5.40055 8.09524 5.50085C8.15808 5.60115 8.24925 5.68056 8.35721 5.72906C8.46518 5.77755 8.5851 5.79295 8.70182 5.7733C8.81854 5.75365 8.92681 5.69984 9.01294 5.61866C9.09908 5.53749 9.15922 5.4326 9.18576 5.31726C9.2123 5.20191 9.20404 5.08129 9.16203 4.97064C9.12003 4.85998 9.04616 4.76427 8.94976 4.69559C8.85337 4.62691 8.73878 4.58835 8.62047 4.58479C8.54182 4.58224 8.46343 4.59526 8.38983 4.6231C8.31622 4.65095 8.24884 4.69307 8.19157 4.74704C8.13429 4.80101 8.08825 4.86577 8.05609 4.9376C8.02393 5.00942 8.00628 5.0869 8.00416 5.16557Z" fill="#001E94"/>
<path d="M10.5989 5.08356C10.4405 4.94561 10.2739 4.81738 10.1001 4.69956C9.9443 4.59707 9.75982 4.47818 9.55347 4.36476C9.34266 4.2419 9.12294 4.13502 8.89616 4.04499C8.6769 3.93792 8.44816 3.85146 8.21289 3.78671C8.01247 3.71272 7.80695 3.65335 7.59795 3.60906C7.23172 3.52844 6.98438 3.46558 6.98438 3.46558C6.98438 3.46558 7.23445 3.48197 7.61435 3.5216C7.83154 3.54579 8.04578 3.59157 8.25389 3.65826C8.49646 3.71834 8.73296 3.80068 8.96039 3.90424C9.19016 4.00312 9.41217 4.11915 9.62453 4.25134C9.80891 4.36716 9.98515 4.49546 10.152 4.63533C10.3148 4.77029 10.4644 4.92037 10.5989 5.08356Z" fill="#001E94"/>
<path d="M12.0996 1.60303C12.2729 1.66111 12.4415 1.73238 12.6039 1.81621C12.9646 2.00239 13.2961 2.24042 13.5878 2.52271C13.8819 2.80805 14.1003 3.16217 14.2232 3.55308C14.2666 3.732 14.2877 3.9156 14.2861 4.0997C14.2861 4.0997 14.2751 4.0464 14.2533 3.95211C14.2267 3.82534 14.1883 3.70136 14.1385 3.58178C13.9828 3.22399 13.757 2.90104 13.4743 2.63203C13.059 2.23522 12.5974 1.88974 12.0996 1.60303Z" fill="#001E94"/>
<path d="M3.34521 19.882C3.34521 19.882 3.58573 19.6401 3.97382 19.3094C4.44649 18.902 4.941 18.5206 5.45515 18.167L6.28601 17.6136C6.55932 17.4482 6.83263 17.3293 7.06357 17.2104C7.52546 16.9877 7.83567 16.8538 7.83567 16.8538C7.83567 16.8538 7.55416 17.0533 7.1278 17.3293L6.39943 17.7898L5.58907 18.3652C5.02059 18.7287 4.48218 19.1372 4.05445 19.4147L3.34521 19.882Z" fill="#001E94"/>
<path d="M5.57129 18.9949C5.57129 18.9949 5.80223 18.7926 6.16847 18.5139C6.61988 18.1788 7.08832 17.8672 7.5719 17.5805C7.83565 17.4247 8.11852 17.2908 8.36723 17.1569C8.61594 17.023 8.88378 16.9382 9.09287 16.8453C9.26811 16.7805 9.44812 16.7293 9.63128 16.6923L9.8349 16.6431C9.8349 16.6431 9.55066 16.7647 9.15163 16.9697C8.7526 17.1746 8.21691 17.4726 7.69626 17.7896L6.24773 18.6286L5.57129 18.9949Z" fill="#001E94"/>
<path d="M31.4853 35.9675C31.4853 35.9675 32.2915 37.3559 33.1853 38.6938C33.628 39.3661 34.1009 40.0166 34.4821 40.4839C34.6331 40.6741 34.796 40.8544 34.97 41.0237L35.1613 41.2232L34.9577 41.0374C34.7731 40.8777 34.5988 40.7065 34.4357 40.5249C34.0257 40.0808 33.5091 39.4563 33.0226 38.8113C32.0442 37.5267 31.145 36.1807 31.145 36.1807L31.4853 35.9675Z" fill="white"/>
<path d="M33.2863 36.0767L33.8329 36.9731C34.1731 37.502 34.6036 38.2249 35.0751 38.9191L35.7583 39.9453C35.9531 40.2463 36.1652 40.5356 36.3938 40.8117L37.0442 41.6316L36.35 40.8486C36.1062 40.5853 35.8781 40.3079 35.6668 40.0178C35.4276 39.7021 35.1748 39.3659 34.9193 39.0311C34.4055 38.3629 33.9313 37.6646 33.5527 37.1549C33.1742 36.6451 32.9487 36.2926 32.9487 36.2926L33.2863 36.0767Z" fill="white"/>
<path d="M34.6803 36.1682L37.9887 41.014L34.3564 36.406L34.6803 36.1682Z" fill="white"/>
<path d="M35.8088 36.0686L39.3591 41.3967L35.4795 36.2995L35.8088 36.0686Z" fill="white"/>
<path d="M36.8326 36.0864L40.7914 41.2L36.521 36.3379L36.8326 36.0864Z" fill="white"/>
<path d="M37.5814 35.5205L41.0975 38.93L37.3149 35.8198L37.5814 35.5205Z" fill="white"/>
<path d="M38.7007 35.2568C38.7007 35.2568 39.7502 36.0686 40.7108 36.9732C41.1532 37.3861 41.5733 37.8222 41.9694 38.2796C42.2742 38.6705 42.4655 38.9369 42.4655 38.9369C42.4655 38.9369 42.2523 38.6855 41.9189 38.322C41.4919 37.8998 41.0436 37.4998 40.5756 37.1235C39.5534 36.3036 38.4629 35.5834 38.4629 35.5821L38.7007 35.2568Z" fill="white"/>
<path d="M24.9985 27.6548C24.9985 27.6548 25.9551 29.7251 26.9595 31.7763C27.461 32.8012 27.968 33.8261 28.3725 34.5722C28.5235 34.8722 28.69 35.1641 28.8713 35.4468L29.0681 35.7515L28.6978 36.0645L28.4832 35.701C28.3081 35.3942 28.1489 35.0785 28.0063 34.7553C27.636 33.9764 27.1864 32.9269 26.7368 31.876C25.8485 29.7729 24.9985 27.6548 24.9985 27.6548Z" fill="white"/>
<path d="M25.9536 27.4949L28.3273 31.7312L30.6572 36.0084L30.2131 36.1956C30.2131 36.1956 29.1636 34.0133 28.1155 31.8405L25.9536 27.4949Z" fill="white"/>
<path d="M28.8848 27.4949C28.8848 27.4949 30.4085 29.6171 31.8911 31.768C32.6332 32.8449 33.3697 33.9244 33.8972 34.7567C34.161 35.1666 34.3851 35.5124 34.5204 35.7884C34.6557 36.0644 34.7431 36.2052 34.7431 36.2052L34.2908 36.3692L34.1049 35.9865C33.9997 35.7419 33.792 35.388 33.5501 34.9657C33.0677 34.1199 32.3817 33.0075 31.6903 31.9006C30.3087 29.6854 28.8848 27.4949 28.8848 27.4949Z" fill="white"/>
<path d="M27.2324 26.7461L31.537 35.9825L31.0929 36.1643L27.2324 26.7461Z" fill="white"/>
<path d="M28.5127 27.947L30.8836 32.0302L31.7637 33.5225C32.0466 33.9939 32.3035 34.4517 32.5372 34.8139L33.3051 36.0274L32.9334 36.3403L32.1819 35.0243C31.955 34.6321 31.7309 34.1743 31.4699 33.6837L30.665 32.1478L28.5127 27.947Z" fill="white"/>
<path d="M30.4341 28.9912L35.8374 36.0398L35.452 36.3282L30.4341 28.9912Z" fill="white"/>
<path d="M32.6084 30.5737L36.8706 36.0699L36.4825 36.3542L32.6084 30.5737Z" fill="white"/>
<path d="M33.5073 30.5737L34.1646 31.3363C34.5555 31.7981 35.0952 32.3953 35.6036 33.0239L37.6534 35.5425L37.2434 35.798L35.4136 33.1715C34.9559 32.5115 34.4571 31.8719 34.1059 31.3841L33.5073 30.5737Z" fill="white"/>
<path d="M38.0364 35.5589L37.472 34.7663C37.1359 34.2853 36.6794 33.6539 36.1984 33.0444L34.3003 30.5737L36.387 32.8969C36.9172 33.4735 37.4228 34.0693 37.7932 34.5203L38.4177 35.2692L38.0364 35.5589Z" fill="white"/>
<path d="M39.0503 35.3237L35.5273 30.8879L39.4138 35.0081L39.0503 35.3237Z" fill="white"/>
<path d="M19.1944 23.4172C19.1944 23.4172 18.8104 23.9898 18.1954 24.822C17.5805 25.6543 16.7278 26.7352 15.8327 27.7861C15.3899 28.3149 14.9062 28.8096 14.4661 29.2893C14.0261 29.7689 13.5697 30.1638 13.2021 30.5287C12.8928 30.8089 12.569 31.0726 12.2319 31.3186L11.8574 31.6083L12.2127 31.294C12.4286 31.0835 12.7593 30.813 13.1146 30.4372C13.4699 30.0614 13.8936 29.6377 14.3199 29.154C14.7463 28.6702 15.2164 28.1701 15.6509 27.6371C16.0855 27.1042 16.5529 26.5985 16.9587 26.0984L18.0902 24.7455L19.1944 23.4172Z" fill="#001E94"/>
<path d="M16.7783 27.6548C16.7783 27.6548 16.2904 28.2561 15.5265 29.1306C14.7627 30.0052 13.7159 31.1463 12.624 32.2505C12.0774 32.7971 11.5185 33.3355 10.9842 33.8274C10.7109 34.0721 10.4676 34.3208 10.2039 34.5271L9.47414 35.1202C9.27625 35.2956 9.06519 35.4555 8.8428 35.5985L8.32215 35.9251L7.87256 36.2066L8.30165 35.8909L8.79087 35.5302C8.98629 35.4031 9.16667 35.2008 9.38942 35.0163L10.0864 34.3959C10.3378 34.1814 10.5742 33.9204 10.8407 33.6744C11.3654 33.177 11.9189 32.6386 12.4532 32.081C13.5546 30.9973 14.6151 29.8713 15.4282 29.0432L16.7783 27.6548Z" fill="#001E94"/>
<path d="M13.8131 25.281C13.8131 25.281 13.5125 25.6035 13.0356 26.0586C12.5586 26.5136 11.9123 27.1108 11.2208 27.656L10.2014 28.4527C9.88705 28.7192 9.53038 28.89 9.25707 29.0759C8.68996 29.4175 8.31006 29.6321 8.31006 29.6321C8.31006 29.6321 8.65853 29.3588 9.18328 28.9625C9.44292 28.7616 9.76542 28.5607 10.0756 28.2874L11.0691 27.4675C11.766 26.9372 12.422 26.3537 12.9467 25.9547L13.8131 25.281Z" fill="#001E94"/>
<path d="M15.5282 21.6748C15.5282 21.6748 15.2549 22.1094 14.778 22.7257C14.2018 23.4789 13.586 24.201 12.9331 24.8889C12.5724 25.2579 12.1884 25.6063 11.8399 25.9439C11.4709 26.2595 11.1074 26.5328 10.8054 26.7775C10.4857 26.9988 10.1987 27.1519 10.0074 27.2735L9.70264 27.4566L10.7221 26.6709C11.0063 26.4126 11.3411 26.1133 11.6978 25.7908C12.0545 25.4683 12.4098 25.0952 12.761 24.7222C13.1122 24.3491 13.4784 23.9856 13.7927 23.6194C14.107 23.2532 14.4254 22.9361 14.6741 22.6409L15.5282 21.6748Z" fill="#001E94"/>
<path d="M13.9414 5.50995L13.9783 4.34839L14.8174 5.91034L13.9414 5.50995Z" fill="#001E94"/>
<path d="M15.1878 11.0554C15.1041 11.2653 15.0064 11.4694 14.8954 11.6663C14.7929 11.8412 14.6808 12.053 14.5455 12.2703L14.0755 12.9207C13.9186 13.1365 13.7507 13.344 13.5726 13.5425C13.3977 13.7284 13.2214 13.8896 13.0765 14.0345C12.7827 14.3146 12.5723 14.4854 12.5723 14.4854C12.5723 14.4854 12.7294 14.2613 12.9822 13.9388C13.1107 13.783 13.2555 13.5945 13.4154 13.4059C13.5832 13.2036 13.7405 12.9928 13.8869 12.7745C14.2244 12.355 14.536 11.9191 14.7765 11.5925L15.1878 11.0554Z" fill="#001E94"/>
<path d="M14.6132 12.467C14.6132 12.467 14.4874 12.7267 14.2647 13.0984C13.9905 13.5488 13.6888 13.9819 13.3614 14.3952C13.1838 14.6221 12.9829 14.8271 12.8025 15.032C12.6221 15.237 12.4171 15.3901 12.2559 15.539C12.1189 15.6484 11.9746 15.7484 11.824 15.8383L11.6587 15.9449L11.7953 15.8082C11.8896 15.7153 12.0263 15.5964 12.1629 15.442C12.4472 15.1222 12.8216 14.6986 13.1687 14.2463C13.5158 13.794 13.8793 13.3553 14.1499 13.0164L14.6132 12.467Z" fill="#001E94"/>
<path d="M30.4605 35.9401C30.4605 35.9401 31.1014 36.0344 32.0771 36.0767C33.2623 36.1437 34.451 36.1085 35.6301 35.9715C36.2575 35.9009 36.8779 35.7775 37.4845 35.6025C37.7634 35.5265 38.0373 35.4329 38.3044 35.3224L39.0492 35.0491C39.5056 34.8728 39.8978 34.7498 40.1725 34.6637C40.4472 34.5776 40.6112 34.5435 40.6112 34.5435C40.6112 34.5435 40.4745 34.6364 40.2244 34.784C39.9744 34.9316 39.6136 35.1311 39.1695 35.347C38.9372 35.4522 38.7144 35.5547 38.4425 35.6627C38.1655 35.782 37.8817 35.8847 37.5925 35.9701C36.9676 36.1612 36.3276 36.2983 35.6793 36.3801C34.4724 36.5332 33.2527 36.5598 32.0402 36.4593C31.0536 36.376 30.4004 36.2544 30.4004 36.2544L30.4605 35.9401Z" fill="white"/>
<path d="M39.3604 35.0122L42.964 38.3425L39.1035 35.3197L39.3604 35.0122Z" fill="white"/>
<path d="M8.25 8.90044C8.83083 8.74735 9.41924 8.62465 10.0128 8.53284C10.3088 8.47866 10.6117 8.47358 10.9093 8.5178C11.2318 8.60663 11.4969 8.82938 11.7757 8.99473C11.8949 9.08284 12.0376 9.13371 12.1856 9.14095C12.3223 9.11772 12.5136 9.06032 12.6776 9.02206C13.0206 8.93597 13.3827 8.87721 13.7367 8.80478C14.0906 8.73235 14.45 8.68862 14.8039 8.64489C15.1579 8.60116 15.5186 8.54104 15.8726 8.64489C16.4756 8.80353 17.0633 9.01573 17.6286 9.27897C18.029 9.45426 18.4143 9.66222 18.7806 9.90075C18.921 9.9884 19.0512 10.0915 19.1687 10.2082C19.0429 10.1018 18.9053 10.0101 18.7587 9.93491C18.3744 9.73525 17.9788 9.55821 17.5739 9.40469C17.0076 9.18174 16.4263 8.99908 15.8343 8.85807C15.5296 8.76105 15.1893 8.82938 14.8408 8.87037L13.7872 9.03709C13.4374 9.10405 13.0862 9.15325 12.7418 9.23387C12.5601 9.2735 12.4193 9.31723 12.2089 9.3514C12.0146 9.34709 11.8265 9.28264 11.6705 9.16691C11.3821 8.97286 11.143 8.75695 10.8656 8.66676C10.5893 8.61788 10.307 8.61327 10.0292 8.65309C9.43233 8.70516 8.83848 8.78772 8.25 8.90044Z" fill="#001E94"/>
<path d="M11.2251 10.3175L11.9808 10.2957C12.2063 10.2957 12.4659 10.267 12.7447 10.256C13.0306 10.2381 13.3148 10.1984 13.5947 10.1372C13.8735 10.0742 14.1451 9.98261 14.405 9.86384C14.666 9.75452 14.9189 9.67663 15.132 9.59053C15.3452 9.50444 15.542 9.47848 15.6664 9.44158L15.8686 9.39648C15.8686 9.39648 15.5953 9.5509 15.2045 9.75589C14.8136 9.96087 14.2998 10.2752 13.6616 10.4392C13.3619 10.491 13.0585 10.5189 12.7543 10.5225C12.4923 10.5182 12.2309 10.4986 11.9712 10.4638C11.7192 10.4338 11.4698 10.3849 11.2251 10.3175Z" fill="#001E94"/>
<path d="M36.1709 51.7536C35.9227 51.766 35.674 51.7637 35.4261 51.7468L34.6609 51.7167L33.7918 51.6142C33.5013 51.5906 33.2128 51.5477 32.9281 51.4858L32.1874 51.3095L31.4673 51.1414L32.1984 51.2616L32.9431 51.3846C33.2286 51.4277 33.5167 51.451 33.8054 51.4543L34.6691 51.4967L35.4193 51.4762C35.6645 51.4752 35.9095 51.4611 36.1531 51.4338L36.1709 51.7536Z" fill="#001E94"/>
<path d="M36.6743 50.8354C36.6153 50.8632 36.5534 50.8843 36.4898 50.8982L35.9295 50.9556C35.8129 50.9609 35.6962 50.9541 35.581 50.9351C35.4608 50.9228 35.3337 50.9078 35.2025 50.8955C34.9401 50.8614 34.6559 50.8518 34.3826 50.793L32.207 50.3052L34.4044 50.6345C34.6777 50.6728 34.9511 50.6618 35.2121 50.6755L35.5824 50.6892C35.6901 50.6996 35.7986 50.6996 35.9063 50.6892C36.0907 50.6591 36.2411 50.64 36.3477 50.6277L36.4734 50.5798L36.5185 50.5594L36.6743 50.8354Z" fill="#001E94"/>
<path d="M36.8447 49.8789C36.5993 49.8999 36.3527 49.904 36.1067 49.8912C35.8534 49.8943 35.6001 49.8815 35.3483 49.8529L34.4915 49.7505C33.9066 49.6999 33.3463 49.5031 32.9172 49.4225L32.208 49.2544L32.9268 49.3733C33.3614 49.4252 33.9271 49.581 34.5093 49.5919L35.3593 49.6343C35.6039 49.646 35.849 49.6415 36.0931 49.6206C36.3334 49.6168 36.5731 49.5963 36.8105 49.5591L36.8447 49.8789Z" fill="#001E94"/>
<path d="M49.5361 39.3045C50.1237 39.8921 51.5134 41.2805 51.5134 40.4797C51.4908 39.9373 51.3445 39.4073 51.0857 38.93C51.0857 38.93 53.0549 40.3157 53.2722 41.1712L53.3569 41.0673C53.8366 40.4155 52.1543 38.8317 51.6733 38.4941C51.3385 38.2577 50.0171 38.5105 48.9512 38.7223C49.1357 38.9041 49.3324 39.1063 49.5361 39.3045Z" fill="white"/>
<path d="M50.2603 41.0142C50.2603 41.0142 52.2691 42.7237 51.5981 42.777C50.9271 42.8303 50.2603 41.0142 50.2603 41.0142Z" fill="white"/>
<path d="M56.7276 46.789C57.0747 46.6729 57.0733 46.4378 56.8246 46.1344C55.7901 46.5444 50.6847 46.5444 50.6847 46.5444C50.805 46.5444 51.9269 46.2028 51.9269 46.2028C51.1247 46.4214 47.1167 45.8229 46.5974 45.7764C46.0781 45.7299 46.1574 46.3449 46.3569 46.7849C46.5564 47.2249 47.4843 46.7849 47.4843 46.7849C47.4843 46.7849 52.9368 46.9516 56.0416 46.9093L56.2465 46.8833C56.4093 46.8658 56.5702 46.8343 56.7276 46.789Z" fill="#001E94"/>
<path d="M41.3024 48.0366C42.2303 47.5405 44.5316 46.1234 44.7748 45.7804C45.0604 45.3882 40.8706 47.5118 40.2994 47.6266C39.7282 47.7414 37.6223 47.9068 37.6223 47.9068L37.375 48.5449C38.3138 48.6351 39.6599 48.713 40.3814 48.5299L40.6328 48.5928C41.4689 48.3119 42.2536 47.8965 42.9559 47.3629C43.2743 47.1101 41.9529 47.7278 41.3024 48.0366Z" fill="#001E94"/>
</svg>
