<svg width="73" height="110" viewBox="0 0 73 110" fill="none" xmlns="http://www.w3.org/2000/svg">
<path d="M7.5384 45.4254C6.09361 45.4254 4.68126 44.997 3.47996 44.1943C2.27866 43.3916 1.34236 42.2507 0.789462 40.9159C0.236564 39.5811 0.0919002 38.1123 0.373765 36.6953C0.65563 35.2783 1.35136 33.9766 2.37299 32.955C3.39461 31.9334 4.69624 31.2377 6.11327 30.9558C7.5303 30.6739 8.99909 30.8186 10.3339 31.3715C11.6687 31.9244 12.8096 32.8607 13.6123 34.062C14.415 35.2633 14.8434 36.6756 14.8434 38.1204C14.8416 40.0573 14.0714 41.9143 12.7019 43.2839C11.3323 44.6535 9.47527 45.4237 7.5384 45.4254ZM7.5384 35.1588C6.95212 35.1588 6.379 35.3327 5.89155 35.6585C5.40411 35.9842 5.02423 36.4473 4.79997 36.989C4.57571 37.5307 4.51714 38.1267 4.63168 38.7017C4.74622 39.2767 5.02872 39.8048 5.44345 40.2192C5.85817 40.6336 6.38648 40.9157 6.96155 41.0298C7.53663 41.1439 8.13262 41.0849 8.67416 40.8602C9.21569 40.6356 9.67842 40.2553 10.0038 39.7677C10.3292 39.28 10.5027 38.7067 10.5022 38.1204C10.5022 37.3344 10.19 36.5805 9.63415 36.0247C9.07832 35.4689 8.32446 35.1566 7.5384 35.1566V35.1588Z" fill="white"/>
<path d="M7.53864 31.0513C8.93741 31.0508 10.3049 31.4652 11.4681 32.2421C12.6313 33.0189 13.538 34.1233 14.0735 35.4155C14.609 36.7077 14.7492 38.1297 14.4765 39.5016C14.2037 40.8735 13.5302 42.1337 12.5411 43.1228C11.552 44.1119 10.2918 44.7854 8.91987 45.0582C7.54796 45.331 6.12596 45.1908 4.83374 44.6553C3.54153 44.1198 2.43715 43.2131 1.66031 42.0499C0.883469 40.8867 0.469059 39.5192 0.469499 38.1204C0.469499 37.1921 0.652348 36.2728 1.00761 35.4152C1.36286 34.5575 1.88357 33.7782 2.54 33.1218C3.19643 32.4653 3.97573 31.9446 4.8334 31.5894C5.69106 31.2341 6.61031 31.0513 7.53864 31.0513ZM7.53864 41.3179C8.17113 41.3183 8.78955 41.1312 9.31566 40.7801C9.84178 40.429 10.252 39.9298 10.4943 39.3456C10.7367 38.7613 10.8003 38.1184 10.6772 37.498C10.554 36.8776 10.2497 36.3076 9.8026 35.8602C9.35552 35.4128 8.78579 35.1081 8.16548 34.9845C7.54517 34.861 6.90215 34.9242 6.31776 35.1661C5.73337 35.4081 5.23386 35.8179 4.88242 36.3437C4.53098 36.8696 4.3434 37.4879 4.3434 38.1204C4.34399 38.9679 4.68074 39.7805 5.27978 40.3799C5.87881 40.9794 6.69118 41.3167 7.53864 41.3179ZM7.53864 30.584C6.04754 30.584 4.58994 31.0262 3.35017 31.8546C2.1104 32.6831 1.14415 33.8606 0.573635 35.2382C0.00311884 36.6159 -0.146041 38.1317 0.145019 39.5942C0.436079 41.0566 1.15429 42.3998 2.20881 43.454C3.26333 44.5082 4.60679 45.226 6.06929 45.5167C7.53179 45.8073 9.04763 45.6577 10.4251 45.0868C11.8026 44.5159 12.9798 43.5493 13.8079 42.3092C14.636 41.0692 15.0777 39.6115 15.0773 38.1204C15.0749 36.122 14.2798 34.2061 12.8665 32.7932C11.4532 31.3803 9.53708 30.5858 7.53864 30.584ZM7.53864 40.8506C6.99866 40.8506 6.4708 40.6905 6.02182 40.3905C5.57284 40.0905 5.22291 39.6641 5.01627 39.1652C4.80962 38.6663 4.75556 38.1174 4.8609 37.5878C4.96625 37.0582 5.22627 36.5717 5.6081 36.1899C5.98992 35.808 6.4764 35.548 7.006 35.4427C7.53561 35.3373 8.08456 35.3914 8.58344 35.598C9.08232 35.8047 9.50872 36.1546 9.80871 36.6036C10.1087 37.0526 10.2688 37.5804 10.2688 38.1204C10.2682 38.8443 9.98041 39.5384 9.46853 40.0503C8.95665 40.5622 8.26255 40.85 7.53864 40.8506Z" fill="#001E94"/>
<path d="M7.43164 41.3157H7.53845C8.38647 41.3157 9.19975 40.9788 9.7994 40.3792C10.399 39.7795 10.7359 38.9662 10.7359 38.1182C10.7359 37.2702 10.399 36.4569 9.7994 35.8573C9.19975 35.2576 8.38647 34.9207 7.53845 34.9207H7.43164V32.1616H7.53845C8.32068 32.1616 9.09525 32.3157 9.81793 32.615C10.5406 32.9144 11.1973 33.3531 11.7504 33.9063C12.3035 34.4594 12.7423 35.116 13.0416 35.8387C13.341 36.5614 13.495 37.336 13.495 38.1182C13.495 38.9004 13.341 39.675 13.0416 40.3977C12.7423 41.1204 12.3035 41.777 11.7504 42.3302C11.1973 42.8833 10.5406 43.322 9.81793 43.6214C9.09525 43.9207 8.32068 44.0748 7.53845 44.0748H7.43164V41.3157Z" fill="#001E94"/>
<path d="M2.44922 41.1111C2.69854 41.4698 2.97927 41.8057 3.28808 42.1146C3.64001 42.4604 4.03485 42.7595 4.46293 43.0047C5.01608 43.3224 5.61732 43.5479 6.24301 43.6722C6.93724 43.8502 7.65373 43.8035 8.46811 43.6722C8.87976 43.6277 9.22465 43.4364 9.61626 43.3295C9.98341 43.1582 10.3528 42.9424 10.7177 42.7265C11.3852 42.1947 12.0527 41.5762 12.431 40.7596C12.8961 39.9874 13.0451 39.0663 13.0985 38.1673C13.0828 37.7066 13.0329 37.2478 12.9495 36.7944C12.8004 36.3828 12.7448 35.9422 12.4911 35.5595L12.1774 34.9698L11.7679 34.4892C11.5187 34.1176 11.1471 33.8773 10.8289 33.5992C10.5108 33.321 10.0947 33.1542 9.74755 32.9317C9.3626 32.7959 8.97766 32.658 8.59939 32.5534C8.21223 32.5133 7.81616 32.4488 7.46459 32.4243C7.09811 32.424 6.73238 32.4575 6.37207 32.5245C5.2521 32.72 4.21354 33.2381 3.38376 34.0153C3.0688 34.3168 2.78067 34.6451 2.52265 34.9965C2.74672 34.6173 3.00757 34.2611 3.30143 33.9329C3.64868 33.5587 4.04108 33.2291 4.46961 32.9517C5.03245 32.5858 5.65769 32.3264 6.31422 32.1862C6.68322 32.1004 7.05939 32.049 7.43789 32.0327C7.85621 32.0327 8.25228 32.0883 8.68395 32.1195C9.09559 32.2107 9.51836 32.342 9.9478 32.4755C10.3627 32.6684 10.7609 32.8954 11.1382 33.1542C11.4942 33.4568 11.9014 33.7216 12.184 34.1154L12.6469 34.6784L13.0029 35.3214C13.2788 35.7308 13.3745 36.2515 13.5391 36.7321C13.6358 37.2148 13.6939 37.7044 13.7127 38.1962C13.6392 39.1909 13.4479 40.1988 12.9272 41.051C12.4822 41.9411 11.7546 42.6086 11.0181 43.1782C10.6257 43.421 10.2159 43.6344 9.79205 43.8168C9.34703 43.9259 8.91758 44.1106 8.50816 44.135C7.70935 44.2196 6.84824 44.2396 6.15178 44.0171C5.50149 43.86 4.88589 43.5839 4.3361 43.2027C3.9132 42.9163 3.52882 42.5768 3.1924 42.1925C2.97234 41.9518 2.78048 41.6868 2.62055 41.4026L2.44922 41.1111Z" fill="#001E94"/>
<path d="M3.08789 40.7596C3.30353 41.0791 3.54942 41.3772 3.82217 41.6496C4.54112 42.3518 5.44737 42.8315 6.43221 43.0314C7.08252 43.1691 7.75406 43.1729 8.40588 43.0425C8.75079 42.9685 9.08931 42.8673 9.4183 42.7399C9.74094 42.5886 10.068 42.3973 10.3907 42.2059C11.0196 41.7506 11.5363 41.1577 11.9015 40.4726C12.3132 39.7895 12.4444 38.9751 12.4978 38.1829C12.4837 37.7768 12.4399 37.3722 12.3666 36.9725C12.233 36.6076 12.1841 36.2204 11.9616 35.8822L11.6857 35.3593L11.3185 34.9143C11.0755 34.6184 10.7968 34.3538 10.4886 34.1266C10.1835 33.916 9.86544 33.725 9.53623 33.5547C9.19356 33.4346 8.85535 33.3122 8.52158 33.221C8.17892 33.1854 7.82958 33.1275 7.51806 33.1052C6.18393 33.1076 4.89864 33.6075 3.9134 34.5071C3.6347 34.7729 3.38142 35.0642 3.15687 35.3771C3.35751 35.0444 3.58922 34.7315 3.84887 34.4425C4.15496 34.1125 4.50018 33.8211 4.87687 33.5747C5.3737 33.2547 5.925 33.0285 6.50342 32.9072C6.82959 32.8329 7.16167 32.7875 7.49581 32.7715C7.86518 32.7715 8.21452 32.8204 8.59501 32.8471C8.95993 32.9272 9.33152 33.0429 9.70756 33.1609C10.0744 33.3317 10.4264 33.5326 10.76 33.7617C11.1018 34.0049 11.4113 34.2905 11.6812 34.6116L12.0906 35.1056L12.4044 35.673C12.6491 36.0357 12.7337 36.4963 12.8783 36.9213C12.9628 37.3469 13.0141 37.7783 13.0319 38.2119C12.9673 39.0885 12.8093 39.9919 12.3376 40.7307C11.9268 41.4776 11.3497 42.1202 10.651 42.6087C10.3044 42.8148 9.94294 42.9947 9.5696 43.1471C9.20089 43.2736 8.82196 43.3682 8.43703 43.4297C7.74346 43.533 7.03628 43.4975 6.35656 43.3251C5.78202 43.1864 5.2386 42.9411 4.75449 42.602C4.38265 42.3494 4.04466 42.0503 3.74875 41.7119C3.49986 41.4153 3.27865 41.0965 3.08789 40.7596Z" fill="#001E94"/>
<path d="M3.7334 40.4077C3.92089 40.6844 4.13395 40.9429 4.36978 41.1798C4.99243 41.7897 5.7784 42.2063 6.6327 42.3791C7.19663 42.4931 7.77765 42.4931 8.34158 42.3791C8.64489 42.3159 8.94256 42.2281 9.23162 42.1166C9.51198 41.9853 9.79457 41.8206 10.0749 41.6538C10.6207 41.2588 11.069 40.7443 11.3855 40.1496C11.7126 39.5391 11.8896 38.8595 11.9017 38.167C11.8905 37.8146 11.8526 37.4635 11.7883 37.1168C11.6726 36.8008 11.6303 36.4626 11.4367 36.1711L11.1964 35.7261L10.8782 35.3322C10.669 35.0739 10.4274 34.8436 10.1595 34.6469C9.8947 34.4648 9.61901 34.2991 9.33397 34.1507C9.03581 34.0484 8.74432 33.9416 8.44393 33.8637C8.15022 33.8303 7.84538 33.7813 7.57615 33.7635C6.42295 33.7656 5.31204 34.198 4.46101 34.9762C4.21187 35.2062 3.98536 35.4595 3.78458 35.7328C3.96208 35.4484 4.16542 35.181 4.39203 34.9339C5.00261 34.2619 5.80636 33.7955 6.69278 33.5989C6.97569 33.5338 7.2639 33.4943 7.55389 33.481C7.87431 33.481 8.17692 33.5232 8.50624 33.5477C8.8222 33.6145 9.14484 33.7168 9.47415 33.8192C9.79142 33.9677 10.0965 34.1411 10.3864 34.3376C10.6823 34.5499 10.9506 34.798 11.1853 35.0764L11.5413 35.5058L11.8127 35.9975C12.0352 36.3113 12.0953 36.7096 12.2222 37.0767C12.2958 37.4435 12.3404 37.8155 12.3557 38.1893C12.3311 38.9414 12.1319 39.6775 11.7739 40.3394C11.416 41.0013 10.909 41.5708 10.293 42.0031C9.99352 42.187 9.6812 42.3491 9.35845 42.4882C9.03911 42.5982 8.71077 42.6801 8.37718 42.7329C7.77551 42.8214 7.1623 42.7904 6.57263 42.6417C5.69267 42.4197 4.90299 41.9308 4.31192 41.2421C4.0919 40.9838 3.8981 40.7043 3.7334 40.4077Z" fill="#001E94"/>
<path d="M4.33691 40.0803L4.89096 40.7478C5.13235 40.9631 5.39054 41.1588 5.66307 41.333C6.03157 41.5234 6.4215 41.6691 6.82458 41.7669C7.30789 41.8583 7.80354 41.8635 8.28869 41.7825C8.54423 41.7286 8.795 41.6542 9.03855 41.56C9.27886 41.4465 9.5214 41.3085 9.75948 41.1661C10.2225 40.8258 10.6028 40.3854 10.872 39.8778C11.1531 39.3552 11.3056 38.7733 11.3171 38.18C11.3064 37.8814 11.2737 37.5839 11.2191 37.29C11.153 37.0093 11.0521 36.738 10.9188 36.4823C10.6668 35.9636 10.2927 35.5138 9.82846 35.1717C9.60216 35.0154 9.36578 34.8741 9.12088 34.7489C8.86722 34.6577 8.61578 34.5687 8.36879 34.4997C8.11958 34.473 7.8459 34.4285 7.63451 34.4152L6.9069 34.4931C6.68972 34.5156 6.47814 34.5758 6.28165 34.6711C6.09461 34.7315 5.91238 34.8059 5.7365 34.8936C5.4629 35.0658 5.20055 35.2554 4.95104 35.461L4.38364 36.104L4.89764 35.3787C5.13749 35.1469 5.39246 34.9314 5.66085 34.7334C6.03745 34.5077 6.44643 34.3411 6.87353 34.2394L7.59668 34.1304C7.88595 34.1304 8.13516 34.166 8.41997 34.1838C8.68921 34.2439 8.96512 34.3284 9.24548 34.4063C9.51802 34.5321 9.77931 34.681 10.0265 34.8513C10.5415 35.2183 10.9599 35.7046 11.2458 36.2687C11.4011 36.5614 11.5192 36.8724 11.5974 37.1943C11.6588 37.51 11.6968 37.8298 11.7109 38.1511C11.6896 38.7947 11.5191 39.4245 11.2129 39.9909C10.9067 40.5574 10.4731 41.045 9.94639 41.4153C9.6903 41.5728 9.42336 41.7118 9.14758 41.8314C8.87411 41.9238 8.59356 41.9938 8.30872 42.0406C8.04474 42.0759 7.77797 42.0856 7.51213 42.0695L6.7645 41.9538C6.34444 41.8359 5.94406 41.6567 5.57629 41.422C5.3092 41.2204 5.05914 40.9971 4.82866 40.7545L4.33691 40.0803Z" fill="#001E94"/>
<path d="M36.2488 16.5103C34.6389 16.5103 33.0651 16.0329 31.7265 15.1384C30.388 14.2439 29.3447 12.9726 28.7287 11.4852C28.1128 9.99775 27.9517 8.36108 28.2659 6.78212C28.5802 5.20317 29.3556 3.75287 30.4941 2.61464C31.6327 1.47641 33.0832 0.701384 34.6622 0.387574C36.2413 0.0737646 37.8779 0.23527 39.3652 0.851664C40.8524 1.46806 42.1235 2.51165 43.0176 3.85047C43.9117 5.18928 44.3887 6.76317 44.3882 8.37309C44.3853 10.5307 43.5267 12.599 42.0009 14.1245C40.475 15.6499 38.4064 16.5079 36.2488 16.5103ZM36.2488 4.1632C35.4162 4.1632 34.6022 4.41011 33.9099 4.87269C33.2176 5.33528 32.678 5.99278 32.3594 6.76203C32.0407 7.53129 31.9574 8.37776 32.1198 9.1944C32.2822 10.011 32.6832 10.7612 33.272 11.3499C33.8607 11.9387 34.6109 12.3396 35.4275 12.5021C36.2441 12.6645 37.0906 12.5812 37.8599 12.2625C38.6291 11.9439 39.2866 11.4043 39.7492 10.712C40.2118 10.0197 40.4587 9.20573 40.4587 8.37309C40.4575 7.25692 40.0136 6.1868 39.2243 5.39755C38.4351 4.6083 37.365 4.16438 36.2488 4.1632Z" fill="white"/>
<path d="M36.2485 0.467271C37.8123 0.466831 39.341 0.930122 40.6414 1.79855C41.9418 2.66698 42.9554 3.90154 43.5541 5.3461C44.1528 6.79065 44.3097 8.38031 44.0049 9.91403C43.7001 11.4477 42.9473 12.8566 41.8418 13.9625C40.7362 15.0684 39.3276 15.8215 37.7939 16.1268C36.2603 16.432 34.6706 16.2756 33.2259 15.6772C31.7811 15.0789 30.5463 14.0656 29.6775 12.7655C28.8087 11.4653 28.345 9.93676 28.345 8.37305C28.345 6.27669 29.1776 4.26616 30.6598 2.78361C32.1419 1.30105 34.1522 0.467861 36.2485 0.467271ZM36.2485 12.8143C37.1287 12.8143 37.9891 12.5533 38.7209 12.0644C39.4528 11.5754 40.0232 10.8803 40.36 10.0672C40.6968 9.254 40.7849 8.35921 40.6132 7.49596C40.4415 6.6327 40.0177 5.83975 39.3953 5.21738C38.7729 4.59501 37.98 4.17117 37.1167 3.99946C36.2535 3.82775 35.3587 3.91588 34.5455 4.2527C33.7324 4.58953 33.0373 5.15992 32.5483 5.89175C32.0593 6.62358 31.7983 7.48398 31.7983 8.36415C31.7983 9.54441 32.2672 10.6763 33.1018 11.5109C33.9364 12.3455 35.0683 12.8143 36.2485 12.8143ZM36.2485 0C34.5925 0 32.9737 0.491071 31.5967 1.41111C30.2198 2.33116 29.1466 3.63885 28.5129 5.16882C27.8791 6.6988 27.7133 8.38234 28.0364 10.0065C28.3595 11.6308 29.1569 13.1227 30.3279 14.2937C31.4989 15.4647 32.9908 16.2621 34.615 16.5852C36.2393 16.9083 37.9228 16.7425 39.4528 16.1087C40.9828 15.475 42.2904 14.4018 43.2105 13.0249C44.1305 11.6479 44.6216 10.0291 44.6216 8.37305C44.6192 6.1531 43.7363 4.02475 42.1666 2.45501C40.5968 0.88527 38.4685 0.00235601 36.2485 0V0ZM36.2485 12.3471C35.4626 12.3466 34.6945 12.1132 34.0413 11.6763C33.3881 11.2393 32.8791 10.6185 32.5786 9.8923C32.2782 9.1661 32.1998 8.36713 32.3534 7.59639C32.507 6.82565 32.8856 6.11776 33.4415 5.5622C33.9974 5.00665 34.7055 4.62838 35.4763 4.47522C36.2471 4.32206 37.0461 4.40089 37.7721 4.70174C38.4981 5.00259 39.1186 5.51195 39.5552 6.16543C39.9918 6.81891 40.2248 7.58716 40.2248 8.37305C40.2236 9.42705 39.8042 10.4375 39.0587 11.1826C38.3132 11.9277 37.3025 12.3465 36.2485 12.3471Z" fill="#001E94"/>
<path d="M35.8108 1.43066L35.3235 1.51744C35.0164 1.602 34.5202 1.58197 33.9751 1.84898C33.6992 1.96691 33.3788 2.07149 33.0606 2.22725L32.0882 2.87253C31.77 3.13954 31.4763 3.47331 31.1425 3.79149C30.8514 4.17839 30.5818 4.581 30.3348 4.9975C29.9343 5.91869 29.5672 6.96004 29.625 8.09706C29.6361 8.36185 29.625 8.69561 29.6539 8.91145C29.7185 9.20739 29.7852 9.50777 29.8497 9.80149C29.901 10.0949 30.0011 10.3777 30.1457 10.6381C30.2547 10.902 30.378 11.1597 30.5151 11.4102C31.1658 12.4302 32.0537 13.2776 33.1028 13.8801C33.6702 14.1026 34.2154 14.3963 34.8206 14.4853C35.3724 14.6878 36.1112 14.5944 36.5607 14.6567C37.8091 14.56 39.0119 14.1448 40.0541 13.4507C41.0171 12.7217 41.7902 11.7715 42.3081 10.6804C42.7153 9.56785 42.9756 8.39077 42.7798 7.27155C42.6797 6.0878 42.208 5.17996 41.6895 4.28992C41.3921 3.90806 41.0742 3.5426 40.7372 3.19517C40.3678 2.91926 40.034 2.62554 39.6847 2.40081L38.6411 1.88013C38.3029 1.75775 37.9736 1.6999 37.6843 1.6198C37.1103 1.42176 36.623 1.50409 36.3048 1.45737L35.8108 1.43066ZM35.8108 1.43066L36.3048 1.44624C36.623 1.48407 37.1125 1.39284 37.6932 1.57752C37.9847 1.65317 38.3185 1.70435 38.6634 1.82006L39.7492 2.28733C40.1164 2.49204 40.4768 2.76795 40.8773 3.03051C41.2334 3.34202 41.5872 3.69804 41.9654 4.07408C42.248 4.5191 42.633 4.93074 42.871 5.46699C43.1091 6.00324 43.3962 6.57954 43.4718 7.15362C43.8167 8.35295 43.6943 9.72138 43.3361 11.0587C42.8778 12.4404 42.0414 13.6661 40.9219 14.5966C39.7959 15.5289 38.0737 16.0807 36.8165 16.2098C36.2781 16.2098 36.0088 16.1831 35.595 16.1675C35.2171 16.1537 34.8428 16.0885 34.4824 15.9739C33.7237 15.8449 33.0583 15.4644 32.3953 15.1284C31.1665 14.3451 30.1815 13.2337 29.5516 11.9198C29.4125 11.5946 29.2944 11.2609 29.1978 10.9207C29.0766 10.6115 29.0017 10.2861 28.9753 9.95502C28.9419 9.64796 28.9085 9.34089 28.8752 9.0405C28.8707 8.71325 28.8893 8.3861 28.9308 8.06146C29.0042 6.8154 29.5182 5.73401 30.0433 4.82394C30.3726 4.40785 30.6775 4.0051 30.9934 3.65131C31.3561 3.3398 31.681 3.02161 32.0192 2.7724L33.0383 2.17162C33.3654 2.01364 33.6903 1.92019 33.9706 1.81116C34.5247 1.55527 35.0187 1.58865 35.3279 1.50632L35.8108 1.43066Z" fill="#001E94"/>
<path d="M36.2488 38.2983L36.0774 38.2205L31.3357 33.0671L31.2734 32.8958L32.7264 10.9919L32.9267 10.7739L36.2176 10.311L39.5731 10.7739L39.7733 10.9919L41.2263 32.8958L41.164 33.0671L36.4223 38.2205L36.2488 38.2983Z" fill="white"/>
<path d="M36.2491 10.5423L39.54 11.0051L40.9908 32.9112L36.2491 38.0623L31.5074 32.9112L32.9604 11.0051L36.2491 10.5423ZM36.2491 10.0728H36.1846L32.8937 10.5378C32.7877 10.5533 32.6902 10.6045 32.6173 10.683C32.5445 10.7616 32.5007 10.8626 32.4931 10.9695L31.0402 32.8733C31.0358 32.9368 31.0444 33.0005 31.0655 33.0606C31.0865 33.1206 31.1195 33.1758 31.1625 33.2227L35.9042 38.3738C35.9482 38.4214 36.0015 38.4594 36.0609 38.4853C36.1202 38.5113 36.1843 38.5247 36.2491 38.5247C36.3139 38.5247 36.378 38.5113 36.4374 38.4853C36.4967 38.4594 36.55 38.4214 36.594 38.3738L41.3379 33.2227C41.3805 33.1755 41.4133 33.1203 41.4343 33.0603C41.4553 33.0004 41.4641 32.9368 41.4603 32.8733L40.0073 10.9695C40.0002 10.8625 39.9565 10.7612 39.8836 10.6826C39.8107 10.604 39.7129 10.5529 39.6068 10.5378L36.3159 10.0772L36.2491 10.0728Z" fill="#001E94"/>
<path d="M13.8665 41.1045L13.6641 40.873V35.2524L13.8665 35.0188L31.5071 32.6758L31.6807 32.7514L36.4224 37.9048V38.2207L31.6807 43.3741L31.5071 43.4497L13.8665 41.1045Z" fill="white"/>
<path d="M31.5074 32.9114L36.2491 38.0625L31.5074 43.2137L13.8979 40.8728V35.2522L31.5074 32.9114ZM31.5074 32.4419H31.4473L13.8379 34.7872C13.725 34.8018 13.6214 34.8571 13.5464 34.9428C13.4714 35.0284 13.4303 35.1384 13.4307 35.2522V40.8728C13.4303 40.9864 13.4716 41.0962 13.5466 41.1814C13.6216 41.2667 13.7252 41.3215 13.8379 41.3357L31.4473 43.6787H31.5074C31.5722 43.6785 31.6362 43.665 31.6956 43.639C31.7549 43.6129 31.8082 43.5749 31.8523 43.5274L36.5939 38.3741C36.6745 38.2886 36.7194 38.1756 36.7194 38.0581C36.7194 37.9406 36.6745 37.8276 36.5939 37.7421L31.8523 32.5888C31.8082 32.5416 31.7547 32.5042 31.6953 32.4789C31.636 32.4536 31.5719 32.441 31.5074 32.4419Z" fill="#001E94"/>
<path d="M13.8975 38.2984H36.2486L36.4155 38.2272L36.4844 38.0625V10.5425H36.0149V37.8266H13.8975V38.2984Z" fill="#001E94"/>
<path d="M14.7165 42.2771C14.4372 42.2765 14.1695 42.1651 13.9722 41.9674C13.7749 41.7697 13.6641 41.5017 13.6641 41.2224V35.0144C13.6641 34.7353 13.7749 34.4676 13.9723 34.2702C14.1697 34.0728 14.4374 33.9619 14.7165 33.9619H15.4931C15.7724 33.9619 16.0404 34.0727 16.2381 34.27C16.4358 34.4674 16.5472 34.735 16.5478 35.0144V41.2224C16.5478 41.3609 16.5205 41.4981 16.4675 41.626C16.4145 41.754 16.3368 41.8703 16.2389 41.9682C16.1409 42.0661 16.0247 42.1438 15.8967 42.1968C15.7687 42.2498 15.6316 42.2771 15.4931 42.2771H14.7165Z" fill="white"/>
<path d="M15.4933 34.2C15.6009 34.1997 15.7074 34.2206 15.8069 34.2614C15.9063 34.3023 15.9967 34.3624 16.073 34.4382C16.1492 34.5141 16.2098 34.6042 16.2512 34.7034C16.2926 34.8026 16.3141 34.909 16.3144 35.0166V41.2246C16.3156 41.3332 16.2952 41.4409 16.2545 41.5415C16.2137 41.6422 16.1534 41.7338 16.0771 41.8109C16.0007 41.8881 15.9098 41.9494 15.8096 41.9912C15.7094 42.033 15.6019 42.0546 15.4933 42.0546H14.7168C14.4994 42.054 14.2911 41.9672 14.1376 41.8133C13.9841 41.6594 13.8979 41.4509 13.8979 41.2335V35.0255C13.8979 34.9181 13.9191 34.8117 13.9603 34.7125C14.0015 34.6132 14.0618 34.5231 14.1379 34.4473C14.214 34.3714 14.3043 34.3113 14.4036 34.2704C14.5029 34.2295 14.6093 34.2086 14.7168 34.2089H15.4933V34.2ZM15.4933 33.7394H14.7168C14.3759 33.74 14.0491 33.8756 13.808 34.1167C13.5669 34.3578 13.4313 34.6846 13.4307 35.0255V41.2335C13.4307 41.5748 13.5661 41.9022 13.8072 42.1437C14.0483 42.3853 14.3755 42.5212 14.7168 42.5218H15.4933C15.6625 42.5218 15.83 42.4885 15.9864 42.4238C16.1427 42.359 16.2847 42.2641 16.4043 42.1445C16.524 42.0249 16.6189 41.8828 16.6836 41.7265C16.7483 41.5702 16.7817 41.4027 16.7817 41.2335V35.0255C16.7825 34.8557 16.7499 34.6875 16.6855 34.5304C16.6212 34.3733 16.5264 34.2305 16.4067 34.1102C16.287 33.9898 16.1446 33.8943 15.9879 33.8292C15.8312 33.764 15.6631 33.7305 15.4933 33.7305V33.7394Z" fill="#001E94"/>
<path d="M15.4732 34.458H15.1572V41.783H15.4732C15.6672 41.7738 15.8497 41.6881 15.9806 41.5446C16.1116 41.4012 16.1803 41.2117 16.1719 41.0176V35.2212C16.1797 35.0275 16.1107 34.8386 15.9798 34.6956C15.8489 34.5527 15.6668 34.4672 15.4732 34.458Z" fill="#001E94"/>
<path d="M41.0468 43.4497L40.8755 43.3741L36.1338 38.2207V37.9048L40.8755 32.7514L41.0468 32.6758L58.6874 35.0188L58.8921 35.2524V40.873L58.6874 41.1045L41.0468 43.4497Z" fill="white"/>
<path d="M41.0468 32.9119L58.6563 35.2527V40.8733L41.0468 43.2141L36.3051 38.063L41.0468 32.9119ZM41.0468 32.4424C40.982 32.4423 40.9178 32.4557 40.8585 32.4818C40.7991 32.5078 40.7458 32.5459 40.7019 32.5937L35.9602 37.747C35.8806 37.833 35.8364 37.9458 35.8364 38.063C35.8364 38.1801 35.8806 38.293 35.9602 38.3789L40.7019 43.5323C40.7461 43.5796 40.7995 43.6175 40.8588 43.6435C40.9181 43.6695 40.9821 43.6831 41.0468 43.6836H41.1091L58.7186 41.3406C58.8312 41.3264 58.9349 41.2716 59.0099 41.1863C59.0849 41.101 59.1261 40.9913 59.1258 40.8777V35.2527C59.1262 35.1389 59.085 35.0288 59.01 34.9432C58.9351 34.8576 58.8314 34.8023 58.7186 34.7876L41.1091 32.4468L41.0468 32.4424Z" fill="#001E94"/>
<path d="M58.6558 37.8267H36.3047V38.2984H58.6558" fill="#001E94"/>
<path d="M65.0157 45.3673C63.5708 45.3678 62.1583 44.9397 60.9567 44.1373C59.7551 43.3349 58.8184 42.1941 58.2652 40.8594C57.712 39.5246 57.567 38.0557 57.8486 36.6386C58.1302 35.2214 58.8258 33.9195 59.8473 32.8977C60.8688 31.8759 62.1705 31.1799 63.5875 30.8979C65.0046 30.6158 66.4736 30.7603 67.8085 31.3132C69.1434 31.866 70.2845 32.8023 71.0872 34.0037C71.89 35.205 72.3185 36.6174 72.3185 38.0623C72.3162 39.9986 71.5461 41.855 70.1771 43.2244C68.8081 44.5937 66.952 45.3644 65.0157 45.3673ZM65.0157 35.1007C64.43 35.1007 63.8574 35.2744 63.3703 35.5998C62.8833 35.9253 62.5037 36.3878 62.2796 36.929C62.0554 37.4701 61.9968 38.0656 62.111 38.6401C62.2253 39.2146 62.5074 39.7423 62.9216 40.1565C63.3357 40.5707 63.8634 40.8528 64.4379 40.967C65.0124 41.0813 65.6079 41.0226 66.1491 40.7985C66.6903 40.5743 67.1528 40.1947 67.4782 39.7077C67.8036 39.2207 67.9773 38.6481 67.9773 38.0623C67.9767 37.277 67.6645 36.5241 67.1092 35.9688C66.554 35.4135 65.801 35.1013 65.0157 35.1007Z" fill="white"/>
<path d="M65.0155 30.9934C66.4136 30.9934 67.7804 31.408 68.9429 32.1848C70.1054 32.9616 71.0115 34.0656 71.5465 35.3573C72.0816 36.649 72.2215 38.0704 71.9488 39.4417C71.676 40.813 71.0027 42.0726 70.0141 43.0612C69.0255 44.0498 67.7659 44.7231 66.3946 44.9959C65.0233 45.2686 63.6019 45.1286 62.3102 44.5936C61.0185 44.0586 59.9145 43.1525 59.1377 41.99C58.3609 40.8275 57.9463 39.4607 57.9463 38.0626C57.946 37.1341 58.1287 36.2148 58.4838 35.357C58.839 34.4992 59.3597 33.7198 60.0162 33.0633C60.6727 32.4068 61.4521 31.8861 62.3099 31.5309C63.1677 31.1758 64.0871 30.9931 65.0155 30.9934ZM65.0155 41.26C65.6479 41.26 66.2661 41.0725 66.7919 40.7212C67.3177 40.3698 67.7275 39.8704 67.9696 39.2862C68.2116 38.7019 68.2749 38.059 68.1515 37.4388C68.0281 36.8185 67.7236 36.2488 67.2764 35.8016C66.8293 35.3544 66.2595 35.0499 65.6393 34.9265C65.019 34.8032 64.3761 34.8665 63.7919 35.1085C63.2076 35.3505 62.7082 35.7603 62.3569 36.2861C62.0055 36.812 61.818 37.4302 61.818 38.0626C61.818 38.9106 62.1549 39.7239 62.7545 40.3235C63.3542 40.9232 64.1675 41.26 65.0155 41.26ZM65.0155 30.5239C63.5244 30.5235 62.0666 30.9652 60.8266 31.7933C59.5866 32.6214 58.62 33.7986 58.0491 35.1761C57.4782 36.5536 57.3286 38.0694 57.6192 39.5319C57.9098 40.9944 58.6276 42.3379 59.6818 43.3924C60.736 44.4469 62.0793 45.1651 63.5417 45.4562C65.0041 45.7472 66.52 45.5981 67.8976 45.0276C69.2753 44.4571 70.4528 43.4908 71.2812 42.251C72.1097 41.0113 72.5519 39.5537 72.5519 38.0626C72.5495 36.0643 71.7548 34.1485 70.3421 32.7353C68.9293 31.3221 67.0137 30.5269 65.0155 30.5239ZM65.0155 40.7905C64.4759 40.7905 63.9485 40.6305 63.4999 40.3308C63.0513 40.031 62.7016 39.605 62.4952 39.1065C62.2887 38.608 62.2347 38.0595 62.3399 37.5304C62.4452 37.0012 62.705 36.5151 63.0865 36.1336C63.468 35.7521 63.9541 35.4923 64.4833 35.387C65.0124 35.2817 65.561 35.3358 66.0594 35.5422C66.5579 35.7487 66.9839 36.0984 67.2837 36.547C67.5835 36.9956 67.7434 37.523 67.7434 38.0626C67.7429 38.7859 67.4553 39.4794 66.9438 39.9909C66.4323 40.5023 65.7388 40.7899 65.0155 40.7905Z" fill="#001E94"/>
<path d="M65.122 41.2558H65.0152C64.5883 41.267 64.1636 41.1927 63.7659 41.0371C63.3683 40.8816 63.0058 40.6479 62.6999 40.35C62.394 40.0521 62.1509 39.6959 61.9849 39.3025C61.8189 38.9091 61.7334 38.4864 61.7334 38.0594C61.7334 37.6324 61.8189 37.2098 61.9849 36.8164C62.1509 36.4229 62.394 36.0668 62.6999 35.7688C63.0058 35.4709 63.3683 35.2373 63.7659 35.0817C64.1636 34.9262 64.5883 34.8518 65.0152 34.8631H65.122V32.1084H65.0152C63.4354 32.1084 61.9203 32.736 60.8032 33.853C59.6862 34.9701 59.0586 36.4852 59.0586 38.065C59.0586 39.6448 59.6862 41.1599 60.8032 42.2769C61.9203 43.394 63.4354 44.0216 65.0152 44.0216H65.122V41.2558Z" fill="#001E94"/>
<path d="M56.8262 42.2771C56.6877 42.2771 56.5505 42.2498 56.4226 42.1968C56.2946 42.1438 56.1783 42.0661 56.0804 41.9682C55.9825 41.8703 55.9048 41.754 55.8518 41.626C55.7988 41.4981 55.7715 41.3609 55.7715 41.2224V35.0144C55.7721 34.735 55.8835 34.4674 56.0812 34.27C56.2789 34.0727 56.5468 33.9619 56.8262 33.9619H57.6027C57.8819 33.9619 58.1496 34.0728 58.347 34.2702C58.5443 34.4676 58.6552 34.7353 58.6552 35.0144V41.2224C58.6552 41.5017 58.5444 41.7697 58.3471 41.9674C58.1498 42.1651 57.8821 42.2765 57.6027 42.2771H56.8262Z" fill="white"/>
<path d="M57.6035 34.2C57.7109 34.1997 57.8173 34.2206 57.9166 34.2615C58.016 34.3024 58.1063 34.3625 58.1823 34.4384C58.2584 34.5142 58.3187 34.6043 58.3599 34.7036C58.4011 34.8028 58.4223 34.9091 58.4223 35.0166V41.2246C58.4223 41.442 58.3361 41.6505 58.1826 41.8044C58.0291 41.9583 57.8208 42.0451 57.6035 42.0457H56.8269C56.6091 42.0457 56.4003 41.9592 56.2463 41.8052C56.0923 41.6512 56.0058 41.4424 56.0058 41.2246V35.0166C56.0061 34.909 56.0276 34.8026 56.069 34.7034C56.1104 34.6042 56.171 34.5141 56.2472 34.4382C56.3235 34.3624 56.4139 34.3023 56.5134 34.2614C56.6128 34.2206 56.7194 34.1997 56.8269 34.2H57.6035ZM57.6035 33.7305H56.8269C56.4856 33.7305 56.1582 33.8659 55.9167 34.107C55.6752 34.3482 55.5392 34.6753 55.5386 35.0166V41.2246C55.5386 41.5663 55.6743 41.894 55.9159 42.1356C56.1575 42.3772 56.4852 42.5129 56.8269 42.5129H57.6035C57.9448 42.5123 58.2719 42.3763 58.513 42.1348C58.7541 41.8933 58.8896 41.5659 58.8896 41.2246V35.0166C58.889 34.6757 58.7533 34.3489 58.5122 34.1078C58.2712 33.8667 57.9444 33.7311 57.6035 33.7305Z" fill="#001E94"/>
<path d="M36.2227 109.742C35.1324 109.742 32.4067 105.22 32.3822 105.173L32.2865 104.964C31.9216 104.044 31.378 103.206 30.6871 102.498C29.9962 101.789 29.1717 101.225 28.2613 100.837C17.6075 96.3866 11.6732 90.6413 10.643 89.5911C9.56603 90.5523 8.66264 91.0396 7.95728 91.0396C7.80013 91.0529 7.6421 91.0279 7.49677 90.9666C7.35143 90.9054 7.22313 90.8098 7.12287 90.6881C4.63076 88.8168 2.48354 77.5845 2.39453 77.115L2.48131 76.8925L2.62372 76.8435L2.72385 76.868C4.68416 77.7958 7.64131 78.4745 10.2536 79.0731C13.7492 79.8741 15.5805 80.328 15.7563 81.0756C16.021 82.206 14.5146 83.7035 13.8716 84.2776C18.0637 86.5983 21.4814 87.7754 24.0381 87.7754C28.3948 87.7754 28.6863 84.3643 28.6952 84.2153L31.2652 43.2067L31.3275 43.062L36.0492 37.9977L36.1671 37.8731L36.2717 37.8486H36.3073H36.3829L36.5431 38.0533L41.2158 43.0465L41.2781 43.1911L43.8481 84.2019C43.8481 84.3443 44.1596 87.7621 48.5053 87.7621C51.0619 87.7621 54.4796 86.585 58.674 84.2642C58.0309 83.6901 56.5245 82.1926 56.7871 81.0623C56.9629 80.3102 58.7897 79.8563 62.2897 79.0597C64.902 78.4612 67.8525 77.7825 69.8217 76.8546L69.9196 76.8302L70.0642 76.8791L70.151 77.1016C70.0598 77.58 67.9126 88.8123 65.3715 90.737C65.3849 90.737 65.149 91.0374 64.5994 91.0374C63.894 91.0374 62.9907 90.5501 61.9137 89.5889C60.8835 90.6391 54.9491 96.391 44.2954 100.835C43.386 101.223 42.5627 101.789 41.8729 102.497C41.1832 103.206 40.6407 104.045 40.2768 104.964L40.1812 105.176C40.1589 105.22 37.422 109.764 36.374 109.764L36.2227 109.742Z" fill="white"/>
<path d="M36.3044 38.0628V38.1206L41.0461 43.2139L43.6139 84.2247C43.6139 84.2247 43.8787 88.0073 48.5091 88.0073C50.801 88.0073 54.1586 87.0817 59.0828 84.3181C59.0828 84.3181 56.7286 82.3734 57.0179 81.1296C57.3071 79.8857 65.7959 79.0268 69.9235 77.0732C69.9235 77.0732 67.7317 88.6704 65.233 90.5662C65.155 90.6544 65.0574 90.7229 64.9479 90.7662C64.8385 90.8095 64.7204 90.8264 64.6032 90.8154C64.1004 90.8154 63.2548 90.515 61.9064 89.2757C61.9064 89.2757 56.0077 95.7106 44.2102 100.624C41.0951 101.925 40.205 104.607 39.9647 105.074C39.7244 105.541 37.1522 109.524 36.3667 109.524H36.3067H36.251H36.191C35.4033 109.524 32.8222 105.519 32.593 105.074C32.3638 104.629 31.4671 101.925 28.3475 100.624C16.5545 95.7062 10.6535 89.2757 10.6535 89.2757C9.30286 90.5173 8.45732 90.8154 7.95445 90.8154C7.8369 90.826 7.71852 90.8085 7.60904 90.7644C7.49957 90.7203 7.40213 90.6509 7.32474 90.5618C4.82373 88.666 2.63201 77.0688 2.63201 77.0688C6.75957 79.0224 15.2461 79.8791 15.5376 81.1251C15.8291 82.3712 13.4749 84.3137 13.4749 84.3137C18.3991 87.0773 21.759 88.0029 24.0486 88.0029C28.6746 88.0029 28.9438 84.2202 28.9438 84.2202L31.5138 43.2094L36.2555 38.1162V38.0583L36.2844 38.0872L36.3111 38.0583L36.3044 38.0628ZM36.2577 37.6133L36.0931 37.6444C36.033 37.6668 35.9781 37.701 35.9315 37.745C35.8849 37.7889 35.8475 37.8417 35.8216 37.9003L31.1711 42.8979L31.0465 43.1872L28.4832 84.1958C28.4832 84.327 28.1717 87.5334 24.0575 87.5334C21.6099 87.5334 18.3145 86.4208 14.2893 84.2247C15.0525 83.5015 16.2674 82.142 16.0026 81.0161C15.7957 80.126 14.0134 79.681 10.3242 78.8333C7.72526 78.2392 4.78146 77.5627 2.84339 76.6438L2.64313 76.5993L2.3561 76.6994C2.28734 76.7515 2.23462 76.8219 2.20394 76.9026C2.17325 76.9832 2.16584 77.0709 2.18254 77.1555C2.40505 78.3526 4.45882 88.8596 7.00433 90.8978C7.12909 91.0242 7.27877 91.1233 7.44386 91.1888C7.60895 91.2543 7.78586 91.2847 7.96335 91.2782C8.68873 91.2782 9.58767 90.8199 10.6335 89.9165C12.0175 91.3027 17.9296 96.792 28.165 101.053C29.0484 101.43 29.8484 101.978 30.5191 102.665C31.1897 103.353 31.7176 104.166 32.0723 105.058L32.1724 105.281C32.1969 105.328 34.9672 110 36.1776 110H36.2644H36.3534C37.5816 110 40.3586 105.328 40.3719 105.281L40.4698 105.058C40.8246 104.166 41.3525 103.353 42.0231 102.665C42.6937 101.978 43.4937 101.43 44.3771 101.053C54.6126 96.7854 60.518 91.3027 61.9153 89.912C62.9656 90.8154 63.8645 91.2738 64.5854 91.2738C64.763 91.2808 64.9401 91.2506 65.1052 91.1851C65.2704 91.1195 65.42 91.0202 65.5445 90.8933C68.0922 88.8551 70.1415 78.3482 70.3663 77.1511C70.383 77.0664 70.3755 76.9788 70.3449 76.8981C70.3142 76.8175 70.2615 76.7471 70.1927 76.6949L69.9057 76.5948L69.7076 76.6393C67.7696 77.5583 64.8235 78.2347 62.2246 78.8288C58.5354 79.6743 56.7531 80.1216 56.5462 81.0139C56.2836 82.1375 57.4963 83.4971 58.2595 84.2202C54.2499 86.4164 50.9567 87.5289 48.5091 87.5289C44.3927 87.5289 44.0945 84.327 44.0856 84.1913L41.5134 43.1872L41.3888 42.8979L36.7027 37.8603L36.4802 37.6556L36.3445 37.62L36.2577 37.6133Z" fill="#001E94"/>
<path d="M36.0687 38.0625L36.0153 87.3595C36.0121 87.3923 36.0158 87.4253 36.0261 87.4566C36.0365 87.4878 36.0532 87.5165 36.0753 87.5409C36.0974 87.5652 36.1244 87.5847 36.1545 87.598C36.1846 87.6114 36.2171 87.6183 36.25 87.6183C36.2829 87.6183 36.3155 87.6114 36.3455 87.598C36.3756 87.5847 36.4026 87.5652 36.4247 87.5409C36.4468 87.5165 36.4636 87.4878 36.4739 87.4566C36.4843 87.4253 36.488 87.3923 36.4848 87.3595L36.5382 38.0625C36.5414 38.0297 36.5377 37.9967 36.5273 37.9654C36.517 37.9342 36.5002 37.9055 36.4781 37.8811C36.456 37.8567 36.429 37.8372 36.3989 37.8239C36.3689 37.8106 36.3363 37.8037 36.3034 37.8037C36.2705 37.8037 36.238 37.8106 36.2079 37.8239C36.1778 37.8372 36.1509 37.8567 36.1287 37.8811C36.1066 37.9055 36.0899 37.9342 36.0795 37.9654C36.0692 37.9967 36.0655 38.0297 36.0687 38.0625Z" fill="#001E94"/>
<path d="M32.0484 42.6351L30.8691 60.1399L36.2494 53.636L36.3051 38.0625L32.0484 42.6351Z" fill="#001E94"/>
<path d="M40.5056 42.6351L41.6849 60.1399L36.3047 53.636L36.249 38.0625L40.5056 42.6351Z" fill="#001E94"/>
<path d="M34.8651 54.6461L34.291 61.4259L34.3978 54.6216L34.8651 54.6461Z" fill="#001E94"/>
<path d="M33.9911 55.4051L33.417 62.185L33.5238 55.3828L33.9911 55.4051Z" fill="#001E94"/>
<path d="M32.9649 56.7557L32.3931 63.5355L32.4976 56.7334L32.9649 56.7557Z" fill="#001E94"/>
<path d="M32.0814 57.4588L31.5073 64.2409L31.6141 57.4365L32.0814 57.4588Z" fill="#001E94"/>
<path d="M31.4432 58.0418L30.8691 64.8239L30.9737 58.0195L31.4432 58.0418Z" fill="#001E94"/>
<path d="M35.7727 53.5871L35.3322 60.5784L35.3032 53.5737L35.7727 53.5871Z" fill="#001E94"/>
<path d="M38.0999 54.6216L38.2045 61.4259L37.6304 54.6461L38.0999 54.6216Z" fill="#001E94"/>
<path d="M38.9756 55.3828L39.0802 62.185L38.5083 55.4051L38.9756 55.3828Z" fill="#001E94"/>
<path d="M40.001 56.7334L40.1055 63.5355L39.5337 56.7557L40.001 56.7334Z" fill="#001E94"/>
<path d="M40.8838 57.4365L40.9883 64.2409L40.4165 57.4588L40.8838 57.4365Z" fill="#001E94"/>
<path d="M41.5224 58.0195L41.627 64.8239L41.0552 58.0418L41.5224 58.0195Z" fill="#001E94"/>
<path d="M37.1922 53.5737L37.1632 60.5784L36.7227 53.5871L37.1922 53.5737Z" fill="#001E94"/>
<path d="M36.3046 63.5352C36.3046 63.5352 34.3755 84.8961 28.9907 88.4207C28.9907 88.4207 35.537 92.635 36.3046 94.2749C37.0701 92.635 43.6185 88.4207 43.6185 88.4207C38.2316 84.9072 36.3046 63.5352 36.3046 63.5352Z" fill="#001E94"/>
<path d="M29.0845 88.1738C29.0845 88.1738 29.2914 87.8601 29.5695 87.3239C29.7231 87.0635 29.8744 86.7075 30.0546 86.307C30.2348 85.9065 30.4551 85.4592 30.6287 84.9408C30.8022 84.4223 31.0203 83.875 31.2361 83.2875C31.452 82.7001 31.5988 82.0526 31.7946 81.3984C31.9905 80.7442 32.2018 80.0634 32.3353 79.3558C32.4688 78.6482 32.6446 77.9384 32.8026 77.2197C33.1586 75.7978 33.281 74.3271 33.5191 72.9742C33.6148 72.3067 33.7416 71.6391 33.7995 71.0117C33.8573 70.3842 33.9085 69.7879 33.9597 69.2316C34.1577 67.0354 34.2912 65.5713 34.2912 65.5713C34.2912 65.5713 34.2178 67.0399 34.1043 69.2427C34.0776 69.7945 34.0464 70.3909 34.0153 71.0228C33.9841 71.6547 33.8818 72.3133 33.8128 73.0009C33.6303 74.3671 33.5658 75.849 33.2632 77.2953L32.8783 79.4648C32.7715 80.1857 32.5757 80.8755 32.4132 81.5497C32.2508 82.2239 32.095 82.8848 31.9215 83.4922L31.3763 85.2211C31.2206 85.7552 31.0092 86.2247 30.8423 86.6497C30.6754 87.0746 30.5308 87.4418 30.3706 87.7444C30.0769 88.3608 29.89 88.67 29.89 88.67L29.0845 88.1738Z" fill="#001E94"/>
<path d="M42.7912 88.8996C42.7912 88.8996 42.6043 88.5903 42.3106 87.9739C42.1504 87.6713 42.0102 87.3064 41.8389 86.8792C41.6675 86.452 41.4606 85.9891 41.3049 85.4485C41.1491 84.9078 40.9488 84.3359 40.753 83.7351C40.5572 83.1343 40.4326 82.469 40.2613 81.7948C40.0899 81.1206 39.9053 80.4309 39.7985 79.7099L39.4135 77.5405C39.1109 76.0941 39.0442 74.6122 38.8617 73.246C38.7949 72.5585 38.6904 71.8998 38.6592 71.2679C38.6281 70.636 38.5991 70.0374 38.5702 69.4878C38.459 67.285 38.3833 65.8164 38.3833 65.8164L38.7171 69.4767C38.766 70.0263 38.8194 70.6182 38.8773 71.2568C38.9351 71.8954 39.062 72.5384 39.1643 73.206C39.4024 74.561 39.5248 76.0274 39.883 77.4492C40.0388 78.1657 40.1945 78.8822 40.3503 79.5853C40.506 80.2885 40.7041 80.9693 40.8888 81.628C41.0734 82.2866 41.2559 82.9207 41.4495 83.5171C41.6431 84.1134 41.8678 84.6585 42.0569 85.1703C42.2235 85.6354 42.4144 86.0914 42.6288 86.5365C42.7736 86.8836 42.9363 87.2231 43.1161 87.5534C43.392 88.0896 43.5989 88.4034 43.5989 88.4034L42.7912 88.8996Z" fill="#001E94"/>
<path d="M41.4582 98.6031C36.3049 101.028 37.364 102.386 36.9591 103.874C36.6587 104.976 36.2493 107.036 36.2493 107.036L35.5372 104.399C34.0887 104.751 31.0381 102.522 31.0381 102.522C31.6976 103.277 32.2242 104.138 32.5957 105.069C32.8315 105.539 35.5528 109.753 36.2537 109.519H36.3093C36.81 109.686 38.3475 107.575 39.2665 106.182C39.8717 101.175 42.6041 100.314 42.6041 100.314C52.4168 96.625 61.7578 88.4099 61.7578 88.4099C63.9161 89.7739 64.8529 89.9297 64.8529 89.9297C66.1034 86.888 68.5221 79.2358 68.5221 79.2358C63.776 86.2738 44.4599 97.1902 41.4582 98.6031Z" fill="#001E94"/>
<path d="M67.3744 79.2471C67.3744 79.2471 55.5435 90.8754 39.7676 98.0759L67.3744 79.2471Z" fill="white"/>
<path d="M67.3733 79.2471C67.3733 79.2471 67.0128 79.6276 66.3453 80.2595C65.6777 80.8914 64.7321 81.8015 63.5461 82.8362C62.9653 83.368 62.3 83.902 61.6058 84.4805C60.9116 85.059 60.1862 85.6709 59.4052 86.2739C57.8098 87.4265 56.181 88.7594 54.421 89.9097L51.8065 91.6431C50.9565 92.2327 50.0687 92.7312 49.2187 93.2274L46.7577 94.6448C46.0287 95.0826 45.2763 95.48 44.5037 95.8352L39.7598 98.0759L44.3791 95.6015C45.1357 95.2237 45.8711 94.8048 46.5819 94.3466L49.0006 92.8803C49.8439 92.3752 50.7228 91.8723 51.5639 91.2737L54.1495 89.527C55.914 88.3967 57.5494 87.0794 59.1515 85.9513C60.6913 84.7364 62.1665 83.6461 63.3792 82.6359C64.5919 81.6257 65.6043 80.8135 66.2941 80.1994C66.9839 79.5853 67.3733 79.2471 67.3733 79.2471Z" fill="#001E94"/>
<path d="M36.3047 96.6694C36.3047 96.6694 36.3759 97.3837 36.4271 98.4495C36.4783 99.5153 36.5028 100.948 36.5094 102.375C36.5161 103.801 36.4582 105.232 36.3893 106.3C36.3203 107.368 36.2491 108.08 36.2491 108.08C36.2491 108.08 36.1779 107.365 36.1267 106.3C36.0755 105.234 36.0488 103.805 36.0488 102.377C36.0488 100.948 36.1 99.522 36.169 98.454C36.238 97.3859 36.3047 96.6694 36.3047 96.6694Z" fill="#001E94"/>
<path d="M65.0151 80.1592C65.0151 80.1592 64.5301 80.6265 63.7446 81.2539C62.7898 82.0338 61.7953 82.7639 60.7652 83.4412L59.0964 84.4892C58.5905 84.77 58.0706 85.0247 57.5388 85.2524C56.6176 85.6685 55.999 85.92 55.999 85.92C55.999 85.92 56.5642 85.5372 57.4186 85.0299C57.8481 84.7696 58.3554 84.4981 58.8783 84.1555L60.5026 83.0629C61.0678 82.7091 61.6374 82.362 62.147 81.9993C62.6565 81.6366 63.1616 81.3318 63.5822 81.067C64.4388 80.5085 65.0151 80.1592 65.0151 80.1592Z" fill="#001E94"/>
<path d="M36.1621 99.1863L39.2394 97.4596C41.0729 96.4004 43.5339 95.012 45.9325 93.5256L49.4771 91.3673C50.5897 90.6419 51.5976 89.9388 52.4765 89.3469L55.407 87.3599L52.5144 89.4025C51.6488 90.01 50.6475 90.7376 49.5528 91.4897L46.0505 93.7148C43.6807 95.259 41.2465 96.6964 39.4308 97.7934L36.3891 99.589L36.1621 99.1863Z" fill="#001E94"/>
<path d="M51.4206 89.0039C51.4206 89.0039 50.5306 89.6603 49.1622 90.5837L46.8236 92.1724C45.9691 92.7576 45.0168 93.3184 44.0889 93.9125C43.1611 94.5066 42.2221 95.0962 41.3343 95.6258L38.8399 96.972L36.3923 98.2848L36.1987 97.8598L38.6463 96.6204L41.1607 95.3499C42.0619 94.8448 43.0009 94.2685 43.9532 93.7122C44.9055 93.1559 45.8623 92.5997 46.7279 92.0478L49.1065 90.5236C50.5128 89.6403 51.4206 89.0039 51.4206 89.0039Z" fill="#001E94"/>
<path d="M31.8858 94.3886L25.7734 90.1765C29.1711 88.7725 28.9909 83.3966 28.9909 83.3966L28.9375 84.2244C28.9375 84.2244 28.3456 92.6553 13.4731 84.3089C13.4731 84.3089 15.8272 82.3642 15.5357 81.1204C15.4721 80.9511 15.3452 80.8131 15.1819 80.7354C14.7369 82.8537 7.74121 80.6909 7.74121 80.6909C12.7766 86.8989 31.8858 94.3886 31.8858 94.3886Z" fill="#001E94"/>
<path d="M7.53809 81.394C7.53809 81.394 7.87185 81.69 8.48598 82.1751C9.10011 82.6601 9.97234 83.3499 11.0359 84.1598C12.0995 84.9698 13.3812 85.8598 14.7229 86.8544C15.3905 87.3484 16.1336 87.7957 16.8613 88.2852C17.5889 88.7747 18.3231 89.2731 19.0864 89.7204L21.3738 91.0554C22.1011 91.5088 22.852 91.9233 23.6233 92.297L25.7772 93.3629C26.4715 93.6833 27.09 94.0771 27.7264 94.2818L31.8784 95.9017L27.6263 94.5266C26.9766 94.3419 26.3446 93.9725 25.6237 93.6744L23.4275 92.6575C22.6529 92.2963 21.8983 91.8937 21.1668 91.4515L18.846 90.1164C18.0784 89.6558 17.3552 89.1263 16.6209 88.6412C15.8867 88.1561 15.1591 87.6844 14.4893 87.1793C13.1542 86.1669 11.8926 85.2368 10.8757 84.3623C9.85886 83.4879 9.0111 82.7603 8.42813 82.2285C7.84515 81.6967 7.53809 81.394 7.53809 81.394Z" fill="#001E94"/>
<path d="M28.9903 95.9128C28.9903 95.9128 28.5986 95.8261 27.9311 95.6102C27.2636 95.3944 26.3112 95.0784 25.1853 94.6468C24.6246 94.4242 24.0394 94.1417 23.4053 93.8635C22.7373 93.5825 22.0845 93.2669 21.4494 92.9179C20.7819 92.5552 20.1143 92.1836 19.4112 91.8053C18.7081 91.427 18.0561 90.9664 17.3708 90.5459L15.3682 89.222C14.7296 88.7569 14.1266 88.2607 13.5303 87.8024L11.8325 86.4495C11.3296 86.0402 10.8498 85.6034 10.3951 85.1411C8.67956 83.4545 7.53809 82.3286 7.53809 82.3286C7.53809 82.3286 8.75299 83.3722 10.5709 84.9409C11.0413 85.382 11.5352 85.7972 12.0506 86.1847L13.7795 87.4775C14.378 87.9225 14.981 88.4098 15.6219 88.8615L17.6245 90.1498C18.292 90.5748 18.9328 91.0644 19.627 91.4248L21.6296 92.5574C22.2727 92.9379 22.9291 93.245 23.541 93.5542C24.1529 93.8635 24.7292 94.1639 25.2766 94.402C26.3891 94.8715 27.2792 95.3054 27.9467 95.5346C28.6142 95.7638 28.9903 95.9128 28.9903 95.9128Z" fill="#001E94"/>
<path d="M6.45508 82.3286C6.45508 82.3286 6.67759 82.8649 7.0425 83.6414C7.40742 84.418 7.9548 85.4371 8.54222 86.4228C8.86041 86.899 9.15635 87.3929 9.47454 87.8224C9.79273 88.2518 10.0953 88.6524 10.3646 88.9772L11.3503 90.0097L11.0121 90.339L10.062 89.2264C9.79718 88.8793 9.52126 88.4521 9.20753 88.0048C8.89379 87.5576 8.63345 87.0392 8.33751 86.543C7.79459 85.5194 7.29839 84.4781 6.97353 83.6748C6.64866 82.8715 6.45508 82.3286 6.45508 82.3286Z" fill="#001E94"/>
<path d="M9.49707 86.2539C9.49707 86.2539 9.76631 86.5721 10.2892 87.0772C10.5518 87.3309 10.8433 87.6579 11.2282 87.9873C11.6131 88.3166 12.027 88.706 12.4876 89.1243C12.9482 89.5426 13.4844 89.9498 14.0318 90.4015C14.5792 90.8532 15.1444 91.336 15.7963 91.7744L17.7366 93.1717C18.3797 93.6724 19.1228 94.0507 19.8193 94.4934L21.9131 95.8018C22.6252 96.1979 23.3483 96.5405 24.0381 96.901L26.0229 97.9334C26.6182 98.2379 27.2304 98.5084 27.8564 98.7434L31.6769 100.363L27.754 98.9859C27.1755 98.7634 26.5124 98.5809 25.8805 98.2427L23.8534 97.2637C23.1547 96.9099 22.4204 96.5717 21.6995 96.1823L19.5834 94.8917C18.8848 94.4467 18.1438 94.044 17.5008 93.53L15.5605 92.097C14.9562 91.6515 14.3768 91.1731 13.8249 90.664C13.2909 90.1857 12.7657 89.7584 12.3207 89.329C11.4307 88.4389 10.7075 87.7024 10.2403 87.1417C9.77298 86.581 9.49707 86.2539 9.49707 86.2539Z" fill="#001E94"/>
<path d="M38.7412 38.8838L42.5105 43.0202L55.6364 41.3047V38.8838H38.7412Z" fill="#001E94"/>
<path d="M38.9678 36.4248L55.6493 37.1279L55.6249 37.5974L38.9678 36.4248Z" fill="#001E94"/>
<path d="M55.6212 36.3672L40.8198 35.061L55.6546 35.8999L55.6212 36.3672Z" fill="#001E94"/>
<path d="M55.6141 35.2944L41.458 33.7324L55.6586 34.8272L55.6141 35.2944Z" fill="#001E94"/>
<path d="M70.11 41.0508L69.9297 41.3445C69.7698 41.6288 69.578 41.8938 69.3579 42.1345C69.0215 42.5188 68.6371 42.8583 68.2142 43.1446C67.6632 43.5257 67.0471 43.8025 66.3963 43.9613C65.7021 44.1838 64.8387 44.1637 64.0399 44.077C63.6327 44.0525 63.1966 43.8678 62.7582 43.7588C62.3356 43.5785 61.9273 43.3665 61.5367 43.1246C60.7979 42.5617 60.0659 41.8875 59.6253 40.9974C59.1046 40.1519 58.9133 39.1372 58.8398 38.1426C58.8587 37.6508 58.9167 37.1612 59.0134 36.6785C59.1781 36.1979 59.2737 35.6772 59.5474 35.2678L59.9057 34.6247L60.3685 34.064C60.6511 33.6657 61.056 33.3965 61.4121 33.1006C61.7913 32.8455 62.1909 32.6223 62.6069 32.433C63.0342 32.2995 63.4569 32.1682 63.8686 32.077C64.298 32.0459 64.6963 31.9969 65.1146 31.9902C65.4931 32.0066 65.8693 32.058 66.2383 32.1438C66.8948 32.2839 67.5201 32.5433 68.0829 32.9092C68.5115 33.1865 68.9039 33.5162 69.2511 33.8905C69.546 34.2185 69.8069 34.5756 70.0299 34.9563C69.7726 34.6029 69.4836 34.2737 69.1665 33.9728C68.3388 33.1936 67.3005 32.6744 66.1805 32.4798C65.8201 32.4136 65.4543 32.3808 65.0879 32.3819C64.7364 32.4063 64.3403 32.4709 63.9531 32.5109C63.5726 32.6155 63.1899 32.7557 62.8027 32.8914C62.4556 33.1139 62.0507 33.263 61.7236 33.5389C61.3965 33.8148 61.0338 34.064 60.7846 34.4289L60.3663 34.9407L60.0548 35.5326C59.8011 35.9153 59.7455 36.3559 59.5942 36.7697C59.5112 37.2224 59.4622 37.6805 59.4473 38.1404C59.5074 39.0304 59.6565 39.9605 60.1148 40.7326C60.4998 41.5493 61.1629 42.1701 61.8259 42.6996C62.1908 42.9221 62.5624 43.1291 62.9385 43.3004C63.3301 43.4094 63.675 43.6008 64.0844 43.6453C64.9099 43.7655 65.6242 43.8144 66.3206 43.6342C66.9467 43.5113 67.5482 43.2858 68.1007 42.9666C68.5299 42.7221 68.9256 42.423 69.2778 42.0766C69.5865 41.7613 69.8651 41.4179 70.11 41.0508Z" fill="#001E94"/>
<path d="M69.4657 40.7018C69.2734 41.0386 69.0499 41.3567 68.7982 41.6519C68.5023 41.9902 68.1643 42.2893 67.7924 42.5419C67.3073 42.8805 66.7632 43.1258 66.1882 43.2651C65.5763 43.4609 64.8153 43.4431 64.1099 43.3696C63.725 43.3081 63.346 43.2136 62.9773 43.0871C62.6042 42.928 62.2435 42.7413 61.8982 42.5286C61.2484 42.0301 60.6009 41.436 60.2138 40.6506C59.7532 39.9029 59.5841 39.0085 59.5195 38.1295C59.5374 37.696 59.5888 37.2646 59.6731 36.839C59.8177 36.414 59.8956 35.949 60.147 35.5929L60.4607 35.0255L60.8702 34.5316C61.14 34.2098 61.4496 33.9234 61.7914 33.6794C62.1255 33.4518 62.4775 33.2517 62.8438 33.0808C63.2221 32.9629 63.5937 32.8472 63.9564 32.7671C64.3369 32.7404 64.6862 32.6959 65.0556 32.6914C65.3898 32.7063 65.722 32.7518 66.048 32.8271C66.6278 32.9499 67.1794 33.1801 67.6745 33.5058C68.0506 33.7521 68.3957 34.0427 68.7025 34.3714C68.9619 34.6613 69.1936 34.9749 69.3945 35.3081C69.1697 34.9947 68.9165 34.7027 68.638 34.4359C67.6521 33.5377 66.367 33.0387 65.0333 33.0363C64.724 33.0563 64.3658 33.1142 64.032 33.152C63.696 33.2432 63.3645 33.3745 63.0152 33.4858C62.6859 33.6561 62.3679 33.8471 62.0628 34.0576C61.7548 34.2843 61.4767 34.5489 61.2351 34.8453L60.8657 35.2903L60.592 35.8243C60.3695 36.1626 60.3206 36.5497 60.1871 36.9146C60.1136 37.3151 60.0698 37.7204 60.0558 38.1273C60.1092 38.9195 60.2405 39.7316 60.6521 40.4147C61.0173 41.0999 61.5341 41.6927 62.1629 42.1481C62.4834 42.3394 62.8105 42.5286 63.1353 42.6821C63.4643 42.8095 63.8028 42.9106 64.1477 42.9847C64.7998 43.1129 65.4709 43.1091 66.1214 42.9736C67.1068 42.7752 68.0134 42.2952 68.7314 41.5918C69.0042 41.3194 69.2501 41.0213 69.4657 40.7018Z" fill="#001E94"/>
<path d="M68.8225 40.3499C68.6543 40.6414 68.4599 40.917 68.2417 41.1732C67.6503 41.8619 66.8608 42.3514 65.981 42.575C65.3919 42.7229 64.7795 42.7532 64.1787 42.664C63.8444 42.6112 63.5153 42.5293 63.1952 42.4192C62.8727 42.2805 62.5604 42.1192 62.2606 41.9364C61.6448 41.5047 61.1379 40.9355 60.7803 40.2739C60.4226 39.6123 60.224 38.8765 60.2002 38.1248C60.2136 37.751 60.2575 37.3789 60.3315 37.0123C60.4212 36.6365 60.5588 36.2738 60.7409 35.9331L61.0146 35.4413L61.3684 35.0119C61.603 34.7335 61.8713 34.4854 62.1672 34.2732C62.4572 34.0766 62.7622 33.9033 63.0795 33.7547C63.4088 33.6524 63.7314 33.5522 64.0474 33.481C64.3767 33.4588 64.6793 33.421 64.9997 33.4165C65.2896 33.4304 65.5777 33.4691 65.8609 33.5322C66.7476 33.728 67.5516 34.1946 68.1616 34.8673C68.3873 35.1169 68.5878 35.3882 68.7602 35.6772C68.568 35.4038 68.3488 35.1503 68.106 34.9207C67.2497 34.1406 66.1336 33.7075 64.9753 33.7058C64.706 33.7258 64.4034 33.7747 64.1075 33.8059C63.816 33.886 63.5245 33.9928 63.2174 34.0952C62.9324 34.2436 62.6567 34.4093 62.3919 34.5914C62.125 34.7892 61.8836 35.0194 61.6732 35.2767L61.355 35.6705L61.1147 36.1155C60.9211 36.4093 60.8789 36.7475 60.7631 37.0634C60.6995 37.4095 60.6623 37.7598 60.6519 38.1115C60.6629 38.8048 60.8399 39.4854 61.1681 40.0962C61.4838 40.6915 61.9322 41.2062 62.4787 41.6004C62.7568 41.7651 63.0394 41.9297 63.3198 42.061C63.6052 42.172 63.8992 42.2598 64.1987 42.3236C64.7626 42.4374 65.3436 42.4374 65.9076 42.3236C66.7624 42.151 67.5487 41.7335 68.1705 41.122C68.4106 40.8847 68.6288 40.6263 68.8225 40.3499Z" fill="#001E94"/>
<path d="M68.2164 40.0205L67.7157 40.7192C67.4858 40.9624 67.2357 41.1857 66.9681 41.3867C66.5996 41.6201 66.1994 41.7992 65.7799 41.9185L65.0345 42.0342C64.7679 42.0504 64.5004 42.0407 64.2357 42.0053C63.9505 41.9541 63.6699 41.8797 63.3968 41.7828C63.1211 41.664 62.8541 41.5257 62.598 41.3689C62.0713 40.9986 61.6377 40.511 61.3315 39.9445C61.0253 39.3781 60.8548 38.7483 60.8335 38.1047C60.8476 37.7827 60.8856 37.4621 60.947 37.1457C61.187 36.2086 61.7455 35.3842 62.5268 34.8138C62.7743 34.644 63.0355 34.4951 63.3078 34.3688C63.5882 34.282 63.8641 34.1974 64.1333 34.1463C64.4181 34.1285 64.6673 34.0906 64.9566 34.0929L65.682 34.2041C66.1087 34.3059 66.5176 34.4717 66.8947 34.6959C67.1614 34.895 67.4156 35.1105 67.6556 35.3411L68.1741 36.0332L67.6067 35.3879C67.357 35.1824 67.0947 34.9929 66.8212 34.8205C66.6449 34.7337 66.4628 34.6593 66.2761 34.598C66.0796 34.5027 65.868 34.4425 65.6508 34.42L64.9232 34.3399C64.7007 34.3554 64.4382 34.3999 64.1889 34.4266C63.942 34.4934 63.6905 34.5846 63.4369 34.6736C63.1931 34.8004 62.9575 34.9424 62.7315 35.0986C62.038 35.6241 61.5463 36.372 61.3386 37.2169C61.2842 37.5108 61.2515 37.8083 61.2407 38.1069C61.2532 38.6906 61.4003 39.2635 61.6704 39.7811C61.9406 40.2986 62.3266 40.7468 62.7983 41.0908C63.0316 41.2352 63.2722 41.3674 63.5192 41.4869C63.7628 41.5808 64.0136 41.6552 64.269 41.7094C64.7542 41.7904 65.2498 41.7852 65.7332 41.6938C66.1369 41.5928 66.5268 41.4434 66.8947 41.2488C67.1672 41.0746 67.4254 40.8789 67.6668 40.6636L68.2164 40.0205Z" fill="#001E94"/>
<path d="M34.2914 38.8833L30.8691 42.8662L16.6797 40.9927V38.5718L34.2914 38.8833Z" fill="#001E94"/>
<path d="M16.6797 36.6587L34.2914 36.8923L16.6797 37.1282V36.6587Z" fill="#001E94"/>
<path d="M32.3933 35.5972L16.6797 35.8308V35.3613L32.3933 35.5972Z" fill="#001E94"/>
<path d="M36.7832 10.9741V22.4111L40.1787 24.0288L39.2419 11.2856L36.7832 10.9741Z" fill="#001E94"/>
<path d="M37.2507 21.0474L36.9392 27.0952L36.7812 21.043L37.2507 21.0474Z" fill="#001E94"/>
<path d="M37.9539 21.0449L37.7202 28.3455L37.4844 21.0449H37.9539Z" fill="#001E94"/>
<path d="M38.7153 21.8193L38.7353 29.4759L38.248 21.8349L38.7153 21.8193Z" fill="#001E94"/>
<path d="M39.4761 22.0884L39.6073 29.6693L39.0088 22.1084L39.4761 22.0884Z" fill="#001E94"/>
<path d="M40.1382 23.6084L40.334 30.9601L39.6709 23.6351L40.1382 23.6084Z" fill="#001E94"/>
<path d="M35.332 12.7183L34.947 36.1374L34.4775 36.1263L35.332 12.7183Z" fill="#001E94"/>
<path d="M34.2901 14.8394L33.7182 35.07L33.251 35.0499L34.2901 14.8394Z" fill="#001E94"/>
<path d="M33.4853 16.2769L32.6264 33.5681L32.1592 33.5392L33.4853 16.2769Z" fill="#001E94"/>
</svg>
