<svg width="80" height="88" viewBox="0 0 80 88" fill="none" xmlns="http://www.w3.org/2000/svg">
<path d="M60.653 60.9198C60.653 60.9198 59.4926 62.7714 58.6027 62.7143C54.5656 62.4586 49.7613 52.8456 47.189 53.3402C48.6117 54.8195 49.6407 56.6319 50.1819 58.6117C50.6321 60.3682 52.6993 67.1995 55.8888 68.7848C55.8888 68.7848 55.2737 70.2115 55.3329 71.3655C55.3921 72.5196 55.4027 74.3141 54.8193 74.9588C54.2359 75.6034 54.0584 75.9839 53.9569 77.138C53.8555 78.292 53.4687 80.3423 53.084 80.9827C52.6993 81.6231 51.6805 83.4176 51.4226 84.1849C51.1648 84.9522 50.8942 86.622 49.7444 87.2624C49.7444 87.2624 51.5706 87.2159 53.9569 83.5466C56.2037 80.0844 57.009 79.5983 58.3385 77.2648C60.133 74.1133 62.699 65.3606 62.0565 62.653C61.4139 59.9454 60.653 60.9198 60.653 60.9198Z" fill="#001E94"/>
<path d="M55.422 69.9009L55.2212 69.7001C55.2212 68.7764 57.6815 65.923 57.969 65.6017C67.9032 51.939 61.0401 41.99 60.9704 41.8906L60.9577 41.7638L61.0612 41.6877C61.0739 41.6877 62.2069 41.582 63.7646 41.582C66.9351 41.582 71.0758 42.0048 72.8174 43.9662C73.136 44.3246 73.3712 44.7491 73.506 45.2093C73.6409 45.6694 73.6721 46.1537 73.5974 46.6273C72.6653 54.0949 56.9903 69.9009 55.422 69.9009Z" fill="white"/>
<path d="M63.7585 41.7111C67.5631 41.7111 73.9971 42.3346 73.4665 46.6105C72.5302 54.15 56.627 69.7742 55.4222 69.7742L55.3503 69.7002C55.3503 68.7998 58.0579 65.6842 58.0579 65.6842C68.1739 51.7848 61.0762 41.8168 61.0762 41.8168C61.0762 41.8168 62.1986 41.7111 63.7669 41.7111H63.7585ZM63.7669 41.4553C62.2028 41.4553 61.0636 41.561 61.0509 41.561L60.8395 41.7111L60.8628 41.9647C60.9325 42.0641 67.7364 51.9518 57.8571 65.5342C57.4069 66.0499 55.0988 68.7512 55.0988 69.7002C55.0974 69.7437 55.1048 69.7871 55.1207 69.8276C55.1367 69.8681 55.1607 69.9049 55.1914 69.9358C55.2221 69.9667 55.2588 69.991 55.2992 70.0072C55.3396 70.0234 55.3829 70.0311 55.4264 70.0299C57.0053 70.0299 72.7923 54.1457 73.7244 46.6422C73.8013 46.1507 73.7684 45.6483 73.6281 45.171C73.4877 44.6937 73.2434 44.2535 72.9128 43.8818C71.1352 41.8759 66.9543 41.4553 63.7585 41.4553H63.7669Z" fill="#001E94"/>
<path d="M55.5171 69.1547C58.1465 66.6838 67.4297 57.1216 66.4236 46.2257C66.2439 44.2769 65.9417 42.8248 65.557 41.7595C64.0609 41.6777 62.5611 41.6967 61.0676 41.8166C61.0676 41.8166 68.1737 51.7846 58.0577 65.6862C58.0577 65.6862 56.111 67.9245 55.5171 69.1547Z" fill="#001E94"/>
<path d="M64.0603 20.9253C61.8198 20.9253 40.7001 13.6839 39.8039 13.3753L39.7046 13.2062C39.7194 13.128 41.2518 5.4427 44.752 0.619318L44.8767 0.555908H44.9232L45.0247 0.703865C45.0247 0.727115 44.9613 3.0141 45.8596 3.93988C45.9719 4.06165 46.1086 4.1583 46.2609 4.2235C46.4131 4.28871 46.5775 4.32099 46.7431 4.31823C47.0993 4.30168 47.447 4.20409 47.7598 4.03288L47.8274 4.01809L47.9162 4.04556L47.9753 4.19352C47.9753 4.21466 47.6308 6.1402 48.2226 6.84617C48.286 6.92462 48.3667 6.98724 48.4584 7.02906C48.5501 7.07089 48.6503 7.09077 48.7511 7.08712C49.0597 7.08712 49.4549 6.93283 49.922 6.63057L50.0066 6.60521L50.0827 6.62846L50.1545 6.77007C50.1545 6.77007 50.0594 7.8565 50.5371 8.3828C50.625 8.4783 50.7329 8.55321 50.8531 8.60217C50.9733 8.65113 51.1029 8.67294 51.2325 8.66603C51.6607 8.63845 52.0764 8.51027 52.4457 8.29191L52.5155 8.275L52.6043 8.30459L52.6634 8.45044C52.6634 8.46946 52.3612 10.4077 53.1517 11.3335C53.2931 11.4947 53.4688 11.6221 53.666 11.7062C53.8632 11.7903 54.0768 11.8291 54.291 11.8196C54.6907 11.8075 55.0854 11.7267 55.4577 11.5808H55.5084L55.6078 11.6209L55.6543 11.7689C55.6543 11.7689 55.426 12.6989 55.9248 13.3415C56.2609 13.7642 56.8464 13.9755 57.6665 13.9755C57.825 13.9755 57.992 13.9755 58.1717 13.9523H58.1864L58.2921 13.9946L58.3365 14.1129C58.3365 14.1129 58.2942 14.9246 58.7762 15.4403C58.9301 15.5914 59.1141 15.7084 59.3162 15.7838C59.5183 15.8592 59.734 15.8912 59.9492 15.8778C60.0907 15.8768 60.2319 15.8663 60.372 15.8461H60.391L60.4946 15.8884L60.5411 16.0089C60.5435 16.302 60.6603 16.5827 60.8666 16.7909C61.2745 17.2327 62.0418 17.4673 63.0859 17.4737L63.2001 17.5265L63.2318 17.6512C63.2318 17.6639 62.9845 19.1308 64.2886 20.5068L64.3689 20.7794C64.3182 20.9253 64.1301 20.9253 64.0603 20.9253Z" fill="white"/>
<path d="M44.8769 0.699554C44.8769 0.699554 44.7522 4.47033 46.7433 4.47033C47.1261 4.45595 47.5003 4.35245 47.836 4.16807C47.836 4.16807 47.2823 7.23711 48.7597 7.23711C49.0768 7.23711 49.4868 7.09761 50.0152 6.7552C50.0152 6.7552 49.8187 8.81602 51.2327 8.81602C51.6854 8.78955 52.1252 8.6555 52.5157 8.42499C52.5157 8.42499 51.9471 11.9696 54.2912 11.9696C54.7083 11.9587 55.1203 11.875 55.5086 11.7223C55.5086 11.7223 54.8936 14.1277 57.6667 14.1277C57.8294 14.1277 58.0006 14.1277 58.1866 14.1044C58.1866 14.1044 58.0619 16.0278 59.9494 16.0278C60.0986 16.027 60.2476 16.0164 60.3954 15.9961C60.3954 15.9961 60.2665 17.6067 63.0882 17.6215C63.0882 17.6215 62.8071 19.1561 64.1916 20.6081C64.2951 20.7181 64.2444 20.7688 64.0605 20.7688C61.82 20.7688 39.8527 13.2272 39.8527 13.2272C39.8527 13.2272 41.3534 5.55464 44.8769 0.699554ZM44.8769 0.399414L44.6317 0.52412C41.1125 5.38554 39.5716 13.092 39.5589 13.168C39.5448 13.2398 39.5571 13.3142 39.5936 13.3776C39.6302 13.4409 39.6884 13.4889 39.7576 13.5126C40.6559 13.8212 61.7989 21.0689 64.0647 21.0689C64.1556 21.0824 64.2483 21.0673 64.3302 21.0256C64.412 20.9839 64.4788 20.9178 64.5213 20.8364C64.5517 20.7613 64.5574 20.6784 64.5377 20.5997C64.5179 20.5211 64.4737 20.4508 64.4114 20.3989C63.1601 19.0863 63.3799 17.7314 63.3884 17.6744L63.3228 17.4292L63.0903 17.332C62.0863 17.332 61.355 17.1058 60.9767 16.6979C60.8038 16.5204 60.7048 16.284 60.6998 16.0363L60.6047 15.7932L60.3933 15.7108H60.3531C60.2186 15.7287 60.083 15.7379 59.9473 15.7383C59.7536 15.7504 59.5595 15.7219 59.3775 15.6546C59.1955 15.5872 59.0296 15.4825 58.8905 15.3472C58.4572 14.8865 58.4931 14.1424 58.4931 14.1361L58.4043 13.8994L58.193 13.8148H58.1655C57.988 13.8317 57.8252 13.8402 57.673 13.8402C56.8994 13.8402 56.3541 13.6415 56.0518 13.2526C55.5805 12.6523 55.7919 11.8068 55.7919 11.7984L55.701 11.5004L55.5002 11.4222L55.3987 11.4412C55.0422 11.5794 54.6649 11.6566 54.2827 11.6695C54.0905 11.6796 53.8985 11.6459 53.7212 11.5708C53.544 11.4957 53.3862 11.3813 53.2597 11.2362C52.5136 10.3653 52.801 8.4884 52.8053 8.4736L52.6827 8.18192L52.5072 8.12485L52.3677 8.15867C52.0194 8.3647 51.6279 8.48699 51.2242 8.51588C51.1171 8.5212 51.0101 8.50295 50.9107 8.46241C50.8114 8.42188 50.7222 8.36004 50.6493 8.28126C50.29 7.88812 50.2794 7.06591 50.3048 6.78479C50.3104 6.72873 50.3 6.67224 50.275 6.62178C50.2499 6.57132 50.2112 6.52892 50.1632 6.49944L50.0068 6.45506L49.8419 6.50367C49.5232 6.74218 49.1468 6.89171 48.7513 6.93697C48.6711 6.94181 48.5909 6.92746 48.5174 6.89511C48.4439 6.86276 48.3791 6.81335 48.3285 6.75097C47.8804 6.20987 48.0263 4.70494 48.1172 4.21457L48.0009 3.92078L47.8212 3.85948L47.686 3.8933C47.3917 4.05541 47.0641 4.14796 46.7285 4.16385C46.5835 4.16577 46.4397 4.13723 46.3065 4.08006C46.1732 4.0229 46.0534 3.93839 45.9549 3.832C45.2447 3.09856 45.1411 1.3252 45.1623 0.703781C45.1639 0.638202 45.1442 0.573864 45.1061 0.520483C45.0679 0.467101 45.0135 0.427574 44.9509 0.407869L44.8769 0.399414Z" fill="#001E94"/>
<path d="M39.764 13.3605C39.6408 13.3519 39.5217 13.3126 39.4176 13.2461C39.3135 13.1797 39.2277 13.0882 39.168 12.9801C39.2377 12.4855 41.4655 3.71801 45.1623 0.19242L45.2659 0.150146L45.3568 0.181851L45.399 0.369967C45.361 0.443946 41.6304 7.63885 40.4488 12.8934C40.4171 12.9526 40.1508 13.3605 39.764 13.3605Z" fill="#001E94"/>
<path d="M45.2659 0.302254C45.2659 0.302254 41.5057 7.52464 40.3009 12.8532C40.3009 12.8532 40.0705 13.2104 39.764 13.2104C39.6652 13.2013 39.5702 13.1675 39.4878 13.1121C39.4054 13.0567 39.3383 12.9815 39.2927 12.8933C39.2927 12.8933 41.5606 3.8363 45.2659 0.302254ZM45.2659 0L45.0545 0.0824328C41.3302 3.63761 39.094 12.4474 39.001 12.8215L39.0454 13.0646C39.1174 13.1938 39.2212 13.3026 39.3469 13.3806C39.4726 13.4587 39.6162 13.5034 39.764 13.5105C40.2227 13.5105 40.5207 13.0667 40.5545 13.0159L40.5947 12.9208C41.7762 7.68951 45.4963 0.51362 45.5343 0.45021C45.5666 0.387006 45.5756 0.314463 45.5597 0.245289C45.5439 0.176115 45.5042 0.114722 45.4476 0.0718645L45.2659 0Z" fill="#001E94"/>
<path d="M44.0381 13.9503C43.9369 13.9436 43.839 13.9114 43.7537 13.8567C43.6683 13.802 43.5981 13.7266 43.5498 13.6374C43.5984 13.2147 45.3126 6.36432 48.166 3.60599L48.2696 3.56372L48.3584 3.5912L48.4028 3.78143C48.3753 3.8385 45.5071 9.45661 44.5982 13.5529C44.5452 13.6605 44.4663 13.7532 44.3685 13.8226C44.2707 13.892 44.1571 13.9358 44.0381 13.9503Z" fill="#001E94"/>
<path d="M48.2696 3.70509C48.2696 3.70509 45.376 9.34856 44.4523 13.5125C44.4523 13.5125 44.2748 13.7915 44.0296 13.7915C43.9529 13.784 43.8792 13.7574 43.8154 13.7142C43.7515 13.671 43.6995 13.6126 43.6639 13.5442C43.6639 13.5442 45.4077 6.46553 48.2611 3.70509H48.2696ZM48.2611 3.40283L48.0498 3.48738C45.1667 6.27953 43.442 13.1785 43.3701 13.4723L43.4145 13.7133C43.4757 13.8237 43.5642 13.9167 43.6715 13.9833C43.7788 14.0499 43.9013 14.0879 44.0275 14.0937C44.1637 14.0789 44.2947 14.0331 44.4104 13.9598C44.5262 13.8865 44.6237 13.7877 44.6954 13.671L44.7355 13.5738C45.6465 9.51132 48.5084 3.89743 48.538 3.84247C48.5702 3.77872 48.579 3.70567 48.5627 3.63612C48.5465 3.56657 48.5063 3.50494 48.4492 3.46201L48.2611 3.40283Z" fill="#001E94"/>
<path d="M46.7963 14.2544C46.6843 14.2544 46.5236 14.1994 46.3989 13.931C46.4623 13.5822 48.1596 7.86268 50.3937 5.70463L50.4973 5.66235L50.5882 5.69194L50.6305 5.88429C50.6051 5.92867 48.1723 10.5111 47.2486 13.9331C47.2021 14.0029 47.033 14.2544 46.7963 14.2544Z" fill="#001E94"/>
<path d="M50.5076 5.81259C50.5076 5.81259 48.0515 10.4161 47.1046 13.8931C47.1046 13.8931 46.9693 14.1045 46.8065 14.1045C46.722 14.1045 46.629 14.0453 46.5445 13.8678C46.5445 13.8678 48.2777 7.96853 50.5076 5.81259ZM50.5076 5.51245L50.2962 5.597C48.0346 7.78253 46.3267 13.538 46.2549 13.7832L46.2718 13.9946C46.3082 14.109 46.3788 14.2096 46.474 14.2829C46.5692 14.3562 46.6845 14.3987 46.8044 14.4046C46.9169 14.3934 47.0253 14.3563 47.121 14.2961C47.2167 14.236 47.2972 14.1545 47.3561 14.058L47.3941 13.9734C48.322 10.5662 50.7464 6.00071 50.776 5.95421C50.8096 5.89079 50.8196 5.81746 50.8041 5.74737C50.7886 5.67727 50.7487 5.61497 50.6915 5.57163L50.5076 5.51245Z" fill="#001E94"/>
<path d="M48.8823 14.7025C48.7851 14.7025 48.6117 14.656 48.542 14.3348C48.654 14.0346 50.9854 9.26198 53.135 7.68096L53.2238 7.65137L53.3294 7.69575L53.3442 7.89232C53.3168 7.92826 50.5965 11.6018 49.267 14.4722C49.2225 14.5353 49.1652 14.5883 49.099 14.628C49.0327 14.6677 48.9589 14.6931 48.8823 14.7025Z" fill="#001E94"/>
<path d="M53.2238 7.80136C53.2238 7.80136 50.476 11.4897 49.1296 14.4087C49.1296 14.4087 49.0028 14.5524 48.8823 14.5524C48.8062 14.5524 48.7301 14.4932 48.69 14.303C48.69 14.303 51.0784 9.3697 53.2238 7.80136ZM53.2238 7.50122L53.0462 7.5604C50.867 9.15199 48.5187 13.969 48.4194 14.1719L48.394 14.3727C48.487 14.8124 48.766 14.8589 48.8802 14.8589C48.9717 14.8513 49.0608 14.8258 49.1424 14.7837C49.224 14.7416 49.2965 14.6838 49.3558 14.6137L49.4023 14.5418C50.7233 11.6842 53.4351 8.02541 53.4626 7.98948C53.5053 7.93166 53.5259 7.86056 53.5209 7.7889C53.5158 7.71725 53.4854 7.64973 53.4352 7.59845L53.2238 7.50122Z" fill="#001E94"/>
<path d="M52.0761 15.4299C51.9881 15.4288 51.9025 15.402 51.8296 15.3528C51.7567 15.3036 51.6999 15.2341 51.666 15.153L51.6787 15.0008C51.7654 14.874 53.8537 11.862 56.092 11.0271H56.1449L56.2738 11.1011L56.24 11.2934C56.2146 11.3146 53.5894 13.5022 52.4354 15.2967C52.3352 15.3823 52.2078 15.4295 52.0761 15.4299Z" fill="#001E94"/>
<path d="M56.1449 11.1727C56.1449 11.1727 53.488 13.3773 52.3044 15.2183C52.236 15.262 52.1572 15.2868 52.0761 15.2901C52.0162 15.2896 51.9579 15.271 51.9088 15.2366C51.8598 15.2023 51.8223 15.1539 51.8013 15.0978C51.8013 15.0978 53.915 12.0097 56.1449 11.1812V11.1727ZM56.1449 10.8789L56.0392 10.9C53.7543 11.7455 51.6428 14.7997 51.554 14.9287L51.5308 15.2183C51.5772 15.3246 51.6533 15.4153 51.7501 15.4795C51.8468 15.5436 51.96 15.5784 52.0761 15.5797C52.2176 15.5759 52.3552 15.5327 52.4735 15.455L52.558 15.3704C53.7015 13.595 56.3098 11.4221 56.3372 11.401C56.3915 11.3547 56.4279 11.291 56.4403 11.2208C56.4526 11.1506 56.4401 11.0783 56.4049 11.0163L56.1449 10.8789Z" fill="#001E94"/>
<path d="M54.4495 16.924C54.3532 16.9262 54.2576 16.9063 54.1701 16.8661C54.0825 16.8258 54.0053 16.7661 53.9443 16.6915V16.4801C54.0352 16.3892 56.1912 14.2439 58.7339 13.8169H58.7593L58.903 13.9205L58.8269 14.1022C58.7973 14.117 55.9396 15.5564 54.7644 16.8352C54.6693 16.8925 54.5605 16.9232 54.4495 16.924Z" fill="#001E94"/>
<path d="M58.7682 13.9734C58.7682 13.9734 55.8704 15.4297 54.6614 16.7402C54.5932 16.7627 54.5218 16.7742 54.45 16.774C54.3759 16.776 54.3024 16.761 54.235 16.7303C54.1676 16.6995 54.1081 16.6537 54.0611 16.5964C54.0611 16.5964 56.2424 14.3982 58.7682 13.9734ZM58.7682 13.6711H58.7175C56.1282 14.1065 53.9385 16.2836 53.8561 16.3766C53.804 16.4299 53.7734 16.5005 53.7699 16.5749C53.7664 16.6493 53.7903 16.7224 53.837 16.7803C53.9127 16.8722 54.0079 16.9459 54.1159 16.996C54.2238 17.0461 54.3416 17.0714 54.4606 17.0699C54.5693 17.0697 54.6772 17.0511 54.7797 17.0149L54.8939 16.9367C56.0522 15.6685 58.8866 14.2503 58.9098 14.2355C58.9697 14.2045 59.0175 14.1544 59.0456 14.0931C59.0738 14.0318 59.0806 13.9629 59.065 13.8973C59.0495 13.8317 59.0125 13.7732 58.9598 13.7311C58.9072 13.6889 58.842 13.6656 58.7745 13.6648L58.7682 13.6711Z" fill="#001E94"/>
<path d="M56.9204 18.4945C56.8237 18.497 56.7277 18.4773 56.6398 18.437C56.5518 18.3967 56.4743 18.3368 56.4131 18.262L56.4237 18.0506C56.5145 17.9576 58.6705 15.8122 61.2153 15.3853H61.2386L61.3823 15.4888L61.3062 15.6706C61.2766 15.6854 58.4189 17.1269 57.2438 18.4036C57.1461 18.4624 57.0344 18.4938 56.9204 18.4945Z" fill="#001E94"/>
<path d="M61.239 15.5439C61.239 15.5439 58.3412 16.996 57.1321 18.3107C57.064 18.3332 56.9926 18.3446 56.9208 18.3445C56.8476 18.3478 56.7745 18.3344 56.7072 18.3055C56.6399 18.2766 56.5799 18.2328 56.5319 18.1775C56.5319 18.1775 58.7132 15.9793 61.239 15.5544V15.5439ZM61.239 15.2522H61.1904C58.599 15.6876 56.4093 17.8647 56.3184 17.9577C56.2656 18.0105 56.2343 18.0809 56.2304 18.1555C56.2265 18.23 56.2503 18.3034 56.2973 18.3614C56.373 18.453 56.4683 18.5264 56.5763 18.5761C56.6842 18.6259 56.8019 18.6507 56.9208 18.6488C57.0293 18.6489 57.1372 18.6311 57.2399 18.596L57.3541 18.5178C58.5103 17.2496 61.3468 15.8313 61.37 15.8165C61.4299 15.7856 61.4777 15.7354 61.5058 15.6742C61.534 15.6129 61.5408 15.544 61.5253 15.4784C61.5097 15.4128 61.4727 15.3542 61.42 15.3121C61.3674 15.27 61.3022 15.2467 61.2348 15.2458L61.239 15.2522Z" fill="#001E94"/>
<path d="M59.4062 20.4285C59.3093 20.4308 59.2133 20.4108 59.1253 20.3701C59.0374 20.3295 58.9599 20.2692 58.8989 20.1939V19.9825C58.9919 19.8917 61.1479 17.7463 63.6927 17.3193H63.716L63.8597 17.4229L63.7815 17.6047C63.7561 17.6195 60.8963 19.061 59.7211 20.3376C59.6259 20.395 59.5173 20.4264 59.4062 20.4285Z" fill="#001E94"/>
<path d="M63.7244 17.4759C63.7244 17.4759 60.8245 18.928 59.6197 20.2427C59.5514 20.2649 59.4801 20.2763 59.4083 20.2765C59.3339 20.279 59.2599 20.2643 59.192 20.2335C59.1242 20.2027 59.0644 20.1567 59.0173 20.099C59.0173 20.099 61.2007 17.8987 63.7265 17.4759H63.7244ZM63.7265 17.1758H63.6779C61.0866 17.5985 58.8968 19.7883 58.8038 19.8813C58.7518 19.9346 58.7211 20.0051 58.7176 20.0795C58.7141 20.1539 58.738 20.227 58.7848 20.285C58.8613 20.3785 58.9583 20.4532 59.0682 20.5034C59.1781 20.5536 59.2981 20.578 59.4189 20.5746C59.5276 20.5747 59.6356 20.5561 59.7381 20.5196L59.8522 20.4414C60.9957 19.1901 63.8238 17.7549 63.8597 17.7549C63.9244 17.7233 63.9754 17.6691 64.003 17.6026C64.0306 17.536 64.033 17.4617 64.0098 17.3935C63.992 17.3313 63.9546 17.2765 63.9032 17.2373C63.8518 17.1981 63.7891 17.1765 63.7244 17.1758H63.7265Z" fill="#001E94"/>
<path d="M10.2527 32.1277L10.1893 32.1087C9.05853 31.426 -0.822844 25.4697 0.185373 23.6731C0.515104 23.0812 2.98386 22.4598 3.26286 22.3922C3.9181 22.1301 4.34295 21.9547 4.61138 21.8384L4.68959 21.7243H4.7065C4.81888 21.6789 4.93692 21.649 5.05736 21.6355L5.19052 21.7391L5.17784 21.8321C6.12476 22.1597 7.98901 23.1975 9.79619 24.2036C10.7072 24.7109 11.5674 25.1886 12.1973 25.5162C12.8864 25.8755 13.419 26.1735 13.8439 26.4124C14.7316 26.9091 15.1353 27.1374 15.5644 27.1374C16.2978 27.1374 17.1919 28.0991 17.2299 28.1392L17.2638 28.2386L17.2109 28.3295C16.7882 28.6338 16.6719 29.3863 16.5493 30.0986C16.4162 30.9102 16.2872 31.6775 15.7166 31.7895L15.5454 31.8043C14.6872 31.8043 13.6135 30.72 13.3302 30.4156L10.3183 32.1256L10.2527 32.1277Z" fill="white"/>
<path d="M5.06395 21.7452C5.08931 21.7452 5.06395 21.7684 4.90965 21.8382L4.79763 21.8234H4.75324L5.06395 21.7388V21.7452ZM4.75324 21.8234H4.74267H4.75324ZM4.90965 21.8234C5.89885 22.0347 10.1621 24.5711 12.1447 25.5984C14.2816 26.7102 14.8925 27.2322 15.571 27.2322C16.2494 27.2322 17.1435 28.1939 17.1435 28.1939C16.2029 28.8788 16.6405 31.4532 15.6999 31.6223L15.5519 31.6371C14.6219 31.6371 13.3622 30.2146 13.3622 30.2146L10.2593 31.9732C10.2593 31.9732 -0.67253 25.461 0.303982 23.7088C0.614691 23.1486 3.30116 22.4913 3.30116 22.4913C4.22271 22.1235 4.69406 21.9248 4.90965 21.8234ZM5.06395 21.4746C4.92938 21.4867 4.79748 21.5195 4.67292 21.5718H4.65179L4.50594 21.7177C4.21214 21.8424 3.77884 22.0199 3.20815 22.2461C2.58674 22.3962 0.422347 22.969 0.0820477 23.5777C-0.962101 25.4525 8.27038 31.0791 10.1304 32.1867L10.2614 32.2226L10.3883 32.1888L13.3072 30.5507C13.6856 30.9459 14.6917 31.9077 15.5477 31.9077L15.7422 31.8907C16.4016 31.7703 16.5369 30.9607 16.6785 30.1026C16.7905 29.441 16.9153 28.6885 17.2894 28.4117L17.3951 28.2299L17.3274 28.0312C17.2281 27.9234 16.3425 26.987 15.5667 26.987C15.1715 26.987 14.7762 26.7757 13.9096 26.2811C13.4869 26.0401 12.95 25.7421 12.2589 25.3828C11.6248 25.0552 10.7793 24.5775 9.85985 24.0702C8.07803 23.0789 6.24126 22.0559 5.3197 21.6987C5.30652 21.6403 5.27418 21.5879 5.22784 21.55C5.1815 21.5121 5.12381 21.4908 5.06395 21.4894V21.4746Z" fill="#001E94"/>
<path d="M11.3646 30.4368C11.3646 30.4368 9.71388 29.082 7.97222 27.8603C7.09928 27.2452 6.19674 26.6809 5.50135 26.2856C5.15471 26.0869 4.844 25.9622 4.63686 25.8629L4.30713 25.7043L4.64531 25.8481C4.85668 25.9453 5.17373 26.0594 5.52883 26.2412C6.24324 26.6048 7.17748 27.1311 8.0779 27.7081C9.88508 28.8516 11.6014 30.1367 11.6014 30.1367L11.3646 30.4368Z" fill="#001E94"/>
<path d="M4.56299 26.3701C5.66413 26.9493 6.73504 27.5842 7.77153 28.2724C8.15833 28.5345 8.53456 28.8156 8.89177 29.0693L9.82178 29.8344L10.6672 30.6799L10.3692 30.9272L9.60407 30.0817L8.73113 29.2849C8.39083 29.0164 8.03574 28.7184 7.6743 28.4394C6.67357 27.6964 5.63508 27.0058 4.56299 26.3701Z" fill="#001E94"/>
<path d="M4.35164 27.6888C4.35164 27.6888 1.8533 25.0256 2.31619 24.7064C2.77908 24.3873 10.0543 27.5874 11.7981 30.1512C13.5418 32.7151 15.0806 29.0585 15.0806 29.0585C15.0806 29.0585 7.26004 23.6243 5.14638 23.2987C3.03272 22.9732 -0.4823 23.3558 0.411779 24.4465C1.30586 25.5371 4.35164 27.6888 4.35164 27.6888Z" fill="#001E94"/>
<path d="M72.7941 49.5401C72.715 49.5402 72.6378 49.5166 72.5722 49.4725C61.9362 45.1987 40.193 42.286 39.9753 42.2649C38.1349 42.4771 36.2837 42.5822 34.4311 42.5798C18.3081 42.5798 3.16582 35.0341 2.23581 34.3365C2.1759 34.2934 2.12718 34.2365 2.09372 34.1707C2.06026 34.1049 2.04303 34.032 2.04347 33.9582C2.04347 33.3368 3.225 32.4638 3.36028 32.3666C7.19023 29.8302 13.7553 28.7438 15.108 28.5409L11.9079 25.1928L4.88 21.31L4.81659 21.2065L4.86943 21.0945C7.38892 19.2957 14.1526 15.6581 14.2139 15.6222C21.0854 12.513 28.6735 11.8599 33.8287 11.8599C36.5765 11.8599 38.3477 12.0543 38.3668 12.0564C46.9588 12.7201 61.4987 18.0001 65.6626 21.9653C76.0069 31.8297 73.8277 43.6388 73.8065 43.7571C73.9143 46.9128 73.6945 48.8109 73.1555 49.3689C73.1099 49.4204 73.0544 49.4621 72.9923 49.4915C72.9302 49.5209 72.8628 49.5374 72.7941 49.5401Z" fill="white"/>
<path d="M33.8288 11.9889C36.5956 11.9889 38.352 12.1834 38.352 12.1834C46.7137 12.8301 61.3233 18.0044 65.576 22.0584C75.9879 31.9926 73.6798 43.7319 73.6798 43.7319C73.851 48.8575 73.1197 49.4113 72.7942 49.4113L72.6483 49.369C61.8433 45.0212 39.9944 42.1382 39.9944 42.1382C38.1461 42.3494 36.2872 42.4538 34.427 42.451C17.9573 42.451 2.88902 34.6643 2.31622 34.2415C1.68212 33.7617 3.44069 32.4766 3.44069 32.4766C7.72508 29.6443 15.3765 28.6403 15.3765 28.6403L12.0031 25.1042L4.9435 21.1981C7.4799 19.3846 14.2753 15.7364 14.2753 15.7364C21.2694 12.5659 29.0583 11.9889 33.8288 11.9889ZM33.8288 11.7332C28.6609 11.7332 21.0538 12.3863 14.1718 15.5018C14.0872 15.5462 7.31292 19.188 4.79555 20.9973L4.68986 21.2214L4.82091 21.4328L11.8467 25.3177L14.8439 28.4501C13.0642 28.7249 6.99587 29.8071 3.29273 32.2547C3.056 32.428 1.91885 33.2883 1.91462 33.9583C1.91313 34.052 1.93449 34.1447 1.97684 34.2283C2.01919 34.3119 2.08126 34.3839 2.15769 34.4381C3.09193 35.1377 18.2765 42.7068 34.427 42.7068C36.2971 42.7093 38.1659 42.6041 40.024 42.3918C40.1761 42.4214 61.9025 45.3256 72.5532 49.6079C72.6276 49.6509 72.7125 49.6721 72.7984 49.6692C72.8843 49.6673 72.9689 49.6475 73.0468 49.6111C73.1247 49.5747 73.1941 49.5225 73.2507 49.4578C73.8151 48.8744 74.0476 46.9447 73.9419 43.7234C73.9588 43.6621 76.1486 31.7855 65.7578 21.8724C61.5812 17.8903 46.9948 12.5934 38.3753 11.9276C38.3626 11.9276 36.5787 11.7332 33.8288 11.7332Z" fill="#001E94"/>
<path d="M65.5759 22.0582C61.3232 18.0042 46.7136 12.83 38.3519 12.1832C38.3519 12.1832 25.3254 10.7354 14.2752 15.7363C14.2752 15.7363 7.47553 19.3845 4.94336 21.198L7.30009 22.5021C7.37135 22.417 7.46117 22.3492 7.56266 22.3042C7.66415 22.2591 7.77461 22.2379 7.88558 22.2421C7.88558 22.2125 8.17304 22.0582 8.68666 21.7454C9.26157 21.3946 10.5594 21.849 10.4981 21.7454C10.4368 21.6419 11.6289 21.3227 11.483 21.3396C11.3372 21.3565 12.6329 21.0691 12.9964 21.1895C13.36 21.31 14.0089 21.5425 14.0702 21.3396C14.1049 21.2131 14.1797 21.1013 14.2833 21.0208C14.387 20.9404 14.5139 20.8958 14.6451 20.8936C14.9875 20.8809 15.6639 21.1895 15.6639 21.1895C15.6639 21.1895 16.0443 21.7137 16.2853 21.3396C16.5262 20.9655 17.2343 21.1663 17.6063 20.7668C17.9783 20.3673 18.2594 20.6548 19.1873 20.7668C20.1152 20.8788 20.8233 21.6271 20.7683 21.3396C20.737 21.082 20.737 20.8215 20.7683 20.5639C20.7683 20.5639 21.6497 20.3673 22.5037 20.1982C23.3576 20.0291 23.3491 20.2659 23.5288 19.7607C23.5787 19.6175 23.6709 19.4927 23.7931 19.4029C23.9154 19.3131 24.062 19.2624 24.2136 19.2576C24.2136 19.2576 24.8118 19.6804 24.8963 19.2576C24.9809 18.8349 25.5812 18.7461 25.5812 18.7461C25.5812 18.7461 26.3738 19.0864 26.2322 18.7461C26.0906 18.4058 25.8094 18.148 26.2491 18.0613C26.5619 17.9767 26.8916 17.9767 27.2045 18.0613C27.6272 18.148 28.3014 17.8986 28.4346 17.9958C28.5678 18.093 28.9123 18.3995 29.595 17.9747C30.2777 17.5498 30.2798 16.9178 30.5356 16.846C30.7913 16.7741 30.5779 16.2267 31.2415 16.4232C31.9052 16.6198 32.2455 16.3175 32.5858 16.846C32.9261 17.3744 33.4102 17.5498 34.2366 17.3786C35.063 17.2074 35.8472 17.4653 36.01 17.6344C36.1727 17.8034 36.9611 17.7971 36.9611 17.7992C36.9611 17.8013 37.8848 17.2919 38.2293 17.3765C38.5738 17.461 38.8 17.888 39.1974 17.7189C39.5947 17.5498 40.1084 17.1186 40.5353 17.2053C40.9623 17.2919 41.3047 16.9495 41.6471 17.2898C41.9895 17.6301 42.7039 17.8034 42.8963 17.9747C43.0886 18.1459 45.0839 18.8349 45.9717 18.8751C46.8594 18.9152 47.3709 18.5792 47.7979 18.8751C48.2248 19.171 50.1842 19.5789 50.9578 19.7586C51.7314 19.9382 52.4986 19.7586 52.8368 20.2743C53.175 20.7901 56.5992 22.4937 57.3685 22.9249C57.3685 22.9249 57.7744 25.3069 58.884 25.0258C59.9937 24.7447 61.2386 25.6937 61.2386 25.6937C61.2386 25.6937 61.8727 27.1733 62.5301 27.985C63.1874 28.7966 63.7222 30.0416 64.2443 29.1285C64.7663 28.2153 66.1825 30.0204 66.7595 30.8194C67.3366 31.6183 67.3366 32.8717 68.1059 32.821C68.8753 32.7703 69.837 33.3833 70.2196 34.2308C70.6022 35.0784 70.7966 35.6893 71.3737 36.7292C71.8758 37.5643 72.2639 38.4628 72.5277 39.4009C72.9103 40.6543 71.3737 41.8062 72.5277 42.77C73.0243 43.1813 73.4216 43.6994 73.6902 44.2855C73.6902 44.108 73.6902 43.922 73.6797 43.7296C73.6797 43.7317 75.9878 31.9882 65.5759 22.0582Z" fill="#001E94"/>
<path d="M17.2278 31.2524C16.5768 31.2524 15.6151 30.5422 14.926 29.9462C14.6724 29.7348 14.4779 29.5424 14.3913 29.46L14.3236 29.4368C13.0808 28.3947 10.8276 26.5432 9.67357 25.8435C7.90866 24.7635 4.0322 23.6728 1.99674 23.6728C1.28655 23.6728 0.825772 23.806 0.701066 24.0511C0.720089 24.0511 0.889182 25.4081 7.915 30.0307L7.96995 30.1554L7.87907 30.259L7.14985 30.4703C4.24991 28.5089 -0.353652 25.0488 0.176878 23.6728C0.466449 22.9267 2.02211 22.2228 2.07917 22.1932C3.88636 21.4281 4.88189 21.0772 4.89246 21.073C5.8584 21.073 11.6794 23.8736 13.5458 24.8459C15.67 25.9429 18.9948 27.0547 19.6479 27.0547C20.411 27.0547 20.8591 28.2003 20.8781 28.2489L20.8337 28.399C20.414 28.7373 20.0178 29.1038 19.6479 29.4959C18.8405 30.297 18.0056 31.1256 17.3715 31.2397L17.2278 31.2524Z" fill="white"/>
<path d="M5.00243 21.1895C5.78659 21.1895 11.4364 23.8865 13.5036 24.9624C15.632 26.0742 18.9737 27.1838 19.648 27.1838C20.3222 27.1838 20.7598 28.2956 20.7598 28.2956C19.8171 28.9783 18.2804 30.9441 17.342 31.1153H17.2194C16.5853 31.1153 15.6193 30.3713 15.0022 29.8471C14.6576 29.5511 14.4251 29.3186 14.4251 29.3186L14.3977 29.3377C13.2859 28.4034 10.9207 26.4525 9.73703 25.7318C8.01651 24.6749 4.11892 23.5357 1.98835 23.5357C1.26336 23.5357 0.741285 23.6688 0.580647 23.9838C0.580647 23.9838 0.508783 25.309 7.83473 30.1282L7.10552 30.3395C4.05339 28.2174 -0.178158 24.9413 0.297416 23.7238C0.570078 23.0199 2.14053 22.314 2.14053 22.314C3.96251 21.5446 4.94324 21.198 4.94324 21.198H5.00243V21.1895ZM5.00243 20.9422L4.85024 20.9676C4.85024 20.9676 3.84837 21.3227 2.03907 22.0857C1.86364 22.166 0.360826 22.8593 0.0585723 23.6392C-0.36416 24.7489 1.96087 27.0782 6.96813 30.5636L7.11398 30.6101L7.18584 30.5995L7.91505 30.3882L8.09683 30.1768L7.9848 29.9253C1.88055 25.9093 0.992811 24.3769 0.863877 24.0493C0.965333 23.9521 1.24434 23.802 1.9968 23.802C4.01535 23.802 7.85798 24.8926 9.60598 25.96C10.7896 26.6829 13.2373 28.7078 14.2349 29.5533L14.3321 29.604C14.4294 29.697 14.6048 29.8619 14.8246 30.05H14.8373C15.8645 30.9377 16.6677 31.3879 17.2215 31.3879L17.3885 31.3731C18.0627 31.2505 18.9124 30.4093 19.7325 29.5934C20.1028 29.2044 20.4982 28.84 20.9162 28.5028L21.005 28.2026C20.9542 28.0737 20.4892 26.9344 19.6543 26.9344C19.0731 26.9344 15.8497 25.8966 13.6198 24.7426C11.9204 23.8506 5.90919 20.9253 5.00243 20.9253V20.9422Z" fill="#001E94"/>
<path d="M9.50293 19.7605C9.50293 19.7605 9.69739 20.1832 10.0398 20.7645C10.1962 21.0689 10.4181 21.3986 10.638 21.7621C10.8578 22.1257 11.1368 22.4829 11.3904 22.857C11.6441 23.2311 11.9632 23.5524 12.2359 23.8652C12.5551 24.14 12.8341 24.4211 13.094 24.6388L14.0536 25.2433C14.0536 25.2433 13.6309 25.0616 13.0116 24.7572C12.7326 24.5458 12.4156 24.3028 12.0795 24.0238C11.7836 23.7109 11.4729 23.3664 11.1791 23.0113C10.9275 22.6245 10.6401 22.261 10.4393 21.8784C10.2418 21.5362 10.0633 21.1834 9.90453 20.8216C9.74721 20.4772 9.61304 20.1227 9.50293 19.7605Z" fill="#001E94"/>
<path d="M10.9189 20.9043C11.7087 21.6111 12.4515 22.3687 13.1425 23.1723C13.6456 23.7916 14.1465 24.413 14.4995 24.8928C14.8525 25.3726 15.0744 25.696 15.0744 25.696C15.0744 25.696 14.7891 25.4127 14.3832 24.9752C13.9774 24.5377 13.4617 23.9437 12.9502 23.3413C12.4387 22.739 11.906 22.1514 11.5382 21.6821C11.1705 21.2129 10.9189 20.9043 10.9189 20.9043Z" fill="#001E94"/>
<path d="M16.5812 22.5167L16.4544 22.5379C16.577 23.2607 17.2999 23.7342 18.1115 23.7321C18.229 23.7322 18.3463 23.723 18.4624 23.7046C19.3438 23.5588 20.0075 22.9099 20.0117 22.1595L19.9969 21.9608C19.8743 21.238 19.1514 20.7645 18.3419 20.7666C18.2237 20.7664 18.1057 20.7756 17.9889 20.7941C17.1054 20.9378 16.4417 21.5888 16.4375 22.3392L16.4544 22.5379L16.5812 22.5167L16.708 22.4956L16.6933 22.3392C16.6933 21.7516 17.2428 21.1745 18.0312 21.0477L18.3419 21.0224C19.0669 21.0224 19.6545 21.4451 19.7433 22.0031L19.756 22.1595C19.756 22.745 19.2085 23.3241 18.4222 23.451L18.1115 23.4763C17.3844 23.4763 16.7968 23.0536 16.708 22.4956L16.5812 22.5167Z" fill="#001E94"/>
<path d="M17.2642 22.2505C17.2519 22.4434 17.2978 22.6355 17.3961 22.8019C17.4943 22.9683 17.6404 23.1013 17.8152 23.1837C17.99 23.266 18.1855 23.294 18.3764 23.2638C18.5673 23.2337 18.7447 23.1468 18.8856 23.0146C19.0265 22.8824 19.1244 22.7108 19.1666 22.5222C19.2088 22.3336 19.1933 22.1367 19.1222 21.957C19.0511 21.7774 18.9276 21.6232 18.7678 21.5146C18.6079 21.406 18.4191 21.3479 18.2259 21.348C17.9791 21.3417 17.7398 21.4329 17.5597 21.6018C17.3797 21.7707 17.2735 22.0038 17.2642 22.2505Z" fill="#001E94"/>
<path d="M16.9875 21.9968C16.9929 22.1185 17.0339 22.2359 17.1055 22.3344C17.177 22.433 17.276 22.5084 17.39 22.5511C17.504 22.5939 17.6281 22.6022 17.7469 22.5751C17.8656 22.5479 17.9737 22.4865 18.0578 22.3984C18.1419 22.3102 18.1983 22.1994 18.2199 22.0795C18.2415 21.9596 18.2274 21.8361 18.1793 21.7241C18.1312 21.6122 18.0514 21.5169 17.9496 21.45C17.8478 21.3831 17.7286 21.3476 17.6068 21.3479C17.5235 21.3498 17.4414 21.3681 17.3652 21.4018C17.289 21.4354 17.2202 21.4838 17.1627 21.544C17.1052 21.6043 17.0601 21.6753 17.03 21.753C17 21.8307 16.9855 21.9135 16.9875 21.9968Z" fill="white"/>
<path d="M19.8044 21.7454C19.8569 21.893 19.8924 22.0462 19.9101 22.2019C19.9548 22.5515 19.9216 22.9066 19.8129 23.2418L19.6734 23.4997L19.5127 23.7343C19.3885 23.8515 19.2456 23.9472 19.09 24.0175C18.9367 24.056 18.7815 24.0863 18.625 24.1084C18.625 24.1084 18.792 24.007 19.0224 23.8971C19.1386 23.84 19.2147 23.6857 19.3352 23.5969L19.4578 23.3856L19.5635 23.1573C19.6234 22.9973 19.6666 22.8316 19.6924 22.6627C19.7249 22.5129 19.7468 22.3611 19.7579 22.2083C19.8002 21.9356 19.8044 21.7454 19.8044 21.7454Z" fill="#001E94"/>
<path d="M17.6064 24.4021C17.806 24.4723 18.012 24.5226 18.2215 24.5522C18.4244 24.5881 18.6307 24.6016 18.8366 24.5923L19.1706 24.5247C19.282 24.4898 19.3891 24.4423 19.4897 24.3831C19.5979 24.3373 19.6968 24.2722 19.7814 24.1907L20.0393 23.9582C20.1786 23.8005 20.3085 23.6346 20.4282 23.4615C20.6205 23.1424 20.7685 22.9268 20.7685 22.9268C20.7685 22.9268 20.6924 23.1677 20.5571 23.5334C20.4623 23.7355 20.3461 23.9268 20.2105 24.1041L19.9378 24.3746C19.8459 24.4727 19.7362 24.5523 19.6144 24.6092C19.4944 24.6707 19.3683 24.7196 19.2382 24.7551L18.8514 24.8143C18.6236 24.8076 18.3983 24.7655 18.1835 24.6896C18.0334 24.6391 17.8911 24.5679 17.7607 24.4782L17.6064 24.4021Z" fill="#001E94"/>
<path d="M19.2468 29.591L20.4558 29.9842C21.5146 30.3305 22.5905 30.6226 23.6791 30.8592C24.0118 30.939 24.3542 30.9704 24.6958 30.9522C25.0582 30.9074 25.3963 30.7465 25.6596 30.4936L25.9323 30.2991C25.9975 30.2636 26.0709 30.2459 26.1451 30.2477C26.2193 30.2496 26.2917 30.271 26.355 30.3097C26.5301 30.4365 26.6941 30.578 26.8454 30.7324C26.9692 30.8734 27.141 30.9631 27.3275 30.9842C27.5139 31.0053 27.7014 30.9563 27.8536 30.8466C28.1939 30.6352 28.6124 30.3033 29.1049 30.3181C29.5447 30.2778 29.9739 30.1605 30.3731 29.9715C30.5695 29.8832 30.7468 29.7576 30.8952 29.6016C31.0306 29.4276 31.1462 29.239 31.2397 29.0394C31.4674 28.6267 31.7465 28.2446 32.0704 27.9022C32.3888 27.5598 32.6918 27.2125 32.9792 26.8602C33.1748 26.4679 33.2526 26.0275 33.2033 25.592C33.1614 24.7052 32.9898 23.8293 32.6939 22.9922C32.3938 22.189 32.0598 21.4069 31.5145 20.8193C31.0289 20.2448 30.4935 19.7143 29.9144 19.2341C28.8576 18.3231 27.9318 17.6298 27.2766 17.1543L26.2345 16.4187L27.2914 17.1416C27.9551 17.6087 28.8956 18.2893 29.9609 19.1876C30.5447 19.6606 31.0858 20.184 31.5779 20.7517C32.1295 21.3393 32.4889 22.1298 32.8017 22.9393C33.1121 23.7863 33.2958 24.6745 33.347 25.5751C33.4067 26.051 33.3228 26.5338 33.1061 26.9616C32.8144 27.3294 32.5121 27.6845 32.2035 28.0185C31.8949 28.3524 31.6075 28.6906 31.4151 29.1239L31.2545 29.4241L31.0431 29.739C30.8767 29.916 30.678 30.0595 30.4576 30.1617C30.0381 30.3692 29.5851 30.5009 29.1197 30.5506C28.6779 30.5506 28.3693 30.8212 27.9804 31.06C27.7804 31.1988 27.5375 31.2621 27.2952 31.2385C27.0528 31.2149 26.8268 31.1059 26.6573 30.9311C26.5172 30.7931 26.3674 30.6653 26.2092 30.5485C26.1204 30.4745 25.9978 30.5718 25.8435 30.7092C25.5435 30.9968 25.1617 31.1843 24.7508 31.246C24.3713 31.2773 23.9894 31.2509 23.6178 31.1678C22.5127 30.9422 21.4199 30.66 20.3438 30.3224L19.1221 29.9398L19.2468 29.591Z" fill="#001E94"/>
<path d="M36.6591 16.8457C37.0818 18.078 37.5405 19.3145 38.2232 20.4009C38.4092 20.6503 38.6079 20.9082 38.8256 21.1555C39.0547 21.4274 39.2046 21.7572 39.2589 22.1087C39.2608 22.452 39.2066 22.7933 39.0982 23.1191C39.0108 23.4172 38.9757 23.7283 38.9947 24.0385C39.02 24.6726 39.206 25.275 39.3202 25.9408C39.3329 26.3445 39.3202 26.6129 39.3202 26.9575L39.3498 27.9171L39.4237 29.8659L39.4428 30.8508V31.3475C39.4576 31.5751 39.4078 31.8023 39.299 32.0028L39.2821 32.0197L39.242 32.0408L34.444 34.4525C33.6513 34.8583 32.8481 35.2811 32.0069 35.6193C31.1693 35.9811 30.2905 36.2387 29.3902 36.3865C28.938 36.4587 28.4806 36.4941 28.0226 36.4922C27.5633 36.4844 27.1053 36.4399 26.653 36.359C25.7643 36.1815 24.9019 35.891 24.087 35.4945C23.2648 35.1268 22.4891 34.6787 21.6965 34.2644C21.297 34.0699 20.9081 33.8417 20.4938 33.6789C20.0865 33.4954 19.6615 33.3538 19.2256 33.2562C19.6705 33.328 20.1068 33.4456 20.5276 33.607C20.9503 33.7487 21.354 33.9558 21.7662 34.1312C22.5779 34.5075 23.3874 34.8943 24.2054 35.2388C25.0089 35.6052 25.8565 35.8659 26.727 36.0145C27.1568 36.0759 27.5906 36.1042 28.0248 36.0991C28.4608 36.085 28.8953 36.0391 29.3247 35.9617C30.1888 35.8101 31.0314 35.5539 31.8336 35.1986C32.6495 34.8604 33.4273 34.4419 34.222 34.0234C35.8094 33.2033 37.4179 32.4023 39.0243 31.6075L38.9672 31.6456C38.8911 31.673 38.9672 31.4913 38.9503 31.3349L38.9608 30.8551L38.9503 29.8849L38.8974 27.9234L38.8784 26.9279L38.9143 25.9915C38.8319 25.3807 38.6565 24.7233 38.6459 24.0406C38.6365 23.6981 38.6851 23.3565 38.7896 23.0303C38.896 22.7398 38.9573 22.4347 38.9714 22.1256C38.927 21.5338 38.3944 21.0942 38.0456 20.5087C37.4031 19.3525 37.0099 18.1012 36.6591 16.8457Z" fill="#001E94"/>
<path d="M16.3744 30.8827C16.2314 31.0107 16.0722 31.1195 15.901 31.2061C15.7134 31.3174 15.5133 31.4061 15.3049 31.4703C15.05 31.5776 14.788 31.6673 14.5207 31.7388C13.9247 31.8508 13.2525 32.0769 12.4937 32.1467C11.754 32.2566 10.9423 32.301 10.1455 32.3581C8.5433 32.4489 6.94115 32.4785 5.7427 32.5694C5.44256 32.5821 5.1699 32.6075 4.92894 32.6371C4.68798 32.6666 4.47239 32.673 4.29484 32.7153L3.75586 32.8357L4.29062 32.7047C4.46182 32.6582 4.6753 32.6497 4.92471 32.6117C5.17413 32.5736 5.44045 32.5483 5.74059 32.5293C6.93903 32.4215 8.54119 32.3602 10.137 32.2355C10.9339 32.1699 11.7265 32.1129 12.462 31.986C13.206 31.9036 13.8676 31.6669 14.4489 31.5443C14.7077 31.4699 14.9612 31.3781 15.2077 31.2695C15.4007 31.2055 15.5858 31.1197 15.7593 31.0138C15.9139 30.9345 16.0563 30.8334 16.1821 30.7136L16.3744 30.8827Z" fill="#001E94"/>
<path d="M14.0447 29.0034C12.2172 29.3831 10.4104 29.8565 8.63158 30.4217C5.84365 31.3306 2.89087 32.5776 2.19336 34.1819L2.43009 34.2833C3.01346 32.8566 5.94088 31.5504 8.71189 30.6648C10.0963 30.2188 11.4427 29.8658 12.4446 29.6248C13.4465 29.3839 14.0933 29.2549 14.0933 29.2549L14.0468 29.0034H14.0447Z" fill="#001E94"/>
<path d="M5.38721 33.8481C5.38721 33.8481 6.42079 34.1398 7.99335 34.4822C9.56592 34.8247 11.6711 35.2558 13.8059 35.3636C14.3339 35.3954 14.8632 35.3954 15.3912 35.3636C15.9022 35.3458 16.4091 35.2649 16.9003 35.1227L19.5509 34.3787L20.6584 34.2772C20.9393 34.2366 21.2249 34.2423 21.5039 34.2941C21.6858 34.3064 21.8662 34.3354 22.0429 34.3808L22.2246 34.4421L22.0386 34.3914C21.8609 34.3575 21.6805 34.3398 21.4997 34.3385C21.2181 34.3008 20.9321 34.3115 20.6542 34.3702L19.5783 34.5161L16.9511 35.3362C16.4472 35.4874 15.9271 35.5775 15.4017 35.6046C14.8643 35.6427 14.3251 35.649 13.7869 35.6236C11.8147 35.4804 9.86095 35.1463 7.95319 34.626C6.39965 34.2117 5.38721 33.8481 5.38721 33.8481Z" fill="#001E94"/>
<path d="M5.38721 34.6851C5.38721 34.6851 6.6554 35.1881 8.57038 35.8814C9.53421 36.2153 10.6545 36.6191 11.874 36.9911C12.4807 37.2024 13.1126 37.38 13.7594 37.547C14.4067 37.7406 15.0635 37.9008 15.7272 38.0268L16.7228 38.2381C17.0567 38.2783 17.3907 38.2783 17.7204 38.3036L18.2129 38.3311L18.6927 38.2402L19.6481 38.0458C20.2536 37.9519 20.8508 37.8105 21.4341 37.623L23.0025 37.1496C23.4907 37.0143 23.9219 36.8262 24.3129 36.693L25.3212 36.3274L26.1856 35.985L26.285 36.2217C26.285 36.2217 25.9637 36.3422 25.4078 36.5578L24.3911 36.9129C23.9959 37.0418 23.5647 37.2236 23.0659 37.3546L21.4743 37.8344C20.8858 38.0119 20.2844 38.1433 19.6756 38.2276L18.7202 38.3966L18.2256 38.4812L17.7204 38.4474C17.3822 38.422 17.0377 38.4157 16.7016 38.3713L15.7019 38.1599C15.0363 38.0229 14.3781 37.8522 13.7298 37.6484C13.0809 37.473 12.4616 37.2764 11.8487 37.0693C10.6312 36.6804 9.52364 36.264 8.55559 35.9194C6.64695 35.2029 5.38721 34.6851 5.38721 34.6851Z" fill="#001E94"/>
<path d="M30.3262 36.0124C30.3262 36.0124 30.3262 36.3632 30.3558 36.9762C30.3749 37.2827 30.4023 37.6526 30.4657 38.0732C30.4978 38.2934 30.5458 38.511 30.6095 38.7242C30.675 38.9356 30.7743 39.204 30.9582 39.2442C31.5076 39.3926 32.0642 39.5125 32.6259 39.6035C33.222 39.6923 33.8455 39.8148 34.5007 39.8909L36.5277 40.0854C37.2189 40.1742 37.9249 40.1129 38.6287 40.134H40.7424C41.4378 40.1129 42.1247 40.2439 42.7842 40.2904C44.0967 40.4807 45.3206 40.7132 46.3457 40.9435C48.415 41.4064 49.7677 41.8123 49.7677 41.8123C49.7677 41.8123 48.4107 41.4233 46.3372 40.9816C45.3015 40.7702 44.0862 40.5462 42.7736 40.3707C42.1141 40.3327 41.442 40.2101 40.7445 40.2376L38.6308 40.2566C37.9249 40.2439 37.2126 40.3137 36.5172 40.2334L34.4775 40.06C33.818 39.9903 33.1818 39.874 32.5752 39.7916C31.9686 39.7092 31.4148 39.5591 30.8969 39.4492C30.544 39.3329 30.4742 39.0053 30.3918 38.7897C30.3245 38.565 30.2715 38.3363 30.2332 38.1049C30.1635 37.6822 30.1318 37.2975 30.1085 36.9868C30.0663 36.3654 30.0684 36.0103 30.0684 36.0103L30.3262 36.0124Z" fill="#001E94"/>
<path d="M47.3371 36.8599C46.9276 36.8567 46.5208 36.7926 46.1302 36.6697C44.3523 36.1319 42.7534 35.1225 41.5034 33.7486C41.3871 33.6302 41.292 33.5372 41.2032 33.4506C41.0595 33.3301 39.7406 32.2141 39.7237 31.4595C39.7188 31.3809 39.7315 31.3023 39.7608 31.2292C39.79 31.1561 39.8351 31.0904 39.8927 31.0368C40.2182 30.7324 40.8397 30.6035 41.6281 30.4407C42.4904 30.2611 43.4691 30.0582 44.3145 29.5678C45.6609 28.7878 63.4791 22.6307 72.4262 22.6307C73.3202 22.6149 74.213 22.7014 75.0873 22.8886C75.1993 22.8886 78.2092 23.2479 79.8388 24.7127L79.8748 24.8501L79.7606 24.9346C79.731 24.9346 76.9325 25.108 75.248 25.3574C74.3222 25.4969 73.5697 25.6617 72.9546 25.7949C72.4347 25.909 72.0098 26.0063 71.6568 26.0422C71.4665 26.0604 71.2753 26.0689 71.084 26.0676C70.898 26.0676 70.1773 26.0485 70.1773 26.0485C70.0973 26.0428 70.0169 26.0485 69.9384 26.0654C69.9384 26.188 69.8454 26.2113 69.7271 26.243C69.4449 26.3035 69.189 26.4514 68.9958 26.6657C68.8034 26.8771 67.5014 27.3527 64.8065 28.3397C60.7292 29.8362 54.5616 32.0957 52.4479 33.645C51.9812 34.0042 51.5359 34.3902 51.1142 34.8012C50.0362 35.8137 48.9223 36.8599 47.3371 36.8599Z" fill="white"/>
<path d="M72.4219 22.7639C73.3058 22.7477 74.1888 22.8328 75.0534 23.0176C75.0534 23.0176 78.1288 23.36 79.7478 24.812C79.7478 24.812 76.9345 24.9833 75.2267 25.2348C73.5189 25.4863 72.4071 25.8308 71.6335 25.9175C71.4481 25.9366 71.2618 25.9457 71.0755 25.945C70.7394 25.945 70.4033 25.9238 70.1687 25.9238C69.9341 25.9238 69.8221 25.9407 69.8517 26.0042C69.9235 26.1732 69.4099 26.0295 68.8984 26.5727C68.3869 27.1159 55.6542 31.1298 52.3696 33.5478C50.7484 34.7336 49.4886 36.7373 47.339 36.7373C46.9424 36.7352 46.5483 36.6732 46.1702 36.5534C43.2639 35.6699 41.909 33.9388 41.294 33.3618C41.294 33.3618 39.3367 31.7385 39.9772 31.1404C40.6176 30.5422 42.7524 30.6288 44.3757 29.6883C45.832 28.8428 63.61 22.7703 72.4176 22.7703L72.4219 22.7639ZM72.4176 22.5124C63.4515 22.5124 45.591 28.6864 44.2446 29.4663C43.4161 29.9461 42.448 30.1469 41.5941 30.3245C40.7888 30.4915 40.1526 30.6246 39.7996 30.9586C39.7286 31.0241 39.6728 31.1045 39.6363 31.194C39.5998 31.2835 39.5834 31.3799 39.5882 31.4764C39.6115 32.2881 40.9706 33.4379 41.127 33.5668C41.1989 33.6345 41.2961 33.7338 41.4081 33.8522C42.6747 35.2421 44.2928 36.2644 46.092 36.8113C46.496 36.9311 46.9155 36.9909 47.3369 36.9889C48.9666 36.9889 50.0995 35.932 51.1965 34.8942C51.6134 34.4861 52.0545 34.1036 52.5175 33.7486C54.6185 32.2099 60.7735 29.944 64.8444 28.4645C67.8204 27.3738 68.8794 26.9722 69.0823 26.7566C69.2613 26.5649 69.4954 26.4335 69.7523 26.3804C69.8158 26.3726 69.877 26.3516 69.9319 26.3189C69.9869 26.2861 70.0344 26.2423 70.0715 26.1902H70.1645C70.2702 26.1902 70.3949 26.1902 70.5301 26.2007C70.6992 26.2007 70.8852 26.2007 71.0712 26.2007C71.2572 26.2007 71.4728 26.2007 71.6588 26.1732C72.0203 26.131 72.4409 26.0401 72.9714 25.9238C73.578 25.7928 74.3326 25.6279 75.2563 25.4884C76.9324 25.2348 79.7288 25.0657 79.7563 25.0657L79.9824 24.8945L79.9106 24.6197C78.2514 23.1275 75.2035 22.7745 75.0724 22.7597C74.202 22.5752 73.3135 22.4901 72.424 22.506L72.4176 22.5124Z" fill="#001E94"/>
<path d="M19.9337 29.4919C19.8062 29.5629 19.6733 29.6237 19.5363 29.6737C19.1775 29.8243 18.8062 29.9432 18.4266 30.0288C18.1729 30.0846 17.9147 30.1178 17.6551 30.1281C17.5094 30.1477 17.3625 30.1575 17.2155 30.1577C17.063 30.1409 16.9145 30.0987 16.7759 30.033C16.2225 29.7435 15.71 29.3817 15.2519 28.9572C14.3071 28.1371 13.4151 27.2663 12.7155 26.6575C12.3299 26.3096 11.921 25.9882 11.4917 25.6958C11.9354 25.9708 12.3591 26.2766 12.7599 26.611C13.4785 27.2092 14.4339 28.0103 15.3893 28.8092C15.8437 29.1977 16.3459 29.5266 16.8836 29.7878C17.0052 29.842 17.1355 29.8735 17.2683 29.8809C17.3677 29.8809 17.5262 29.847 17.6467 29.8343C17.8891 29.814 18.1295 29.7737 18.3653 29.7139C18.7178 29.6197 19.0615 29.4953 19.3926 29.3419C19.5224 29.2891 19.6476 29.2255 19.7667 29.1516L19.9337 29.4919Z" fill="#001E94"/>
<path d="M39.9392 31.3201L37.2443 30.5571C35.6189 30.1344 33.4672 29.5003 31.2859 28.9845L28.0879 28.1983C27.0733 27.9192 26.0968 27.8051 25.2746 27.6318L22.5269 27.1245L25.2936 27.5726C26.1201 27.729 27.105 27.822 28.1259 28.0778L31.3408 28.7964C33.5369 29.2614 35.7013 29.8532 37.3394 30.2464L40.0533 30.9502L39.9392 31.3201Z" fill="#001E94"/>
<path d="M42.8646 30.4053L40.1739 29.7057C38.5549 29.2998 36.4116 28.6974 34.2451 28.1986L25.5791 26.1589L34.2684 28.076C36.4475 28.541 38.5971 29.1138 40.2225 29.4964L42.9259 30.1559L42.8646 30.4053Z" fill="#001E94"/>
<path d="M26.2347 40.405C26.2347 40.405 25.7232 40.3543 24.9665 40.2169C24.2098 40.0795 23.1847 39.9083 22.1743 39.6737C21.6692 39.5553 21.1555 39.4729 20.6948 39.3207L19.4266 38.9445L18.1689 38.5788L18.3021 38.2195L19.5175 38.6422L20.7666 39.0649C21.2168 39.2404 21.722 39.344 22.2208 39.4877C23.2121 39.7688 24.2182 40.0119 24.9686 40.1577C25.7189 40.3036 26.2347 40.405 26.2347 40.405Z" fill="#001E94"/>
<path d="M18.4371 30.5086C17.9939 30.6138 17.5416 30.6754 17.0864 30.6924C16.9278 30.7006 16.7691 30.6776 16.6193 30.6248C16.4655 30.5103 16.318 30.3875 16.1775 30.257C14.4042 28.7014 8.19002 23.0114 2.12169 23.0029C1.5341 23.002 0.947849 23.0593 0.371582 23.1741L0.413855 23.4257C0.970592 23.3145 1.53705 23.2592 2.10478 23.2608C5.48664 23.2608 8.96151 25.0912 11.648 26.9618C12.8079 27.7704 13.9261 28.6375 14.9981 29.5595C15.4209 29.921 15.759 30.2253 16.0127 30.4494C16.1663 30.6016 16.3341 30.7389 16.5136 30.8594C16.6963 30.9287 16.8912 30.9603 17.0864 30.9524C17.5622 30.9339 18.035 30.8695 18.4983 30.7601L18.4371 30.5086Z" fill="#001E94"/>
<path d="M79.5685 24.658C77.9114 23.3369 75.0537 23.0178 75.0537 23.0178C67.8779 21.3078 46.0036 28.7458 44.3782 29.6821C42.7528 30.6185 40.618 30.5276 39.9796 31.1342C39.3413 31.7409 41.2965 33.3557 41.2965 33.3557C41.4275 33.4783 41.5924 33.6537 41.7953 33.8609C47.1788 31.5358 62.1456 25.4654 67.527 24.1084C71.8558 23.0178 76.8567 23.9605 79.5685 24.658Z" fill="#001E94"/>
<path d="M72.4899 23.1892L72.1369 23.1532H71.1371L69.5878 23.3075C68.9897 23.3582 68.3196 23.5337 67.5968 23.6436C66.8129 23.764 66.0367 23.9291 65.2717 24.1382L62.6846 24.7723C61.7905 25.0048 60.8816 25.3134 59.9495 25.5882L57.1341 26.4505L51.6597 28.3719C49.9012 28.9595 48.3096 29.6401 46.9209 30.16L42.2856 31.8953L46.8131 29.8937C48.1891 29.3357 49.7469 28.5621 51.5054 27.9534L56.9756 25.9644L59.8079 25.138C60.7464 24.8737 61.6616 24.5736 62.5557 24.3517L65.1766 23.7746C65.9561 23.588 66.7459 23.4468 67.5418 23.3519C68.2816 23.2589 68.9537 23.1279 69.5603 23.1173L71.1266 23.0581L72.1327 23.1215L72.4899 23.1892Z" fill="white"/>
<path d="M79.7482 24.8121L79.3255 24.6748C79.0465 24.605 78.628 24.5374 78.1017 24.4338C77.5754 24.3302 76.918 24.345 76.1761 24.288C75.3421 24.2317 74.5047 24.2479 73.6735 24.3366L72.2447 24.4253C71.733 24.4378 71.2236 24.4972 70.7229 24.6029L67.4636 25.1778C66.3201 25.3152 65.1914 25.7104 64.0247 26.0233L60.4991 27.0019C59.3154 27.3211 58.1867 27.8178 57.0453 28.2109L53.7142 29.4326L52.1226 30.0139C51.6069 30.2104 51.1186 30.4535 50.6431 30.6606L47.927 31.876L42.2856 34.3321L47.8065 31.6139L50.4951 30.3182C50.977 30.0963 51.4568 29.8384 51.9747 29.6271L53.5663 29.0204C54.6463 28.6125 55.7645 28.1919 56.8995 27.7522C58.0345 27.3126 59.1717 26.8349 60.3617 26.5073L63.9211 25.5519C65.0984 25.256 66.2461 24.8734 67.3938 24.7424L70.6933 24.233C71.2011 24.1417 71.7161 24.0964 72.232 24.0977L73.6778 24.047L75.0073 24.0068C75.4074 24.0184 75.8068 24.0509 76.2036 24.1041C76.9497 24.2013 77.6092 24.2055 78.1355 24.3492C78.6618 24.493 79.0739 24.5606 79.3487 24.6536L79.7482 24.8121Z" fill="#001E94"/>
<path d="M78.9979 24.9919L78.5751 24.9158C78.3025 24.8714 77.8967 24.8503 77.3851 24.8017C76.8736 24.7531 76.248 24.7869 75.5315 24.789L74.3943 24.8144C73.9948 24.8355 73.5763 24.901 73.1388 24.9454C72.2659 25.0553 71.3147 25.1378 70.3192 25.2899L67.2163 25.9536L65.5782 26.2939L63.9359 26.797L60.5858 27.8242C59.4465 28.1159 58.3685 28.5915 57.2884 29.0058L54.118 30.2444C53.0992 30.6671 52.0783 30.9842 51.18 31.4492L48.6034 32.6645L43.2495 35.1248L48.4787 32.4024L51.0151 31.1089C51.9028 30.6143 52.9174 30.2634 53.9383 29.8407L57.1088 28.5725C58.191 28.1497 59.269 27.6573 60.4146 27.3529L63.7964 26.351L65.4556 25.8628L67.1128 25.533L70.2537 24.937C71.2619 24.8144 72.2257 24.7573 73.105 24.6749C73.5489 24.6453 73.9716 24.584 74.3732 24.584L75.523 24.6199C76.2438 24.6559 76.8715 24.6199 77.3851 24.7319C77.8988 24.844 78.3004 24.8503 78.5688 24.9074L78.9979 24.9919Z" fill="#001E94"/>
<path d="M77.351 24.9963L75.8714 25.1675C74.9287 25.2838 73.5908 25.5015 71.9886 25.7573L69.41 26.2371L66.5565 26.8712C65.58 27.1396 64.5633 27.3869 63.5467 27.6934C62.549 28.0485 61.4964 28.338 60.5178 28.7502C58.5204 29.5957 56.5293 30.4411 54.6714 31.2676C52.8135 32.094 51.0782 32.8422 49.5986 33.5376C48.8588 33.8758 48.1846 34.1929 47.5927 34.4867C47.0009 34.7805 46.4704 35.0087 46.0667 35.2539L44.7773 36.0022L46.0223 35.18C46.4175 34.9094 46.9333 34.6558 47.5019 34.3239C48.0704 33.9921 48.7341 33.6328 49.4654 33.2798C50.9218 32.5442 52.6359 31.7051 54.4812 30.8617C56.3264 30.0184 58.3175 29.1391 60.3107 28.2789C61.3337 27.8561 62.3842 27.5792 63.4008 27.222C64.4323 26.924 65.4595 26.6852 66.4466 26.4252L69.3339 25.8545L71.9358 25.4592C73.5527 25.2479 74.9076 25.1401 75.8545 25.0682L77.351 24.9963Z" fill="#001E94"/>
<path d="M68.1736 26.9343L67.1844 27.2429C66.5503 27.4289 65.671 27.7629 64.6015 28.1222C64.0647 28.2913 63.5003 28.5259 62.8916 28.7563C62.2828 28.9867 61.6466 29.2086 60.9893 29.4749C59.6894 30.016 58.2753 30.5318 56.9205 31.1786L54.8702 32.079C54.1854 32.3622 53.5513 32.7236 52.9172 33.028L51.0952 33.9221C50.5055 34.1884 49.9729 34.4886 49.4825 34.7676C47.5062 35.854 46.1704 36.5557 46.1704 36.5557C46.1704 36.5557 47.4259 35.7272 49.3409 34.516C50.2878 33.8819 51.4672 33.2964 52.7228 32.6306C53.3569 32.3136 53.991 31.9395 54.6694 31.6457L56.7218 30.7093C58.0915 30.0752 59.5224 29.5827 60.8371 29.0607C61.4945 28.7943 62.156 28.6105 62.7711 28.4033C63.3862 28.1962 63.9653 28.0017 64.5149 27.8559C66.6898 27.2176 68.1736 26.9343 68.1736 26.9343Z" fill="#001E94"/>
<path d="M51.4397 34.3237L47.4153 36.9531L47.1553 36.5093L51.4397 34.3237Z" fill="#001E94"/>
<path d="M44.7819 53.9176L44.7016 53.888C42.7824 52.3281 38.7432 48.5193 37.3904 46.7755C36.2088 45.2087 35.1199 43.5742 34.1291 41.8803C34.1027 41.7974 34.0966 41.7094 34.1113 41.6237C34.1261 41.538 34.1611 41.4571 34.2136 41.3878C34.2888 41.3156 34.3788 41.2606 34.4773 41.2267C34.5759 41.1927 34.6806 41.1806 34.7843 41.1912C35.5135 41.1912 36.6401 41.6795 36.6866 41.7006C38.1049 42.6517 40.9816 44.7126 40.9816 44.7126C41.5375 47.6442 44.8559 53.666 44.8918 53.7252L44.8622 53.888L44.7819 53.9176Z" fill="white"/>
<path d="M34.7843 41.3178C35.4945 41.3178 36.638 41.8166 36.638 41.8166C38.0352 42.7572 40.9076 44.818 40.9076 44.818C41.4213 47.7222 44.782 53.7884 44.782 53.7884C42.8902 52.2497 38.8341 48.4303 37.4919 46.6971C36.3112 45.1353 35.2229 43.5057 34.2327 41.8166C34.1756 41.4425 34.4208 41.3178 34.778 41.3178H34.7843ZM34.778 41.062C34.6559 41.0514 34.5329 41.0674 34.4175 41.109C34.3022 41.1506 34.1973 41.2168 34.1101 41.303C34.0489 41.38 34.0055 41.4696 33.9829 41.5653C33.9602 41.661 33.9589 41.7605 33.979 41.8568L34.0107 41.9456C35.006 43.6431 36.0985 45.2818 37.2827 46.8535C38.646 48.6142 42.6873 52.4188 44.6192 53.9871L44.782 54.0442L44.9468 53.985L45.006 53.6637C44.9722 53.6045 41.6622 47.6017 41.1613 44.7715L41.0598 44.6088C41.0302 44.5876 38.1641 42.5353 36.7818 41.6031C36.6909 41.5609 35.5389 41.062 34.7843 41.062H34.778Z" fill="#001E94"/>
<path d="M44.7819 53.3405C44.7819 53.3405 36.936 46.2893 34.7568 41.1426L44.7819 53.3405Z" fill="white"/>
<path d="M44.8667 53.2454C44.8667 53.2454 44.3784 52.8058 43.6112 52.066C41.3073 49.8467 36.4902 44.9113 34.8754 41.094L34.6387 41.1933C36.8453 46.3866 44.6912 53.4272 44.6976 53.4357L44.8667 53.2454Z" fill="#001E94"/>
<path d="M43.943 51.7849C43.943 51.7849 37.4731 45.0783 35.5581 41.447L43.943 51.7849Z" fill="white"/>
<path d="M44.0357 51.6916C44.0357 51.6916 43.632 51.2689 42.9958 50.5883C41.0935 48.538 37.0902 44.0782 35.672 41.3833L35.4458 41.5038C37.3798 45.1668 43.8476 51.8607 43.8497 51.8607L44.0357 51.6832V51.6916Z" fill="#001E94"/>
<path d="M49.3814 46.9509C41.6686 46.9509 34.2412 41.9732 34.163 41.9225C34.0066 41.6858 33.9876 41.4998 34.0742 41.356C34.2497 41.0432 34.8542 40.8953 35.9765 40.8953C36.9932 40.8953 38.2234 41.0179 39.1238 41.1066C39.6311 41.1574 40.0305 41.1975 40.2187 41.1975H40.3539C40.6794 41.1975 41.2628 41.5442 41.88 41.914C42.4232 42.2396 42.9876 42.5756 43.2729 42.6052C43.9556 42.6813 45.6719 44.2961 45.8642 44.4779C46.9528 45.3551 52.0213 46.4859 52.0721 46.4965L52.1735 46.6254L52.0657 46.748C51.1779 46.8881 50.2802 46.956 49.3814 46.9509Z" fill="white"/>
<path d="M35.9808 41.0241C37.5702 41.0241 39.6987 41.3221 40.2229 41.3221H40.3117H40.3582C40.9267 41.3221 42.624 42.6622 43.2623 42.7319C43.9007 42.8017 45.7797 44.5687 45.7797 44.5687C46.9126 45.4818 52.0488 46.6189 52.0488 46.6189C51.1669 46.7617 50.2748 46.8324 49.3814 46.8303C41.6306 46.8218 34.2328 41.8167 34.2328 41.8167C33.8586 41.1995 34.7591 41.0241 35.9744 41.0241H35.9808ZM35.9744 40.7683C34.7865 40.7683 34.163 40.9289 33.9601 41.2925C33.9064 41.3961 33.8831 41.5128 33.8928 41.6291C33.9025 41.7454 33.9449 41.8566 34.0151 41.9498L34.089 42.0281C34.163 42.0788 41.6242 47.0797 49.375 47.0797C50.2825 47.0822 51.1887 47.0116 52.0848 46.8683C52.1439 46.8591 52.1979 46.8294 52.2374 46.7844C52.2769 46.7394 52.2994 46.682 52.3009 46.6221C52.3024 46.5623 52.2829 46.5038 52.2457 46.4568C52.2085 46.4099 52.1561 46.3775 52.0974 46.3653C52.0467 46.3547 47.0077 45.2303 45.9361 44.3658C45.6296 44.0741 43.9937 42.5501 43.2856 42.474C43.0256 42.4444 42.4401 42.0999 41.9434 41.7977C41.1783 41.3411 40.69 41.0621 40.3518 41.0621H40.263H40.2504C40.0242 41.0621 39.6163 41.0198 39.1343 40.9733C38.2487 40.8888 37.0038 40.7683 35.9808 40.7683H35.9744Z" fill="#001E94"/>
<path d="M52.0486 46.4837H52.0212C51.4378 46.4837 41.3472 46.397 34.2326 41.041L34.0762 41.2524C41.2901 46.6697 51.4082 46.7479 52.0212 46.7479H52.0486V46.4837Z" fill="#001E94"/>
<path d="M51.1739 46.099C51.1739 46.099 50.5271 46.0546 49.4661 45.9193C46.2829 45.5114 39.3564 44.2664 35.0065 40.9226L34.8501 41.134C40.7557 45.6551 51.1422 46.3505 51.1549 46.3547L51.1739 46.099Z" fill="#001E94"/>
<path d="M54.8367 41.2714L54.7627 41.2481C53.951 40.6732 50.658 39.646 46.9865 39.646C45.9742 39.6425 44.9635 39.728 43.9661 39.9017L43.1841 40.0455C41.2501 40.4006 38.8447 40.8423 37.084 40.8423C35.782 40.8423 35.038 40.5971 34.8118 40.0877C34.739 39.9514 34.702 39.7989 34.7042 39.6443C34.7064 39.4898 34.7478 39.3384 34.8245 39.2042C35.2811 38.4264 36.9382 38.2763 37.01 38.2721C37.3736 38.5659 37.6124 38.6737 37.9358 38.6737C38.2952 38.6737 38.7538 38.5448 39.4492 38.3524C40.918 37.9328 42.4127 37.6101 43.9238 37.3865C44.3436 37.3238 44.7676 37.2927 45.192 37.2935C49.952 37.2935 54.8684 41.0029 54.9149 41.041L54.9402 41.2185L54.8367 41.2714Z" fill="white"/>
<path d="M45.1876 37.4224C49.9582 37.4224 54.8365 41.1425 54.8365 41.1425C54.0291 40.5718 50.7022 39.5171 46.9864 39.5171C45.9662 39.5133 44.9477 39.5996 43.9427 39.7749C42.0171 40.1216 39.0813 40.7155 37.0838 40.7155C35.9784 40.7155 35.152 40.5359 34.9279 40.0349C34.2938 38.6293 37.0204 38.3989 37.0204 38.3989C37.1354 38.5275 37.2765 38.6298 37.4344 38.6991C37.5923 38.7684 37.7632 38.803 37.9357 38.8005C38.8318 38.8005 40.2607 38.0629 43.9427 37.5112C44.3549 37.451 44.771 37.4213 45.1876 37.4224ZM45.1876 37.1646C44.7583 37.164 44.3294 37.1951 43.9046 37.2576C42.3883 37.4822 40.8886 37.807 39.4152 38.2298C38.7304 38.4201 38.2781 38.5448 37.9357 38.5448C37.795 38.5481 37.6553 38.5203 37.5267 38.4633C37.3981 38.4063 37.2836 38.3215 37.1916 38.215L37.012 38.1411H36.9908C36.807 38.158 35.1879 38.3165 34.7039 39.1366C34.618 39.289 34.5714 39.4603 34.5681 39.6351C34.5647 39.81 34.6049 39.9829 34.6848 40.1385C34.9364 40.6965 35.7184 40.9692 37.0754 40.9692C38.8466 40.9692 41.2604 40.5253 43.205 40.1681L43.985 40.0265C44.9752 39.8527 45.9789 39.7671 46.9842 39.7707C50.5775 39.7707 53.9086 40.8001 54.6864 41.3496L54.8344 41.3982L55.0457 41.2925L54.995 40.9374C54.79 40.7937 49.992 37.1646 45.1876 37.1646Z" fill="#001E94"/>
<path d="M37.2866 38.6165C37.2866 38.6165 35.0588 38.9272 35.5577 40.5187L37.2866 38.6165Z" fill="white"/>
<path d="M37.268 38.4897C36.9441 38.5416 36.6289 38.6383 36.3317 38.7772C35.8645 38.9886 35.3594 39.4007 35.3594 40.0792C35.3613 40.2435 35.3877 40.4067 35.4376 40.5632L35.6807 40.4872C35.6383 40.3553 35.6162 40.2177 35.6151 40.0792C35.6151 39.5466 36.0083 39.2168 36.4416 39.0097C36.6327 38.9194 36.8324 38.8486 37.0376 38.7983C37.2004 38.7582 37.3061 38.7434 37.3061 38.7434L37.2701 38.4897H37.268Z" fill="#001E94"/>
<path d="M54.8368 41.1423C54.8368 41.1423 54.5726 40.9753 54.097 40.709C53.4326 40.3534 52.7488 40.0352 52.0489 39.7557C51.6114 39.5909 51.1252 39.4472 50.6201 39.2738C50.1001 39.1491 49.5463 39.0329 48.9777 38.9187C48.3944 38.8934 47.7941 38.794 47.1854 38.8236C46.5703 38.871 45.9579 38.9493 45.3507 39.0582C42.9031 39.5634 40.4407 39.9798 38.5722 40.1785C37.8171 40.2707 37.0562 40.3067 36.2958 40.2863C36.0722 40.277 35.8507 40.2401 35.6363 40.1764C35.5501 40.1373 35.468 40.0899 35.3911 40.0347L35.5813 39.8593L35.7251 39.9396C35.9165 39.9955 36.1136 40.0295 36.3127 40.0411C37.059 40.0725 37.8066 40.0464 38.5489 39.9629C40.409 39.7896 42.8777 39.4049 45.3253 38.9314C45.9341 38.7961 46.5724 38.794 47.1832 38.7201C47.7983 38.6968 48.4049 38.8046 48.9883 38.8384C49.5611 38.961 50.117 39.0836 50.637 39.2168C51.1442 39.3964 51.6283 39.5486 52.0637 39.7198C52.7612 40.0079 53.4422 40.3347 54.1034 40.6984C54.5747 40.9711 54.8368 41.1423 54.8368 41.1423Z" fill="#001E94"/>
<path d="M35.8599 39.1599C36.2217 39.2724 36.5912 39.3586 36.9654 39.4178C37.3537 39.4707 37.7446 39.5031 38.1364 39.515C38.5867 39.5379 39.0382 39.5273 39.487 39.4833C39.938 39.4598 40.3867 39.4025 40.8292 39.3121C41.2206 39.259 41.6072 39.1749 41.9853 39.0605L43.1014 38.752L41.9959 39.1028C41.6201 39.2292 41.2349 39.326 40.844 39.3924C40.4014 39.4978 39.9512 39.5685 39.4976 39.6038C39.0451 39.6646 38.5886 39.6914 38.1321 39.6841C37.7326 39.6855 37.3332 39.6658 36.9358 39.6249C36.5461 39.5779 36.1604 39.5023 35.7817 39.3987L35.8599 39.1599Z" fill="#001E94"/>
<path d="M73.5065 44.3404C73.5065 44.3404 73.479 44.2558 73.4304 44.0973C73.3818 43.9388 73.2507 43.7612 73.1155 43.5076C72.9802 43.254 72.7033 42.9855 72.4454 42.6621C72.1876 42.3387 71.786 42.0471 71.4097 41.6856L70.7968 41.1424C70.5664 40.9775 70.3148 40.8254 70.0633 40.6584L68.4738 39.6121C67.8926 39.2972 67.2691 39.0139 66.6476 38.7032C66.0262 38.3925 65.3964 38.0691 64.7453 37.7901L60.8499 36.3359C59.6113 35.8646 58.3938 35.6067 57.3792 35.2918L53.9741 34.3237L57.3961 35.2347C58.4149 35.5327 59.6387 35.7695 60.89 36.2218L64.8172 37.6232C65.4746 37.8916 66.1065 38.2192 66.7428 38.5088C67.379 38.7984 68.011 39.0858 68.5986 39.3923L70.2303 40.4153C70.4882 40.5823 70.746 40.7324 70.9828 40.8972L71.6169 41.4425C72.01 41.8061 72.4349 42.0766 72.6991 42.4339C72.9633 42.7911 73.2359 43.068 73.4219 43.3237C73.6079 43.5795 73.7031 43.8458 73.7897 44.0022L73.87 44.2453L73.5065 44.3404Z" fill="#001E94"/>
<path d="M73.65 41.5376L73.5591 41.3262L73.2336 40.857L72.5467 40.17C72.2698 39.9143 71.8957 39.686 71.5216 39.4049C71.1149 39.0977 70.6779 38.8328 70.2174 38.6144L68.704 37.8133L66.9941 37.1285C66.4086 36.9171 65.8316 36.6318 65.2207 36.4436L61.6381 35.3467C61.0695 35.1522 60.4988 35.0486 59.9662 34.9239L58.4591 34.5752L55.3457 33.8523L58.476 34.497L59.9936 34.8077C60.5305 34.9239 61.1054 35.019 61.6846 35.1924L65.3032 36.2006C65.9204 36.3739 66.5079 36.636 67.104 36.8347L68.8414 37.4878L70.4013 38.2614C70.8791 38.4748 71.3344 38.7354 71.7604 39.0392C72.1578 39.3225 72.5467 39.5486 72.8489 39.8107L73.6035 40.5336C73.7916 40.7809 73.929 40.9901 74.0262 41.1275C74.1235 41.2649 74.1256 41.3389 74.1256 41.3389L73.65 41.5376Z" fill="#001E94"/>
<path d="M77.8775 61.3447L77.774 61.296C70.6403 50.6918 61.391 43.8055 61.2874 43.7379L61.2451 43.5815L61.3635 43.5054L61.7101 43.573C63.4645 43.9112 68.8057 44.9427 72.6378 48.4619C76.7171 52.1862 77.9853 61.1079 78.0022 61.1988L77.9219 61.3362L77.8775 61.3447Z" fill="white"/>
<path d="M61.3697 43.6258C62.676 43.8921 68.478 44.801 72.5573 48.5464C76.6367 52.2918 77.8774 61.2157 77.8774 61.2157C70.6487 50.4698 61.3697 43.6258 61.3697 43.6258ZM61.3697 43.3679L61.1372 43.5222L61.2175 43.8329C61.3105 43.9006 70.543 50.7763 77.6618 61.3594L77.8732 61.4736L77.9641 61.4545C78.018 61.4343 78.0634 61.3963 78.0927 61.3466C78.1219 61.297 78.1332 61.2388 78.1247 61.1819C78.0761 60.812 76.8269 52.1227 72.7264 48.3583C68.8669 44.8158 63.5003 43.778 61.7354 43.4377L61.4141 43.3743L61.3697 43.3679Z" fill="#001E94"/>
<path d="M62.287 43.4695C62.287 43.4695 62.5893 43.6808 63.1008 44.1036C63.6123 44.5263 64.3478 45.0843 65.1954 45.8135C66.043 46.5427 67.0026 47.4241 68.0362 48.3647C68.5625 48.8234 69.0402 49.3687 69.5623 49.8844C70.0843 50.4002 70.6043 50.9307 71.1073 51.4803C71.6104 52.0298 72.0733 52.6132 72.551 53.1712C73.0287 53.7292 73.5254 54.2534 73.9079 54.841L75.0747 56.4791C75.4363 56.9536 75.7728 57.4468 76.0829 57.9565L77.8732 61.2158L76.0322 57.9882C75.7127 57.4775 75.367 56.9837 74.9965 56.5087L73.8065 54.8938C73.4176 54.3168 72.8976 53.8095 72.4284 53.2536L70.9615 51.5923C70.4521 51.0533 69.9047 50.5355 69.3953 50.0261C68.8859 49.5167 68.3828 48.9861 67.8523 48.5359C66.8103 47.6165 65.8591 46.7309 64.9841 46.0439C64.109 45.357 63.3946 44.7757 62.8704 44.3784C62.3462 43.981 62.0503 43.7717 62.0503 43.7717L62.287 43.4695Z" fill="#001E94"/>
<path d="M77.514 59.2627C77.514 59.2627 76.9771 58.2206 76.0344 56.7411C75.5715 55.9971 74.9903 55.1537 74.3668 54.2533C73.6946 53.3888 73.0521 52.4102 72.2763 51.533L71.1603 50.195C70.8031 49.7448 70.3931 49.3496 70.0211 48.9522C69.2517 48.1744 68.5965 47.386 67.9222 46.8385L65.7578 44.8897L66.0051 44.5959L68.1463 46.6039C68.8142 47.181 69.4588 47.9884 70.2155 48.7852C70.5812 49.1953 70.9849 49.5969 71.3315 50.0534C71.6782 50.51 72.0608 50.9602 72.4264 51.4167C73.1852 52.3129 73.8109 53.3085 74.4661 54.1878C75.0727 55.103 75.6371 55.959 76.0873 56.7136C76.9983 58.2101 77.514 59.2627 77.514 59.2627Z" fill="#001E94"/>
</svg>
