<svg width="97" height="80" viewBox="0 0 97 80" fill="none" xmlns="http://www.w3.org/2000/svg">
<path d="M7.08514 79.6396C5.57683 79.6396 3.87685 78.5084 2.29354 76.4521C1.19564 75.0188 0.535232 73.6209 0.381068 72.4084C0.226903 71.196 0.589398 70.2314 1.35814 69.6335C1.80597 69.2921 2.35545 69.1109 2.91853 69.1189C4.42684 69.1189 6.12473 70.2522 7.71013 72.3105C8.80803 73.7397 9.46844 75.1397 9.6226 76.3521C9.77677 77.5646 9.42677 78.5271 8.64553 79.125C8.1987 79.4683 7.64854 79.6498 7.08514 79.6396Z" fill="white"/>
<path d="M2.9185 69.4686C4.19973 69.4686 5.82054 70.427 7.42469 72.5207C9.66424 75.4373 9.76423 77.8206 8.42467 78.8497C8.03954 79.1415 7.56827 79.2969 7.08511 79.2914C5.80179 79.2914 4.18098 78.331 2.57684 76.2394C0.337287 73.3227 0.237288 70.9374 1.57685 69.9103C1.96233 69.6176 2.43455 69.4622 2.9185 69.4686ZM2.9185 68.7687C2.27953 68.7634 1.65684 68.97 1.14769 69.3561C0.266454 70.0332 -0.129373 71.1311 0.037291 72.4519C0.210205 73.7269 0.885196 75.1831 2.0206 76.6664C3.66432 78.8122 5.46221 79.9997 7.08302 79.9997C7.72175 80.0053 8.34411 79.7978 8.85175 79.4102C9.73507 78.7352 10.1288 77.6352 9.96215 76.3165C9.80173 75.0415 9.11424 73.5852 7.98093 72.104C6.3372 69.952 4.53931 68.7687 2.9185 68.7687Z" fill="#001E94"/>
<path d="M3.54372 75.4998C5.25828 77.7352 7.4895 78.9622 8.80406 78.481C9.72488 77.3143 9.42905 75.1477 7.43117 72.5206C5.43328 69.8936 3.39372 69.0603 2.02916 69.6478C1.22084 70.7894 1.82708 73.2644 3.54372 75.4998Z" fill="#001E94"/>
<path d="M7.1285 73.1355C5.75769 71.3481 4.37646 70.3897 3.20356 70.146C2.84314 71.3689 3.38689 73.2814 4.70145 74.9938C6.01602 76.7063 7.72016 77.7313 8.99514 77.7021C9.06389 76.5042 8.49723 74.923 7.1285 73.1355Z" fill="white"/>
<path d="M8.44566 76.6892C7.49359 76.6892 6.21861 75.8288 5.19779 74.4976C3.81448 72.6914 3.45407 70.806 4.36447 70.1227L15.4956 59.9978L15.7476 59.8999H15.781L16.0456 60.0457L21.9851 67.7935L22.058 68.0852L21.8767 68.3331L9.1894 76.458C8.97374 76.6149 8.71228 76.6962 8.44566 76.6892Z" fill="white"/>
<path d="M15.7415 60.2647L21.6831 68.0125L8.98747 76.1499C8.83048 76.2642 8.63988 76.3228 8.44581 76.3166C7.64166 76.3166 6.45834 75.5291 5.49377 74.2708C4.28129 72.6854 3.87296 70.9562 4.58545 70.4167L15.7395 60.271L15.7415 60.2647ZM15.7395 59.5231C15.5537 59.5225 15.3746 59.5917 15.2374 59.7168L4.10421 69.8375C2.90631 70.8 3.59172 73.0166 4.90003 74.7249C6.00835 76.1687 7.36666 77.0645 8.44165 77.0645C8.78758 77.0699 9.12624 76.9648 9.4083 76.7645L22.081 68.6396C22.1682 68.5837 22.2428 68.5103 22.3002 68.4241C22.3576 68.338 22.3965 68.2408 22.4145 68.1389C22.4325 68.0369 22.4292 67.9323 22.4048 67.8317C22.3804 67.7311 22.3354 67.6366 22.2727 67.5542L16.3353 59.8085C16.2724 59.7264 16.193 59.6584 16.1022 59.6089C16.0114 59.5593 15.9113 59.5294 15.8082 59.521L15.7395 59.5231Z" fill="#001E94"/>
<path d="M19.9043 69.7647C18.5918 69.7647 16.8168 68.5564 15.3835 66.6876C13.4898 64.2189 12.9502 61.5606 14.1544 60.6461L30.0958 46.1463L30.3458 46.0483H30.3812L30.6437 46.1921L39.1457 57.2836L39.2165 57.5732L39.0519 57.8253L20.8814 69.4709C20.5975 69.675 20.2536 69.7784 19.9043 69.7647Z" fill="white"/>
<path d="M30.3447 46.4149L38.8487 57.5002L20.6781 69.1521C20.4534 69.3151 20.1807 69.3987 19.9031 69.3896C18.7532 69.3896 17.0594 68.2604 15.6803 66.4604C13.9407 64.1917 13.3595 61.7188 14.3803 60.9355L30.3447 46.4149ZM30.3447 45.667C30.1589 45.668 29.98 45.7378 29.8426 45.8628L13.897 60.3647C12.5387 61.448 13.047 64.2542 15.0866 66.9146C16.5886 68.8729 18.4782 70.1375 19.9031 70.1375C20.3335 70.1456 20.755 70.0149 21.1052 69.7646L39.2508 58.1251C39.3379 58.0694 39.4125 57.9962 39.4699 57.9101C39.5272 57.824 39.5661 57.727 39.5841 57.6252C39.6016 57.5229 39.5978 57.4182 39.5731 57.3175C39.5484 57.2168 39.5032 57.1223 39.4404 57.0397L30.9384 45.9607C30.8763 45.8781 30.7974 45.8096 30.7069 45.7597C30.6165 45.7098 30.5164 45.6796 30.4134 45.6712L30.3447 45.667Z" fill="#001E94"/>
<path d="M30.8345 63.1377C29.5366 63.1377 27.3783 61.4585 25.4617 58.9586C23.3888 56.2503 21.9617 53.0128 23.2388 52.0316L29.4741 46.7129L29.7304 46.6191H29.77L30.0429 46.7712L38.4261 57.7086L38.5011 58.0107L38.3344 58.2731L31.5637 62.9168C31.3518 63.0691 31.0953 63.1468 30.8345 63.1377Z" fill="#001E94"/>
<path d="M29.7379 47.0127L38.1128 57.9376L31.34 62.5896C31.1959 62.6949 31.0204 62.7485 30.8421 62.7416C29.7067 62.7416 27.6275 61.1271 25.7817 58.7188C23.613 55.8897 22.5859 53.0355 23.4901 52.3439L29.74 47.0127H29.7379ZM29.74 46.2231C29.552 46.2231 29.3702 46.2904 29.2275 46.4127L22.9776 51.7439C21.4568 52.9085 23.0359 56.4292 25.1588 59.198C26.69 61.1979 29.1004 63.5312 30.8462 63.5312C31.1984 63.5376 31.5428 63.427 31.8254 63.2166L38.5649 58.5875C38.6529 58.5266 38.7277 58.4485 38.7847 58.3579C38.8417 58.2673 38.8798 58.166 38.8965 58.0603C38.9132 57.9545 38.9084 57.8465 38.8822 57.7427C38.856 57.6389 38.809 57.5414 38.744 57.4563L30.3692 46.5336C30.3041 46.4482 30.2223 46.3771 30.1288 46.3244C30.0353 46.2718 29.9321 46.2387 29.8254 46.2273L29.74 46.2231Z" fill="#001E94"/>
<path d="M23.5303 54.8607C23.9945 56.0131 24.5991 57.104 25.3302 58.1085L33.3864 51.7732L30.7177 48.292L23.5303 54.8607Z" fill="white"/>
<path d="M28.2661 61.3793C29.0411 62.0355 29.7619 62.4813 30.3494 62.6584L37.9035 57.6585L36.1389 55.3564L28.2661 61.3793Z" fill="white"/>
<path d="M37.6344 59.498C35.699 59.498 32.9657 57.6231 30.8324 54.846C27.9866 51.1315 27.1408 47.1586 28.9095 45.8045L57.9424 20.0424L58.2029 19.9424H58.2404L58.5174 20.0945L71.5756 37.1317L71.6527 37.4359L71.4798 37.7088L39.0406 59.0668C38.6324 59.362 38.1379 59.5137 37.6344 59.498Z" fill="#001E94"/>
<path d="M58.2036 20.3379L71.2639 37.3731L38.8248 58.7353C38.4803 58.9872 38.0617 59.117 37.6352 59.104C35.8665 59.104 33.2603 57.3686 31.1457 54.6041C28.4749 51.1187 27.5812 47.3125 29.1499 46.1167L58.2036 20.3379ZM58.2036 19.5483C58.009 19.5511 57.8222 19.6252 57.6786 19.7567L28.627 45.525C26.6937 47.0063 27.4895 51.1312 30.5186 55.0853C32.7603 58.002 35.5519 59.8915 37.6352 59.8915C38.2345 59.9078 38.8217 59.7213 39.3018 59.3624L71.6972 38.0314C71.7881 37.9721 71.8657 37.8946 71.9253 37.8038C71.9848 37.7131 72.0249 37.611 72.0431 37.504C72.0613 37.397 72.0572 37.2873 72.031 37.182C72.0048 37.0767 71.9571 36.9779 71.8909 36.8918L58.8307 19.8588C58.7649 19.7726 58.6821 19.7008 58.5876 19.6478C58.493 19.5948 58.3886 19.5616 58.2807 19.5504L58.2036 19.5483Z" fill="#001E94"/>
<path d="M38.8236 58.7356L71.2628 37.3734L71.1044 37.165L37.1216 59.0585C37.7966 59.1668 38.3841 59.0731 38.8236 58.7356Z" fill="white"/>
<path d="M58.7508 21.0587L58.1987 20.3379L29.1492 46.1167C28.5992 46.5333 28.3533 47.2813 28.3804 48.2187L58.7508 21.0587Z" fill="white"/>
<path d="M28.7246 50.113C29.1725 51.4731 29.8221 52.7582 30.6517 53.9254L63.8991 27.7695L59.4804 22.0029L28.7246 50.113Z" fill="white"/>
<path d="M36.1765 58.7919L70.3427 36.1589L68.2073 33.3714L66.7053 31.9131L33.6641 57.2398C34.4163 57.8839 35.2639 58.4074 36.1765 58.7919Z" fill="white"/>
<path d="M70.2782 38.7505C68.1428 38.7505 64.3929 35.8068 61.1617 31.5922C57.7326 27.1194 55.193 21.5174 57.2409 19.9487L68.1033 10.6821L68.3595 10.5884H68.4012L68.672 10.7405L83.2551 29.7548L83.3322 30.0568L83.1655 30.3193L71.3803 38.4151C71.0614 38.6482 70.6729 38.7664 70.2782 38.7505Z" fill="#001E94"/>
<path d="M68.3597 10.9816L82.9429 29.9938L71.1576 38.0916C70.9046 38.2752 70.5971 38.3684 70.2847 38.3562C68.3139 38.3562 64.6973 35.5458 61.4828 31.3521C57.7099 26.4272 55.912 21.4585 57.4807 20.2606L68.3597 10.9816ZM68.3597 10.1899C68.1718 10.1903 67.9902 10.2575 67.8473 10.3795L56.9682 19.6586C54.7266 21.3773 57.2141 27.0918 60.8473 31.8334C64.2015 36.2083 67.991 39.1437 70.2785 39.1437C70.7639 39.1611 71.241 39.0143 71.6326 38.727L83.3845 30.6542C83.4726 30.5939 83.5474 30.5162 83.6044 30.4259C83.6613 30.3357 83.6993 30.2347 83.7158 30.1292C83.7325 30.0232 83.7277 29.9148 83.7016 29.8106C83.6754 29.7064 83.6285 29.6086 83.5637 29.523L68.9806 10.5108C68.9153 10.4258 68.8334 10.3551 68.74 10.3028C68.6465 10.2505 68.5434 10.2178 68.4368 10.2066L68.3597 10.1899Z" fill="#001E94"/>
<path d="M56.9488 22.3427L68.884 11.6678L68.359 10.9824L57.48 20.2615C56.9946 20.626 56.8321 21.3635 56.9488 22.3427Z" fill="white"/>
<path d="M57.3242 23.9731C57.9055 25.7731 59.0742 28.0064 60.6929 30.2897L74.7094 19.2648L69.6699 12.6899L57.3242 23.9731Z" fill="white"/>
<path d="M68.582 37.8753L82.0193 28.8025L79.9506 26.0942L66.4966 36.5399C67.1435 37.0562 67.8424 37.5038 68.582 37.8753Z" fill="white"/>
<path d="M64.6385 34.9255L78.8903 24.7173L76.807 21.9902L63.0635 33.2776C63.5885 33.8692 64.1155 34.4213 64.6385 34.9255Z" fill="white"/>
<path d="M81.6677 31.1337C79.3656 31.1337 75.324 27.9588 71.8366 23.4109C68.1387 18.586 65.395 12.5486 67.5929 10.8632L79.3365 0.846678L79.5844 0.75293H79.626L79.8989 0.905011L95.6633 21.4589L95.7404 21.7589L95.5737 22.0235L82.8343 30.7733C82.4961 31.0194 82.0857 31.1462 81.6677 31.1337Z" fill="#001E94"/>
<path d="M79.5839 1.14699L95.3441 21.7009L82.6047 30.4507C82.331 30.6489 81.9986 30.7494 81.661 30.7361C79.5277 30.7361 75.6194 27.7008 72.1424 23.1675C68.0633 17.8447 66.1299 12.476 67.8258 11.176L79.5839 1.14699ZM79.5839 0.357422C79.3966 0.357365 79.2154 0.424647 79.0735 0.547002L67.3195 10.576C64.9258 12.4114 67.6133 18.5509 71.5236 23.6508C75.1361 28.3633 79.2131 31.5299 81.6672 31.5299C82.1786 31.544 82.6798 31.3855 83.0901 31.0799L95.7983 22.3529C95.8869 22.2925 95.9622 22.2146 96.0195 22.1239C96.0768 22.0333 96.115 21.9318 96.1316 21.8259C96.1479 21.72 96.1426 21.6119 96.1161 21.5081C96.0897 21.4042 96.0425 21.3068 95.9774 21.2217L80.2193 0.667834C80.1541 0.582698 80.0723 0.511668 79.9788 0.459032C79.8854 0.406397 79.7822 0.373248 79.6756 0.361589L79.5839 0.357422Z" fill="#001E94"/>
<path d="M95.0352 21.2943L94.854 21.2026L81.125 30.6817C81.7354 30.8025 82.2417 30.7338 82.6104 30.4525L95.3498 21.7026L95.0352 21.2943Z" fill="white"/>
<path d="M67.832 11.1776C67.4549 11.4672 67.257 11.9547 67.2236 12.5984L79.4901 1.97356L79.6026 1.15482L79.5839 1.14648L67.832 11.1776Z" fill="white"/>
<path d="M71.2702 21.9715L85.9595 10.4175L80.7075 2.60303L67.5015 14.6674C68.0598 16.682 69.3764 19.2924 71.2702 21.9715Z" fill="white"/>
<path d="M79.8814 30.2464L94.3874 20.4549L91.7166 16.9653L77.0439 28.3547C77.9105 29.0968 78.8631 29.7319 79.8814 30.2464Z" fill="white"/>
<path d="M75.6089 27.0693L91.0087 16.0424L88.3171 12.5278L73.436 24.7547C74.1673 25.6006 74.8902 26.3776 75.6089 27.0693Z" fill="white"/>
<path d="M94.3464 22.4276C91.8881 22.4276 87.5778 19.0402 83.8612 14.1902C81.732 11.4111 80.0737 8.52991 79.1883 6.07578C78.2383 3.43415 78.2883 1.61543 79.3362 0.813359C79.6975 0.546918 80.1375 0.409043 80.5862 0.421698C83.0424 0.421698 87.3528 3.80915 91.0715 8.65699C93.2006 11.4361 94.861 14.3173 95.7464 16.7819C96.6943 19.4214 96.6443 21.2422 95.5964 22.0443C95.2341 22.3078 94.7942 22.4427 94.3464 22.4276Z" fill="white"/>
<path d="M80.5967 0.83432C82.8696 0.83432 87.0404 4.07386 90.7445 8.90712C95.0965 14.58 97.1569 20.307 95.3507 21.6924C95.0599 21.9045 94.7061 22.0124 94.3465 21.9986C92.0715 21.9986 87.9008 18.7611 84.1966 13.9258C79.8446 8.25921 77.7842 2.53221 79.5842 1.14682C79.8774 0.932594 80.2338 0.822593 80.5967 0.83432ZM80.5967 0.000998929C80.0516 -0.0146604 79.5172 0.154177 79.08 0.480159C78.2467 1.1239 77.5051 2.64263 78.7926 6.21758C79.6905 8.71754 81.3717 11.6342 83.5279 14.4466C87.3799 19.4715 91.7257 22.8486 94.3465 22.8486C94.8915 22.8636 95.4257 22.6948 95.8631 22.3694C96.6965 21.7257 97.436 20.2049 96.1486 16.6299C95.2527 14.13 93.5694 11.2133 91.4132 8.40088C87.5612 3.37595 83.2154 0.000998929 80.5967 0.000998929Z" fill="#001E94"/>
<path d="M80.7071 2.60337C79.3259 3.66169 81.2321 8.47203 84.9675 13.3449C88.7028 18.2177 92.8528 21.3073 94.234 20.2469C95.6152 19.1865 93.709 14.3761 89.9737 9.50535C86.2383 4.63459 82.0842 1.54297 80.7071 2.60337Z" fill="white"/>
<path d="M80.7072 2.60321L80.4989 2.33238C80.0822 2.66155 79.9135 3.2032 79.9155 3.81361C79.9155 4.9011 80.3905 6.35941 81.2155 8.04689C82.1948 9.98744 83.3607 11.828 84.6967 13.5426C86.1288 15.4537 87.7679 17.2004 89.5842 18.7509C91.1341 20.0155 92.4779 20.7842 93.5425 20.8009C93.8637 20.809 94.1786 20.7109 94.4383 20.5217C94.8674 20.1905 95.0237 19.6488 95.0216 19.0384C95.0216 17.9509 94.5487 16.4947 93.7237 14.8051C92.7441 12.8621 91.5782 11.0188 90.2425 9.30103C88.8087 7.39589 87.1705 5.65357 85.3571 4.10528C83.8072 2.84071 82.4634 2.07197 81.3989 2.05739C81.0767 2.04699 80.7604 2.14532 80.501 2.33655L80.7093 2.60738L80.9176 2.87821C81.0573 2.77816 81.2274 2.72957 81.3989 2.74071C82.1176 2.72405 83.4447 3.39904 84.9259 4.63235C86.701 6.14585 88.3038 7.85058 89.705 9.71561C91.0129 11.3979 92.1551 13.2028 93.1154 15.1051C93.9195 16.7384 94.3487 18.1488 94.3466 19.0384C94.3466 19.5488 94.2133 19.8426 94.0279 19.98C93.888 20.0798 93.7181 20.1283 93.5466 20.1175C92.8279 20.1321 91.5029 19.4592 90.0196 18.2238C88.2445 16.7103 86.6417 15.0056 85.2405 13.1406C83.9315 11.4586 82.7886 9.65363 81.828 7.75106C81.0259 6.11775 80.5947 4.70735 80.601 3.81778C80.601 3.30945 80.7301 3.01571 80.9176 2.87821L80.7072 2.60321Z" fill="#001E94"/>
<path d="M89.0433 10.2092C85.7391 5.89681 82.1079 2.98435 80.3601 3.10519C79.7892 4.77183 81.66 9.02177 84.9662 13.3363C88.2724 17.6508 91.8995 20.5612 93.6494 20.4383C94.2224 18.7904 92.3495 14.53 89.0433 10.2092Z" fill="#001E94"/>
<path d="M93.0964 20.4006C93.0964 20.4006 93.513 16.0402 85.9944 7.74657C85.9944 7.74657 84.0403 6.357 83.6611 7.41741C83.2819 8.47781 85.9965 12.2694 88.6819 14.6402C91.3672 17.011 92.4568 18.911 92.3756 20.161L93.0964 20.4006Z" fill="white"/>
<path d="M84.2924 5.77758C84.2924 5.77758 82.1821 4.69427 82.0675 6.71299C81.9529 8.73171 87.1528 14.792 87.1528 14.792C87.1528 14.792 83.4174 11.2983 81.6675 7.74422C80.3737 5.12343 80.6925 3.12554 84.2924 5.77758Z" fill="white"/>
<path d="M32.0112 55.6485L53.3901 37.5508L30.855 54.2172C30.9904 54.4151 30.9946 54.4151 31.1446 54.6089C31.4258 54.9714 31.7175 55.3193 32.0112 55.6485Z" fill="white"/>
<path d="M82.3299 12.3837L70.4321 20.9274L81.3549 11.1108L82.3299 12.3837Z" fill="#001E94"/>
<path d="M33.8779 57.5208L61.5129 37.4731L35.2112 58.6103L33.8779 57.5208Z" fill="#001E94"/>
<path d="M28.4651 51.1104L23.4839 55.6999L23.9464 56.3269L28.9984 52.452L28.4651 51.1104Z" fill="#001E94"/>
<path d="M33.4142 57.877L28.481 61.6581L28.8372 62.1227L34.0913 58.4124L33.4142 57.877Z" fill="#001E94"/>
<path d="M26.0746 61.1938L17.3247 67.6125C18.1573 68.3778 19.129 68.9761 20.1872 69.375C20.3651 69.3451 20.5336 69.2737 20.6788 69.1666L29.1891 63.7105C28.2412 63.0563 26.7517 61.9938 26.0746 61.1938Z" fill="#001E94"/>
<path d="M14.3769 60.9356L14.1353 61.1939C14.1873 63.3752 15.0436 64.6397 15.0436 64.6397L23.5851 58.0877C22.8251 56.8308 22.2808 55.4556 21.9747 54.019L14.3769 60.9356Z" fill="#001E94"/>
<path d="M23.5957 58.0879L15.6333 65.4024L24.4123 59.1525L23.5957 58.0879Z" fill="#001E94"/>
<path d="M18.0999 69.6167L7.85834 76.202C7.85834 76.202 6.96877 76.5374 6.0542 74.9999L15.8353 67.5229L18.0999 69.6167Z" fill="#001E94"/>
<path d="M13.4829 62.5962L4.23926 71.4357C4.23926 71.4357 4.38509 72.8523 4.78925 73.3502L14.5454 65.8691L13.4829 62.5962Z" fill="#001E94"/>
<path d="M14.8516 66.144L4.83301 74.1606L15.312 66.744L14.8516 66.144Z" fill="#001E94"/>
</svg>
