<svg width="80" height="80" viewBox="0 0 80 80" fill="none" xmlns="http://www.w3.org/2000/svg">
<path d="M40.4757 74.3491C21.9065 74.3491 6.60017 59.175 6.36971 40.5206C6.14257 21.6366 21.2615 6.08466 40.0695 5.85498H40.4989C59.0681 5.85498 74.3727 21.0308 74.6032 39.6835C74.832 58.5692 59.713 74.1211 40.9034 74.3508L40.4757 74.3491Z" fill="white"/>
<path d="M40.4992 6.06455C59.0302 6.06455 74.1558 21.0306 74.3929 39.685C74.6184 58.4808 59.6271 73.9079 40.902 74.1376H40.476C21.9482 74.1376 6.81931 59.1732 6.58222 40.5172C6.35674 21.7214 21.3464 6.29424 40.0731 6.06455H40.5008H40.4992ZM40.5008 5.64014H40.0681C21.1425 5.87315 5.93064 21.52 6.15778 40.5238C6.26899 49.5883 9.93325 58.2437 16.3568 64.6152C22.7803 70.9866 31.4458 74.5609 40.476 74.5637H40.907C59.8327 74.3323 75.0445 58.6839 74.8157 39.6817C74.5836 20.9091 59.1894 5.64014 40.4992 5.64014H40.5008Z" fill="#001E94"/>
<path d="M72.8107 39.7033C73.0262 57.622 58.7329 72.3251 40.8816 72.5482C23.0303 72.7712 8.3839 58.4193 8.16173 40.4972C7.93957 22.5752 22.2395 7.87211 40.0891 7.65574C57.9387 7.43937 72.5885 21.783 72.8107 39.7033Z" fill="#001E94"/>
<path d="M70.7155 39.728C70.9228 56.4866 57.553 70.2361 40.8573 70.4491C24.1616 70.6621 10.4635 57.2339 10.2563 40.472C10.049 23.71 23.4238 9.95728 40.1228 9.75423C56.8218 9.55117 70.5149 22.9677 70.7155 39.728Z" fill="white"/>
<path d="M70.7159 39.7284H70.6728C70.6728 39.8566 70.6728 39.9847 70.6728 40.1129C70.6728 56.6718 57.3992 70.1998 40.856 70.4045H40.4797C23.9796 70.4045 10.5037 57.0795 10.3048 40.469C10.3048 40.3442 10.3048 40.2177 10.3048 40.0929C10.3048 23.529 23.5801 9.99761 40.1265 9.80121C40.2525 9.80121 40.3785 9.80121 40.5062 9.80121C57.0029 9.80121 70.4788 23.1262 70.6811 39.7351H70.769C70.5601 23.0713 57.0444 9.70801 40.4996 9.70801H40.1182C23.5254 9.91273 10.2119 23.4841 10.2119 40.0962C10.2119 40.2227 10.2119 40.3475 10.2119 40.474C10.4175 57.1328 23.9332 70.4944 40.4797 70.4944H40.856C57.4489 70.288 70.7624 56.7217 70.7624 40.1112C70.7624 39.983 70.7624 39.8549 70.7624 39.7251L70.7159 39.7284Z" fill="#001E94"/>
<path d="M40.6874 56.422C37.4709 56.4622 34.3148 55.544 31.6182 53.7836C28.9217 52.0231 26.8057 49.4994 25.538 46.5316C24.2702 43.5638 23.9077 40.2853 24.4962 37.1107C25.0846 33.936 26.5977 31.0079 28.844 28.6965C31.0903 26.3852 33.9689 24.7945 37.1159 24.1256C40.2628 23.4567 43.5366 23.7397 46.5233 24.9387C49.51 26.1377 52.0755 28.1989 53.8952 30.8617C55.7149 33.5245 56.7071 36.6691 56.7464 39.898C56.7933 44.2252 55.1292 48.3945 52.1189 51.492C49.1086 54.5894 44.9977 56.3623 40.6874 56.422ZM40.2894 23.9433C37.1059 23.9824 34.0055 24.9683 31.3801 26.7763C28.7547 28.5844 26.7224 31.1333 25.5402 34.1008C24.3579 37.0684 24.0788 40.3212 24.7381 43.448C25.3974 46.5748 26.9656 49.4351 29.2443 51.6672C31.5229 53.8993 34.4098 55.4029 37.5398 55.988C40.6697 56.573 43.9022 56.2131 46.8284 54.9539C49.7547 53.6947 52.2432 51.5926 53.9794 48.9136C55.7156 46.2346 56.6214 43.0989 56.5822 39.903C56.5237 35.6197 54.7758 31.5345 51.7216 28.5428C48.6675 25.5511 44.5564 23.8971 40.2894 23.9433Z" fill="#001E94"/>
<path d="M40.8413 67.2225L40.5859 46.1182L43.489 46.0815L40.8413 67.2225Z" fill="#001E94"/>
<path d="M40.8414 67.222L40.5861 46.1177L37.6797 46.151L40.8414 67.222Z" fill="white"/>
<path d="M40.8411 67.2221H40.919L40.662 46.0396L37.5898 46.0762L40.7665 67.2337L40.919 67.2221H40.8411L40.9174 67.2104L37.7689 46.2276L40.5095 46.196L40.7648 67.2238L40.8411 67.2221L40.9174 67.2104L40.8411 67.2221Z" fill="#001E94"/>
<path d="M40.6357 67.2554L37.4375 45.9363L40.7982 45.8931L41.0568 67.2187L40.6357 67.2554ZM37.9349 46.3657L40.5876 64.1147L40.3738 46.3325L37.9349 46.3657Z" fill="#001E94"/>
<path d="M40.7859 62.8184L40.2686 63.3826L40.3548 63.9684L40.7975 63.4891L40.7859 62.8184Z" fill="#001E94"/>
<path d="M40.7578 60.3252L39.9404 61.2073L40.03 61.7898L40.7645 60.9959L40.7578 60.3252Z" fill="#001E94"/>
<path d="M40.7264 57.8315L39.6172 59.0365L39.7034 59.6191L40.738 58.4973L40.7264 57.8315Z" fill="#001E94"/>
<path d="M40.7 55.3364L39.2891 56.856L39.3803 57.4435L40.705 56.0055L40.7 55.3364Z" fill="#001E94"/>
<path d="M40.6616 52.8452L38.9639 54.6843L39.0484 55.2685L40.6782 53.5143L40.6616 52.8452Z" fill="#001E94"/>
<path d="M40.6358 50.3521L38.6396 52.5091L38.7259 53.0949L40.6441 51.0245L40.6358 50.3521Z" fill="#001E94"/>
<path d="M40.6055 47.8574L38.3125 50.3323L38.402 50.9199L40.6104 48.5282L40.6055 47.8574Z" fill="#001E94"/>
<path d="M39.871 46.1227L37.9893 48.1599L38.0705 48.7457L40.5044 46.1177L39.871 46.1227Z" fill="#001E94"/>
<path d="M37.6797 46.1513L37.751 46.569L38.1439 46.1479L37.6797 46.1513Z" fill="#001E94"/>
<path d="M40.1167 12.5938L40.387 34.4337L37.3877 34.4637L40.1167 12.5938Z" fill="#001E94"/>
<path d="M40.1162 12.5938L40.3865 34.4337L43.3824 34.3938L40.1162 12.5938Z" fill="white"/>
<path d="M40.1157 12.5939H40.0361L40.3064 34.5154L43.4747 34.4721L40.1953 12.5806L40.0361 12.5939H40.1157L40.0378 12.6055L43.2907 34.314L40.4639 34.3523L40.1953 12.5922L40.1157 12.5939L40.0378 12.6055L40.1157 12.5939Z" fill="#001E94"/>
<path d="M43.643 34.6183L40.1613 34.6615L39.9043 12.5919L40.337 12.5586L43.643 34.6183ZM40.6023 34.2171L43.129 34.1822L40.3801 15.8108L40.6023 34.2171Z" fill="#001E94"/>
<path d="M40.1754 17.1511L40.7192 16.5669L40.623 15.9644L40.1621 16.4587L40.1754 17.1511Z" fill="#001E94"/>
<path d="M40.2069 19.7274L41.0492 18.817L40.9563 18.2095L40.1953 19.035L40.2069 19.7274Z" fill="#001E94"/>
<path d="M40.2374 22.3072L41.3881 21.0673L41.2952 20.4614L40.2324 21.6165L40.2374 22.3072Z" fill="#001E94"/>
<path d="M40.2693 24.8917L41.725 23.3155L41.6355 22.708L40.2627 24.1943L40.2693 24.8917Z" fill="#001E94"/>
<path d="M40.301 27.4703L42.0651 25.5646L41.9755 24.9604L40.291 26.7763L40.301 27.4703Z" fill="#001E94"/>
<path d="M40.3318 30.0517L42.3976 27.8165L42.3048 27.209L40.3252 29.3527L40.3318 30.0517Z" fill="#001E94"/>
<path d="M40.3578 32.6284L42.7337 30.067L42.6458 29.4595L40.3545 31.9327L40.3578 32.6284Z" fill="#001E94"/>
<path d="M41.1246 34.4207L43.0777 32.3153L42.9799 31.7095L40.4697 34.4274L41.1246 34.4207Z" fill="#001E94"/>
<path d="M43.382 34.3943L43.3207 33.9565L42.9111 34.3993L43.382 34.3943Z" fill="#001E94"/>
<path d="M34.0628 25.1961L33.8398 25.2949L46.9128 55.0078L47.1357 54.9089L34.0628 25.1961Z" fill="#001E94"/>
<path d="M25.7401 46.7751L25.6406 46.5537L55.2369 33.4268L55.3331 33.6498L25.7401 46.7751Z" fill="#001E94"/>
<path d="M55.5314 46.0781L25.3564 34.3492L25.4427 34.1245L55.6192 45.8517L55.5314 46.0781Z" fill="#001E94"/>
<path d="M34.7603 55.2903L34.5381 55.2021L46.2168 24.9121L46.4456 24.997L34.7603 55.2903Z" fill="#001E94"/>
<path d="M40.8247 67.6596C25.6842 67.8477 13.2229 55.6328 13.0373 40.4437C12.8516 25.2546 25.016 12.7252 40.1516 12.5421C55.2871 12.359 67.755 24.5672 67.9407 39.7646C68.1264 54.9621 55.9636 67.4749 40.8247 67.6596ZM40.1549 12.815C25.1702 13.0048 13.1334 25.3927 13.3141 40.4437C13.4949 55.4947 25.8384 67.5731 40.8214 67.39C55.8044 67.2069 67.8462 54.8156 67.6621 39.7746C67.4781 24.7336 55.1395 12.6369 40.1549 12.815Z" fill="#001E94"/>
<path d="M40.8971 69.9185H40.597L40.587 67.6083H40.8009H40.8341L40.8473 68.7734L40.9385 69.9135L40.8971 69.9185ZM41.6581 69.8985L41.5685 67.5917L41.8123 67.5817L41.9217 69.8885L41.6581 69.8985ZM39.8045 69.9151L39.5409 69.9068L39.6072 67.6017H39.8542L39.8045 69.9151ZM42.7125 69.8386L42.5467 67.5367L42.7888 67.5151L42.9795 69.8169L42.7125 69.8386ZM38.7334 69.8719L38.4698 69.8569L38.6257 67.5534L38.871 67.565L38.7334 69.8719ZM43.7703 69.737L43.52 67.4419L43.7653 67.4152L44.0356 69.7071L43.7703 69.737ZM37.6889 69.787L37.4236 69.7637L37.6591 67.4668L37.9028 67.4901L37.6889 69.787ZM44.8182 69.6022L44.4866 67.317L44.7286 67.2821L45.0834 69.5706L44.8182 69.6022ZM36.6311 69.6705L36.3692 69.6355L36.6858 67.347L36.9263 67.382L36.6311 69.6705ZM45.8676 69.4291L45.4548 67.1589L45.6936 67.1123L46.1263 69.3809L45.8676 69.4291ZM35.5883 69.514L35.3247 69.4691L35.7259 67.1955L35.9663 67.2371L35.5883 69.514ZM46.9105 69.2194L46.4131 66.9625L46.6485 66.9109L47.1642 69.1595L46.9105 69.2194ZM34.5454 69.3176L34.2851 69.2677L34.7659 67.0091L35.003 67.0591L34.5454 69.3176ZM47.9401 68.9698L47.3648 66.7412L47.6019 66.6763L48.1938 68.9049L47.9401 68.9698ZM33.5158 69.0896L33.2605 69.0264L33.8192 66.7878L34.0596 66.846L33.5158 69.0896ZM48.973 68.6868L48.3098 66.4749L48.5436 66.405L49.22 68.6103L48.973 68.6868ZM32.4912 68.8216L32.2359 68.7501L32.8709 66.5348L33.1113 66.5997L32.4912 68.8216ZM49.9827 68.3656L49.2416 66.1803L49.4721 66.102L50.2297 68.2824L49.9827 68.3656ZM31.4716 68.5171L31.2162 68.4322L31.9275 66.2418L32.158 66.3167L31.4716 68.5171ZM50.9825 68.0094L50.1717 65.8457L50.3989 65.7575L51.2278 67.9096L50.9825 68.0094ZM30.4652 68.1759L30.2165 68.0843L31.009 65.9206L31.2411 66.0038L30.4652 68.1759ZM51.9723 67.615L51.0654 65.4879L51.2908 65.393L52.1994 67.5134L51.9723 67.615ZM29.4704 67.7947L29.2217 67.6949L30.0971 65.5628L30.3226 65.6543L29.4704 67.7947ZM52.9223 67.1905L51.959 65.0951L52.1778 64.9936L53.1726 67.0774L52.9223 67.1905ZM28.4789 67.3836L28.2352 67.2738L29.1885 65.1733L29.4107 65.2732L28.4789 67.3836ZM53.8723 66.7295L52.8377 64.669L53.0549 64.5575L54.111 66.6097L53.8723 66.7295ZM27.5107 66.9342L27.2686 66.8161L28.2982 64.7439L28.5204 64.8521L27.5107 66.9342ZM54.809 66.2418L53.7032 64.218L53.9104 64.1015L55.0445 66.1054L54.809 66.2418ZM26.564 66.4599L26.3319 66.3301L27.4311 64.3045L27.6466 64.4194L26.564 66.4599ZM55.7275 65.7109L54.5471 63.722L54.756 63.5971L55.9514 65.5761L55.7275 65.7109ZM25.6388 65.9406L25.4117 65.8074L26.5723 63.8185L26.7862 63.9417L25.6388 65.9406ZM56.6228 65.15L55.3761 63.201L55.58 63.0712L56.8467 64.9969L56.6228 65.15ZM24.7303 65.3914L24.5031 65.2482L25.7433 63.3042L25.9505 63.4357L24.7303 65.3914ZM57.5032 64.5592L56.1868 62.6684L56.3824 62.527L57.7088 64.4044L57.5032 64.5592ZM23.8466 64.8121L23.631 64.6624L24.9276 62.7467L25.1298 62.8881L23.8466 64.8121ZM58.3604 63.9267L56.9776 62.0809L57.17 61.9328L58.5709 63.7636L58.3604 63.9267ZM22.9762 64.1863L22.7639 64.0282L24.1351 62.1774L24.334 62.3239L22.9762 64.1863ZM59.1894 63.2676L57.737 61.4767L57.9326 61.3203L59.3933 63.0995L59.1894 63.2676ZM22.1289 63.5456L21.92 63.3791L23.3575 61.5816L23.5498 61.738L22.1289 63.5456ZM60.0001 62.5802L58.493 60.8393L58.6754 60.6728L60.204 62.4138L60.0001 62.5802ZM21.3049 62.8698L21.1027 62.7034L22.6048 60.9558L22.7905 61.1139L21.3049 62.8698ZM60.7893 61.8712L59.2192 60.1868L59.395 60.0204L60.9816 61.6848L60.7893 61.8712ZM20.5091 62.1708L20.3118 61.991L21.8736 60.2967L22.056 60.4631L20.5091 62.1708ZM61.5503 61.1305L59.9189 59.5028L60.0847 59.3363L61.7294 60.9475L61.5503 61.1305ZM19.7382 61.4401L19.5525 61.2487L21.1657 59.6076L21.3447 59.7741L19.7382 61.4401ZM62.2831 60.3633L60.597 58.7938L60.7628 58.6123L62.4622 60.1669L62.2831 60.3633ZM18.9904 60.6862L18.8097 60.4914L20.4909 58.9186L20.6567 59.0967L18.9904 60.6862ZM62.9878 59.5694L61.2502 58.0614L61.4077 57.8734L63.1635 59.3713L62.9878 59.5694ZM18.2725 59.9022L18.1067 59.7025L19.8376 58.1829L20.0034 58.3677L18.2725 59.9022ZM63.6659 58.7521L61.8736 57.3091L62.0261 57.1177L63.8333 58.5441L63.6659 58.7521ZM17.5845 59.085L17.4187 58.882L19.1993 57.4223L19.3552 57.6154L17.5845 59.085ZM64.3158 57.9017L62.4738 56.5186L62.618 56.3238L64.4766 57.6853L64.3158 57.9017ZM16.9229 58.2528L16.7571 58.0415L18.5942 56.6534L18.7417 56.8481L16.9229 58.2528ZM64.9359 57.0378L63.0458 55.7197L63.1851 55.5216L65.0867 56.8148L64.9359 57.0378ZM16.2946 57.409L16.1404 57.1876L18.0238 55.8678L18.1697 56.0675L16.2946 57.409ZM65.5211 56.1574L63.5896 54.9108L63.7189 54.7044L65.6637 55.9227L65.5211 56.1574ZM15.6944 56.5319L15.5485 56.3072L17.4784 55.0556L17.6143 55.2586L15.6944 56.5319ZM66.0799 55.257L64.1003 54.0802L64.2229 53.8689L66.2125 55.0339L66.0799 55.257ZM15.1274 55.6364L14.9881 55.4101L16.9627 54.22L17.0904 54.4314L15.1274 55.6364ZM66.6038 54.3199L64.5844 53.2164L64.6988 53.0017L66.7298 54.0919L66.6038 54.3199ZM14.5902 54.7194L14.4609 54.488L16.4753 53.3729L16.598 53.5859L14.5902 54.7194ZM67.0962 53.3745L65.037 52.346L65.1431 52.1229L67.2106 53.1349L67.0962 53.3745ZM14.0928 53.7856L13.9734 53.5493L16.0276 52.5057L16.1371 52.7254L14.0928 53.7856ZM67.5588 52.4092L65.4648 51.4572L65.5642 51.2325L67.6698 52.1662L67.5588 52.4092ZM13.6252 52.8353L13.5092 52.594L15.5949 51.6236L15.701 51.8466L13.6252 52.8353ZM67.9766 51.4289L65.8511 50.5501L65.9456 50.3221L68.0744 51.1776L67.9766 51.4289ZM13.1859 51.8683L13.0831 51.6253L15.202 50.7298L15.2981 50.9562L13.1859 51.8683ZM68.3596 50.4303L66.2042 49.6297L66.2871 49.3967L68.4524 50.1789L68.3596 50.4303ZM12.783 50.883L12.6902 50.635L14.8455 49.8211L14.9334 50.0491L12.783 50.883ZM68.7111 49.4316L66.5259 48.7126L66.6038 48.4779L68.7939 49.1786L68.7111 49.4316ZM12.4199 49.8843L12.332 49.6297L14.5106 48.894L14.5935 49.1254L12.4199 49.8843ZM69.0261 48.4064L66.816 47.7673L66.8873 47.5276L69.0974 48.1501L69.0261 48.4064ZM12.0883 48.8724L12.012 48.6161L14.2138 47.9603L14.2868 48.1917L12.0883 48.8724ZM69.3013 47.3745L67.073 46.8136L67.1277 46.5772L69.3626 47.1198L69.3013 47.3745ZM11.7965 47.8471L11.7285 47.5892L13.9552 47.015L14.0149 47.2496L11.7965 47.8471ZM69.54 46.3409L67.2935 45.8599L67.3432 45.6202L69.5964 46.0796L69.54 46.3409ZM11.5395 46.8136L11.4815 46.5573L13.7264 46.0579L13.7828 46.2959L11.5395 46.8136ZM69.734 45.2957L67.4792 44.8945L67.5206 44.6549L69.7887 45.0343L69.734 45.2957ZM11.3223 45.77L11.2743 45.512L13.5341 45.1043L13.5772 45.3439L11.3223 45.77ZM69.9114 44.2388L67.6334 43.9225L67.6616 43.6779L69.9446 43.9758L69.9114 44.2388ZM11.14 44.7248L11.1085 44.4635L13.3815 44.1306L13.4197 44.3753L11.14 44.7248ZM70.0358 43.1886L67.7478 42.9539L67.771 42.7076L70.0639 42.9239L70.0358 43.1886ZM10.9924 43.6696C10.9924 43.5813 10.9692 43.4948 10.9626 43.4049L13.2489 43.1553L13.2754 43.3949L10.9924 43.6696ZM70.1319 42.1267L67.8406 41.9752L67.8539 41.7272L70.1468 41.862L70.1319 42.1267ZM10.883 42.6077C10.883 42.5178 10.8714 42.4279 10.8664 42.3397L13.161 42.1733L13.1793 42.413L10.883 42.6077ZM70.1783 41.0582L67.8787 40.9866V40.7403L70.1767 40.7935L70.1783 41.0582ZM10.8233 41.5441L10.8117 41.2778L13.098 41.1963L13.108 41.4393L10.8233 41.5441ZM70.1999 39.9946H67.9003V39.7083L70.1982 39.68L70.1999 39.9946ZM10.7852 40.4856V40.221H13.0881V40.444L10.7852 40.4856ZM67.8705 38.9877L67.8605 38.7447L70.1568 38.6348L70.1684 38.8995L67.8705 38.9877ZM13.098 39.4753L10.8001 39.4237V39.1574L13.0947 39.2273L13.098 39.4753ZM67.8108 38.0073L67.7925 37.7627L70.0789 37.5696L70.1037 37.8343L67.8108 38.0073ZM13.1279 38.4917L10.8332 38.3635L10.8515 38.0939L13.1428 38.2503L13.1279 38.4917ZM67.7229 37.0304L67.6947 36.7824L69.9777 36.5044L70.0092 36.7707L67.7229 37.0304ZM13.2041 37.5147L10.9128 37.3L10.9377 37.0353L13.2273 37.27L13.2041 37.5147ZM67.6002 36.055L67.5604 35.8154L69.8335 35.4509L69.8749 35.7172L67.6002 36.055ZM13.3102 36.5394L11.0289 36.2414L11.0654 35.9785L13.3417 36.2964L13.3102 36.5394ZM67.441 35.088L67.3946 34.8467L69.6511 34.4073L69.6992 34.6669L67.441 35.088ZM13.4528 35.5674L11.1831 35.1912L11.2295 34.9249L13.4926 35.326L13.4528 35.5674ZM67.2454 34.1194L67.1924 33.8797L69.4323 33.3604L69.4903 33.6217L67.2454 34.1194ZM13.6269 34.5954L11.3721 34.1377L11.4301 33.8764L13.68 34.3574L13.6269 34.5954ZM67.0133 33.164L66.947 32.9277L69.1653 32.3285L69.235 32.5865L67.0133 33.164ZM13.8408 33.6433L11.6058 33.1024L11.6672 32.8444L13.9005 33.4037L13.8408 33.6433ZM66.7547 32.2236L66.685 31.9906L68.8802 31.3099L68.9597 31.5679L66.7547 32.2236ZM14.0928 32.6913L11.8744 32.0738L11.949 31.8159L14.1541 32.455L14.0928 32.6913ZM66.4579 31.2899L66.38 31.0602L68.5519 30.3029L68.6348 30.5559L66.4579 31.2899ZM14.368 31.7493L12.1745 31.0486L12.2591 30.7939L14.4443 31.5146L14.368 31.7493ZM66.1279 30.3645L66.0417 30.1365L68.1822 29.3043L68.2783 29.554L66.1279 30.3645ZM14.6814 30.8172L12.526 30.0383L12.6172 29.7853L14.7726 30.5875L14.6814 30.8172ZM65.7665 29.4591L65.672 29.2311L67.7809 28.3207L67.8854 28.562L65.7665 29.4591ZM15.0329 29.9002L12.8957 29.043L12.9985 28.795L15.1207 29.6738L15.0329 29.9002ZM65.3736 28.5687L65.2691 28.3456L67.3499 27.3603L67.4576 27.5967L65.3736 28.5687ZM15.4192 28.9881L13.3135 28.0544L13.4246 27.8114L15.517 28.7634L15.4192 28.9881ZM64.9574 27.6782L64.8447 27.4618L66.884 26.3983L67.0067 26.633L64.9574 27.6782ZM15.822 28.0976L13.7612 27.0857L13.8789 26.8494L15.9364 27.8729L15.822 28.0976ZM64.4949 26.8127L64.3755 26.5964L66.3783 25.4646L66.5043 25.6943L64.4949 26.8127ZM16.2664 27.2188L14.2354 26.1303L14.363 25.8957L16.3808 26.9991L16.2664 27.2188ZM63.9975 25.9639L63.8715 25.7542L65.8312 24.5475L65.9655 24.7755L63.9975 25.9639ZM16.7455 26.3567L14.756 25.2033L14.887 24.9736L16.8682 26.1387L16.7455 26.3567ZM63.5001 25.1317L63.3641 24.9287L65.2791 23.6521L65.4266 23.8751L63.5001 25.1317ZM17.2429 25.5129L15.2981 24.2995L15.4391 24.0715L17.3756 25.3165L17.2429 25.5129ZM62.9364 24.3178L62.7971 24.1198L64.6689 22.7783L64.8165 22.9947L62.9364 24.3178ZM17.7801 24.6923L15.8751 23.3974L16.0243 23.1761L17.9144 24.4893L17.7801 24.6923ZM62.3611 23.5273L62.2102 23.3325L64.0339 21.9228L64.1997 22.1358L62.3611 23.5273ZM18.3438 23.8868L16.4852 22.527L16.6411 22.3106L18.4864 23.6904L18.3438 23.8868ZM61.7542 22.755L61.6034 22.5652L63.3757 21.0956L63.5415 21.3003L61.7542 22.755ZM18.934 23.1062L17.1302 21.6781L17.296 21.4701L19.0932 22.9098L18.934 23.1062ZM61.1308 22.0044L60.965 21.8213L62.6794 20.2867L62.8584 20.4864L61.1308 22.0044ZM19.5541 22.3372L17.8 20.8393L17.9658 20.6412L19.7083 22.1392L19.5541 22.3372ZM60.476 21.2687L60.3102 21.0923L61.9681 19.4978L62.1488 19.6909L60.476 21.2687ZM20.2007 21.6016L18.5013 20.0487L18.6671 19.8523L20.3582 21.4185L20.2007 21.6016ZM59.7929 20.5697L59.6188 20.4032L61.2253 18.7538L61.4127 18.9369L59.7929 20.5697ZM20.8705 20.8876L19.2242 19.2731L19.4099 19.0834L21.038 20.7111L20.8705 20.8876ZM59.0866 19.8889L58.9059 19.7225L60.4527 18.0132L60.6467 18.1913L59.0866 19.8889ZM21.5636 20.1918L19.9786 18.5275L20.1676 18.3427L21.7459 20.0254L21.5636 20.1918ZM58.3604 19.2398L58.1714 19.0734L59.6635 17.3108L59.8642 17.4772L58.3604 19.2398ZM22.2898 19.5344L20.7578 17.8085L20.9534 17.642L22.4705 19.378L22.2898 19.5344ZM57.6044 18.6123L57.4104 18.4609L58.8329 16.6434L59.0368 16.8098L57.6044 18.6123ZM23.0242 18.8936L21.5603 17.1177L21.7625 16.9513L23.2116 18.7388L23.0242 18.8936ZM56.8235 18.0132L56.6311 17.8684L57.9857 16.0009L58.1996 16.1674L56.8235 18.0132ZM23.7919 18.2811L22.3876 16.4503L22.6015 16.2839L23.9859 18.1413L23.7919 18.2811ZM56.031 17.4489L55.8287 17.3075L57.1202 15.3968L57.3374 15.5482L56.031 17.4489ZM24.5761 17.7053L23.2381 15.8278L23.4586 15.6747L24.775 17.5671L24.5761 17.7053ZM55.2202 16.903L55.0113 16.7732L56.2283 14.8126L56.4537 14.9557L55.2202 16.903ZM25.3769 17.151L24.1102 15.2253L24.3307 15.0789L25.5758 17.0179L25.3769 17.151ZM54.3813 16.3788L54.1707 16.2606L55.3197 14.2633L55.5535 14.3998L54.3813 16.3788ZM26.2042 16.6151L25.0022 14.6461L25.2277 14.508L26.4148 16.4869L26.2042 16.6151ZM53.5274 15.8994L53.3102 15.7796L54.3813 13.744L54.6167 13.8672L53.5274 15.8994ZM27.0465 16.1191L25.9174 14.1085L26.1495 13.9787L27.2537 16.0026L27.0465 16.1191ZM52.657 15.4534L52.4365 15.3435L53.4429 13.2664L53.6816 13.3862L52.657 15.4534ZM27.9036 15.6547L26.8458 13.6042L27.0829 13.4827L28.1208 15.5416L27.9036 15.6547ZM51.7783 15.0239L51.5528 14.9224L52.4779 12.8153L52.7217 12.9252L51.7783 15.0239ZM28.7807 15.2187L27.7959 13.1332L28.0313 13.0217L28.9995 15.1155L28.7807 15.2187ZM50.8747 14.6328L50.6442 14.5396L51.4981 12.3959L51.7418 12.4974L50.8747 14.6328ZM29.666 14.8126L28.7591 12.6922L29.0028 12.5873L29.8882 14.7177L29.666 14.8126ZM49.9562 14.2717L49.7274 14.1868L50.5033 12.0131L50.7537 12.1046L49.9562 14.2717ZM30.568 14.4381L29.739 12.286L29.981 12.1912L30.8017 14.3549L30.568 14.4381ZM49.0344 13.9388L48.7956 13.8605L49.4969 11.6602L49.7473 11.7418L49.0344 13.9388ZM31.4898 14.0902L30.7354 11.9116L30.9825 11.825L31.7186 14.0137L31.4898 14.0902ZM48.0943 13.6475L47.8589 13.5809L48.4773 11.3557L48.7293 11.4272L48.0943 13.6475ZM32.4149 13.7873L31.7517 11.5804L31.9988 11.5171L32.6537 13.7307L32.4149 13.7873ZM47.1509 13.3929L46.9088 13.3329L47.4527 11.091L47.7047 11.1526L47.1509 13.3929ZM33.3583 13.5144L32.7614 11.3007L33.0151 11.2308L33.5954 13.4661L33.3583 13.5144ZM46.1976 13.1715L45.9555 13.1216L46.4231 10.8747L46.68 10.9279L46.1976 13.1715ZM34.3034 13.278L33.7894 11.0294L34.0464 10.9695L34.5438 13.2231L34.3034 13.278ZM45.236 12.9851L44.9939 12.9451L45.3686 10.6683L45.6289 10.7115L45.236 12.9851ZM35.2617 13.075L34.8273 10.8181L35.0876 10.7681L35.507 13.0383L35.2617 13.075ZM44.2677 12.8469L44.024 12.8137L44.3191 10.5268L44.5777 10.5618L44.2677 12.8469ZM36.2216 12.9202L35.8668 10.6383L36.1255 10.6L36.457 12.8836L36.2216 12.9202ZM43.2945 12.7321L43.0491 12.7088L43.2729 10.4103L43.5349 10.4353L43.2945 12.7321ZM37.1899 12.7854L36.9229 10.4852L37.1849 10.4569L37.4386 12.7504L37.1899 12.7854ZM42.3229 12.6489L42.0775 12.6322L42.2118 10.3287L42.4721 10.3437L42.3229 12.6489ZM38.1647 12.6838L37.9757 10.3853L38.2377 10.3654L38.4151 12.6672L38.1647 12.6838ZM41.3514 12.599H41.0993L41.1541 10.2921H41.4144L41.3514 12.599ZM39.1463 12.6189L39.0319 10.3188L39.2971 10.3071L39.3916 12.6123L39.1463 12.6189ZM40.3682 12.5873H40.1228L40.093 10.2788L40.1062 11.4322V10.2788H40.3615L40.3682 12.5873Z" fill="#001E94"/>
<path d="M40.7864 64.0249C27.6438 64.1914 16.8206 53.5876 16.6581 40.3908C16.4956 27.1939 27.0585 16.3305 40.2012 16.1707C53.3438 16.0109 64.1637 26.613 64.3295 39.8082C64.4953 53.0034 53.9225 63.8668 40.7864 64.0249ZM40.2061 16.4237C27.1961 16.5902 16.7393 27.3404 16.8985 40.4007C17.0577 53.4611 27.7731 63.9534 40.7732 63.7952C53.7732 63.6371 64.24 52.8803 64.0808 39.8282C63.9216 26.7761 53.2095 16.2573 40.2012 16.4154L40.2061 16.4237Z" fill="#001E94"/>
<path d="M67.8574 39.7435L46.8278 40.0048L46.793 37.0938L67.8574 39.7435Z" fill="#001E94"/>
<path d="M67.8577 39.7437L46.8281 40.005L46.8679 42.9143L67.8577 39.7437Z" fill="white"/>
<path d="M67.8575 39.7433V39.665L46.75 39.928L46.7914 43.0021L67.8691 39.8198L67.8575 39.665V39.7433L67.8459 39.6667L46.944 42.824L46.9058 40.0811L67.8592 39.8198L67.8575 39.7433L67.8459 39.6667L67.8575 39.7433Z" fill="#001E94"/>
<path d="M46.6567 43.1622L46.6152 39.7935L67.857 39.5322L67.8935 39.9533L46.6567 43.1622ZM47.048 40.2146L47.0745 42.6679L64.7517 39.9966L47.048 40.2146Z" fill="#001E94"/>
<path d="M63.4775 39.7946L64.0296 40.3239L64.6166 40.234L64.1407 39.793L63.4775 39.7946Z" fill="#001E94"/>
<path d="M60.9834 39.8281L61.8638 40.6504L62.449 40.5605L61.6499 39.8198L60.9834 39.8281Z" fill="#001E94"/>
<path d="M58.501 39.8594L59.6964 40.9779L60.2816 40.8863L59.1691 39.8511L58.501 39.8594Z" fill="#001E94"/>
<path d="M56.0146 39.8915L57.535 41.3029L58.1169 41.2147L56.6878 39.8799L56.0146 39.8915Z" fill="#001E94"/>
<path d="M53.5342 39.9212L55.3679 41.6305L55.9465 41.5406L54.199 39.9146L53.5342 39.9212Z" fill="#001E94"/>
<path d="M51.0488 39.9515L53.1959 41.9621L53.7828 41.8705L51.7186 39.9448L51.0488 39.9515Z" fill="#001E94"/>
<path d="M48.5635 39.9829L51.0338 42.2864L51.6158 42.1949L49.2333 39.9746L48.5635 39.9829Z" fill="#001E94"/>
<path d="M46.832 40.722L48.8647 42.6144L49.4466 42.5212L46.8337 40.0796L46.832 40.722Z" fill="#001E94"/>
<path d="M46.8677 42.9138L47.2855 42.8539L46.8594 42.4561L46.8677 42.9138Z" fill="#001E94"/>
<path d="M40.7662 62.9965C28.1939 63.153 17.835 53.0102 17.6791 40.3793C17.5233 27.7483 27.6269 17.3593 40.2092 17.2045C52.7914 17.0497 63.1421 27.1907 63.2963 39.8217C63.4505 52.4527 53.3435 62.8434 40.7662 62.9965ZM40.486 16.0977C35.7565 16.0977 31.1331 17.5056 27.2006 20.1434C23.2682 22.7812 20.2032 26.5304 18.3933 30.9169C16.5835 35.3034 16.11 40.1302 17.0329 44.7868C17.9557 49.4434 20.2333 53.7208 23.5777 57.0779C26.9222 60.435 31.1832 62.7212 35.8219 63.6473C40.4606 64.5733 45.2688 64.0977 49.6382 62.2805C54.0077 60.4634 57.7422 57.3863 60.3696 53.4384C62.997 49.4905 64.3992 44.8492 64.3988 40.1013C64.3988 36.949 63.7803 33.8275 62.5785 30.9151C61.3768 28.0028 59.6154 25.3565 57.3948 23.1276C55.1743 20.8986 52.5382 19.1305 49.6369 17.9243C46.7357 16.7181 43.6262 16.0974 40.486 16.0977ZM40.486 63.0331C35.9697 63.0328 31.5549 61.6881 27.7998 59.1692C24.0446 56.6502 21.1178 53.0701 19.3894 48.8814C17.661 44.6928 17.2086 40.0837 18.0894 35.6369C18.9703 31.1902 21.1447 27.1055 24.3379 23.8992C27.5311 20.693 31.5996 18.5092 36.029 17.624C40.4584 16.7388 45.0499 17.192 49.2227 18.9262C53.3956 20.6603 56.9626 23.5977 59.4727 27.3668C61.9827 31.1359 63.3232 35.5675 63.3245 40.1013C63.3245 43.112 62.7337 46.0933 61.586 48.8748C60.4382 51.6563 58.7559 54.1836 56.6352 56.3124C54.5144 58.4412 51.9967 60.1299 49.2258 61.2819C46.4549 62.4339 43.4852 63.0267 40.486 63.0265V63.0331ZM40.2108 17.4441C27.7612 17.5973 17.7587 27.8898 17.9129 40.3859C18.0671 52.8821 28.3133 62.9133 40.7662 62.7652C53.2192 62.617 63.2184 52.3195 63.0642 39.8234C62.91 27.3272 52.6605 17.2844 40.2108 17.4375V17.4441Z" fill="#001E94"/>
<path d="M13.6475 40.459L34.6737 40.2026L34.7086 43.1103L13.6475 40.459Z" fill="#001E94"/>
<path d="M13.6475 40.4592L34.6737 40.2029L34.629 37.2886L13.6475 40.4592Z" fill="white"/>
<path d="M13.6464 40.4592L13.648 40.5375L34.7506 40.2778L34.7042 37.1987L13.6348 40.3827L13.648 40.5375L13.6464 40.4592L13.658 40.5358L34.5516 37.3785L34.5931 40.1264L13.6464 40.3827V40.4592L13.658 40.5358L13.6464 40.4592Z" fill="#001E94"/>
<path d="M34.8849 40.4106L13.6481 40.6719L13.6133 40.2458L34.8451 37.0386L34.8849 40.4106ZM16.7452 40.2075L34.4489 39.9895L34.4207 37.5379L16.7452 40.2075Z" fill="#001E94"/>
<path d="M18.035 40.4056L17.4713 39.8813L16.8877 39.9712L17.3635 40.4123L18.035 40.4056Z" fill="#001E94"/>
<path d="M20.5173 40.3757L19.6369 39.5552L19.0566 39.6401L19.8491 40.3824L20.5173 40.3757Z" fill="#001E94"/>
<path d="M22.997 40.344L21.8066 39.2256L21.2246 39.3138L22.3354 40.3507L22.997 40.344Z" fill="#001E94"/>
<path d="M25.4834 40.3122L23.9696 38.8975L23.3877 38.9873L24.8169 40.3222L25.4834 40.3122Z" fill="#001E94"/>
<path d="M27.9687 40.2828L26.1366 38.5718L25.5547 38.6633L27.2972 40.2894L27.9687 40.2828Z" fill="#001E94"/>
<path d="M30.4557 40.2492L28.3003 38.2437L27.7217 38.3319L29.7842 40.2575L30.4557 40.2492Z" fill="#001E94"/>
<path d="M32.9354 40.2193L30.47 37.9175L29.8848 38.0074L32.2673 40.2276L32.9354 40.2193Z" fill="#001E94"/>
<path d="M34.6637 39.4818L32.6327 37.5928L32.0508 37.681L34.667 40.121L34.6637 39.4818Z" fill="#001E94"/>
<path d="M34.6289 37.2886L34.2178 37.3502L34.6422 37.7463L34.6289 37.2886Z" fill="#001E94"/>
<path d="M47.1724 40.0194C47.1887 41.3469 46.8125 42.6495 46.0914 43.7624C45.3702 44.8752 44.3365 45.7484 43.121 46.2715C41.9055 46.7946 40.5627 46.9441 39.2626 46.7012C37.9624 46.4582 36.7632 45.8336 35.8166 44.9064C34.8701 43.9792 34.2187 42.7911 33.9448 41.4923C33.6709 40.1934 33.7868 38.8422 34.2779 37.6095C34.769 36.3769 35.6132 35.318 36.7038 34.567C37.7943 33.816 39.0822 33.4064 40.4046 33.3902C41.2827 33.379 42.1544 33.5416 42.9698 33.8687C43.7853 34.1959 44.5285 34.6812 45.1571 35.2968C45.7856 35.9125 46.2871 36.6465 46.6329 37.4568C46.9787 38.2671 47.162 39.1379 47.1724 40.0194Z" fill="white"/>
<path d="M47.1722 40.0199H47.1274V40.1114C47.1275 41.8645 46.4388 43.5468 45.2109 44.7933C43.9829 46.0397 42.3147 46.7496 40.5685 46.7689H40.4856C38.7378 46.7686 37.0604 46.077 35.817 44.844C34.5735 43.611 33.864 41.9358 33.8422 40.1813V40.0981C33.8429 38.3439 34.5321 36.6607 35.7603 35.413C36.9886 34.1653 38.6571 33.4537 40.4044 33.4322H40.4906C42.2375 33.4322 43.9138 34.124 45.1556 35.3574C46.3973 36.5909 47.1041 38.2663 47.1224 40.0199H47.2103C47.1902 38.243 46.4731 36.5458 45.2145 35.2964C43.9559 34.0469 42.2574 33.346 40.4873 33.3457H40.3994C38.6294 33.3676 36.9392 34.0885 35.6949 35.3523C34.4505 36.6161 33.7522 38.3211 33.751 40.0981V40.1813C33.7728 41.959 34.4916 43.6565 35.7516 44.9058C37.0116 46.1551 38.7113 46.8556 40.4823 46.8555H40.5652C42.3346 46.8353 44.0249 46.1162 45.2699 44.8539C46.5149 43.5916 47.2144 41.8878 47.2169 40.1114V40.0232L47.1722 40.0199Z" fill="#001E94"/>
<path d="M40.5709 46.935C39.2251 46.9514 37.9046 46.5668 36.7764 45.8298C35.6483 45.0928 34.7632 44.0366 34.2329 42.7947C33.7027 41.5528 33.5512 40.1809 33.7976 38.8525C34.044 37.5242 34.6772 36.299 35.6172 35.3319C36.5572 34.3648 37.7617 33.6992 39.0785 33.4192C40.3952 33.1393 41.7651 33.2576 43.0149 33.7591C44.2647 34.2607 45.3383 35.123 46.1 36.237C46.8616 37.3511 47.2771 38.6668 47.294 40.0179C47.3148 41.8297 46.6185 43.5758 45.358 44.8727C44.0974 46.1696 42.3757 46.9113 40.5709 46.935ZM40.4051 33.5118C39.1069 33.5284 37.8427 33.931 36.7723 34.6687C35.702 35.4064 34.8735 36.4462 34.3917 37.6565C33.9099 38.8668 33.7964 40.1934 34.0656 41.4685C34.3347 42.7435 34.9744 43.9099 35.9038 44.82C36.8331 45.7302 38.0104 46.3433 39.2869 46.5818C40.5633 46.8204 41.8815 46.6737 43.0749 46.1602C44.2682 45.6468 45.2832 44.7897 45.9914 43.6972C46.6996 42.6048 47.0692 41.3262 47.0536 40.0229C47.0308 38.2746 46.318 36.6069 45.0714 35.3858C43.8249 34.1648 42.1467 33.4902 40.4051 33.5102V33.5118Z" fill="#001E94"/>
<path d="M28.9102 28.7583L37.4321 37.1052L36.2815 38.2852L28.9102 28.7583Z" fill="#001E94"/>
<path d="M28.9102 28.7583L37.4321 37.1052L38.5794 35.9251L28.9102 28.7583Z" fill="white"/>
<path d="M28.9104 28.7586L28.8789 28.7902L37.4323 37.167L38.646 35.9204L28.9353 28.7236L28.8789 28.7902L28.9104 28.7586L28.8839 28.7935L38.5133 35.9304L37.4307 37.0439L28.9403 28.727L28.9104 28.7586L28.8839 28.7935L28.9104 28.7586Z" fill="#001E94"/>
<path d="M37.4337 37.2816L28.8223 28.8432L28.9881 28.6602L38.77 35.9135L37.4337 37.2816ZM30.2498 29.9068L37.4304 36.9371L38.392 35.9385L30.2498 29.9068Z" fill="#001E94"/>
<path d="M30.6881 30.501L30.6715 30.0683L30.4062 29.8652L30.4145 30.2347L30.6881 30.501Z" fill="#001E94"/>
<path d="M31.6932 31.4878L31.67 30.8037L31.4014 30.604L31.4229 31.2198L31.6932 31.4878Z" fill="#001E94"/>
<path d="M32.6988 32.473L32.6673 31.5443L32.4004 31.3462L32.4319 32.2067L32.6988 32.473Z" fill="#001E94"/>
<path d="M33.7082 33.4586L33.6651 32.2835L33.3965 32.0854L33.4379 33.1923L33.7082 33.4586Z" fill="#001E94"/>
<path d="M34.7126 34.4456L34.6612 33.0226L34.3926 32.8262L34.4423 34.1793L34.7126 34.4456Z" fill="#001E94"/>
<path d="M35.7196 35.4307L35.6582 33.763L35.3896 33.5649L35.4493 35.1644L35.7196 35.4307Z" fill="#001E94"/>
<path d="M36.7259 36.418L36.6563 34.5039L36.3877 34.3042L36.4573 36.1533L36.7259 36.418Z" fill="#001E94"/>
<path d="M37.7127 36.8172L37.653 35.2427L37.3877 35.043L37.4623 37.0735L37.7127 36.8172Z" fill="#001E94"/>
<path d="M38.579 35.925L38.3867 35.7852L38.3967 36.1114L38.579 35.925Z" fill="#001E94"/>
<path d="M52.0645 51.4436L43.5459 43.0951L44.6932 41.915L52.0645 51.4436Z" fill="#001E94"/>
<path d="M52.0653 51.4437L43.5467 43.0952L42.3994 44.2753L52.0653 51.4437Z" fill="white"/>
<path d="M52.0653 51.4438L52.0951 51.4105L43.545 43.0337L42.333 44.2803L52.0387 51.4787L52.0951 51.4105L52.0653 51.4438L52.0918 51.4072L42.4656 44.2687L43.5466 43.1585L52.0338 51.4738L52.0653 51.4438L52.0918 51.4072L52.0653 51.4438Z" fill="#001E94"/>
<path d="M51.9988 51.5423L42.2168 44.2906L43.5432 42.9258L52.1496 51.3575L51.9988 51.5423ZM42.5832 44.2606L50.7238 50.299L43.5448 43.2736L42.5832 44.2606Z" fill="#001E94"/>
<path d="M50.2861 49.7026L50.3027 50.1354L50.5746 50.3351L50.5597 49.9673L50.2861 49.7026Z" fill="#001E94"/>
<path d="M49.2812 48.7139L49.3078 49.3979L49.5764 49.5943L49.5532 48.9802L49.2812 48.7139Z" fill="#001E94"/>
<path d="M48.2764 47.729L48.3079 48.6561L48.5781 48.8541L48.5466 47.9936L48.2764 47.729Z" fill="#001E94"/>
<path d="M47.2676 46.7417L47.3107 47.9168L47.5776 48.1181L47.5428 47.008L47.2676 46.7417Z" fill="#001E94"/>
<path d="M46.2607 45.7563L46.3121 47.1777L46.5824 47.3758L46.5326 46.0226L46.2607 45.7563Z" fill="#001E94"/>
<path d="M45.2559 44.7715L45.3155 46.4375L45.5841 46.6373L45.5261 45.0361L45.2559 44.7715Z" fill="#001E94"/>
<path d="M44.248 43.7861L44.316 45.6985L44.5879 45.8966L44.5199 44.0508L44.248 43.7861Z" fill="#001E94"/>
<path d="M43.2617 43.3864L43.3214 44.9592L43.59 45.1573L43.5121 43.1284L43.2617 43.3864Z" fill="#001E94"/>
<path d="M42.3994 44.2756L42.5884 44.4187L42.5768 44.0908L42.3994 44.2756Z" fill="#001E94"/>
<path d="M29.1885 51.7265L37.5065 43.1699L38.6787 44.3217L29.1885 51.7265Z" fill="#001E94"/>
<path d="M29.1885 51.7264L37.5065 43.1698L36.3293 42.0181L29.1885 51.7264Z" fill="white"/>
<path d="M29.1891 51.727L29.219 51.757L37.5685 43.1688L36.325 41.9521L29.1543 51.7004L29.219 51.757L29.1891 51.727L29.2239 51.752L36.3349 42.0853L37.4441 43.1705L29.1576 51.6954L29.1891 51.727L29.2239 51.752L29.1891 51.727Z" fill="#001E94"/>
<path d="M29.2745 51.8083L29.0938 51.6519L36.3142 41.832L37.6754 43.1635L29.2745 51.8083ZM36.344 42.2015L30.3289 50.377L37.3305 43.1735L36.344 42.2015Z" fill="#001E94"/>
<path d="M30.9266 49.939L30.4922 49.9539L30.2949 50.2236L30.6597 50.2103L30.9266 49.939Z" fill="#001E94"/>
<path d="M31.9073 48.9272L31.2276 48.9555L31.0303 49.2218L31.6421 49.2019L31.9073 48.9272Z" fill="#001E94"/>
<path d="M32.8917 47.9189L31.9665 47.9539L31.7676 48.2219L32.6247 48.1902L32.8917 47.9189Z" fill="#001E94"/>
<path d="M33.871 46.9067L32.7038 46.95L32.5049 47.218L33.6074 47.1797L33.871 46.9067Z" fill="#001E94"/>
<path d="M34.8518 45.8984L33.4375 45.9484L33.2402 46.218L34.5882 46.1714L34.8518 45.8984Z" fill="#001E94"/>
<path d="M35.8354 44.8877L34.1742 44.9476L33.9785 45.2172L35.5735 45.159L35.8354 44.8877Z" fill="#001E94"/>
<path d="M36.8215 43.876L34.9099 43.9459L34.7109 44.2155L36.5546 44.1473L36.8215 43.876Z" fill="#001E94"/>
<path d="M37.2146 42.8872L35.6511 42.9455L35.4521 43.2151L37.4749 43.1419L37.2146 42.8872Z" fill="#001E94"/>
<path d="M36.3301 42.0181L36.1875 42.2104L36.5158 42.1971L36.3301 42.0181Z" fill="#001E94"/>
<path d="M51.7884 28.4756L43.4704 37.0288L42.2949 35.8821L51.7884 28.4756Z" fill="#001E94"/>
<path d="M51.7877 28.4756L43.4697 37.0288L44.6485 38.1839L51.7877 28.4756Z" fill="white"/>
<path d="M51.7885 28.4753L51.7554 28.4453L43.4092 37.0302L44.6543 38.2502L51.8217 28.5019L51.7554 28.4453L51.7885 28.4753L51.7521 28.4486L44.6444 38.117L43.5319 37.0285L51.8184 28.5069L51.7885 28.4753L51.7521 28.4486L51.7885 28.4753Z" fill="#001E94"/>
<path d="M44.6643 38.3667L43.2998 37.0352L51.7007 28.3921L51.8847 28.5585L44.6643 38.3667ZM43.6447 37.0269L44.6394 37.9972L50.6512 29.8235L43.6447 37.0269Z" fill="#001E94"/>
<path d="M50.0508 30.2615L50.4835 30.2465L50.6825 29.9785L50.3127 29.9902L50.0508 30.2615Z" fill="#001E94"/>
<path d="M49.0693 31.2748L49.7491 31.2481L49.9481 30.9785L49.3313 31.0018L49.0693 31.2748Z" fill="#001E94"/>
<path d="M48.0908 32.2853L49.011 32.2503L49.2083 31.979L48.3511 32.0106L48.0908 32.2853Z" fill="#001E94"/>
<path d="M47.1045 33.294L48.275 33.2507L48.4723 32.9844L47.3698 33.0227L47.1045 33.294Z" fill="#001E94"/>
<path d="M46.123 34.3039L47.5373 34.2523L47.7346 33.9844L46.3867 34.0326L46.123 34.3039Z" fill="#001E94"/>
<path d="M45.1387 35.3161L46.8 35.2545L47.0022 34.9849L45.4039 35.0431L45.1387 35.3161Z" fill="#001E94"/>
<path d="M44.1582 36.3247L46.0615 36.2564L46.2605 35.9868L44.4218 36.0567L44.1582 36.3247Z" fill="#001E94"/>
<path d="M43.7589 37.3167L45.3274 37.2567L45.5263 36.9888L43.502 37.0637L43.7589 37.3167Z" fill="#001E94"/>
<path d="M44.649 38.183L44.7866 37.9907L44.46 38.0023L44.649 38.183Z" fill="#001E94"/>
<path d="M45.4712 40.0396C45.4833 41.0289 45.2028 41.9996 44.6654 42.829C44.1279 43.6583 43.3575 44.3091 42.4517 44.699C41.5458 45.0889 40.5452 45.2004 39.5762 45.0194C38.6072 44.8385 37.7134 44.3731 37.0079 43.6823C36.3023 42.9915 35.8166 42.1061 35.6122 41.1382C35.4079 40.1703 35.4939 39.1633 35.8596 38.2445C36.2253 37.3257 36.8541 36.5364 37.6667 35.9763C38.4792 35.4162 39.4388 35.1106 40.4244 35.098C41.7462 35.082 43.0203 35.5935 43.9667 36.5201C44.913 37.4467 45.4542 38.7126 45.4712 40.0396Z" fill="white"/>
<path d="M45.472 40.0393H45.4289V40.0976C45.4286 41.4025 44.9161 42.6549 44.0025 43.5832C43.0889 44.5116 41.8477 45.0412 40.5479 45.0574H40.4882C39.1885 45.0575 37.9412 44.5434 37.0167 43.6264C36.0921 42.7095 35.5648 41.4637 35.5491 40.1591V40.0942C35.5503 38.7908 36.0625 37.5403 36.975 36.6131C37.8875 35.6858 39.1269 35.1564 40.4252 35.1394H40.4815C41.7828 35.1384 43.032 35.6525 43.9581 36.57C44.8843 37.4876 45.4127 38.7348 45.4289 40.041H45.5151C45.4989 38.7121 44.9613 37.4433 44.0189 36.51C43.0765 35.5767 41.8054 35.0543 40.4815 35.0562H40.4252C39.1038 35.0724 37.8419 35.6106 36.9131 36.5542C35.9843 37.4979 35.4632 38.7709 35.4629 40.0976V40.1641C35.4786 41.4917 36.015 42.7595 36.9557 43.6926C37.8964 44.6258 39.1657 45.149 40.4882 45.1489H40.5495C41.8721 45.1319 43.1348 44.5926 44.0641 43.6478C44.9935 42.7029 45.5148 41.4287 45.5151 40.1009V40.041L45.472 40.0393Z" fill="#001E94"/>
<path d="M40.5495 45.2256C39.5406 45.237 38.5509 44.9479 37.7055 44.3949C36.8602 43.8418 36.1972 43.0496 35.8002 42.1184C35.4032 41.1872 35.2902 40.1587 35.4753 39.163C35.6604 38.1673 36.1354 37.249 36.8403 36.5242C37.5451 35.7994 38.4482 35.3007 39.4353 35.091C40.4225 34.8813 41.4494 34.97 42.3863 35.346C43.3232 35.7221 44.1281 36.3685 44.6991 37.2035C45.2702 38.0386 45.5818 39.0249 45.5947 40.0377C45.6097 41.3969 45.0869 42.7066 44.141 43.6792C43.1951 44.6519 41.9034 45.208 40.5495 45.2256ZM40.4285 35.221C39.4674 35.2329 38.5314 35.5305 37.7388 36.0763C36.9462 36.622 36.3326 37.3914 35.9754 38.2872C35.6182 39.1829 35.5336 40.1649 35.7322 41.1089C35.9308 42.0529 36.4037 42.9167 37.0911 43.591C37.7786 44.2653 38.6497 44.7199 39.5945 44.8973C40.5392 45.0747 41.5152 44.967 42.399 44.5878C43.2827 44.2086 44.0347 43.5749 44.5599 42.7668C45.085 41.9587 45.3597 41.0125 45.3493 40.0477C45.3419 39.4064 45.2088 38.7728 44.9575 38.1832C44.7062 37.5935 44.3417 37.0594 43.8848 36.6112C43.4278 36.163 42.8874 35.8095 42.2944 35.571C41.7013 35.3324 41.0673 35.2135 40.4285 35.221Z" fill="#001E94"/>
<path d="M42.8652 40.073C42.8708 40.5448 42.7369 41.0077 42.4805 41.4031C42.2241 41.7985 41.8567 42.1088 41.4247 42.2947C40.9927 42.4806 40.5156 42.5338 40.0535 42.4476C39.5914 42.3614 39.1651 42.1397 38.8285 41.8104C38.4919 41.4811 38.2601 41.059 38.1623 40.5975C38.0646 40.136 38.1053 39.6558 38.2793 39.2175C38.4533 38.7792 38.7528 38.4025 39.14 38.135C39.5271 37.8675 39.9846 37.7212 40.4546 37.7146C40.7673 37.71 41.0778 37.7674 41.3683 37.8835C41.6589 37.9996 41.9238 38.1722 42.1477 38.3913C42.3717 38.6104 42.5504 38.8718 42.6735 39.1604C42.7966 39.449 42.8618 39.7591 42.8652 40.073Z" fill="#001E94"/>
<path d="M40.5179 42.548C40.0363 42.5538 39.5637 42.4162 39.16 42.1525C38.7562 41.8888 38.4394 41.5108 38.2497 41.0663C38.0599 40.6219 38.0057 40.1309 38.0939 39.6556C38.1821 39.1802 38.4087 38.7417 38.7451 38.3956C39.0815 38.0495 39.5126 37.8114 39.9838 37.7112C40.4551 37.6111 40.9453 37.6534 41.3926 37.833C41.8398 38.0125 42.224 38.3212 42.4965 38.7199C42.7691 39.1186 42.9177 39.5895 42.9236 40.073C42.9298 40.721 42.6803 41.345 42.2295 41.8088C41.7787 42.2726 41.1633 42.5383 40.5179 42.548ZM40.4549 37.7812C39.9959 37.7868 39.5488 37.929 39.1703 38.1896C38.7917 38.4503 38.4987 38.8178 38.3282 39.2457C38.1577 39.6736 38.1174 40.1426 38.2124 40.5935C38.3074 41.0443 38.5335 41.4568 38.862 41.7787C39.1906 42.1006 39.6068 42.3174 40.0581 42.4018C40.5094 42.4863 40.9755 42.4344 41.3974 42.2529C41.8194 42.0714 42.1783 41.7684 42.4287 41.3822C42.6791 40.9959 42.8098 40.5438 42.8043 40.083C42.8006 39.777 42.7369 39.4747 42.6168 39.1934C42.4968 38.9122 42.3227 38.6574 42.1045 38.4436C41.8864 38.2299 41.6284 38.0613 41.3454 37.9477C41.0623 37.834 40.7598 37.7774 40.4549 37.7812Z" fill="#001E94"/>
<path d="M43.1076 0.16606C42.9499 0.175633 42.796 0.219352 42.6567 0.294217C42.5846 0.328277 42.5235 0.381843 42.4802 0.448885C42.4368 0.515927 42.413 0.593785 42.4113 0.673695L42.4644 4.7897H42.3168L39.0871 0.462319L39.1285 3.9392C39.1285 4.22048 39.1998 4.41355 39.3391 4.51841C39.5296 4.61851 39.7426 4.66726 39.9575 4.65988V4.82632L38.2117 4.84962V4.69483C38.3896 4.68085 38.5639 4.63697 38.7273 4.56501C38.802 4.51914 38.862 4.45274 38.9002 4.37368C38.9384 4.29462 38.9532 4.20621 38.9428 4.11896L38.913 0.895057C38.913 0.627093 38.8831 0.47397 38.8351 0.439018C38.6089 0.260181 38.3288 0.163921 38.0409 0.16606C37.9281 0.166123 37.817 0.194101 37.7175 0.247516C37.6181 0.300932 37.5332 0.378139 37.4706 0.472305C37.3369 0.659121 37.2682 0.884862 37.2749 1.11476C37.2726 1.30234 37.3308 1.48565 37.4407 1.63737C37.4965 1.71305 37.57 1.77376 37.6548 1.81412C37.7395 1.85447 37.8328 1.87322 37.9265 1.86872C38.1072 1.86872 38.2763 1.73557 38.4239 1.48258C38.3476 1.79382 38.1686 1.94861 37.8834 1.95027C37.772 1.95804 37.6601 1.94237 37.5551 1.90425C37.45 1.86613 37.354 1.80641 37.2733 1.72891C37.1188 1.56212 37.0366 1.34067 37.0445 1.11309C37.0414 0.977723 37.0655 0.843118 37.1153 0.717301C37.1652 0.591484 37.2398 0.477031 37.3346 0.380765C37.4253 0.280546 37.5359 0.200488 37.6592 0.145739C37.7826 0.0909896 37.916 0.0627611 38.0509 0.0628684L39.4701 0.0445602L42.2588 3.64794L42.2223 0.665373C42.2223 0.332498 41.957 0.16606 41.4348 0.182704V0.0162658L43.0927 -0.00537109L43.1076 0.16606Z" fill="#001E94"/>
<path d="M41.9795 78.7482C41.9868 78.9218 41.9735 79.0955 41.9397 79.2659C41.893 79.4133 41.8063 79.5447 41.6894 79.6453C41.3957 79.8883 41.0234 80.0144 40.6432 79.9999C40.3985 80.0083 40.155 79.9632 39.9294 79.8678C39.7038 79.7724 39.5016 79.6289 39.3367 79.4473C39.2737 79.4806 39.2157 79.6287 39.1709 79.89H39.0051L38.9852 78.3671H39.151C39.3417 79.3574 39.8142 79.8451 40.5752 79.8367C40.8378 79.8443 41.0942 79.7555 41.2964 79.5871C41.3955 79.5033 41.4739 79.3976 41.5257 79.2784C41.5775 79.1592 41.6011 79.0296 41.5949 78.8997C41.5949 78.5369 41.3627 78.2456 40.9151 78.0226L39.6666 77.4367C39.4625 77.3273 39.2915 77.1648 39.1713 76.9663C39.0511 76.7678 38.9863 76.5405 38.9836 76.3083C38.9764 76.1481 39.0032 75.9882 39.0624 75.8392C39.1216 75.6903 39.2117 75.5557 39.3268 75.4445C39.5693 75.224 39.8866 75.105 40.2138 75.1116C40.4871 75.1125 40.7558 75.1829 40.9947 75.3163C41.2914 75.4728 41.4423 75.6708 41.4423 75.9038L41.3843 76.0836L41.2467 76.1834C41.2262 76.1862 41.2054 76.1842 41.1859 76.1775C41.1663 76.1709 41.1486 76.1598 41.134 76.1451C41.1194 76.1305 41.1083 76.1127 41.1017 76.093C41.0951 76.0734 41.0931 76.0525 41.0958 76.032L41.1174 75.8955L41.1323 75.7723L41.0825 75.6325C40.9051 75.3995 40.6332 75.288 40.2536 75.2997C40.0485 75.2919 39.8472 75.3567 39.6849 75.4827C39.5885 75.565 39.5086 75.665 39.4495 75.7773C39.3784 75.8876 39.3393 76.0155 39.3367 76.1468C39.3367 76.4797 39.5672 76.766 40.0281 76.979L41.3014 77.5749C41.5064 77.6943 41.6768 77.8653 41.7957 78.0711C41.9147 78.2769 41.978 78.5103 41.9795 78.7482Z" fill="#001E94"/>
<path d="M5.33553 38.9295C5.34097 39.0891 5.32196 39.2485 5.27916 39.4022C5.25263 39.4771 5.20786 39.6286 5.14155 39.8599C5.10673 39.9715 5.00725 40.3826 4.84145 41.0899C4.66405 41.8688 4.48333 42.5879 4.29433 43.2703L4.14511 43.2736L2.8519 39.8799L1.78749 43.3019H1.73443C1.71122 43.2336 1.63164 42.9823 1.49237 42.5446C1.21383 41.6636 0.88224 40.6527 0.497593 39.5121C0.474932 39.432 0.428223 39.3609 0.363836 39.3085C0.299449 39.2561 0.22052 39.2249 0.137815 39.2192L0.00683594 39.2025V39.066L1.47247 39.0477V39.1892C1.37631 39.2025 1.28181 39.2241 1.18731 39.2391C1.14014 39.2516 1.09899 39.2806 1.07131 39.3209C1.04363 39.3612 1.03126 39.4101 1.03643 39.4588C1.03643 39.4871 1.13093 39.7584 1.31828 40.2644C1.57858 40.995 1.81567 41.6958 2.0395 42.3648L2.80216 39.5953C2.74935 39.4414 2.72028 39.2803 2.71595 39.1176C2.70931 38.605 2.80879 38.2244 3.01438 37.9759C3.14075 37.8131 3.30212 37.6811 3.48644 37.5898C3.67075 37.4984 3.87324 37.45 4.07879 37.4482C4.26785 37.4475 4.45386 37.4961 4.61864 37.5891C4.78341 37.6822 4.92131 37.8166 5.01886 37.9792C5.21736 38.2567 5.32774 38.588 5.33553 38.9295ZM5.15812 38.9096C5.16652 38.6198 5.06924 38.3369 4.88456 38.114C4.79642 38.0036 4.6834 37.9159 4.55483 37.858C4.42626 37.8001 4.28583 37.7738 4.14511 37.7811C3.99748 37.7806 3.85171 37.8143 3.71915 37.8795C3.58658 37.9447 3.4708 38.0398 3.38079 38.1573C3.19014 38.3883 3.08993 38.6812 3.09894 38.9811C3.09894 39.1676 3.29292 39.7501 3.67259 40.7321L4.29433 42.3399C4.55076 41.4522 4.81327 40.5018 5.08186 39.4888C5.13503 39.3004 5.16072 39.1053 5.15812 38.9096Z" fill="#001E94"/>
<path d="M79.9997 40.915L79.9168 42.3962L76.1035 42.4379V42.2864C76.5722 42.3175 76.8037 42.1666 76.7982 41.8337L76.7634 38.2703C76.7734 38.1933 76.7588 38.1152 76.7219 38.047C76.685 37.9789 76.6275 37.9242 76.5578 37.8908C76.4212 37.8503 76.2775 37.8401 76.1367 37.8608C76.0014 37.8797 75.864 37.8746 75.7305 37.8459V37.6794L79.426 37.6328L79.5521 38.8228H79.3863C79.3434 38.5472 79.229 38.2878 79.0547 38.0705C78.9535 37.9769 78.8341 37.9053 78.704 37.8603C78.5738 37.8153 78.4358 37.7979 78.2986 37.8092L77.3403 37.8192L77.3652 40.0312C77.5459 39.817 77.7702 39.644 78.023 39.524C78.2758 39.404 78.5512 39.3397 78.8308 39.3355C79.1624 39.3355 79.3746 39.407 79.494 39.5635C79.3185 39.4976 79.1326 39.4637 78.9452 39.4636C78.4346 39.4636 77.9704 39.7416 77.5443 40.2742C77.4382 40.4057 77.3785 40.4772 77.3785 40.4839L77.3884 41.4825C77.3967 41.8653 77.4597 42.095 77.5841 42.1732C77.6625 42.2232 77.8913 42.2465 78.2705 42.2431C78.743 42.2431 79.063 42.1732 79.2287 42.0501C79.4526 41.8836 79.6615 41.5125 79.8555 40.9133L79.9997 40.915Z" fill="#001E94"/>
<path d="M26.2196 25.5542L26.0936 25.7655C26.0796 25.804 26.0767 25.8456 26.0852 25.8857C26.0937 25.9257 26.1133 25.9625 26.1417 25.9919L27.6173 27.5165L27.5642 27.5681L24.8186 27.107L26.0637 28.3903C26.0974 28.4345 26.1408 28.4704 26.1906 28.4949C26.2403 28.5195 26.2951 28.5321 26.3506 28.5317C26.4587 28.5015 26.5574 28.4442 26.6374 28.3653L26.6938 28.4236L26.0472 29.056L25.9908 28.9978C26.0512 28.9262 26.1024 28.8474 26.1433 28.7631L26.0621 28.5201L24.9015 27.3284C24.8087 27.2285 24.7357 27.1803 24.7125 27.1836C24.5652 27.2003 24.4274 27.2646 24.3196 27.3667C24.2771 27.4075 24.245 27.458 24.2259 27.5139C24.2069 27.5698 24.2015 27.6295 24.2101 27.6879C24.2273 27.8053 24.282 27.914 24.366 27.9975L24.6147 28.134C24.6623 28.1422 24.7112 28.1386 24.7572 28.1235C24.8031 28.1084 24.8447 28.0823 24.8783 28.0474C24.9143 28.0008 24.9378 27.9459 24.9468 27.8876C24.9558 27.8294 24.9499 27.7698 24.9297 27.7145C24.9706 27.7695 24.9897 27.8377 24.9833 27.906C24.9769 27.9743 24.9453 28.0378 24.8949 28.084C24.8553 28.1268 24.8073 28.1608 24.7539 28.184C24.7006 28.2072 24.643 28.2191 24.5848 28.2188C24.469 28.2103 24.3609 28.1572 24.2831 28.0707C24.2339 28.0208 24.1952 27.9615 24.1693 27.8963C24.1434 27.8311 24.1308 27.7614 24.1322 27.6912C24.1294 27.6211 24.1418 27.5512 24.1684 27.4862C24.195 27.4213 24.2353 27.3629 24.2864 27.3151L24.8087 26.8041L27.1298 27.1553L26.0588 26.0535C25.9411 25.9287 25.7836 25.9636 25.5912 26.155L25.5332 26.0918L26.15 25.4893L26.2196 25.5542Z" fill="#001E94"/>
<path d="M28.4026 23.2477L28.5684 23.4707C28.5866 23.5123 28.6264 23.5939 28.6894 23.7204C28.7226 23.777 28.8436 23.9884 29.0575 24.3529C29.2912 24.7506 29.5035 25.1301 29.6941 25.488L29.6278 25.5545L27.7361 24.6475L28.648 26.5116L28.6247 26.5299C28.5932 26.5132 28.459 26.4383 28.2219 26.3118C27.756 26.0505 27.2155 25.7593 26.6037 25.433C26.5626 25.4083 26.5149 25.3969 26.4671 25.4005C26.4193 25.4041 26.3738 25.4224 26.3368 25.453L26.2738 25.4996L26.2207 25.443L26.8292 24.8472L26.8822 24.9054L26.7861 25.0402L26.8109 25.1934C26.9529 25.2762 27.099 25.3517 27.2486 25.4197C27.6515 25.6228 28.0279 25.8192 28.3843 26.0122L27.6034 24.5426C27.5197 24.4999 27.4435 24.4437 27.378 24.3762C27.1984 24.2237 27.0805 24.0106 27.0464 23.777C27.034 23.6577 27.0491 23.5371 27.0905 23.4246C27.1319 23.312 27.1985 23.2105 27.2851 23.1279C27.3632 23.0515 27.4599 22.9971 27.5656 22.9703C27.6712 22.9434 27.7821 22.9449 27.887 22.9748C28.0818 23.0131 28.2611 23.108 28.4026 23.2477ZM28.3213 23.3126C28.2098 23.1901 28.0591 23.1106 27.8952 23.0879C27.8139 23.0757 27.7308 23.0829 27.6528 23.109C27.5747 23.135 27.5039 23.1791 27.4459 23.2377C27.3844 23.2966 27.3374 23.3691 27.3086 23.4494C27.2798 23.5297 27.2701 23.6157 27.2801 23.7004C27.2883 23.8742 27.3639 24.0379 27.4907 24.1565C27.562 24.2364 27.8737 24.4061 28.4225 24.6658L29.3261 25.0918C29.0807 24.6175 28.8138 24.1149 28.5203 23.5823C28.4675 23.4831 28.4005 23.3922 28.3213 23.3126Z" fill="#001E94"/>
<path d="M54.2853 52.3593C54.2186 52.2973 54.1596 52.2275 54.1096 52.1513L54.0615 51.9216C54.0817 51.7239 54.1731 51.5404 54.3185 51.4056C54.4043 51.3128 54.5093 51.2401 54.6262 51.1926C54.7431 51.1451 54.869 51.1241 54.995 51.131C55.0032 51.096 54.9717 51.0211 54.8971 50.9063L54.9552 50.8447L55.5172 51.394L55.4592 51.4556C55.0281 51.1626 54.675 51.1593 54.4031 51.4406C54.3034 51.5331 54.2413 51.6594 54.229 51.7951C54.2226 51.8624 54.232 51.9303 54.2565 51.9933C54.281 52.0563 54.3198 52.1127 54.3699 52.1579C54.5042 52.2894 54.7015 52.3127 54.9402 52.2278C54.9999 52.2079 55.2221 52.128 55.6034 51.9848C55.7186 51.9495 55.8412 51.9463 55.958 51.9757C56.0749 52.005 56.1815 52.0657 56.2666 52.1513C56.3276 52.207 56.3759 52.2752 56.4082 52.3513C56.4405 52.4274 56.4561 52.5096 56.454 52.5923C56.4517 52.6771 56.4329 52.7605 56.3984 52.8379C56.364 52.9153 56.3147 52.9851 56.2534 53.0434C56.1541 53.1433 56.0307 53.2155 55.8952 53.2531C55.8337 53.2811 55.7656 53.2915 55.6986 53.283C55.6315 53.2744 55.5682 53.2474 55.5156 53.2048L55.4758 53.1166L55.4841 53.0317H55.5968L55.6349 53.0833L55.6747 53.1349L55.7444 53.1699C55.8247 53.1766 55.9055 53.1635 55.9797 53.1319C56.0539 53.1003 56.1194 53.0511 56.1705 52.9884C56.2482 52.9149 56.2986 52.8168 56.313 52.7105L56.2931 52.5158L56.1986 52.341C56.0726 52.2162 55.8869 52.1995 55.6416 52.2894L54.9601 52.5391C54.8418 52.5705 54.7173 52.5705 54.599 52.539C54.4807 52.5075 54.3726 52.4455 54.2853 52.3593Z" fill="#001E94"/>
<path d="M52.8084 54.1418L52.3027 53.571L53.6772 52.1562L53.7369 52.2112C53.5512 52.3776 53.5197 52.5141 53.6391 52.6323L54.9555 53.9188L55.1743 53.9787L55.3401 53.8389L55.5059 53.6941L55.5639 53.754L54.216 55.1255L53.7385 54.7377L53.7999 54.6744C53.9144 54.7609 54.0503 54.8144 54.1928 54.8292C54.264 54.8275 54.3341 54.8104 54.3981 54.7791C54.4622 54.7478 54.5189 54.703 54.5642 54.6478L54.9107 54.2933L54.095 53.4944C54.1085 53.639 54.0904 53.7847 54.042 53.9216C53.9936 54.0584 53.9161 54.183 53.8148 54.2867C53.7764 54.3377 53.726 54.3785 53.6682 54.4055C53.6104 54.4325 53.5469 54.4448 53.4832 54.4414C53.5728 54.402 53.6538 54.3455 53.7219 54.275C53.8173 54.1658 53.8864 54.0361 53.9238 53.8958C53.9612 53.7555 53.9659 53.6085 53.9375 53.4661L53.9209 53.3296L53.5562 52.9685C53.4136 52.8303 53.3058 52.7687 53.2345 52.787C53.1262 52.8417 53.0311 52.9195 52.956 53.0151C52.8251 53.1262 52.728 53.2722 52.6758 53.4362C52.6745 53.6652 52.7383 53.8898 52.8598 54.0836L52.8084 54.1418Z" fill="#001E94"/>
<path d="M28.2632 53.9884C28.3274 53.9243 28.3992 53.8684 28.4771 53.822L28.7076 53.7837C28.9015 53.8116 29.0784 53.9099 29.205 54.06C29.2933 54.1511 29.3609 54.2603 29.4033 54.3801C29.4456 54.4999 29.4617 54.6274 29.4503 54.754C29.4835 54.7657 29.5598 54.7374 29.6791 54.6641L29.7355 54.7291L29.1635 55.2666L29.1071 55.2067C29.4155 54.7856 29.4387 54.4345 29.1685 54.1465C29.0805 54.044 28.9587 53.9767 28.8253 53.9568C28.7581 53.9479 28.6899 53.9543 28.6256 53.9757C28.5612 53.997 28.5026 54.0326 28.4539 54.0799C28.3163 54.2114 28.2881 54.4012 28.3594 54.6475C28.3776 54.7107 28.4523 54.9371 28.57 55.3316C28.6002 55.4474 28.5988 55.5693 28.5658 55.6845C28.5329 55.7996 28.4696 55.9036 28.3826 55.9857C28.3243 56.044 28.2541 56.0891 28.1769 56.1178C28.0996 56.1466 28.0171 56.1582 27.935 56.1521C27.7663 56.1371 27.6097 56.0579 27.4973 55.9307C27.4015 55.8258 27.3342 55.698 27.3016 55.5596C27.2762 55.4969 27.269 55.4282 27.2811 55.3616C27.2931 55.295 27.3238 55.2332 27.3696 55.1834L27.4575 55.1435L27.5404 55.1601V55.2716L27.4857 55.3083L27.431 55.3465L27.3928 55.4164C27.3844 55.4966 27.395 55.5776 27.4238 55.6528C27.4526 55.7281 27.4988 55.7954 27.5586 55.8492C27.6288 55.9315 27.7257 55.9864 27.8322 56.004L28.0228 55.994L28.2052 55.9058C28.3329 55.7859 28.3544 55.6029 28.2782 55.3515L28.0626 54.6558C28.035 54.5367 28.0389 54.4123 28.0741 54.2952C28.1094 54.1781 28.1746 54.0723 28.2632 53.9884Z" fill="#001E94"/>
<path d="M24.6634 52.9551L24.8872 52.7887C24.9303 52.7704 25.0132 52.7304 25.1409 52.6689C25.1973 52.6422 25.4128 52.5241 25.7759 52.3177C26.1804 52.0897 26.5618 51.8816 26.9166 51.7002L26.9812 51.7651L26.0461 53.6459L27.918 52.7654L27.9379 52.7887L27.7107 53.1865C27.4438 53.6525 27.1421 54.1851 26.8038 54.7993C26.7799 54.8406 26.7686 54.8881 26.7716 54.9358C26.7745 54.9835 26.7915 55.0292 26.8204 55.0672L26.8668 55.1271L26.8121 55.1854L26.2302 54.5613L26.2866 54.508L26.4192 54.6095L26.5717 54.5879C26.5833 54.5762 26.6596 54.4298 26.8072 54.1502C27.0127 53.7524 27.2167 53.3779 27.4156 53.0217L25.9434 53.7773C25.86 53.9177 25.7479 54.0387 25.6144 54.1323C25.4809 54.2259 25.3291 54.2898 25.1691 54.3199C25.0501 54.3294 24.9306 54.3114 24.8196 54.2672C24.7087 54.2231 24.6093 54.154 24.5291 54.0653C24.4537 53.9855 24.4008 53.8871 24.3758 53.78C24.3507 53.673 24.3544 53.5612 24.3865 53.4561C24.4281 53.2656 24.5244 53.0914 24.6634 52.9551ZM24.7231 53.04C24.5997 53.1498 24.5197 53.3004 24.4976 53.4644C24.483 53.5451 24.4877 53.628 24.5113 53.7064C24.5349 53.7849 24.5768 53.8565 24.6336 53.9155C24.6913 53.9787 24.7628 54.0278 24.8424 54.0589C24.922 54.0901 25.0077 54.1025 25.0928 54.0952C25.2654 54.0858 25.4286 54.0136 25.5521 53.8922C25.6333 53.8173 25.8074 53.5094 26.076 52.9635L26.5187 52.068C26.0412 52.3027 25.5355 52.5673 24.9967 52.8453C24.8969 52.8971 24.8048 52.9626 24.7231 53.04Z" fill="#001E94"/>
<path d="M55.6248 26.2488L55.4159 26.1206C55.3784 26.1055 55.3376 26.1011 55.2978 26.1078C55.258 26.1146 55.2208 26.1323 55.1904 26.1589L53.6419 27.6119L53.5905 27.557L54.1061 24.8141L52.803 26.0341C52.7586 26.0673 52.7223 26.1102 52.6968 26.1595C52.6712 26.2087 52.6571 26.2632 52.6554 26.3187C52.6864 26.4278 52.7433 26.5277 52.8212 26.61L52.7632 26.6649L52.1514 25.9991L52.2094 25.9442C52.2751 26.0092 52.3528 26.0607 52.4382 26.0957L52.6819 26.0241L53.8955 24.8923C53.9934 24.7974 54.0431 24.7259 54.0398 24.7026C54.0297 24.5558 53.9713 24.4165 53.874 24.3064C53.8343 24.2625 53.7846 24.2289 53.7292 24.2083C53.6738 24.1878 53.6143 24.1809 53.5557 24.1883C53.4373 24.2024 53.3271 24.2557 53.2423 24.3397C53.169 24.4025 53.1197 24.4891 53.103 24.5844C53.0947 24.6319 53.0976 24.6808 53.1114 24.727C53.1252 24.7733 53.1496 24.8156 53.1826 24.8507C53.2277 24.8892 53.2822 24.915 53.3405 24.9252C53.3988 24.9355 53.4588 24.9298 53.5142 24.909C53.4587 24.9484 53.3907 24.966 53.3231 24.9583C53.2555 24.9506 53.1931 24.9182 53.1478 24.8673C53.1053 24.8275 53.0719 24.7789 53.0498 24.7249C53.0278 24.6709 53.0177 24.6128 53.0201 24.5544C53.0304 24.4371 53.0849 24.3281 53.1727 24.2499C53.224 24.2021 53.2843 24.165 53.3501 24.1407C53.4158 24.1164 53.4857 24.1054 53.5557 24.1084C53.6251 24.1093 53.6936 24.1245 53.757 24.1531C53.8203 24.1818 53.8771 24.2232 53.9237 24.2748L54.4211 24.8124L54.0199 27.1426L55.139 26.094C55.2683 25.9742 55.2368 25.816 55.0528 25.6213L55.1108 25.5631L55.6994 26.1955L55.6248 26.2488Z" fill="#001E94"/>
<path d="M55.9847 29.0098L55.3928 29.4942L54.0498 28.0495L54.1078 27.9946C54.2604 28.1827 54.398 28.2226 54.519 28.1044L55.8636 26.8478L55.9349 26.6364L55.799 26.47L55.6613 26.3036L55.726 26.2437L57.0275 27.6484L56.6196 28.1094L56.5616 28.0462C56.6472 27.9328 56.7041 27.8003 56.7274 27.66C56.7265 27.5886 56.7113 27.5181 56.6829 27.4527C56.6544 27.3872 56.6132 27.3281 56.5616 27.2789L56.23 26.9144L55.401 27.6933C55.5456 27.6878 55.6897 27.7134 55.8236 27.7686C55.9574 27.8237 56.0779 27.907 56.177 28.0129C56.2914 28.1377 56.3428 28.2459 56.3129 28.3458C56.2803 28.2543 56.2296 28.1705 56.1637 28.0994C56.0593 27.9993 55.9335 27.9243 55.7959 27.8802C55.6583 27.836 55.5125 27.8239 55.3695 27.8448L55.2336 27.8564L54.8539 28.2076C54.7113 28.3424 54.645 28.4456 54.6583 28.5205C54.7083 28.6307 54.7813 28.7289 54.8722 28.8085C54.9765 28.9453 55.1174 29.0498 55.2784 29.1097C55.416 29.1413 55.6348 29.0881 55.9299 28.9549L55.9847 29.0098Z" fill="#001E94"/>
<path d="M11.0853 10.3352L10.8379 10.5835L16.389 16.1561L16.6364 15.9078L11.0853 10.3352Z" fill="#001E94"/>
<path d="M64.5879 16.1589L70.1387 10.5866L69.8917 10.3369L64.3408 15.9109L64.5879 16.1589Z" fill="#001E94"/>
<path d="M64.5831 64.0444L64.3369 64.2915L69.8915 69.8676L70.1377 69.6205L64.5831 64.0444Z" fill="#001E94"/>
<path d="M16.3894 64.0457L10.8359 69.6206L11.0833 69.8689L16.6368 64.294L16.3894 64.0457Z" fill="#001E94"/>
<path d="M13.2881 14.2813C13.2881 14.569 13.3731 14.8503 13.5323 15.0895C13.6915 15.3287 13.9178 15.5152 14.1826 15.6253C14.4474 15.7354 14.7388 15.7642 15.0198 15.708C15.3009 15.6519 15.5591 15.5134 15.7618 15.3099C15.9644 15.1065 16.1025 14.8473 16.1584 14.5651C16.2143 14.2829 16.1856 13.9905 16.0759 13.7247C15.9662 13.4588 15.7805 13.2317 15.5422 13.0718C15.3039 12.912 15.0237 12.8267 14.7371 12.8267C14.353 12.8271 13.9846 12.9805 13.713 13.2532C13.4413 13.5259 13.2885 13.8957 13.2881 14.2813Z" fill="#001E94"/>
<path d="M64.6309 14.5096C64.6312 14.7972 64.7165 15.0783 64.8759 15.3173C65.0353 15.5563 65.2617 15.7425 65.5265 15.8523C65.7913 15.9622 66.0827 15.9907 66.3636 15.9344C66.6446 15.8781 66.9027 15.7394 67.1052 15.5359C67.3076 15.3324 67.4455 15.0732 67.5013 14.7911C67.557 14.5089 67.5283 14.2165 67.4185 13.9508C67.3088 13.6851 67.1231 13.458 66.8848 13.2983C66.6465 13.1385 66.3665 13.0532 66.0799 13.0532C65.8895 13.0532 65.7009 13.0909 65.525 13.1641C65.3491 13.2373 65.1893 13.3446 65.0547 13.4799C64.9201 13.6151 64.8134 13.7757 64.7407 13.9524C64.668 14.129 64.6306 14.3184 64.6309 14.5096Z" fill="#001E94"/>
<path d="M64.6279 65.7677C64.6279 66.0554 64.7129 66.3366 64.8721 66.5758C65.0314 66.815 65.2577 67.0015 65.5225 67.1116C65.7872 67.2217 66.0786 67.2505 66.3597 67.1944C66.6408 67.1382 66.899 66.9997 67.1016 66.7963C67.3043 66.5928 67.4423 66.3336 67.4982 66.0515C67.5541 65.7693 67.5254 65.4768 67.4158 65.211C67.3061 64.9452 67.1204 64.718 66.8821 64.5581C66.6438 64.3983 66.3636 64.313 66.077 64.313C65.6927 64.313 65.3241 64.4662 65.0524 64.739C64.7806 65.0119 64.6279 65.3819 64.6279 65.7677Z" fill="#001E94"/>
<path d="M13.5957 65.6742C13.5954 65.962 13.6801 66.2434 13.8391 66.4828C13.9981 66.7223 14.2243 66.909 14.4891 67.0193C14.7538 67.1297 15.0452 67.1587 15.3264 67.1028C15.6076 67.0468 15.866 66.9084 16.0688 66.7051C16.2716 66.5017 16.4098 66.2425 16.4659 65.9603C16.5219 65.678 16.4933 65.3855 16.3837 65.1196C16.2741 64.8537 16.0883 64.6264 15.85 64.4665C15.6117 64.3066 15.3314 64.2212 15.0448 64.2212C14.6607 64.2212 14.2924 64.3742 14.0207 64.6467C13.749 64.9191 13.5961 65.2887 13.5957 65.6742Z" fill="#001E94"/>
</svg>
