<svg width="80" height="99" viewBox="0 0 80 99" fill="none" xmlns="http://www.w3.org/2000/svg">
<path d="M44.5321 93.3045C40.5984 93.3045 36.6579 91.9843 32.8216 89.3809C32.4219 89.1793 22.4935 84.1185 20.1638 81.4395C18.1717 79.1484 14.6125 69.3578 14.0062 67.6899C13.5577 67.9485 12.471 68.4995 11.3305 68.4995C10.19 68.4995 9.33005 67.9603 8.76905 66.8988C8.33234 66.0673 8.04512 65.4929 7.80157 65.0058C7.29018 63.9554 6.72276 62.9333 6.10177 61.9438C6.06985 61.8548 5.00328 57.9345 5.20316 54.6877C5.22163 54.6088 6.13704 51.881 6.38899 50.6734C6.75179 48.9299 8.67835 47.4921 10.7762 47.4014C10.8988 47.4232 12.5483 47.7928 13.9474 49.7932C13.032 45.2498 10.6301 29.1487 20.9851 22.8836C25.8561 19.9408 31.2075 18.3838 36.4698 18.3838C46.3142 18.3838 54.9661 23.5991 59.612 32.335C59.6423 32.4676 60.5224 39.0821 60.7424 41.825C60.8986 42.1609 62.4036 45.6882 62.4036 46.3802C62.417 46.3903 62.9545 48.1035 60.9877 51.1386C60.9877 51.1386 60.1898 52.6503 60.1898 53.5775C60.2704 53.9134 62.2692 62.871 60.3057 67.7016C57.7476 73.9886 55.9621 79.8875 55.3272 82.9461C54.6285 86.3205 53.3688 90.5919 51.3381 91.776C51.2289 91.8315 48.6691 93.3045 44.5321 93.3045Z" fill="white"/>
<path d="M36.4698 18.5734C46.0606 18.5734 54.7947 23.6896 59.439 32.4205C59.439 32.4205 60.3241 39.0651 60.5459 41.8265C60.5459 41.8265 62.2054 45.7014 62.2054 46.3615C62.2054 46.3615 62.7596 48.0227 60.823 51.0125C60.823 51.0125 59.9916 52.5628 59.9916 53.5588C59.9916 53.5588 62.0861 62.7801 60.1226 67.6091C57.6166 73.765 55.7925 79.7109 55.1357 82.8939C54.1934 87.4289 52.8682 90.6455 51.2389 91.5945C51.2389 91.5945 48.6623 93.1061 44.5321 93.1061C41.4079 93.1061 37.3936 92.2445 32.9324 89.2178C32.9324 89.2178 22.6429 83.9907 20.3132 81.31C18.1801 78.856 14.1086 67.389 14.1086 67.389C14.1086 67.389 12.743 68.2961 11.3271 68.2961C10.4453 68.2961 9.54332 67.9433 8.94032 66.7995C7.64531 64.3388 7.66043 64.1121 6.268 61.8345C6.268 61.8345 5.19638 57.9444 5.39626 54.6926C5.39626 54.6926 6.32175 51.9396 6.57202 50.7068C6.91802 49.0389 8.78243 47.6834 10.7711 47.5927C10.7711 47.5927 12.9412 48.0529 14.3941 50.952C14.3941 50.952 9.00751 30.3528 21.0741 23.0531C26.1231 19.9978 31.409 18.5818 36.4563 18.5801L36.4698 18.5734ZM36.4563 18.1854C31.157 18.1854 25.767 19.7525 20.8692 22.7205C10.9643 28.7101 12.6171 43.5985 13.6047 49.0255C12.2895 47.5339 10.9391 47.2215 10.8669 47.2064L10.7846 47.198H10.7678C8.58424 47.2921 6.56866 48.7987 6.19578 50.6262C5.94551 51.8237 5.03514 54.5397 5.02002 54.5666L4.99987 54.6674C4.79663 57.9477 5.83969 61.7773 5.88336 61.9403L5.92703 62.041C6.54751 63.0248 7.11438 64.0413 7.62516 65.0863C7.86871 65.575 8.15593 66.1511 8.59431 66.9826C9.18219 68.0995 10.1295 68.6891 11.3305 68.6891C12.3651 68.6891 13.3544 68.2574 13.9003 67.9685C14.6847 70.142 18.0759 79.3381 20.0159 81.5737C22.3674 84.2813 32.3311 89.3572 32.7544 89.5722C36.5806 92.174 40.558 93.5059 44.5321 93.5059C48.7228 93.5059 51.3296 92.006 51.4388 91.9422C53.5316 90.7227 54.8132 86.3993 55.522 82.9812C56.1536 79.9343 57.934 74.0489 60.4871 67.772C62.4237 63.0119 60.5643 54.3348 60.3863 53.5336C60.4064 52.7929 60.9557 51.6138 61.1707 51.214C62.9948 48.4006 62.6824 46.6555 62.5967 46.3128C62.5295 45.5284 61.3454 42.7033 60.9339 41.7408C60.7054 38.956 59.8387 32.4389 59.8303 32.3717L59.7867 32.239C55.1055 23.4343 46.3898 18.1787 36.4731 18.1787L36.4563 18.1854Z" fill="#001E94"/>
<path d="M53.9165 54.3132C53.9165 54.3132 55.2031 51.9616 59.3888 53.5556L59.6307 54.1116C59.6307 54.1116 57.9006 56.2834 53.9669 55.2874L53.9165 54.3132Z" fill="white"/>
<path d="M53.9169 54.3133L54.0849 54.4074C54.1571 54.2948 54.8407 53.2115 56.7337 53.2081C57.6233 53.229 58.5016 53.4123 59.3254 53.749L59.3959 53.5642L59.2145 53.6431L59.4581 54.1991L59.6378 54.1202L59.4849 53.9976L59.4396 54.0479C59.2061 54.2982 58.1076 55.3597 55.9493 55.3597C55.2985 55.3508 54.6514 55.2611 54.0227 55.0927L53.974 55.2825L54.1705 55.2724L54.1201 54.2999L53.9236 54.31L54.0916 54.404L53.9236 54.31L53.7271 54.3184L53.7758 55.2926V55.4387L53.9169 55.474C54.5778 55.6472 55.2577 55.7375 55.9409 55.7427C58.5645 55.7427 59.7654 54.2579 59.7839 54.231L59.8578 54.137L59.5672 53.4651L59.5336 53.3895L59.4564 53.3593C58.5932 53.0085 57.6735 52.8173 56.7421 52.7949C54.5434 52.7949 53.7556 54.1739 53.7422 54.2058L53.7153 54.2545V54.31L53.9169 54.3133Z" fill="#001E94"/>
<path d="M56.7502 54.0579C56.7504 53.8452 56.6981 53.6358 56.5979 53.4483C56.4977 53.2607 56.3527 53.1009 56.1757 52.9829C55.4224 53.1615 54.7281 53.5318 54.1602 54.0579C54.1722 54.3931 54.3139 54.7105 54.5553 54.9433C54.7966 55.1762 55.1189 55.3063 55.4543 55.3063C55.7897 55.3063 56.112 55.1762 56.3534 54.9433C56.5948 54.7105 56.7364 54.3931 56.7485 54.0579H56.7502Z" fill="#001E94"/>
<path d="M56.7505 54.0575H56.9184C56.9188 53.818 56.86 53.5821 56.7472 53.3708C56.6343 53.1595 56.471 52.9794 56.2718 52.8465L56.213 52.8062L56.1424 52.8229C55.3625 53.0097 54.6435 53.3938 54.0547 53.9382L54.0043 53.9869V54.0575C53.9976 54.253 54.0304 54.4478 54.1006 54.6304C54.1709 54.813 54.2771 54.9796 54.4131 55.1202C54.5491 55.2609 54.7119 55.3727 54.892 55.4491C55.0721 55.5255 55.2657 55.5649 55.4614 55.5649C55.657 55.5649 55.8506 55.5255 56.0307 55.4491C56.2108 55.3727 56.3737 55.2609 56.5096 55.1202C56.6456 54.9796 56.7518 54.813 56.8221 54.6304C56.8923 54.4478 56.9251 54.253 56.9184 54.0575H56.5876C56.5876 54.3573 56.4685 54.6448 56.2565 54.8568C56.0445 55.0688 55.757 55.1879 55.4572 55.1879C55.1574 55.1879 54.8698 55.0688 54.6578 54.8568C54.4458 54.6448 54.3268 54.3573 54.3268 54.0575H54.1588L54.2713 54.1767C54.8175 53.6694 55.4859 53.3123 56.2113 53.1404L56.1727 52.9825L56.082 53.1186C56.237 53.2213 56.3642 53.3608 56.4521 53.5246C56.54 53.6885 56.586 53.8715 56.5859 54.0575H56.7505Z" fill="#001E94"/>
<path d="M21.3647 60.0659C21.3647 60.0659 21.7376 60.3783 22.2566 60.8839C22.5086 61.1426 22.8176 61.4298 23.125 61.7624C23.4324 62.0949 23.7801 62.4225 24.116 62.7702C24.4519 63.1178 24.7677 63.4756 25.0734 63.8048C25.3791 64.134 25.6395 64.4666 25.878 64.7387C26.3399 65.2947 26.6237 65.6944 26.6237 65.6944C26.6237 65.6944 26.2408 65.3988 25.7033 64.9151C25.4396 64.6682 25.1154 64.3927 24.7963 64.0752L23.7885 63.0675C23.4643 62.7097 23.1267 62.3637 22.8328 62.0193C22.5388 61.675 22.2919 61.3341 22.0668 61.0519C21.6318 60.4674 21.3647 60.0659 21.3647 60.0659Z" fill="#001E94"/>
<path d="M8.54767 59.3589C8.54767 59.3589 6.33894 56.4111 6.70006 54.036C7.06119 51.661 8.09753 50.628 8.54767 49.8369C8.90712 49.1835 10.1282 49.1953 10.7195 49.59C11.3107 49.9847 13.6689 54.3989 14.1863 54.9935C14.7036 55.588 14.8581 57.6574 14.1863 57.8035C13.6976 57.8859 13.1985 57.8859 12.7098 57.8035L12.6359 59.5134C12.6359 59.5134 14.8548 60.8034 14.6297 61.0738C14.4046 61.3442 14.6297 64.2651 11.8935 64.1089C11.8935 64.1089 10.8152 63.9913 10.9647 62.3671C11.1142 60.7429 10.5213 60.4422 10.1249 59.3589C9.72847 58.2755 9.23801 55.0321 10.224 54.0411C10.5141 53.7546 10.8701 53.5435 11.2607 53.4264C11.6513 53.3093 12.0647 53.2897 12.4646 53.3692" fill="white"/>
<path d="M8.54781 59.3587C7.92722 58.5775 7.41218 57.7179 7.01597 56.8023C6.63973 55.8835 6.34411 54.8623 6.53055 53.8108C6.60827 53.3102 6.72738 52.817 6.88663 52.3361C7.0533 51.8522 7.26473 51.3849 7.51818 50.9403C7.76677 50.4851 8.05399 50.1005 8.29922 49.657C8.38031 49.5189 8.48825 49.3984 8.61667 49.3026C8.74274 49.2095 8.88276 49.1369 9.03155 49.0876C9.59189 48.9081 10.199 48.9434 10.7347 49.1867C10.8175 49.2244 10.8958 49.2711 10.9682 49.3261L11.1093 49.4572C11.2112 49.5632 11.3066 49.6754 11.3948 49.7931C11.7089 50.208 11.9693 50.6329 12.2346 51.0562L13.7732 53.6059C14.013 54.0213 14.2777 54.4218 14.566 54.8052C14.9406 55.3947 14.9909 55.8952 15.0447 56.4495C15.0645 56.7303 15.0493 57.0124 14.9993 57.2894C14.9684 57.455 14.9118 57.6149 14.8314 57.763C14.7767 57.8736 14.6989 57.9712 14.6033 58.0491C14.5077 58.1271 14.3964 58.1836 14.2771 58.2148C13.7323 58.3158 13.174 58.3203 12.6277 58.2283L13.1467 57.8134L13.0644 59.5233L12.8527 59.1319C13.229 59.3604 13.5918 59.5922 13.9529 59.8424C14.1343 59.9684 14.314 60.0977 14.4938 60.2422C14.5892 60.3173 14.6806 60.3975 14.7675 60.4824L14.9137 60.6503C14.9696 60.7142 15.0105 60.7897 15.0334 60.8713C15.0564 60.953 15.0608 61.0387 15.0464 61.1223C14.8868 61.5036 14.8935 61.9453 14.7457 62.3955C14.625 62.8698 14.3988 63.3108 14.0839 63.6855C13.7415 64.0698 13.2825 64.3312 12.7772 64.4295C12.5398 64.4797 12.2974 64.5011 12.0549 64.4934H11.8769C11.789 64.4851 11.7026 64.4653 11.6199 64.4346C11.4831 64.3849 11.3542 64.3159 11.2369 64.2297C10.7599 63.8702 10.6054 63.2857 10.6003 62.8154C10.5886 62.5567 10.6255 62.3535 10.6323 62.1435C10.6514 61.9447 10.6514 61.7444 10.6323 61.5456C10.5991 61.1582 10.4846 60.7822 10.2963 60.4421C10.0826 60.0516 9.9098 59.6402 9.78067 59.2142C9.56254 58.3657 9.44971 57.4936 9.44474 56.6175C9.43924 56.1793 9.4724 55.7414 9.54384 55.3091C9.60461 54.86 9.77795 54.4336 10.0477 54.0695C10.3508 53.7488 10.7339 53.5147 11.1576 53.3913C11.5812 53.2679 12.0301 53.2596 12.458 53.3674C12.0445 53.3051 11.6218 53.3496 11.2303 53.4966C10.8387 53.6435 10.4912 53.8882 10.2207 54.2072C10.0051 54.5519 9.87923 54.9452 9.85457 55.351C9.81761 55.7668 9.81761 56.185 9.85457 56.6007C9.91356 57.4342 10.0634 58.2587 10.3014 59.0597C10.4393 59.4464 10.6166 59.8179 10.8305 60.1683C11.0692 60.5722 11.2219 61.0211 11.2789 61.4868C11.3083 61.7129 11.3168 61.9411 11.3041 62.1687C11.3041 62.3854 11.2823 62.6088 11.3041 62.7768C11.3028 62.9359 11.336 63.0934 11.4016 63.2384C11.4671 63.3834 11.5634 63.5125 11.6837 63.6166L11.8651 63.7107L11.9189 63.7275H12.0616C12.2468 63.7314 12.4318 63.7128 12.6126 63.672C12.9533 63.6039 13.2615 63.4236 13.4877 63.1597C13.7187 62.8715 13.8823 62.5352 13.9664 62.1755C14.0839 61.8127 14.0772 61.3675 14.2334 60.9577C14.2217 61.1979 14.2788 61.1458 14.2485 61.1408L14.183 61.0719L13.9714 60.8905C13.8152 60.7696 13.6472 60.652 13.4675 60.5361C13.1316 60.306 12.762 60.0826 12.4043 59.8727C12.3372 59.8324 12.2821 59.7748 12.2449 59.706C12.2077 59.6371 12.1896 59.5595 12.1926 59.4813L12.2615 57.7798C12.2659 57.6634 12.3163 57.5534 12.4016 57.4741C12.4869 57.3947 12.6002 57.3525 12.7167 57.3565H12.7654H12.7805C13.2121 57.4353 13.654 57.4404 14.0873 57.3717C13.9932 57.4388 14.136 57.3213 14.1578 57.1231C14.1979 56.9145 14.212 56.7018 14.1998 56.4898C14.1926 56.0762 14.0934 55.6694 13.9092 55.299C13.6064 54.888 13.3299 54.4582 13.0812 54.0124L11.5695 51.4543C11.3175 51.0343 11.0538 50.6144 10.7885 50.2298L10.6205 49.9879L10.4962 49.8636L10.4105 49.8116C10.2282 49.7202 10.0307 49.6633 9.8277 49.6436C9.40779 49.6083 8.97108 49.6873 8.79304 49.993C8.54277 50.4078 8.22364 50.8109 7.98177 51.2174C7.72925 51.6245 7.51502 52.0541 7.34182 52.5007C7.17344 52.9539 7.04255 53.4202 6.95046 53.8948C6.72707 54.8035 6.91855 55.7945 7.2276 56.7132C7.56775 57.6415 8.01057 58.5288 8.54781 59.3587Z" fill="#001E94"/>
<path d="M30.0039 40.4259C30.3679 40.1326 30.7518 39.8649 31.1528 39.6247C31.5106 39.4013 31.9389 39.1628 32.4058 38.9193C32.8727 38.6757 33.3901 38.4574 33.9074 38.239C34.4432 38.071 34.9639 37.8493 35.4779 37.7217C35.7315 37.6511 35.9818 37.5991 36.2186 37.5537C36.4397 37.4962 36.6641 37.4519 36.8905 37.421C37.7303 37.327 38.2879 37.3018 38.2879 37.3018C38.2879 37.3018 37.7471 37.4697 36.9442 37.6662C36.5411 37.762 36.0926 37.9568 35.6005 38.0962C35.1084 38.2356 34.5927 38.4691 34.0888 38.6572C33.5849 38.8454 33.0642 39.0687 32.5872 39.272C32.1102 39.4752 31.66 39.6617 31.2888 39.8498L30.0039 40.4259Z" fill="#001E94"/>
<path d="M28.9604 42.3792C29.6439 41.9677 30.3493 41.5937 31.0734 41.2589C31.8082 40.888 32.5736 40.5812 33.3611 40.3418C33.812 40.2246 34.2706 40.1393 34.7334 40.0865C35.2071 40.0176 35.6824 39.989 36.1577 39.9437C38.0608 39.7757 39.9672 39.7421 41.3966 39.7488C42.8259 39.7556 43.7766 39.8244 43.7766 39.8244L41.4016 39.9773C39.9789 40.0646 38.0843 40.1906 36.1947 40.3636L34.7972 40.5215C34.3487 40.5642 33.9037 40.6378 33.4653 40.7415C32.6254 40.9683 31.8545 41.284 31.1893 41.5259L28.9604 42.3792Z" fill="#001E94"/>
<path d="M32.6958 40.8743C33.0699 40.6416 33.4594 40.4346 33.8615 40.2545C34.2226 40.0866 34.6375 39.885 35.096 39.6952L36.559 39.1745C37.0629 39.0301 37.5668 38.8386 38.0505 38.7412C38.5343 38.6437 38.9928 38.5598 39.3825 38.4825C40.1635 38.3464 40.6876 38.291 40.6876 38.291C40.6876 38.291 40.1837 38.4875 39.4396 38.726C39.0617 38.8369 38.6266 38.9864 38.1547 39.1107C37.6827 39.235 37.1939 39.4349 36.6967 39.5961C35.6889 39.8951 34.7047 40.236 33.9572 40.4829L32.6958 40.8743Z" fill="#001E94"/>
<path d="M56.5738 47.4302C56.0699 48.1558 55.5509 48.8696 55.0621 49.5952C54.8253 49.9631 54.5683 50.3175 54.3516 50.6887C54.2441 50.8735 54.1333 51.0599 54.0476 51.2463C53.9626 51.4088 53.9025 51.5832 53.8696 51.7637V51.7334C53.9082 53.2703 54.0459 54.824 54.2324 56.3592C54.3919 57.9011 54.6304 59.4329 54.9378 60.948C55.0856 61.7072 55.2614 62.4602 55.4652 63.2071C55.5694 63.5783 55.6634 63.9546 55.7894 64.3207L56.1522 65.4394C56.3638 66.212 56.4881 67.035 56.3017 67.8497C56.2115 68.2636 56.0046 68.6431 55.7054 68.9431C55.4017 69.2287 55.028 69.4292 54.622 69.5243H54.6338C53.6143 69.919 52.5578 70.4145 51.8389 71.2896C52.1687 70.8264 52.5809 70.4279 53.0549 70.1138C53.5232 69.7886 54.0222 69.5102 54.5448 69.2824H54.5532C54.9087 69.1943 55.2309 69.0044 55.48 68.7359C55.7292 68.4673 55.8945 68.1319 55.9557 67.7707C56.0917 67.0485 55.9557 66.2775 55.7189 65.567L55.3157 64.4736C55.1713 64.1074 55.0604 63.7295 54.9378 63.3549C54.6993 62.6058 54.4888 61.8477 54.3063 61.0807C54.1181 60.3164 53.9703 59.5438 53.8427 58.7695C53.715 57.9952 53.5991 57.2158 53.5068 56.4365C53.3439 54.8741 53.2632 53.3043 53.2649 51.7334V51.7032C53.3186 51.451 53.4146 51.2096 53.5487 50.9894C53.6613 50.7828 53.7906 50.598 53.9166 50.4116C54.1721 50.0445 54.4462 49.6907 54.7379 49.3517C55.3107 48.6748 55.9237 48.0332 56.5738 47.4302Z" fill="#001E94"/>
<path d="M49.7817 70.1134C49.8991 70.028 49.9984 69.9201 50.0739 69.796C50.1212 69.7405 50.1483 69.6705 50.1508 69.5976C50.1532 69.5247 50.1309 69.4531 50.0874 69.3946C49.9967 69.2484 49.8035 69.2904 49.57 69.3072C49.0477 69.4139 48.5402 69.5831 48.0583 69.8111C47.7839 69.9252 47.5193 70.0618 47.2672 70.2193C47.1217 70.325 46.9558 70.3993 46.7801 70.4376C46.6092 70.4755 46.4345 70.4941 46.2594 70.4931C45.913 70.4908 45.5705 70.42 45.2516 70.2848C44.9316 70.1554 44.6585 69.9316 44.4689 69.6431C44.378 69.5049 44.31 69.3529 44.2674 69.193C44.2461 69.0409 44.2327 68.8879 44.2271 68.7345C44.2443 68.4629 44.3009 68.1953 44.395 67.94C44.4617 67.7271 44.5525 67.5226 44.6654 67.3303C44.7417 67.1789 44.8293 67.0334 44.9275 66.8952L45.1777 66.5308L44.998 66.9322C44.9207 67.0801 44.8556 67.234 44.8032 67.3924C44.7269 67.5914 44.6635 67.795 44.6134 68.0021C44.5515 68.2394 44.5233 68.4843 44.5294 68.7294C44.5445 68.8537 44.5714 68.9797 44.5966 69.1057C44.6638 69.2148 44.6738 69.3526 44.7645 69.4416C44.9208 69.6656 45.1426 69.8357 45.3994 69.9287C45.6724 70.0345 45.9633 70.0864 46.2561 70.0815C46.5718 70.0815 46.802 70.0698 47.0589 69.8934C47.3334 69.7312 47.6211 69.5924 47.9189 69.4785C48.4376 69.268 48.9842 69.1339 49.5415 69.0805C49.6656 69.0719 49.7902 69.0787 49.9127 69.1006C50.0638 69.1527 50.1478 69.1796 50.21 69.3173C50.2562 69.4015 50.2735 69.4985 50.2593 69.5935C50.245 69.6885 50.2 69.7761 50.131 69.843C50.0376 69.9595 49.9179 70.0522 49.7817 70.1134Z" fill="#001E94"/>
<path d="M52.642 77.9155C52.5665 78.0981 52.4737 78.2731 52.3648 78.4379C52.0777 78.8923 51.6926 79.2768 51.2378 79.5633C50.9194 79.7628 50.5651 79.8981 50.1947 79.9613C49.8055 80.0239 49.4129 80.0626 49.019 80.0772C48.1993 80.1108 47.3611 80.0672 46.5264 80.0537C46.1098 80.0403 45.6949 80.0352 45.2868 80.0386L44.0673 80.0537C43.654 80.0304 43.2453 79.9542 42.8513 79.827C42.509 79.7226 42.1773 79.5865 41.8603 79.4205C41.3813 79.1805 40.958 78.843 40.6173 78.4295C40.528 78.3119 40.4504 78.1859 40.3855 78.0533L40.3184 77.9155C40.4446 78.0605 40.586 78.1917 40.74 78.3069C41.1409 78.595 41.5855 78.8167 42.0568 78.9636C42.3683 79.0605 42.6851 79.139 43.0058 79.1988C43.3491 79.2593 43.697 79.2896 44.0455 79.2895C44.405 79.2727 44.8517 79.2055 45.2666 79.1971C45.6815 79.1887 46.1199 79.1736 46.5465 79.1853C47.4014 79.2122 48.248 79.2844 49.0139 79.3247C49.3767 79.3449 49.7983 79.3567 50.1191 79.3449C50.4288 79.3303 50.7335 79.2615 51.0194 79.1417C51.6447 78.8595 52.1986 78.4405 52.6403 77.9155H52.642Z" fill="#001E94"/>
<path d="M39.1878 83.3103C38.9525 83.2165 38.725 83.1042 38.5076 82.9743C38.0321 82.6964 37.5824 82.3765 37.1638 82.0186C36.9404 81.8137 36.7322 81.5903 36.5323 81.3921C36.3324 81.1939 36.1964 80.952 36.0553 80.774C35.9242 80.5559 35.8091 80.3285 35.7109 80.0938C35.7109 80.0938 35.9427 80.3037 36.2434 80.6178C36.5793 80.9117 36.9942 81.3165 37.4494 81.6911C37.6694 81.8859 37.881 82.0909 38.0977 82.2655C38.3144 82.4402 38.4891 82.6334 38.6587 82.7778C38.9779 83.0818 39.1878 83.3103 39.1878 83.3103Z" fill="#001E94"/>
<path d="M36.9525 82.4338C36.9525 82.4338 36.7845 82.3431 36.5578 82.1919C36.331 82.0407 36.0321 81.8173 35.7415 81.5923C35.4509 81.3672 35.1805 81.1169 34.984 80.9204C34.7874 80.7239 34.6665 80.5845 34.6665 80.5845C34.6665 80.5845 34.8345 80.6752 35.0612 80.8263C35.288 80.9775 35.587 81.1992 35.8775 81.426C36.1681 81.6527 36.4385 81.903 36.6334 82.0978C36.8282 82.2927 36.9525 82.4338 36.9525 82.4338Z" fill="#001E94"/>
<path d="M35.2455 81.6978C35.1835 81.695 35.1217 81.6877 35.0608 81.6759C34.8047 81.6234 34.5657 81.508 34.3654 81.34L34.2344 81.209C34.2964 81.2117 34.3582 81.219 34.4191 81.2308C34.5462 81.2598 34.6699 81.3014 34.7887 81.3551C34.9038 81.4151 35.0129 81.4859 35.1145 81.5667L35.2455 81.6978Z" fill="#001E94"/>
<path d="M41.9731 80.5359C41.9731 80.5359 48.8681 78.6883 51.3792 80.682L41.9731 80.5359Z" fill="#001E94"/>
<path d="M35.5981 76.157C35.5981 76.157 36.789 75.9302 38.6047 75.7572C39.51 75.6514 40.5733 75.6111 41.7171 75.5892C42.8609 75.5674 44.0686 75.4985 45.2712 75.5002H47.0769C47.6765 75.5137 48.2526 75.5002 48.8355 75.5389C49.9726 75.606 51.0274 75.7337 51.9361 75.8563C52.1645 75.8966 52.3795 75.9134 52.5911 75.9672C52.7733 76.018 52.9584 76.0579 53.1454 76.0864C53.4451 76.096 53.7398 76.0082 53.9853 75.8362C54.2164 75.688 54.4218 75.503 54.5933 75.2886C54.5933 75.2886 54.5547 75.3541 54.4791 75.475C54.3661 75.6515 54.23 75.8119 54.0743 75.9521C53.8204 76.187 53.4965 76.3321 53.1522 76.3653L51.9042 76.3065L48.8136 76.2662C47.7 76.2662 46.4739 76.2914 45.2696 76.2662C44.0653 76.241 42.8525 76.1973 41.7137 76.157L40.0895 76.0999L38.6282 76.1099C37.7229 76.0915 36.9687 76.1301 36.4447 76.1385L35.5981 76.157Z" fill="#001E94"/>
<path d="M46.9951 70.1591C46.9951 70.1591 47.331 70.3741 48.0029 70.2867C48.6748 70.1994 50.1075 69.8131 50.1075 69.8131C50.1075 69.8131 50.8936 68.3467 46.9951 70.1591Z" fill="#001E94"/>
<path d="M56.3286 53.5557C56.3286 53.6357 56.3049 53.714 56.2604 53.7806C56.2159 53.8471 56.1527 53.899 56.0788 53.9297C56.0048 53.9603 55.9234 53.9683 55.8449 53.9527C55.7663 53.9371 55.6942 53.8985 55.6376 53.8419C55.581 53.7853 55.5424 53.7132 55.5268 53.6347C55.5112 53.5561 55.5192 53.4747 55.5499 53.4008C55.5805 53.3268 55.6324 53.2636 55.699 53.2191C55.7655 53.1746 55.8438 53.1509 55.9238 53.1509C56.0312 53.1509 56.1342 53.1935 56.2101 53.2694C56.286 53.3454 56.3286 53.4483 56.3286 53.5557Z" fill="white"/>
<path d="M56.3559 53.5605V53.673C56.3539 53.7315 56.3376 53.7886 56.3083 53.8393C56.279 53.89 56.2376 53.9327 56.1879 53.9636L55.9712 54.0526C55.8897 54.0663 55.8059 54.057 55.7293 54.0257L55.5026 53.8292C55.432 53.7486 55.4505 53.6528 55.4539 53.5437L55.5597 53.3219L55.7277 53.154L55.9662 53.1069L56.156 53.1859C56.2013 53.2151 56.2398 53.2539 56.2688 53.2994C56.2978 53.3449 56.3166 53.3961 56.3239 53.4496L56.3458 53.5638L56.3559 53.5605ZM56.3021 53.5605L56.2803 53.4614L56.1123 53.2799L55.9443 53.2262H55.768C55.6986 53.2473 55.6396 53.2933 55.602 53.3553C55.5645 53.4173 55.5513 53.4909 55.5647 53.5621L55.6638 53.715L55.773 53.8174L55.941 53.8443L56.077 53.804L56.245 53.6478L56.2904 53.5453L56.3021 53.5605Z" fill="#001E94"/>
<path d="M52.6418 76.1571C52.5013 76.0532 52.3524 75.9611 52.1967 75.8817C52.0196 75.7895 51.8361 75.7104 51.6475 75.6448C51.4062 75.5555 51.1593 75.482 50.9084 75.4248C50.6139 75.3524 50.3156 75.2964 50.0149 75.2568L49.0071 75.1896L46.7563 75.1359C46.3751 75.1225 45.9887 75.0821 45.6175 75.0922L44.5275 75.1241C44.1874 75.1154 43.8473 75.1373 43.5113 75.1896L42.6076 75.3307C41.4856 75.5676 40.7314 75.7221 40.7314 75.7221L41.2353 75.5357L41.8064 75.3324C42.0509 75.2382 42.3005 75.1574 42.5539 75.0905L43.471 74.8705C43.8108 74.784 44.16 74.74 44.5107 74.7395L45.6327 74.679C46.0156 74.6605 46.3952 74.6891 46.7782 74.6925L49.0272 74.805C49.3968 74.8285 49.7444 74.889 50.0753 74.9377C50.385 75.0017 50.6906 75.0835 50.9907 75.1829C51.4399 75.3273 51.8654 75.5367 52.2538 75.8044C52.3959 75.9072 52.526 76.0255 52.6418 76.1571Z" fill="#001E94"/>
<path d="M59.2478 53.6247C59.1747 53.4515 59.0905 53.2832 58.9959 53.1208C58.9025 52.9547 58.7897 52.8002 58.66 52.6606C58.491 52.5225 58.3003 52.4135 58.0956 52.3381C57.5196 52.1003 56.9295 51.8983 56.3286 51.7334C56.9495 51.8444 57.5627 51.9947 58.1645 52.1835C58.3982 52.2473 58.6189 52.3519 58.8162 52.4926C58.9728 52.6355 59.1115 52.7968 59.2294 52.973C59.346 53.1391 59.4509 53.3131 59.5435 53.4937L59.2478 53.6247Z" fill="#001E94"/>
<path d="M55.9322 51.5654C55.7983 51.6407 55.6693 51.7243 55.5459 51.8157C55.2657 52.0011 55.0006 52.2084 54.7531 52.4355C54.6145 52.5462 54.4838 52.6663 54.3617 52.7949L54.0678 53.1476L53.7839 53.4836L53.4614 53.2451L53.8142 52.9209C53.9183 52.8235 54.0409 52.7109 54.1736 52.585C54.3164 52.4698 54.4668 52.3643 54.6237 52.2692C54.9045 52.0747 55.1998 51.9023 55.5072 51.7535C55.645 51.6824 55.7869 51.6196 55.9322 51.5654Z" fill="#001E94"/>
<path d="M59.8948 54.4438C59.8797 54.6001 59.8482 54.7544 59.8007 54.9041C59.6951 55.2357 59.5369 55.5482 59.3321 55.8295C59.1264 56.1106 58.8735 56.3539 58.5846 56.5484C58.3394 56.6946 58.1748 56.7785 58.1748 56.7785C58.1748 56.7785 58.3109 56.6425 58.5107 56.4628C58.6262 56.3582 58.7345 56.2459 58.8349 56.1268C58.9588 55.9992 59.0712 55.8609 59.1708 55.7136C59.4602 55.3196 59.7031 54.8935 59.8948 54.4438Z" fill="#001E94"/>
<path d="M59.8947 55.5479C59.8346 55.6914 59.7615 55.8291 59.6764 55.9594C59.491 56.2477 59.2704 56.5118 59.0196 56.7454C58.7638 56.9758 58.4758 57.1676 58.1647 57.3148C57.8993 57.4156 57.7246 57.4677 57.7246 57.4677C57.7246 57.4677 57.8808 57.3602 58.1109 57.2191C58.2302 57.1536 58.3444 57.036 58.4838 56.9436C58.624 56.8389 58.7586 56.7267 58.8869 56.6077C59.2438 56.2749 59.5803 55.921 59.8947 55.5479Z" fill="#001E94"/>
<path d="M53.8462 56.2197L54.2779 56.3524C54.5348 56.433 54.8674 56.5557 55.2101 56.6514C55.378 56.7068 55.546 56.7807 55.7039 56.8194C55.8618 56.858 56.0146 56.9017 56.144 56.9353C56.3993 57.0125 56.5739 57.0763 56.5739 57.0763C56.5739 57.0763 56.3959 57.0763 56.1238 57.0444C55.9894 57.026 55.8299 57.0142 55.6619 56.984C55.4939 56.9537 55.326 56.8882 55.1496 56.8412C54.8322 56.7416 54.5251 56.6116 54.2325 56.4532C54.0979 56.3854 53.9688 56.3073 53.8462 56.2197Z" fill="#001E94"/>
<path d="M53.8462 51.0225C54.728 50.861 55.5707 50.532 56.3287 50.0533C57.528 49.2773 58.9876 49.4167 59.6376 49.4823C60.2876 49.5478 61.7355 50.0533 61.7355 50.0533L62.2058 46.3682C61.5146 45.8597 60.7288 45.4943 59.8946 45.2932C58.5072 44.964 56.2817 47.0417 53.8462 51.0225Z" fill="#001E94"/>
<path d="M60.1319 67.6211C60.0457 67.8702 59.9378 68.1114 59.8094 68.3417C59.6866 68.5828 59.5509 68.8171 59.403 69.0438C59.235 69.2856 59.0469 69.5477 58.8638 69.7979C58.5076 70.2545 58.1107 70.6778 57.678 71.0627C57.3303 71.3818 57.0767 71.5666 57.0767 71.5666C57.0767 71.5666 57.2446 71.2878 57.5134 70.9082C57.6578 70.7217 57.809 70.495 57.9971 70.2733C58.1975 70.0445 58.3832 69.8033 58.5531 69.551C58.9428 69.0673 59.3307 68.5819 59.6213 68.219L60.1319 67.6211Z" fill="#001E94"/>
<path d="M59.0345 68.0864C58.928 68.3374 58.808 68.5824 58.6751 68.8204C58.3858 69.3437 58.0644 69.8486 57.7127 70.3321L57.1231 71.0846C56.9414 71.299 56.7461 71.5015 56.5386 71.691C56.1791 72.0269 55.9238 72.2284 55.9238 72.2284C55.9238 72.2284 56.0918 71.9379 56.3723 71.5431C56.6528 71.1484 57.024 70.6277 57.3952 70.0986C57.5951 69.8467 57.795 69.5948 57.9696 69.3445C58.1443 69.0942 58.3392 68.8893 58.4903 68.6978C58.8061 68.3249 59.0345 68.0864 59.0345 68.0864Z" fill="#001E94"/>
<path d="M34.4123 49.5494C30.5709 48.9162 28.9904 49.9693 28.4126 50.0533C28.4126 50.0533 31.3335 45.8424 32.8435 45.577L32.1145 46.7864C32.1145 46.7864 33.5187 45.4628 34.3787 45.6811C35.2387 45.8995 35.8131 44.8934 38.9742 45.656C40.7227 46.0775 42.8374 46.0691 43.9746 45.9919C43.9746 45.9919 46.363 45.3368 46.5293 44.6885L46.6318 45.9818C46.7477 47.208 46.3277 48.8523 45.5736 49.4856C45.5736 49.4906 39.4177 50.3758 34.4123 49.5494Z" fill="#001E94"/>
<path d="M45.6265 50.458C45.6265 50.458 45.6802 50.3976 45.7726 50.2901C45.865 50.1826 45.9826 50.0331 46.1354 49.8668L46.6393 49.2957C46.7938 49.069 47.0189 48.8825 47.1717 48.639C47.3511 48.4238 47.5193 48.1995 47.6756 47.9671C47.8251 47.742 48.0116 47.5522 48.1174 47.3574C48.2617 47.1384 48.4187 46.9281 48.5877 46.7275C48.5951 46.9971 48.5799 47.2668 48.5423 47.5338C48.4967 47.8075 48.4095 48.0725 48.2837 48.3198C48.2275 48.4662 48.1554 48.6059 48.0687 48.7364L47.7882 49.1311C47.4188 49.5979 46.9477 49.9741 46.4109 50.2313C46.1631 50.348 45.8983 50.4246 45.6265 50.458Z" fill="#001E94"/>
<path d="M46.4106 51.0228C46.5485 50.8722 46.6948 50.7298 46.849 50.5961C47.1831 50.3063 47.5336 50.036 47.8988 49.7865C48.2688 49.5421 48.6518 49.3178 49.046 49.1146C49.2288 49.0229 49.4167 48.9416 49.6087 48.8711C49.4712 49.0224 49.3248 49.1655 49.1703 49.2994C48.5048 49.8839 47.7663 50.3796 46.9733 50.7742C46.7908 50.8679 46.6029 50.9509 46.4106 51.0228Z" fill="#001E94"/>
<path d="M51.3726 51.9652C51.3726 51.9652 51.6211 51.8157 51.9302 51.5957C52.0864 51.4731 52.2661 51.3656 52.4526 51.2195C52.639 51.0733 52.8389 50.944 53.0321 50.7911C53.2454 50.6652 53.4251 50.4905 53.6233 50.3612C53.8215 50.2318 54.0062 50.1025 54.1675 49.9883C54.3601 49.8619 54.5617 49.7497 54.7705 49.6523C54.7001 49.8748 54.609 50.0902 54.4984 50.2957C54.3933 50.5075 54.2562 50.7018 54.0919 50.8718C53.9173 51.0798 53.7176 51.2654 53.4973 51.4244C53.2775 51.5891 53.0369 51.7241 52.7818 51.8258C52.5596 51.9217 52.3249 51.9857 52.0847 52.0156C51.9118 52.0358 51.737 52.0358 51.564 52.0156C51.498 52.0086 51.4335 51.9916 51.3726 51.9652Z" fill="#001E94"/>
<path d="M43.0911 53.4904C43.0911 53.4904 41.3913 52.4826 40.5397 51.8813C40.5397 51.8813 35.3547 51.0616 31.7568 53.2133C31.7568 53.2133 32.8956 54.6729 34.4258 54.8929C35.956 55.1129 43.5228 55.2775 43.7462 54.6023C43.7462 54.5889 43.9545 54.0161 43.0911 53.4904Z" fill="white"/>
<path d="M43.0917 53.49L43.1841 53.3354C43.1841 53.3354 42.7608 53.0818 42.23 52.7543C41.6993 52.4268 41.0627 52.0253 40.6428 51.7331L40.5689 51.7028C39.7774 51.5946 38.9792 51.5424 38.1804 51.5466C36.3328 51.5466 33.7545 51.8103 31.665 53.0583L31.5811 53.1792L31.6146 53.3237C31.6298 53.3338 32.7719 54.8354 34.4012 55.0655C35.1335 55.1679 37.1407 55.257 39.1227 55.257C40.2648 55.257 41.3936 55.2267 42.2603 55.1495C42.6216 55.1232 42.9807 55.0727 43.3352 54.9983C43.4561 54.9716 43.5738 54.9322 43.6863 54.8807C43.7381 54.8599 43.7853 54.829 43.8251 54.7898C43.8649 54.7505 43.8965 54.7038 43.9181 54.6523L43.7501 54.5952L43.9181 54.6556C43.9404 54.5833 43.9512 54.5079 43.95 54.4322C43.95 54.1652 43.8123 53.71 43.1874 53.3371L43.0934 53.49L42.9993 53.6445C43.5385 53.9804 43.5838 54.2794 43.5905 54.4322L43.5821 54.5162V54.5347H43.5939H43.5821H43.5939H43.5821L43.6359 54.5515L43.5889 54.5196V54.5347L43.6426 54.5515L43.5956 54.5196C43.4486 54.6013 43.2872 54.6538 43.1202 54.6741C42.3123 54.8303 40.7351 54.8908 39.1378 54.8908C37.1726 54.8908 35.1537 54.8001 34.465 54.7027C33.7909 54.5796 33.1629 54.276 32.6476 53.8242C32.4561 53.6687 32.2754 53.5004 32.1068 53.3203L31.9623 53.1524L31.9153 53.0952L31.7725 53.2061L31.8649 53.3606C33.8587 52.1664 36.3848 51.901 38.1955 51.901C38.8842 51.901 39.4687 51.9397 39.8752 51.9766C40.2816 52.0136 40.5218 52.0522 40.5218 52.0522L40.5504 51.8742L40.4479 52.022C41.3096 52.6216 43.0077 53.6378 43.0094 53.6395L43.0917 53.49Z" fill="#001E94"/>
<path d="M34.4329 54.8855C34.4329 54.8855 32.4174 53.614 32.8944 52.833C33.3714 52.0519 39.5441 51.9797 40.1051 52.3559C40.6661 52.7322 43.0982 53.4897 43.0982 53.4897C43.0982 53.4897 41.6252 51.5464 39.7977 51.0223C39.7977 51.0223 34.9822 50.8863 32.8944 51.7261L30.6772 52.9505C30.6772 52.9505 33.1178 54.7813 34.4329 54.8855Z" fill="#001E94"/>
<path d="M35.1572 53.4028C35.1572 53.7682 35.2656 54.1254 35.4686 54.4293C35.6716 54.7331 35.9602 54.9699 36.2978 55.1098C36.6354 55.2496 37.0069 55.2862 37.3653 55.2149C37.7237 55.1436 38.0529 54.9676 38.3113 54.7092C38.5697 54.4509 38.7457 54.1216 38.817 53.7632C38.8882 53.4048 38.8517 53.0333 38.7118 52.6957C38.572 52.3581 38.3352 52.0696 38.0313 51.8666C37.7275 51.6635 37.3703 51.5552 37.0048 51.5552C36.5148 51.5552 36.0449 51.7498 35.6984 52.0963C35.3519 52.4428 35.1572 52.9128 35.1572 53.4028Z" fill="#001E94"/>
<path d="M29.394 52.9507C29.9923 52.4724 30.6194 52.0315 31.2719 51.6305C31.9424 51.2124 32.6477 50.8528 33.3798 50.5555C33.8033 50.3921 34.2458 50.2832 34.6967 50.2313C35.1586 50.1742 35.6104 50.144 36.0723 50.1154C36.9911 50.0634 37.9199 50.0802 38.7732 50.107C39.5612 50.1308 40.3468 50.2071 41.1247 50.3355C41.6784 50.4133 42.2219 50.5513 42.7456 50.747C42.8916 50.8001 43.0326 50.8659 43.1672 50.9435L43.3133 51.0224L43.1571 50.9653C43.015 50.9067 42.8684 50.8595 42.7187 50.8242C42.1853 50.6934 41.6421 50.6064 41.0945 50.5639C40.4226 50.4917 39.6181 50.4766 38.7665 50.4547C37.9149 50.4329 37.0012 50.4682 36.0925 50.5001C35.6407 50.5185 35.1788 50.5387 34.7488 50.5841C34.3209 50.6254 33.9 50.7202 33.4957 50.8662C32.7641 51.1184 32.0559 51.4343 31.3794 51.8102C30.1633 52.4485 29.394 52.9507 29.394 52.9507Z" fill="#001E94"/>
<path d="M47.1059 54.4438C47.2401 54.5856 47.328 54.7649 47.3578 54.9578C47.3738 55.0765 47.3636 55.1973 47.3279 55.3116C47.2923 55.426 47.2319 55.5311 47.1512 55.6196C46.9515 55.8337 46.7197 56.0156 46.4643 56.1588C45.8487 56.5067 45.2041 56.8006 44.5377 57.0372C44.1799 57.1766 43.8071 57.306 43.4258 57.4336L42.287 57.8149C41.9287 57.9521 41.5899 58.1356 41.2792 58.3608C40.9567 58.5758 40.646 58.8143 40.3319 59.041C39.7572 59.4737 39.1131 59.8054 38.4271 60.0219C37.9372 60.1478 37.4298 60.1915 36.9255 60.1513L36.3662 60.0656L36.9255 60.0421C37.0935 60.0135 37.3152 60.0085 37.552 59.9497C37.8156 59.892 38.0744 59.8145 38.3264 59.7179C38.9473 59.4518 39.5208 59.0864 40.0245 58.6362C40.3184 58.4011 40.6241 58.1441 40.955 57.8989C41.298 57.6406 41.6735 57.4288 42.072 57.269C42.4801 57.101 42.853 57.012 43.2477 56.886L44.3664 56.535C45.0238 56.3451 45.6708 56.1208 46.3047 55.8631C46.5462 55.7533 46.7763 55.6199 46.9917 55.4651C47.0678 55.4073 47.1299 55.3329 47.1733 55.2477C47.2166 55.1625 47.2401 55.0685 47.2419 54.9729C47.2494 54.787 47.2021 54.6031 47.1059 54.4438Z" fill="#001E94"/>
<path d="M34.335 59.3587C33.8837 59.2918 33.4424 59.1688 33.0216 58.9926C32.5851 58.8191 32.1651 58.6066 31.7669 58.3577C31.3119 58.0646 30.8852 57.7301 30.492 57.3583C30.2954 57.1655 30.1103 56.9614 29.9377 56.7469C29.7678 56.5396 29.6086 56.3237 29.4607 56.1002C29.3216 55.8944 29.1964 55.6795 29.0861 55.4569C28.9806 55.2619 28.8885 55.0599 28.8107 54.8522C28.6795 54.5486 28.5761 54.2338 28.5016 53.9116C28.4445 53.6815 28.4126 53.5488 28.4126 53.5488L28.5806 53.8848C28.7091 54.1827 28.8543 54.4732 29.0156 54.7548C29.1112 54.948 29.2201 55.1343 29.3414 55.3125C29.4758 55.4972 29.5917 55.7072 29.7479 55.9037C29.9041 56.1002 30.0402 56.3152 30.2233 56.5C30.3951 56.6992 30.5785 56.8883 30.7725 57.066C31.1365 57.4359 31.5347 57.7705 31.9617 58.0654C32.3327 58.328 32.7192 58.5681 33.119 58.7843C33.5099 59.005 33.9163 59.197 34.335 59.3587Z" fill="#001E94"/>
<path d="M31.5433 58.8821C31.1936 58.7587 30.8593 58.5953 30.5472 58.395C30.3935 58.3005 30.245 58.1979 30.1021 58.0876C29.9354 57.9749 29.7766 57.8509 29.6268 57.7164C29.3362 57.4141 28.9835 57.1319 28.7198 56.7657L28.3234 56.2266C28.2028 56.048 28.0939 55.8617 27.9975 55.6689C27.8023 55.3406 27.6462 54.9905 27.5323 54.6259C27.3374 53.9843 27.2417 53.5576 27.2417 53.5576C27.2417 53.5576 27.4601 53.9507 27.7355 54.5385C27.8011 54.7008 27.8827 54.8561 27.9791 55.0021C28.0832 55.1566 28.1924 55.3196 28.2932 55.4943C28.3937 55.676 28.5059 55.8511 28.6291 56.0183L29.0305 56.5222C29.2657 56.885 29.5966 57.1689 29.8703 57.4712C30.1643 57.745 30.433 58.0171 30.6867 58.2203C30.9403 58.4236 31.1469 58.605 31.3065 58.7091L31.5433 58.8821Z" fill="#001E94"/>
<path d="M35.5981 53.0083C35.5978 53.1167 35.6297 53.2228 35.6897 53.3131C35.7498 53.4034 35.8353 53.4739 35.9354 53.5155C36.0355 53.5572 36.1457 53.5681 36.2521 53.5471C36.3585 53.526 36.4562 53.4738 36.5329 53.3971C36.6096 53.3205 36.6618 53.2227 36.6828 53.1164C36.7039 53.01 36.6929 52.8998 36.6513 52.7996C36.6096 52.6995 36.5392 52.614 36.4489 52.554C36.3586 52.4939 36.2525 52.4621 36.144 52.4624C35.9993 52.4624 35.8604 52.5199 35.758 52.6223C35.6557 52.7247 35.5981 52.8635 35.5981 53.0083Z" fill="white"/>
<path d="M48.7905 65.6895L47.8549 65.765C47.262 65.8087 46.4155 65.9179 45.4278 66.0875C44.9077 66.1712 44.3999 66.319 43.9161 66.5276C43.4677 66.7292 43.0612 67.1995 42.6144 67.6395C41.7393 68.5533 40.7668 69.561 39.6196 70.374C39.0416 70.7644 38.43 71.1028 37.7921 71.3851C37.2411 71.6496 36.7448 72.0154 36.3292 72.4635C35.5129 73.3285 35.2021 74.4975 34.9367 75.4717C34.8192 75.9655 34.7133 76.4207 34.6176 76.8154C34.5487 77.2219 34.4899 77.5763 34.4396 77.8669C34.3573 78.4548 34.3304 78.7957 34.3304 78.7957C34.3304 78.7957 34.3102 78.4598 34.3153 77.8568C34.3354 77.5562 34.3606 77.1934 34.3892 76.7751C34.4177 76.3569 34.5034 75.895 34.5706 75.3844C34.6539 74.8306 34.7762 74.2833 34.9367 73.7467C35.1205 73.1211 35.4208 72.5358 35.8219 72.0217C36.2786 71.4857 36.8333 71.0417 37.4562 70.7133C38.0529 70.4353 38.6239 70.1054 39.1627 69.7273C40.2427 68.9715 41.1783 68.0124 42.1139 67.1306C42.5892 66.7006 43.0276 66.2135 43.6793 65.9767C44.2224 65.791 44.7867 65.6742 45.359 65.629C46.1872 65.5545 47.0201 65.545 47.8499 65.6004C48.4512 65.6407 48.7905 65.6895 48.7905 65.6895Z" fill="#001E94"/>
<path d="M54.9561 69.2622C54.9561 69.2622 55.124 69.7443 55.3189 70.4766C55.418 70.8444 55.5221 71.2778 55.6061 71.7514C55.6499 72.0018 55.6757 72.2549 55.6833 72.509C55.6811 72.7664 55.6614 73.0234 55.6246 73.2783C55.5103 74.2676 55.4112 75.2602 55.2886 76.0043C55.2349 76.3772 55.1408 76.6762 55.0988 76.8929C55.0568 77.1095 55.0199 77.2288 55.0199 77.2288C55.0199 77.2288 55.0367 77.1045 55.0652 76.8929C55.0938 76.6812 55.1509 76.3705 55.166 75.9993C55.2097 75.2535 55.2114 74.2558 55.2248 73.2547C55.2375 73.0162 55.2331 72.7771 55.2114 72.5392C55.1804 72.3126 55.1349 72.0882 55.0753 71.8673C54.951 71.4306 54.8116 71.0275 54.6789 70.6798C54.4169 69.9895 54.2153 69.5461 54.2153 69.5461L54.9561 69.2622Z" fill="#001E94"/>
<path d="M45.6262 70.3085C45.6262 70.3085 44.3311 71.9663 42.9387 72.1645L43.3082 70.8729C43.3082 70.8729 41.5866 71.7362 40.3185 72.2468C39.0503 72.7574 40.3185 71.2877 40.3185 71.2877C40.3185 71.2877 38.0677 72.5189 37.3085 72.8347C36.5493 73.1505 35.3551 73.0027 35.0477 74.2641C34.7404 75.5255 33.5713 76.1117 33.0221 77.9156C33.0221 77.9156 32.9129 76.4039 33.0221 76.2259C32.6764 77.1899 32.4272 78.1857 32.278 79.1989C32.0815 80.7106 32.016 80.9776 31.6867 81.6982C31.3575 82.4188 32.9767 83.6365 32.9767 83.6365L34.7387 84.1303C34.7387 84.1303 36.3562 75.1627 37.3085 74.8805C38.2609 74.5983 40.5217 74.4539 40.5217 74.4539C40.2183 74.5731 39.9246 74.7157 39.6432 74.8805C39.6432 74.8805 43.1974 74.9175 44.3782 74.2641L43.2024 74.9174C43.2024 74.9174 46.5248 74.4572 46.9984 74.2641L46.4828 74.8939C46.4828 74.8939 49.9042 75.2467 50.4955 74.2641C50.4955 74.2641 51.4025 72.6566 51.3756 73.3151C51.3487 73.9735 51.3756 74.8805 51.3756 74.8805C51.3756 74.8805 52.6303 74.8049 53.0754 74.8805C53.5205 74.9561 55.0708 76.0428 54.5871 77.232C54.1033 78.4212 54.4342 81.6696 54.7315 81.4597C55.0288 81.2497 55.9191 79.7616 55.9191 79.7616C55.9191 79.7616 56.6295 77.0741 56.7505 75.5238C56.8714 73.9735 55.4655 71.4187 54.1621 70.8813C52.8587 70.3438 53.6179 70.1674 53.6179 70.1674C53.6179 70.1674 51.0665 71.4456 48.7906 70.1489L45.6262 70.3085Z" fill="#001E94"/>
<path d="M41.9158 53.1776V53.2095V53.3203C41.9076 53.8601 41.7262 54.3829 41.3984 54.8119L41.7125 55.0487C42.0924 54.5518 42.3021 53.9457 42.3105 53.3203C42.3117 53.2552 42.3083 53.1901 42.3004 53.1255L41.9158 53.1776Z" fill="#001E94"/>
<path d="M27.3164 52.9512C27.3164 52.9512 27.0561 53.0385 26.653 53.1191C26.1627 53.2335 25.6657 53.3166 25.1648 53.3677C24.891 53.3879 24.6189 53.4299 24.3603 53.4332H23.6548C23.2433 53.4198 22.9712 53.4013 22.9712 53.4013C22.9712 53.4013 23.245 53.3627 23.6514 53.3207L24.3485 53.2669C24.6021 53.2569 24.8726 53.2065 25.143 53.1762L27.3164 52.9512Z" fill="#001E94"/>
<path d="M26.6238 53.5576C26.3724 53.6823 26.1132 53.7906 25.8478 53.8818C25.2637 54.0866 24.6629 54.2405 24.0523 54.342C23.7164 54.3723 23.3804 54.431 23.063 54.4327C22.7455 54.4344 22.4482 54.4327 22.1963 54.4126L21.3564 54.2765L22.1963 54.3017C22.4449 54.3118 22.7354 54.2681 23.0462 54.2614C23.3569 54.2547 23.6861 54.1841 24.0153 54.1472C24.8961 54.0042 25.7672 53.8073 26.6238 53.5576Z" fill="#001E94"/>
<path d="M44.8471 80.2187C44.8471 80.2187 45.1108 83.2756 44.3852 84.1961C44.3852 84.1961 42.7962 86.6937 41.9782 86.9574C41.1602 87.2211 43.0163 85.2475 42.6148 85.1098C42.2134 84.9721 40.7672 87.5251 39.1934 86.9759C38.4833 86.7086 37.8491 86.2722 37.3458 85.7044C37.0996 85.4407 36.8801 85.1532 36.6907 84.8461C36.6907 84.8461 37.3626 86.294 36.9544 86.1898C36.5462 86.0857 36.2708 83.9828 34.6701 83.6468C33.0694 83.3109 31.6887 81.7052 31.6887 81.7052L32.2144 83.3109C32.2144 83.3109 30.1233 80.7108 29.3926 79.7114C29.3926 79.7114 28.8535 78.4282 28.4134 78.8162C27.9733 79.2042 28.1329 79.656 27.5097 78.7439C26.8866 77.8319 26.5019 77.1348 26.1005 77.2323C25.6991 77.3297 24.4108 74.2694 24.4108 74.2694V76.1623C24.4108 76.1623 23.3912 73.9133 22.9713 72.1698C22.9713 72.1698 22.9982 73.3859 22.9713 73.7806C22.9713 73.7806 23.5189 73.0247 22.1953 72.1698C20.8718 71.3149 19.8875 67.24 19.4928 65.9736V68.4124C19.4928 68.4124 19.5029 67.0687 18.4128 64.9036C17.3227 62.7386 17.5192 61.0572 18.013 59.8731C18.5068 58.6889 19.4844 57.0412 18.9922 56.7725C18.5001 56.5037 16.7314 55.7647 16.2376 57.4662C15.7438 59.1676 16.0411 62.2296 15.2517 64.2015C14.4622 66.1735 13.572 66.7798 13.3772 68.4007C13.1823 70.0215 13.2781 72.4788 13.3772 74.2576L14.0675 72.8282C14.0675 72.8282 13.6325 73.836 14.6386 76.2194C15.6447 78.6028 15.3508 80.5764 15.3508 80.5764L15.942 79.698C15.942 79.698 15.942 81.3239 16.6323 82.4274C17.3227 83.5309 18.4128 84.9116 18.4128 84.9116V83.3109C18.4128 83.3109 18.8999 84.8226 19.5885 85.4189C20.2772 86.0151 22.234 87.7872 22.1937 88.1802C22.1533 88.5732 22.5296 87.0951 22.1937 86.5006C22.1937 86.5006 23.0738 87.9803 23.9942 88.7681C24.9147 89.5558 26.2601 90.6426 26.6229 91.2338C26.6229 91.2338 27.0495 90.7417 26.6229 89.8531C27.4943 90.2091 28.3176 90.6729 29.0735 91.2338C30.4374 92.2214 31.5711 92.5221 31.645 93.11C31.7189 93.6978 31.5711 92.5221 31.5711 92.5221C31.5711 92.5221 33.0056 93.1083 33.5951 93.8977C34.1847 94.6872 35.1555 96.0678 35.1555 96.0678C35.0657 95.4264 34.9023 94.7974 34.6684 94.1933C34.6684 94.1933 35.2546 95.574 37.5322 96.0678C39.8098 96.5616 40.7235 97.3494 40.7235 97.3494L41.5634 96.56C41.5634 96.56 42.0353 97.3494 41.5634 98.1372C41.5634 98.1372 44.0509 97.7424 44.8891 96.8556C44.7427 97.3222 44.5096 97.757 44.2021 98.1372C44.2021 98.1372 47.333 98.6411 48.0099 96.8556V98.1993C49.2399 97.3702 50.223 96.224 50.8552 94.882C50.8552 94.882 51.003 95.868 51.3725 96.1636C51.3725 96.1636 51.7655 93.9985 52.6423 93.1083C53.5191 92.2181 54.3472 91.2321 54.7704 90.2529V91.4286C54.7704 91.4286 55.6691 90.1471 55.9244 89.1594L56.3292 89.6533C56.3292 89.6533 57.3991 86.8919 57.4797 85.1182C57.5603 83.3445 58.0004 81.8345 58.1751 81.7001L58.595 82.849C58.595 82.849 59.455 80.8888 59.3962 78.8178C59.3374 76.7468 59.3626 75.8214 59.3962 75.2906C59.3962 75.2906 59.7439 71.5802 59.0317 70.8765C59.0317 70.8765 56.7407 75.4115 56.3258 76.7267C55.9109 78.0418 55.3482 80.5899 55.0224 80.6856C54.6965 80.7813 54.3707 80.6856 53.8466 81.1744C53.3226 81.6632 53.9155 82.2594 53.6182 82.7533C53.3209 83.2471 53.415 82.7801 53.0723 83.3075C52.7297 83.835 53.1462 84.1339 52.6423 84.2313C52.1384 84.3288 52.948 83.7661 52.6423 83.3075C52.6423 83.3075 50.9795 85.1199 50.1766 85.5146C49.3737 85.9093 48.5994 84.7252 48.7909 83.9357C48.9824 83.1463 49.3183 80.6957 49.6089 80.0961C49.8995 79.4964 44.8471 80.2187 44.8471 80.2187Z" fill="#001E94"/>
<path d="M44.6622 48.7837C44.6622 48.7837 44.726 49.0726 44.8604 49.469C45.0104 49.9699 45.1893 50.4618 45.3962 50.942C45.4909 51.2068 45.6031 51.4649 45.7321 51.7147C45.8581 51.9532 45.974 52.1766 46.068 52.3664L46.404 53.008L45.9908 52.4168L45.5641 51.8054C45.4016 51.5712 45.2545 51.3265 45.1241 51.0731C44.85 50.6094 44.6027 50.1305 44.3833 49.6386C44.1885 49.2355 44.0928 48.9668 44.0928 48.9668L44.6622 48.7837Z" fill="#001E94"/>
<path d="M53.6182 52.6418C54.1467 52.7101 54.6819 52.7101 55.2105 52.6418C55.2105 52.6418 55.9529 52.615 56.7809 52.6418C56.7809 52.6418 59.2668 53.092 59.9924 53.5707L59.638 54.1115C59.638 54.1115 59.119 53.5471 57.7249 53.0903C56.3308 52.6334 54.8695 53.1995 53.8466 54.1669L53.6182 52.6418Z" fill="#001E94"/>
<path d="M25.6987 67.2646C25.6987 67.2646 26.0649 67.4544 26.594 67.7517C26.8526 67.9113 27.1684 68.0709 27.4926 68.2674C27.8168 68.4639 28.1645 68.6571 28.5172 68.8553C29.2042 69.2735 29.9163 69.6296 30.4521 69.9051C30.9997 70.1385 31.381 70.3082 31.381 70.3082L31.1022 70.2746C30.8539 70.2436 30.6077 70.1982 30.3648 70.1385C30.0793 70.0327 29.7232 69.942 29.3721 69.7808C29.0211 69.6195 28.6516 69.4448 28.2955 69.2382C27.6475 68.8593 27.0298 68.4309 26.4479 67.9567C26.1844 67.7413 25.9342 67.5102 25.6987 67.2646Z" fill="#001E94"/>
<path d="M28.961 68.4073C28.6341 68.2851 28.3164 68.1397 28.0103 67.9722C27.3305 67.613 26.6885 67.1865 26.0938 66.6991C25.7819 66.4309 25.4847 66.1461 25.2036 65.8458C24.9634 65.5793 24.739 65.2988 24.5317 65.006L24.001 64.104C24.001 64.104 24.2479 64.4399 24.6208 64.9438C24.8005 65.1975 25.0793 65.436 25.3313 65.7282C25.6148 66.0166 25.9131 66.2902 26.2248 66.5479C27.078 67.2502 27.9939 67.8726 28.961 68.4073Z" fill="#001E94"/>
<path d="M51.8374 50.2667L52.9661 49.4387C53.3021 49.1951 53.6783 48.8861 54.0562 48.5518C54.2472 48.3841 54.4257 48.2028 54.5903 48.0093C54.7449 47.8465 54.8544 47.6462 54.9078 47.4281C54.9196 47.2518 54.9078 46.8974 54.9078 46.6454C54.8809 46.38 54.8322 46.1415 54.7986 45.8879C54.765 45.6343 54.7382 45.3723 54.7146 45.1337C54.6874 44.9057 54.6718 44.6764 54.6676 44.4468C54.7046 43.5885 54.7768 43.0342 54.7768 43.0342C54.7768 43.0342 54.896 43.5969 54.9985 44.4149C55.0187 44.6181 55.0926 44.8364 55.1413 45.0666C55.19 45.2967 55.2538 45.5469 55.3092 45.8022C55.3647 46.0575 55.4486 46.3548 55.4772 46.6337C55.5058 46.9125 55.5175 47.1376 55.4974 47.5172C55.4229 47.8432 55.2602 48.1425 55.0271 48.3822C54.8347 48.5929 54.622 48.7842 54.3921 48.9533C53.9975 49.2409 53.5807 49.497 53.1458 49.7192C52.7257 49.9379 52.2881 50.1211 51.8374 50.2667Z" fill="#001E94"/>
<path d="M47.7021 48.5923L47.9423 48.3891C48.0985 48.2681 48.3035 48.0699 48.5487 47.8499C48.6784 47.7314 48.7996 47.604 48.9115 47.4686C49.0315 47.3316 49.1353 47.1811 49.2206 47.0202L49.2995 46.7884L49.3213 46.701V46.5331C49.3029 46.313 49.3029 46.0796 49.2709 45.8612C49.1735 45.4446 49.1248 45.0449 49.014 44.6283C48.9031 44.2118 48.8611 43.8288 48.7771 43.4996C48.6394 42.8277 48.5924 42.3726 48.5924 42.3726C48.5924 42.3726 48.8208 42.774 49.0963 43.4005C49.2289 43.7129 49.3801 44.0858 49.5178 44.4889C49.6639 44.9282 49.7789 45.3772 49.8622 45.8326C49.889 46.0628 49.8823 46.2845 49.8924 46.5045V46.6725C49.8878 46.7517 49.8696 46.8295 49.8387 46.9026C49.8034 47.031 49.7466 47.1526 49.6707 47.262C49.5478 47.452 49.3933 47.6196 49.2138 47.7575C49.0671 47.8791 48.9128 47.9913 48.7519 48.0935C48.4263 48.3067 48.0731 48.4745 47.7021 48.5923Z" fill="#001E94"/>
<path d="M18.9921 69.252C18.976 69.4224 18.9445 69.5911 18.898 69.7558C18.7061 70.4469 18.4075 71.1037 18.0128 71.7026C17.0924 73.1504 16.6322 75.8899 16.7632 76.723C16.8942 77.5561 18.4596 74.1364 18.9921 72.6919C19.5245 71.2474 19.16 70.0615 18.982 69.4367" fill="white"/>
<path d="M18.9917 74.8804C18.9917 74.8804 18.4878 77.3024 18.4122 78.8091C18.3366 80.3157 18.4122 79.9983 18.7028 81.2093C18.9933 82.4203 19.2688 83.3105 19.2688 83.3105C19.2688 83.3105 19.7223 81.3134 19.5577 80.225C19.3931 79.1366 19.1462 78.5454 19.2688 77.6283C19.3914 76.7112 18.9917 74.8804 18.9917 74.8804Z" fill="white"/>
<path d="M55.0254 82.0254C55.4998 82.7856 55.8089 83.6372 55.9324 84.5247C56.0886 85.9054 56.0382 87.0879 55.9324 87.4171C55.9324 87.4171 55.0926 82.4856 55.0254 82.0254Z" fill="white"/>
<path d="M55.9321 80.6816C55.9321 80.6816 56.6796 82.6115 56.5822 83.3036C56.4847 83.9956 56.8778 86.2345 56.5822 87.1533C56.5822 87.1533 57.207 85.3796 57.076 83.6042C56.9939 82.5379 56.5957 81.5203 55.9321 80.6816Z" fill="white"/>
<path d="M52.642 85.1816C52.642 85.1816 52.7931 86.6933 53.0568 87.8775C53.3205 89.0616 52.5899 90.9008 51.8374 92.0766C51.8374 92.0766 54.2359 90.4339 54.2057 89.4479C54.1755 88.462 52.642 85.1816 52.642 85.1816Z" fill="white"/>
<path d="M53.5806 84.7217C53.5806 84.7217 54.538 86.6936 54.5883 87.9432C54.5883 87.9432 55.2921 86.2334 53.5806 84.7217Z" fill="white"/>
<path d="M48.5853 87.9429C48.5853 87.9429 48.98 89.7905 48.5853 91.2299C48.1905 92.6694 48.1905 93.5983 48.2577 93.9258C48.3249 94.2533 48.2241 95.7012 48.2241 95.7012C48.2241 95.7012 49.0455 94.5842 49.2437 93.4656C49.4419 92.3469 48.849 92.0194 49.2437 91.1006C49.6384 90.1818 48.5853 87.9429 48.5853 87.9429Z" fill="white"/>
<path d="M49.1113 86.334C49.1113 86.334 50.1191 87.9464 50.1762 89.2599C50.1762 89.2583 50.9522 87.5484 49.1113 86.334Z" fill="white"/>
<path d="M50.3388 91.8228C50.3388 91.8228 50.0785 93.9929 49.3311 95.1098C49.3311 95.1098 50.7772 94.06 50.3388 91.8228Z" fill="white"/>
<path d="M46.9945 86.8916C46.9945 86.8916 47.3103 88.2723 46.9945 89.2582C46.8064 89.8332 46.7018 90.4322 46.6838 91.037C46.6838 91.037 46.4554 88.4033 46.9945 86.8916Z" fill="white"/>
<path d="M47.2974 90.1787C47.3838 90.8188 47.3264 91.47 47.1294 92.0851C46.9348 92.8136 46.8868 93.5735 46.9883 94.3207C46.9883 94.3207 48.4429 91.7576 47.2974 90.1787Z" fill="white"/>
<path d="M45.9554 91.8228C46.0292 92.6537 46.0292 93.4895 45.9554 94.3204C45.8244 95.439 44.8418 96.3595 44.8418 96.3595C44.8418 96.3595 45.4246 95.0443 45.428 94.0903C45.4313 93.1362 45.9554 91.8228 45.9554 91.8228Z" fill="white"/>
<path d="M44.8467 86.334C44.8467 86.334 45.8243 87.9464 45.4329 88.9643C45.0416 89.9822 44.7124 90.5734 44.8467 91.037C44.9811 91.5006 44.7544 92.5487 44.2068 93.1063C44.2068 93.1063 44.3596 91.5627 44.2068 90.7078C44.0539 89.8528 44.1245 89.4598 44.3848 88.6368C44.5892 87.8802 44.7435 87.1109 44.8467 86.334Z" fill="white"/>
<path d="M42.6634 90.1787C42.6634 90.1787 41.8656 91.4284 41.9681 92.0851C42.0705 92.7419 42.4384 94.7726 41.9681 95.1085C41.9681 95.1085 43.1321 94.3862 43.0665 93.0694C42.9952 92.0981 42.8606 91.1325 42.6634 90.1787Z" fill="white"/>
<path d="M43.0661 94.5845C43.0661 94.5845 42.8863 96.2272 42.5151 96.8201C42.5151 96.8201 44.0537 96.422 43.0661 94.5845Z" fill="white"/>
<path d="M40.7287 87.7949C40.2246 88.3451 39.8524 89.0028 39.6403 89.7181C39.2456 90.9678 39.6403 91.9537 39.6403 92.2493C39.6403 92.2493 39.8771 91.2231 40.1358 90.138C40.3726 89.1706 40.6195 88.1594 40.7287 87.7949Z" fill="white"/>
<path d="M43.0665 86.334C43.0665 86.334 42.2267 87.4845 42.5156 88.3395C42.8045 89.1944 43.0665 90.4441 43.0665 90.4441C43.0665 90.4441 43.5234 87.5484 43.0665 86.334Z" fill="white"/>
<path d="M37.019 90.4424C37.019 90.4424 37.7043 91.823 37.7698 92.6125C37.8353 93.4019 38.4283 94.8464 38.4283 94.8464C38.4283 94.8464 36.5958 92.5487 37.019 90.4424Z" fill="white"/>
<path d="M35.6223 86.0532C35.6223 86.0532 35.0076 86.4815 34.8463 87.5481C34.6851 88.6147 35.0428 89.8324 35.0613 90.0793C35.0798 90.3262 35.2125 91.806 35.2125 91.806C35.2125 91.806 35.9011 90.0306 35.6223 88.9288C35.3435 87.8269 35.6223 86.0532 35.6223 86.0532Z" fill="white"/>
<path d="M33.2408 84.8525C33.1783 85.5089 33.1783 86.1697 33.2408 86.8261C33.3037 87.5257 33.3037 88.2295 33.2408 88.9291C33.2408 88.9291 31.9542 87.2208 33.2408 84.8525Z" fill="white"/>
<path d="M31.0738 87.105C31.0738 87.105 31.5323 88.2236 31.5995 88.7494C31.6667 89.2751 31.5995 91.2974 31.5995 91.2974C31.5995 91.2974 30.4019 88.5176 31.0738 87.105Z" fill="white"/>
<path d="M22.0539 73.9468C22.0539 73.9468 21.8557 76.0564 22.0539 77.3061C22.2521 78.5557 22.9072 80.6419 22.9072 80.6419C22.9072 80.6419 23.2431 78.9622 22.9072 77.4052C22.5712 75.8481 22.0539 73.9468 22.0539 73.9468Z" fill="white"/>
<path d="M23.9958 76.7129C23.9958 76.7129 23.6951 78.4094 24.1402 79.3315C24.5853 80.2536 24.3888 77.4486 23.9958 76.7129Z" fill="white"/>
<path d="M21.0611 80.7642C21.0611 80.7642 19.8198 82.4707 20.4615 83.4785C21.1031 84.4863 21.9732 85.8518 21.9732 85.8518C21.8403 84.9625 21.5562 84.1024 21.1333 83.3088C20.9277 82.9184 20.8143 82.486 20.8018 82.0449C20.7893 81.6038 20.878 81.1657 21.0611 80.7642Z" fill="white"/>
<path d="M22.2854 82.0254C22.1934 82.769 22.3207 83.5233 22.6516 84.1955C22.9275 84.8074 23.2434 85.4005 23.5973 85.9709C23.5973 85.9709 23.9617 82.8417 22.2854 82.0254Z" fill="white"/>
<path d="M24.7849 80.5513C24.8252 81.3127 24.8252 82.0758 24.7849 82.8373C24.7178 84.1541 25.1125 85.7968 25.3107 86.0605C25.3107 86.0605 25.8146 84.4716 25.692 83.326C25.5694 82.1805 24.7849 80.5513 24.7849 80.5513Z" fill="white"/>
<path d="M27.4067 79.7046C27.4067 79.7046 27.2169 81.48 27.9409 82.2123C28.6648 82.9446 28.9604 83.3041 28.9604 83.3041C28.9604 83.3041 28.1239 80.4067 27.4067 79.7046Z" fill="white"/>
<path d="M28.5321 84.7217C28.5321 84.7217 28.1391 86.8918 28.5321 87.9432C28.8057 88.6195 29.2269 89.2261 29.765 89.7186C29.765 89.7186 28.8613 85.0509 28.5321 84.7217Z" fill="white"/>
<path d="M26.4173 86.8916C26.4173 86.8916 26.3334 88.7392 26.8725 89.2582C27.2112 89.5847 27.5678 89.892 27.9408 90.1787C27.9408 90.1787 26.6693 87.5483 26.4173 86.8916Z" fill="white"/>
<path d="M16.0405 67.8242C16.0405 67.8242 14.3961 68.9781 14.3306 70.3084C14.2853 71.1522 14.1973 71.9931 14.0669 72.8279L16.0405 67.8242Z" fill="white"/>
<path d="M16.0408 69.7959C16.0408 69.7959 15.2513 71.5075 15.3169 72.1642C15.4041 72.7832 15.5241 73.3971 15.6763 74.0034L16.0408 69.7959Z" fill="white"/>
<path d="M16.3683 64.1089C16.3683 64.1089 14.7491 66.3764 14.6383 67.265C14.5274 68.1535 16.3028 66.1144 16.3683 64.1089Z" fill="white"/>
<path d="M46.4793 70.8813C46.4793 70.8813 45.6865 72.7071 44.8467 73.3151C44.8467 73.3151 46.8404 73.3454 46.4793 70.8813Z" fill="white"/>
<path d="M48.0383 71.2876C48.0383 71.2876 47.7023 72.3441 47.5344 72.8379C47.3664 73.3318 48.5623 72.6565 48.0383 71.2876Z" fill="white"/>
<path d="M50.5083 71.2876C50.5083 71.2876 49.5156 73.6811 48.79 74.311C48.79 74.316 50.8443 73.0647 50.5083 71.2876Z" fill="white"/>
<path d="M52.6419 71.9009C52.6419 71.9009 52.526 73.7838 52.3328 74.3162C52.1397 74.8487 53.4413 73.5285 52.6419 71.9009Z" fill="white"/>
<path d="M53.5806 71.5718C53.5806 71.5718 54.2995 73.626 54.202 74.3164C54.1046 75.0067 55.4282 73.018 53.5806 71.5718Z" fill="white"/>
<path d="M40.3203 73.6261C40.3203 73.6261 41.4759 72.8383 41.9731 72.2471C41.9731 72.2471 41.6187 73.5774 40.3203 73.6261Z" fill="white"/>
<path d="M13.2697 49.3463C13.2697 49.3463 16.7482 55.776 16.4056 57.0727L18.9922 56.772C18.9922 56.772 19.7296 55.9036 19.5935 54.9244C19.4575 53.9452 19.0477 52.1345 18.9906 50.8042C18.9906 50.8042 18.0248 45.8173 18.4128 44.6869C18.4128 44.6869 19.0477 47.759 18.9906 46.6437C18.9334 45.5284 19.2123 43.4255 19.2694 42.3724C19.3265 41.3192 19.1014 40.3299 19.6053 39.5758C20.1092 38.8216 21.1976 36.324 21.117 35.7965C21.0364 35.2691 22.8739 32.7732 22.9394 31.0633C23.0049 29.3534 12.8615 30.0807 9.12094 33.0352C6.30921 35.2725 5.78348 37.2226 5.78348 38.2959C5.78348 39.3692 5.20736 40.8741 4.91342 43.0342C4.70179 44.6332 4.20461 45.4864 4.91342 46.9813C5.62223 48.4762 6.16812 51.9649 6.16812 51.9649C6.16812 51.9649 7.28844 47.4718 10.2547 47.3777C11.8823 47.3273 12.9841 48.8189 13.2697 49.3463Z" fill="#001E94"/>
<path d="M20.5104 35.543C20.5104 35.543 11.5696 40.933 6.43994 42.3791C6.43994 42.3791 15.3824 41.8534 20.5104 35.543Z" fill="white"/>
<path d="M18.006 37.2881C18.006 37.2881 13.0158 44.2469 5.7832 45.4797C5.7832 45.4864 15.1069 45.4898 18.006 37.2881Z" fill="white"/>
<path d="M18.006 39.8076C18.006 39.8076 15.4395 45.0145 6.92871 47.3812C6.92871 47.3778 16.4204 47.3543 18.006 39.8076Z" fill="white"/>
<path d="M18.0058 44.0889C18.0058 44.0889 14.8665 48.4005 12.9551 48.8775L13.6421 50.0667C13.6421 50.0667 16.7427 47.1139 18.0058 44.0889Z" fill="white"/>
<path d="M17.2231 47.4302C17.2231 47.4302 14.8682 51.51 14.6465 51.5655C14.6465 51.5655 16.4403 50.771 17.2231 47.4302Z" fill="white"/>
<path d="M5.20703 41.3898C5.20703 41.3898 9.92516 38.8955 11.9004 37.7769C11.9004 37.7769 6.20978 39.2012 5.5648 39.8042L5.20703 41.3898Z" fill="white"/>
<path d="M5.87891 38.5482C5.87891 38.5482 8.61002 36.7845 11.1077 36.331C13.6053 35.8775 17.6835 34.6867 18.5384 34.0938C18.5384 34.0938 13.4021 34.8177 11.8937 35.0142C10.3854 35.2107 8.65537 35.3938 5.87891 38.5482Z" fill="white"/>
<path d="M14.9871 32.3853C14.9871 32.3853 8.94038 34.3573 6.9248 36.1343C6.92816 36.1343 9.92466 32.1233 14.9871 32.3853Z" fill="white"/>
<path d="M4.91259 30.556L4.68919 30.4871C0.354019 27.5192 0.390972 21.7445 0.394331 21.4993L0.44808 21.3045C4.0039 15.2846 12.4105 12.5199 18.5497 10.4976C19.1879 10.2877 19.8027 10.0861 20.3838 9.88959C23.1166 8.96242 25.3909 7.33988 27.7978 5.6216C30.6163 3.60602 33.5338 1.52829 37.224 0.705266C38.127 0.501782 39.0496 0.397585 39.9753 0.394531C44.816 0.394531 47.5992 3.34064 47.9653 3.75383C50.1052 5.20673 52.1376 6.26994 53.9331 7.2223C57.9979 9.35714 61.2094 11.0502 62.6505 15.4996C64.7215 21.8823 60.5963 26.8591 60.4199 27.069C60.3855 27.1096 60.3432 27.1428 60.2956 27.1665C60.2479 27.1901 60.1959 27.2039 60.1428 27.2068L4.91259 30.556Z" fill="white"/>
<path d="M39.9757 0.789435C44.9457 0.789435 47.702 4.04964 47.702 4.04964C54.6776 8.78457 60.2524 9.37916 62.2797 15.6207C64.3071 21.8623 60.1314 26.8139 60.1314 26.8139L4.91299 30.1615C0.702107 27.2792 0.789449 21.4995 0.789449 21.4995C4.63417 14.9909 14.3946 12.3269 20.5102 10.2559C26.6258 8.18493 30.6687 2.56315 37.3067 1.08505C38.1828 0.888844 39.0779 0.789707 39.9757 0.789435ZM39.9757 0C39.0206 0.00288256 38.0687 0.110463 37.1371 0.320813C33.3679 1.16064 30.4185 3.26524 27.5631 5.30097C25.1947 7.00246 22.9356 8.6082 20.2583 9.51522C19.6771 9.71173 19.064 9.91329 18.4274 10.1232C12.2279 12.164 3.73891 14.9606 0.109191 21.1048C0.0387836 21.2245 0.0011295 21.3606 1.40341e-05 21.4995C1.40341e-05 21.7531 -0.0419771 27.7327 4.46788 30.8182C4.59906 30.9078 4.75416 30.9558 4.91299 30.9559H4.96002L60.1701 27.6084C60.2765 27.6019 60.3806 27.5738 60.4758 27.5259C60.5711 27.4779 60.6557 27.4112 60.7244 27.3296C60.9074 27.1146 65.1687 21.9681 63.0305 15.3839C61.5356 10.7817 58.262 9.05667 54.1166 6.87313C52.3429 5.93252 50.3341 4.87098 48.2278 3.45168C47.7172 2.89236 44.8466 0 39.9757 0Z" fill="#001E94"/>
<path d="M6.92871 21.5083L7.09668 21.6628L7.61905 22.0441C7.84244 22.2121 8.15318 22.3548 8.48575 22.548C8.86229 22.7657 9.25543 22.9532 9.6615 23.109C10.1259 23.3252 10.6014 23.517 11.0858 23.6834L12.7235 24.2058C13.3071 24.3919 13.901 24.5438 14.5022 24.661L16.3499 25.0792C16.968 25.2271 17.6062 25.2808 18.2227 25.3833L20.0401 25.652C20.6054 25.7529 21.1755 25.8247 21.7483 25.867L23.2835 25.9896L26.4496 26.2416L26.3706 27.2107L23.1793 26.8026L21.6374 26.606C21.0898 26.5506 20.5188 26.4381 19.9275 26.3155L18.1068 25.9577C17.4903 25.8233 16.8538 25.7393 16.2356 25.5596L14.388 25.0557C13.7879 24.9078 13.1969 24.7256 12.6177 24.5098L10.9918 23.9035C10.4711 23.7254 10.0193 23.4517 9.58088 23.2551C9.181 23.0787 8.79572 22.8709 8.42864 22.6337C8.09271 22.4204 7.79877 22.2625 7.58881 22.0827L7.08492 21.6746L6.92871 21.5083Z" fill="#001E94"/>
<path d="M5.20706 41.3895C5.20706 41.3895 3.42327 40.6068 3.949 39.8039C4.47473 39.0011 4.95679 38.3057 4.91984 37.2945C4.88288 36.2834 4.91984 30.1611 4.91984 30.1611C4.91984 30.1611 38.1416 22.339 42.5709 21.5529C42.5709 21.5529 41.8637 13.4335 46.602 12.7431C53.2366 11.7756 54.7886 16.2939 55.5243 23.6608L59.6428 25.107C59.6428 25.107 60.0106 25.3707 60.1282 26.8169C60.2458 28.2631 61.1646 34.8372 61.1646 34.8372C61.1646 34.8372 60.3096 35.9155 60.1282 36.1373L59.9468 36.3556C59.9468 36.3556 59.4127 34.4627 59.0398 34.2561C58.6669 34.0495 32.4795 32.0322 5.20706 41.3895Z" fill="#001E94"/>
<path d="M28.5322 35.5431C28.5322 35.5431 43.0528 40.1689 49.6085 39.8078C56.1641 39.4467 68.7867 38.2793 71.6807 38.375C71.6807 38.375 74.1784 38.4338 74.3094 37.8611C74.4404 37.2883 74.3094 36.9876 73.7836 36.2184C73.2579 35.4491 60.6034 30.7679 60.6034 30.7679C60.6034 30.7679 42.5875 24.1484 28.5322 35.5431Z" fill="#001E94"/>
<path d="M59.8946 30.1612C59.8946 30.1612 49.1113 23.1486 28.5322 34.6374C28.5322 34.6374 48.1102 20.3571 59.8946 30.1612Z" fill="white"/>
<path d="M73.233 36.3222C73.233 36.3222 56.2266 36.4482 48.0097 38.5478C48.0097 38.5478 47.0675 38.8098 44.8604 38.5478C42.6533 38.2857 30.0039 34.4326 30.0039 34.4326C30.0039 34.4326 43.2647 37.6911 46.6509 38.0002C49.6088 38.2605 68.6879 35.1448 73.233 36.3222Z" fill="white"/>
<path d="M9.40625 36.3224C9.40625 37.1421 10.0277 37.8073 10.792 37.8073C11.5562 37.8073 12.1777 37.1354 12.1777 36.3224C12.1777 35.5095 11.5579 34.8359 10.792 34.8359C10.026 34.8359 9.40625 35.5011 9.40625 36.3224Z" fill="white"/>
<path d="M48.5422 25.4079C46.0429 25.4079 43.8526 23.0412 43.5553 20.0212C43.2395 16.8014 45.1392 13.9745 47.7897 13.7091C47.9214 13.6957 48.0537 13.689 48.1861 13.689C50.6854 13.689 52.8773 16.0556 53.173 19.0756C53.4887 22.2955 51.589 25.1223 48.9386 25.3894C48.8042 25.4012 48.6732 25.4079 48.5422 25.4079Z" fill="white"/>
<path d="M48.1772 14.0839C50.4716 14.0839 52.4906 16.254 52.7711 19.1228C53.0667 22.1311 51.3299 24.7648 48.8911 25.0016C48.7702 25.0133 48.6509 25.0184 48.5333 25.0184C46.2389 25.0184 44.22 22.8483 43.9395 19.9878C43.6439 16.9796 45.3806 14.3459 47.8195 14.1091C47.9387 14.0973 48.058 14.0923 48.1772 14.0923V14.0839ZM48.1772 13.3028C48.0328 13.3028 47.8883 13.3028 47.7422 13.3247C44.8751 13.6052 42.8158 16.6285 43.1534 20.0601C43.4759 23.3337 45.7888 25.8028 48.5283 25.8028C48.673 25.803 48.8177 25.7958 48.9616 25.7809C51.8305 25.4988 53.8897 22.4737 53.5521 19.0372C53.2347 15.7635 50.9218 13.2944 48.1772 13.2944V13.3028Z" fill="#001E94"/>
<path d="M45.0999 19.7629C45.5484 22.7527 47.8764 24.8824 50.3068 24.5196C52.7373 24.1568 54.338 21.4375 53.8845 18.4477C53.431 15.4579 51.108 13.3298 48.6776 13.6926C46.2471 14.0554 44.6531 16.7731 45.0999 19.7629Z" fill="white"/>
<path d="M45.1 19.7625L44.7104 19.8196C44.9008 21.1919 45.5164 22.47 46.4706 23.4745C47.3676 24.3899 48.5265 24.9526 49.7594 24.9526C49.9595 24.9531 50.1594 24.9385 50.3573 24.9089C50.9398 24.8127 51.4968 24.5993 51.9945 24.2818C52.4922 23.9642 52.9203 23.549 53.2531 23.0613C53.9818 22.0007 54.3638 20.7402 54.3465 19.4534C54.3466 19.0987 54.3203 18.7444 54.2676 18.3936C54.0771 17.0217 53.4615 15.7441 52.5073 14.7403C51.612 13.8249 50.4514 13.2622 49.2185 13.2622C49.0178 13.2616 48.8173 13.2767 48.6189 13.3076C48.0363 13.4029 47.4793 13.6159 46.9817 13.9335C46.4842 14.2512 46.0565 14.6669 45.7249 15.1552C44.9961 16.2158 44.6141 17.4763 44.6314 18.7631C44.6313 19.1173 44.6577 19.471 44.7104 19.8213L45.1 19.7641L45.4914 19.7037C45.444 19.3924 45.4204 19.0779 45.4209 18.7631C45.404 17.6404 45.7343 16.5399 46.3665 15.6121C46.6369 15.2096 46.9866 14.8665 47.3941 14.6037C47.8015 14.3409 48.2583 14.1639 48.7365 14.0836C48.8961 14.0602 49.0572 14.0484 49.2185 14.0483C50.2062 14.0483 51.1686 14.4984 51.9446 15.2896C52.7827 16.1745 53.322 17.3001 53.4865 18.5078C53.5345 18.8196 53.5586 19.1346 53.5588 19.4501C53.5743 20.573 53.2429 21.6735 52.6098 22.6011C52.3396 23.0034 51.9902 23.3465 51.583 23.6093C51.1758 23.8721 50.7194 24.0491 50.2414 24.1296C50.082 24.1543 49.9208 24.1667 49.7594 24.1665C48.7718 24.1665 47.8093 23.7147 47.035 22.9236C46.1967 22.0386 45.6568 20.9131 45.4914 19.7054L45.1 19.7625Z" fill="#001E94"/>
<path d="M56.5737 12.614L56.268 12.2226C56.0732 11.9707 55.7775 11.623 55.4164 11.2148L54.1852 9.80898L52.6954 8.2805C52.1797 7.77661 51.7094 7.21392 51.1837 6.78897L49.7829 5.57291L48.4224 4.39715L48.9263 3.79248L50.2213 5.08077L51.5549 6.40769C52.0588 6.87128 52.4989 7.46587 52.9826 8.01176L54.3717 9.64774C54.7849 10.1919 55.1712 10.7009 55.5021 11.1393C55.833 11.5777 56.1051 11.9371 56.2831 12.2025L56.5737 12.614Z" fill="#001E94"/>
<path d="M25.7087 7.55859C25.7087 7.55859 25.3727 7.81726 24.7916 8.24389C24.2104 8.67052 23.3471 9.27184 22.3074 9.95713C21.2677 10.6424 20.013 11.3899 18.6709 12.186C17.3289 12.9822 15.8155 13.6977 14.324 14.4569L12.0834 15.4882C11.3645 15.8527 10.6288 16.1601 9.94853 16.5145C9.26827 16.8689 8.59473 17.1863 7.97662 17.5223C7.35851 17.8582 6.78575 18.1941 6.24658 18.4931L4.82392 19.3867L3.77582 20.156C3.23497 20.6263 2.90576 20.8916 2.90576 20.8916C2.90576 20.8916 3.15267 20.5557 3.61793 19.988L4.55014 19.0457C4.92974 18.7098 5.36309 18.3184 5.86362 17.9338C6.36416 17.5491 6.91005 17.1376 7.5248 16.758C8.12611 16.3583 8.7711 15.9568 9.45975 15.5823C10.1484 15.2077 10.8623 14.8147 11.5996 14.4418L13.8336 13.3685L16.0406 12.312C16.7645 11.9542 17.5002 11.6401 18.1805 11.2689C19.5528 10.5534 20.8679 9.92522 21.9698 9.37094C23.0716 8.81665 24.0223 8.37826 24.6723 8.05073C25.3224 7.7232 25.7087 7.55859 25.7087 7.55859Z" fill="#001E94"/>
<path d="M8.7476 67.2783C8.7476 67.2783 8.72577 66.6468 8.59476 65.7028C8.46374 64.7588 8.25883 63.484 7.58697 62.404C7.43412 62.1218 7.25104 61.8631 7.12338 61.5641C6.9881 61.2814 6.87576 60.9882 6.78745 60.6874C6.62999 60.1596 6.53141 59.616 6.49351 59.0665C6.43809 58.1058 6.42969 57.4658 6.42969 57.4658C6.42969 57.4658 6.46496 58.1074 6.55734 59.0598C6.61672 59.6003 6.73558 60.1326 6.91175 60.6471C7.00691 60.9364 7.12602 61.2173 7.26783 61.4869C7.39885 61.7657 7.60376 62.0261 7.75997 62.2998C8.10703 62.8363 8.37039 63.4225 8.54101 64.0383C8.69662 64.5687 8.82168 65.1076 8.91557 65.6524C9.08353 66.6064 9.13056 67.2548 9.13056 67.2548L8.7476 67.2783Z" fill="#001E94"/>
<path d="M13.2689 65.1152C13.2689 65.1152 10.6268 67.2651 9.44434 63.1416L13.2689 65.1152Z" fill="white"/>
<path d="M13.2696 65.1151C13.0909 65.35 12.8611 65.5413 12.5977 65.6744C12.4693 65.7425 12.3349 65.7987 12.1963 65.8424C12.037 65.8986 11.8697 65.9292 11.7008 65.9331C11.5144 65.9423 11.3277 65.9207 11.1482 65.8693C10.9637 65.8127 10.7875 65.732 10.6242 65.6291C10.3239 65.4224 10.0765 65.1479 9.9019 64.8279C9.75596 64.5628 9.64314 64.2807 9.56597 63.9881C9.5158 63.7861 9.48099 63.5806 9.46184 63.3733C9.45134 63.2954 9.44518 63.2168 9.44336 63.1382C9.44336 63.1382 9.63316 63.4338 9.87335 63.8588L10.0816 64.1947C10.1488 64.3156 10.2496 64.413 10.3369 64.5306C10.4208 64.6492 10.5171 64.7584 10.6242 64.8565C10.7235 64.9623 10.8364 65.0543 10.9601 65.1302C11.1854 65.2723 11.4377 65.3659 11.7012 65.4053C11.9646 65.4446 12.2333 65.4287 12.4902 65.3587C12.7574 65.3033 13.0185 65.2217 13.2696 65.1151Z" fill="#001E94"/>
<path d="M9.68493 57.0747C9.68493 57.0747 10.1653 55.7058 10.7868 55.8402C11.4083 55.9745 11.6888 57.0848 12.4664 57.4677C13.2441 57.8507 14.3812 58.1715 14.5055 57.4677C14.6298 56.764 14.5307 55.4387 14.1864 54.9852C13.8421 54.5317 13.365 53.2904 11.8937 53.3173C10.4223 53.3442 9.23815 54.7887 9.68493 57.0747Z" fill="#001E94"/>
<path d="M10.2173 59.5854C10.2173 59.5854 11.7861 60.2489 11.8969 60.9896C12.0078 61.7304 12.3 62.7583 12.6948 62.367C13.0895 61.9756 12.8879 60.5529 13.4775 60.4958C14.067 60.4387 14.8414 60.8855 14.4366 61.9874C14.0318 63.0892 13.0223 64.7151 11.8969 64.1088C10.7716 63.5024 11.0386 63.3126 10.9547 62.6189C10.8707 61.9252 10.2173 59.5854 10.2173 59.5854Z" fill="#001E94"/>
<path d="M8.20557 53.9637C8.37264 53.1255 8.66421 52.317 9.07059 51.5652C9.36655 51.0216 9.76597 50.5411 10.2463 50.1509C10.4157 50.0214 10.5974 49.9089 10.7889 49.815L11.0106 49.7041L11.2625 50.4515C11.0394 50.5136 10.8237 50.5998 10.6192 50.7085C10.1488 50.9816 9.73679 51.3446 9.40652 51.7768C8.90113 52.4429 8.49648 53.1798 8.20557 53.9637Z" fill="#001E94"/>
<path d="M11.5158 50.6294C11.2793 51.1201 10.991 51.5841 10.6558 52.0134C10.2258 52.5073 9.71517 52.902 10.2174 52.9507C10.7196 52.9994 11.677 52.3594 12.3808 52.4585C13.0845 52.5576 11.5158 50.6294 11.5158 50.6294Z" fill="#001E94"/>
<path d="M69.7194 98.4395C69.4248 98.4401 69.1305 98.4249 68.8376 98.3941C65.3002 98.0229 59.7053 93.6374 58.4019 86.3678C57.1287 79.2663 49.3318 76.1371 49.2596 76.1069C49.2175 76.0894 49.1827 76.058 49.161 76.018C49.1394 75.9779 49.1322 75.9316 49.1407 75.8869C49.1491 75.8421 49.1728 75.8017 49.2076 75.7723C49.2424 75.7429 49.2863 75.7264 49.3318 75.7256H50.5462C55.0275 75.7659 58.6572 78.492 61.3362 83.8299C61.4773 84.1087 61.6319 84.4396 61.8015 84.8024C62.7707 86.865 64.2336 89.9841 66.0779 90.2478L66.2341 90.2579C67.1394 90.2579 67.7071 88.9898 68.2497 87.762C68.8611 86.3947 69.4926 84.9821 70.6952 84.9821H70.7994C73.1509 85.1501 78.4552 88.024 79.3454 88.8117C80.1416 89.5172 79.715 90.6442 79.3773 91.1414C77.7682 96.5146 73.1677 98.4395 69.7194 98.4395Z" fill="white"/>
<path d="M50.5452 75.9202C55.0601 75.9588 58.5941 78.8058 61.1589 83.9153C62.113 85.815 63.7658 90.1149 66.0484 90.4391L66.2332 90.4526C68.3142 90.4526 68.5628 85.1751 70.6994 85.1768H70.7901C73.0727 85.333 78.3485 88.1817 79.2185 88.9577C80.0886 89.7337 79.2185 91.0287 79.2185 91.0287C77.6078 96.3817 73.0374 98.236 69.7184 98.236C69.4312 98.2364 69.1442 98.2218 68.8585 98.1924C65.5227 97.843 59.9043 93.6254 58.5941 86.3273C57.284 79.0292 49.3309 75.9135 49.3309 75.9135H50.5452V75.9202ZM50.5452 75.5171H49.3309C49.2388 75.5172 49.1497 75.5494 49.079 75.6082C49.0082 75.667 48.9602 75.7487 48.9433 75.8392C48.9263 75.9296 48.9415 76.0231 48.9862 76.1036C49.0309 76.184 49.1023 76.2463 49.1881 76.2797C49.2654 76.3099 56.9531 79.4038 58.2061 86.3928C59.528 93.7581 65.217 98.2025 68.8165 98.5804C69.1161 98.611 69.4172 98.6262 69.7184 98.6257C73.2222 98.6257 77.9017 96.6773 79.5797 91.1933C79.9441 90.6222 80.3523 89.428 79.4789 88.657C78.5786 87.8592 73.2071 84.9416 70.8169 84.7787H70.6994C69.3691 84.7787 68.7107 86.2517 68.0741 87.6761C67.55 88.8518 67.0108 90.0561 66.2264 90.0561L66.0971 90.0461C64.3587 89.7992 62.8655 86.6145 61.9719 84.7132C61.8039 84.3487 61.646 84.0161 61.505 83.7373C58.789 78.3271 55.1021 75.5641 50.5419 75.5221L50.5452 75.5171Z" fill="#001E94"/>
<path d="M69.5746 86.6953C68.6189 88.2826 66.0944 94.4217 65.3755 96.832C66.6235 97.6265 67.8479 98.0917 68.8591 98.1976C69.2318 98.2354 69.6066 98.2483 69.9811 98.2362C75.5659 97.1864 78.3121 91.0338 78.3121 91.0338C73.1623 90.2125 69.5746 86.6953 69.5746 86.6953Z" fill="#001E94"/>
<path d="M70.2749 85.9258C70.2749 85.9258 76.5182 90.219 79.0947 89.8276C79.0947 89.8276 75.9723 86.6279 70.2749 85.9258Z" fill="#001E94"/>
<path d="M79.2142 90.837H79.1672C78.6633 90.837 74.1081 90.7111 69.3144 86.1895L69.0439 86.475C73.9284 91.0856 78.6028 91.2318 79.1672 91.2318H79.2243L79.2142 90.837Z" fill="#001E94"/>
<path d="M49.3359 75.9199C49.5593 76.0089 57.3042 79.1364 58.5942 86.3337C59.7279 92.6543 64.095 96.6619 67.4106 97.8494C67.9431 95.1082 68.6351 91.0351 68.6351 91.0351C68.6351 91.0351 66.6464 93.8267 64.4696 92.2511C61.6142 90.1801 57.7241 76.7984 50.5453 75.925H49.3359V75.9199Z" fill="#001E94"/>
<path d="M57.8574 88.675C57.9301 88.8251 58.0588 88.9408 58.2159 88.997C58.373 89.0532 58.5458 89.0456 58.6973 88.9756L62.9451 87.1398C63.0236 87.1112 63.0954 87.0669 63.1561 87.0095C63.2168 86.9522 63.2652 86.8831 63.2983 86.8064C63.3313 86.7296 63.3484 86.647 63.3483 86.5635C63.3483 86.4799 63.3312 86.3973 63.2981 86.3206C63.2649 86.244 63.2165 86.1749 63.1557 86.1176C63.0949 86.0603 63.0231 86.016 62.9445 85.9875C62.866 85.959 62.7825 85.9468 62.6992 85.9517C62.6158 85.9567 62.5343 85.9786 62.4597 86.0161L58.2186 87.8452C58.1401 87.8756 58.0684 87.9213 58.0077 87.9796C57.947 88.0379 57.8985 88.1076 57.8649 88.1848C57.8313 88.2619 57.8134 88.345 57.8121 88.4291C57.8108 88.5133 57.8262 88.5968 57.8574 88.675Z" fill="white"/>
<path d="M57.8572 88.6754L57.6708 88.756C57.7363 88.9015 57.8429 89.0246 57.9775 89.1103C58.1121 89.1959 58.2688 89.2404 58.4283 89.2381C58.5507 89.2372 58.6717 89.2121 58.7844 89.1642L63.0339 87.3283C63.1885 87.2637 63.3208 87.1554 63.4148 87.0166C63.5088 86.8779 63.5603 86.7148 63.563 86.5473C63.5634 86.4409 63.5417 86.3357 63.4992 86.2382C63.4344 86.0924 63.3282 85.9689 63.1938 85.8829C63.0595 85.7969 62.9028 85.7522 62.7433 85.7545C62.62 85.7539 62.4981 85.7797 62.3855 85.8301L58.1377 87.6642C57.9828 87.7286 57.8501 87.8368 57.7558 87.9756C57.6615 88.1143 57.6098 88.2776 57.6069 88.4453C57.6067 88.5522 57.6284 88.6579 57.6708 88.756L57.8572 88.6754L58.0453 88.5948L58.0151 88.4453C58.0182 88.3576 58.0466 88.2727 58.097 88.2008C58.1474 88.129 58.2175 88.0733 58.299 88.0405L62.5468 86.2046L62.7433 86.1626C62.8229 86.16 62.9016 86.1811 62.9692 86.2233C63.0368 86.2654 63.0903 86.3268 63.1229 86.3995L63.1548 86.5473C63.1521 86.6353 63.1238 86.7206 63.0734 86.7927C63.023 86.8649 62.9526 86.9209 62.871 86.9538L58.6198 88.7879L58.4249 88.8299C58.3449 88.8322 58.2661 88.8109 58.198 88.7688C58.13 88.7267 58.0757 88.6657 58.042 88.5931L57.8572 88.6754Z" fill="#001E94"/>
</svg>
