<svg width="129" height="80" viewBox="0 0 129 80" fill="none" xmlns="http://www.w3.org/2000/svg">
<path d="M123.92 43.1597C123.92 43.1597 123.674 43.8709 123.247 45.044C121.964 48.5632 119.047 56.2305 116.309 61.1939L116.753 61.4389C120.439 54.7517 124.401 43.3331 124.403 43.3266L123.924 43.1597H123.92Z" fill="#001E94"/>
<path d="M107.78 60.0357L112.437 8.91895L105.65 59.834" fill="white"/>
<path d="M107.996 60.055L112.653 8.93829C112.66 8.88078 112.643 8.82311 112.607 8.77797C112.571 8.73284 112.518 8.70392 112.46 8.6976C112.403 8.69127 112.345 8.70805 112.3 8.74424C112.255 8.78043 112.226 8.83307 112.22 8.89058L105.431 59.8035L105.864 59.862L111.285 19.2445L107.569 60.0095L108.002 60.0507L107.996 60.055Z" fill="#001E94"/>
<path d="M98.6182 40.2128L103 40.2453L103.005 39.8138L98.6225 39.7812" fill="#001E94"/>
<path d="M100.11 37.9249L104.18 37.9552L104.183 37.5237L100.115 37.4912" fill="#001E94"/>
<path d="M107.27 13.197L116.795 11.3994C116.795 11.3994 116.539 18.3381 117.879 19.663C117.879 19.663 108.612 17.6117 103.588 20.0598C103.586 20.0598 105.216 15.4716 107.27 13.197Z" fill="white"/>
<path d="M107.269 13.197L107.31 13.4139L116.835 11.6163L116.794 11.3995H116.577C116.577 11.3995 116.558 11.9372 116.558 12.7417C116.552 14.0451 116.615 15.3479 116.747 16.6447C116.914 18.0151 117.159 19.2467 117.722 19.817L117.876 19.6631L117.924 19.4462C115.411 18.9304 112.854 18.6588 110.289 18.6353C107.915 18.6353 105.419 18.9215 103.489 19.8582L103.585 20.0534L103.789 20.1249C103.789 20.1249 103.888 19.843 104.073 19.3812C104.621 17.9934 105.927 14.9946 107.431 13.3358L107.269 13.1905L107.31 13.4073L107.269 13.1905L107.108 13.0452C105.005 15.3806 103.39 19.9688 103.381 19.984L103.442 20.216L103.68 20.2507C105.506 19.3595 107.95 19.0689 110.289 19.0711C112.045 19.0822 113.798 19.2163 115.534 19.4722C116.929 19.6717 117.829 19.8712 117.831 19.8712L118.067 19.7628L118.028 19.5069C117.627 19.1275 117.323 17.9262 117.178 16.5905C117.047 15.3074 116.985 14.0183 116.992 12.7287C116.992 11.9329 117.011 11.406 117.011 11.4038L116.937 11.2325L116.755 11.1826L107.23 12.9802L107.108 13.0474L107.269 13.197Z" fill="#001E94"/>
<path d="M105.509 20.2352L118.694 19.4351C118.694 19.4351 118.61 26.7121 120.566 28.6137C120.566 28.6137 107.874 25.7298 101.241 29.2317C101.252 29.2317 102.64 22.6421 105.509 20.2352Z" fill="white"/>
<path d="M105.507 20.2352L105.521 20.4521L118.706 19.6519L118.693 19.4351H118.476V19.5674C118.48 20.9923 118.568 22.4157 118.739 23.8303C118.992 25.7689 119.437 27.8028 120.415 28.7699L120.565 28.6159L120.614 28.3991C117.236 27.6902 113.795 27.3147 110.343 27.278C107.09 27.278 103.699 27.6878 101.138 29.0387L101.24 29.2295L101.457 29.2751C101.457 29.2751 101.544 28.8696 101.719 28.2191C102.235 26.2676 103.58 22.126 105.653 20.3978L105.514 20.2331L105.527 20.4499L105.514 20.2331L105.373 20.0683C103.883 21.3237 102.819 23.5962 102.101 25.5607C101.671 26.746 101.315 27.9568 101.034 29.1862L101.117 29.403L101.346 29.4225C103.797 28.1215 107.142 27.7095 110.349 27.7117C112.717 27.7281 115.08 27.9136 117.42 28.2668C119.305 28.5465 120.521 28.8219 120.526 28.8219L120.764 28.7135L120.725 28.4554C119.901 27.6727 119.409 25.6734 119.175 23.7718C119.007 22.3751 118.92 20.9698 118.914 19.563V19.4373L118.847 19.2768L118.685 19.2183L105.499 20.0162L105.371 20.0683L105.507 20.2352Z" fill="#001E94"/>
<path d="M101.651 28.9221C101.651 28.9221 106.747 24.3512 110.665 24.7481C113.248 25.0104 120.282 28.2781 120.282 28.2781C120.282 28.2781 107.191 25.2359 101.651 28.9221Z" fill="#001E94"/>
<path d="M103.006 29.4117L119.633 28.9043C119.633 28.9043 120.433 40.2903 123.209 42.9834C123.209 42.9834 107.247 36.4935 97.8389 41.4656C97.841 41.4569 98.0665 33.1673 103.006 29.4117Z" fill="white"/>
<path d="M103.006 29.412V29.6289L119.635 29.1215V28.9046L119.418 28.9198C119.418 28.9198 119.617 31.7756 120.166 34.9717C120.715 38.1679 121.591 41.6936 123.056 43.1377L123.208 42.9838L123.291 42.7821C123.278 42.7821 114.914 39.3735 106.675 39.3713C103.524 39.3713 100.386 39.87 97.7387 41.2643L97.8406 41.4572H98.0575C98.0575 41.4572 98.0705 40.9499 98.1681 40.1237C98.4565 37.6366 99.519 32.3176 103.136 29.5768L103.006 29.4055V29.6224V29.4055L102.873 29.2321C97.8255 33.0961 97.6346 41.4269 97.626 41.4442L97.7279 41.635H97.9447C100.501 40.2842 103.572 39.7898 106.677 39.792C110.738 39.792 114.856 40.6354 117.952 41.4811C119.503 41.9148 120.797 42.3268 121.703 42.6433C122.61 42.9599 123.126 43.1702 123.126 43.1702L123.388 43.0878L123.358 42.8146C122.057 41.5657 121.129 38.0443 120.593 34.885C120.32 33.2999 120.136 31.7951 120.016 30.6914C119.897 29.5877 119.849 28.8786 119.849 28.8765L119.633 28.6748L103.001 29.1822L102.878 29.2256L103.006 29.412Z" fill="#001E94"/>
<path d="M122.823 42.5396C122.823 42.5396 112.536 36.7934 110.5 36.2752C108.464 35.757 103.585 37.1599 103.585 37.1599C102.785 36.7262 101.291 33.8401 100.55 32.1401C98.325 35.642 97.9239 40.0698 97.8545 41.1909C108.085 35.5488 122.823 42.5396 122.823 42.5396Z" fill="#001E94"/>
<path d="M100.403 29.5401L121.653 29.1368C121.711 29.1368 121.766 29.114 121.807 29.0733C121.847 29.0326 121.87 28.9775 121.87 28.92C121.87 28.8625 121.847 28.8073 121.807 28.7666C121.766 28.726 121.711 28.7031 121.653 28.7031L100.403 29.1043C100.346 29.1043 100.291 29.1271 100.25 29.1678C100.209 29.2084 100.187 29.2636 100.187 29.3211C100.187 29.3786 100.209 29.4338 100.25 29.4744C100.291 29.5151 100.346 29.5379 100.403 29.5379" fill="#001E94"/>
<path d="M125.139 59.5265L125.059 59.5092C124.957 59.468 114.883 55.4196 105.149 55.4196C100.94 55.4196 97.3819 56.1721 94.5717 57.6552L94.4698 57.6812L94.3548 57.6465L94.2529 57.4557C94.2724 56.9353 94.8189 44.6516 101.5 40.818L101.608 40.7876L120.473 42.7391L120.666 42.9386C120.666 43.0622 121.565 55.1855 125.299 59.1514L125.319 59.4224L125.139 59.5265Z" fill="white"/>
<path d="M101.608 41.0041L120.449 42.9557C120.449 42.9557 121.316 55.2329 125.139 59.3007C125.139 59.3007 115.041 55.196 105.149 55.196C101.368 55.196 97.6163 55.7966 94.47 57.4576C94.47 57.4576 94.9557 44.8161 101.608 40.9976V41.0041ZM101.608 40.564L101.391 40.6203C94.6109 44.5125 94.058 56.9133 94.0385 57.4381C94.0352 57.5139 94.052 57.5893 94.087 57.6566C94.122 57.724 94.174 57.7809 94.238 57.8219L94.47 57.8869L94.6716 57.837C97.4515 56.3712 100.977 55.6275 105.149 55.6275C114.837 55.6275 124.881 59.6606 124.977 59.7018L125.139 59.7322C125.223 59.7319 125.306 59.7071 125.376 59.6608C125.447 59.6145 125.502 59.5486 125.535 59.4713C125.569 59.3941 125.579 59.3087 125.565 59.2256C125.551 59.1425 125.513 59.0654 125.456 59.0036C121.77 55.1006 120.889 43.0446 120.881 42.9231C120.873 42.8213 120.831 42.7252 120.76 42.6518C120.689 42.5784 120.594 42.5325 120.492 42.522L101.652 40.5705L101.608 40.564Z" fill="#001E94"/>
<path d="M114.933 44.4712L113.177 44.8073C112.121 44.9981 110.701 45.2085 109.274 45.4166C107.847 45.6248 106.429 45.7831 105.358 45.8872L103.571 46.0411L105.334 45.705C106.392 45.5142 107.81 45.3017 109.237 45.0957C110.664 44.8897 112.08 44.7292 113.153 44.6273L114.933 44.4712Z" fill="#001E94"/>
<path d="M94.4707 57.4707C94.4707 57.4707 105.82 48.7648 125.14 59.3138C125.14 59.3073 107.539 38.2765 94.4707 57.4707Z" fill="#001E94"/>
<path d="M100.477 40.8607L124.698 43.5082C124.726 43.5112 124.755 43.5086 124.783 43.5004C124.81 43.4923 124.836 43.4788 124.858 43.4608C124.88 43.4428 124.899 43.4206 124.912 43.3954C124.926 43.3702 124.935 43.3426 124.938 43.3142C124.941 43.2857 124.938 43.2569 124.93 43.2294C124.922 43.202 124.908 43.1764 124.89 43.1542C124.872 43.1319 124.85 43.1134 124.825 43.0998C124.8 43.0861 124.772 43.0775 124.744 43.0746L100.523 40.4248C100.466 40.4194 100.41 40.4363 100.366 40.4719C100.322 40.5076 100.293 40.5592 100.287 40.6157C100.283 40.644 100.286 40.6727 100.293 40.7002C100.301 40.7276 100.314 40.7533 100.332 40.7756C100.35 40.798 100.372 40.8166 100.397 40.8305C100.422 40.8443 100.449 40.8531 100.477 40.8563" fill="#001E94"/>
<path d="M121.079 19.0688L118.317 19.2423C113.329 19.5502 103.249 20.1682 102.631 20.1682H102.592C102.535 20.1773 102.484 20.2084 102.451 20.2547C102.417 20.301 102.403 20.3588 102.412 20.4154C102.421 20.4715 102.452 20.5219 102.497 20.5555C102.543 20.5892 102.6 20.6035 102.657 20.5954L102.626 20.398V20.6084H102.659L102.629 20.4111V20.6084C103.513 20.6084 121.099 19.509 121.103 19.509C121.131 19.5075 121.159 19.5003 121.185 19.488C121.211 19.4756 121.234 19.4583 121.253 19.4371C121.272 19.4158 121.286 19.3911 121.296 19.3641C121.305 19.3372 121.309 19.3087 121.308 19.2803C121.306 19.2518 121.299 19.2239 121.287 19.1982C121.274 19.1725 121.257 19.1495 121.236 19.1304C121.215 19.1114 121.19 19.0967 121.163 19.0873C121.136 19.0778 121.108 19.0738 121.079 19.0754V19.0688Z" fill="#001E94"/>
<path d="M118.865 10.7817L105.456 13.3209C105.398 13.3318 105.348 13.3651 105.315 13.4135C105.282 13.4619 105.269 13.5214 105.28 13.5789C105.291 13.6364 105.324 13.6872 105.373 13.7201C105.421 13.7531 105.481 13.7654 105.538 13.7545L118.947 11.2154C118.976 11.21 119.003 11.199 119.027 11.1831C119.051 11.1672 119.072 11.1467 119.089 11.1227C119.105 11.0988 119.116 11.0718 119.122 11.0435C119.128 11.0151 119.128 10.9858 119.123 10.9573C119.118 10.9289 119.107 10.9017 119.091 10.8775C119.075 10.8533 119.054 10.8324 119.03 10.8161C119.006 10.7998 118.979 10.7883 118.951 10.7825C118.923 10.7766 118.893 10.7763 118.865 10.7817Z" fill="#001E94"/>
<path d="M124.59 59.0946C124.59 59.0946 124.156 58.6154 123.575 57.8522C122.994 57.0889 122.246 56.0503 121.548 54.9748C121.205 54.4349 120.88 53.8906 120.578 53.3594C120.277 52.8281 120.041 52.3272 119.826 51.8957C119.652 51.5466 119.507 51.1841 119.392 50.8116C119.308 50.5448 119.258 50.3931 119.258 50.3931C119.258 50.3931 119.334 50.534 119.475 50.7812C119.616 51.0284 119.78 51.3797 120.041 51.7851C120.535 52.5983 121.209 53.6803 121.912 54.7428C122.614 55.8053 123.282 56.8916 123.774 57.7156C124.267 58.5395 124.59 59.0946 124.59 59.0946Z" fill="#001E94"/>
<path d="M94.4707 57.4703C94.4707 57.4703 94.629 56.9585 94.9044 56.2083C95.1798 55.458 95.5744 54.4736 95.9539 53.4848C96.1577 52.9969 96.3702 52.5091 96.5415 52.045C96.7128 51.581 96.9166 51.1625 97.038 50.7874C97.1683 50.4952 97.2721 50.1918 97.3481 49.881C97.4066 49.6533 97.4435 49.5254 97.4435 49.5254C97.4505 49.9738 97.3957 50.4211 97.2809 50.8546C97.0456 51.807 96.7398 52.7405 96.3658 53.6474C95.956 54.6319 95.5115 55.599 95.1364 56.3059C94.7613 57.0128 94.4707 57.4703 94.4707 57.4703Z" fill="#001E94"/>
<path d="M119.807 43.3765C119.807 43.3765 119.092 43.5152 118.01 43.6714C116.928 43.8275 115.484 43.9771 114.05 44.1961C112.611 44.3674 111.169 44.5322 110.08 44.6124C108.992 44.6927 108.259 44.723 108.259 44.723C108.259 44.723 108.968 44.5626 110.043 44.3717C111.119 44.1809 112.559 43.9663 114.001 43.7668C115.443 43.5673 116.898 43.4719 117.988 43.4285C119.079 43.3851 119.807 43.3765 119.807 43.3765Z" fill="#001E94"/>
<path d="M119.657 29.1802C119.418 29.4248 119.166 29.6557 118.9 29.8719C118.328 30.3625 117.72 30.8104 117.081 31.2119C116.728 31.4288 116.39 31.6456 116.043 31.8321C115.696 32.0185 115.36 32.1378 115.08 32.2657C114.51 32.5043 114.128 32.6452 114.128 32.6452C114.128 32.6452 114.475 32.4154 114.995 32.0988C115.262 31.9513 115.563 31.7627 115.899 31.587C116.236 31.4114 116.55 31.1534 116.901 30.9365C117.602 30.5224 118.269 30.0692 118.786 29.7288L119.657 29.1802Z" fill="#001E94"/>
<path d="M115.591 34.5186L116.241 33.7597C116.629 33.3087 117.15 32.7124 117.633 32.0901C118.091 31.5351 118.51 30.949 118.887 30.3359C119.034 30.0822 119.123 29.8545 119.203 29.6984L119.323 29.4512L119.249 29.7157C119.197 29.955 119.125 30.1894 119.032 30.4161C118.89 30.73 118.73 31.0355 118.553 31.3311C118.336 31.6369 118.119 31.9816 117.87 32.2939C117.406 32.8641 116.899 33.397 116.352 33.8876C115.916 34.2866 115.591 34.5186 115.591 34.5186Z" fill="#001E94"/>
<path d="M118.693 19.6108C118.495 19.8315 118.283 20.0401 118.06 20.2353C117.854 20.4088 117.626 20.6213 117.364 20.8273C117.102 21.0333 116.798 21.2241 116.507 21.4301C116.217 21.6361 115.907 21.8139 115.616 21.9808C115.326 22.1478 115.016 22.2345 114.768 22.3386C114.268 22.5338 113.934 22.6422 113.934 22.6422C113.934 22.6422 114.237 22.4427 114.69 22.1738C114.922 22.0459 115.183 21.8854 115.473 21.7402C115.764 21.5949 116.037 21.3564 116.33 21.1612C116.622 20.9661 116.932 20.7991 117.197 20.6039C117.462 20.4088 117.73 20.244 117.947 20.0944L118.693 19.6108Z" fill="#001E94"/>
<path d="M116.099 23.0975L116.532 22.5532C116.786 22.228 117.157 21.8225 117.491 21.3953C117.816 21.025 118.114 20.6315 118.382 20.2179C118.477 20.0842 118.555 19.9384 118.612 19.7843L118.69 19.6064C118.69 19.6064 118.679 19.6758 118.666 19.7951C118.659 19.9672 118.619 20.1364 118.549 20.2938C118.459 20.5215 118.347 20.7395 118.213 20.9443C118.064 21.1698 117.902 21.3869 117.729 21.5948C117.398 21.9853 117.036 22.3479 116.645 22.679C116.47 22.8275 116.288 22.9671 116.099 23.0975Z" fill="#001E94"/>
<path d="M103.584 20.0599C103.584 20.0599 109.189 16.7596 117.412 19.2576C117.412 19.2576 113.042 16.6057 109.805 16.4756C109.805 16.4756 105.496 17.705 103.584 20.0599Z" fill="#001E94"/>
<path d="M116.793 11.4839C116.583 11.7367 116.35 11.9691 116.097 12.1778C115.836 12.392 115.562 12.5897 115.277 12.7697C114.945 12.9687 114.6 13.1462 114.245 13.301C113.889 13.454 113.52 13.5773 113.144 13.6696C112.818 13.761 112.484 13.8191 112.146 13.8431C111.554 13.8734 111.166 13.8734 111.166 13.8734C111.166 13.8734 111.552 13.778 112.118 13.6566C112.439 13.5893 112.756 13.5002 113.065 13.3899C113.427 13.2902 113.78 13.1596 114.119 12.9996C114.773 12.7332 115.401 12.4088 115.997 12.0303C116.272 11.8623 116.537 11.6799 116.793 11.4839Z" fill="#001E94"/>
<path d="M116.792 11.4839C116.779 11.7006 116.731 11.9137 116.649 12.1149C116.562 12.3212 116.451 12.5164 116.317 12.696C116.166 12.9035 115.995 13.0953 115.806 13.2684C115.615 13.4371 115.409 13.5887 115.192 13.7216C115.01 13.8472 114.814 13.9492 114.607 14.0252C114.247 14.1705 114.006 14.242 114.006 14.242C114.006 14.242 114.208 14.0772 114.518 13.8626C114.698 13.7493 114.869 13.6232 115.031 13.4853C115.23 13.3472 115.416 13.1912 115.587 13.0191C116.343 12.3989 116.825 11.5012 116.792 11.4839Z" fill="#001E94"/>
<path d="M102.967 30.2383C103.063 30.4434 103.176 30.64 103.305 30.8259C103.586 31.2233 103.92 31.5801 104.298 31.8862C104.488 32.0651 104.696 32.2235 104.918 32.3589C105.099 32.5014 105.292 32.6256 105.497 32.7297C105.849 32.9357 106.083 33.094 106.083 33.094C106.083 33.094 105.816 33.029 105.417 32.901C105.187 32.8335 104.968 32.7335 104.767 32.604C104.523 32.4743 104.294 32.3187 104.083 32.1399C103.686 31.8041 103.364 31.3871 103.14 30.917C103.049 30.7005 102.991 30.4718 102.967 30.2383Z" fill="#001E94"/>
<path d="M105.651 31.5003C105.466 31.5084 105.28 31.4967 105.098 31.4656C104.693 31.3969 104.303 31.2575 103.946 31.0536C103.765 30.9207 103.593 30.7758 103.43 30.62C103.309 30.4658 103.201 30.3019 103.107 30.1299C103.056 29.9501 103.014 29.7677 102.981 29.5835C102.981 29.5835 103.116 29.7743 103.27 30.0345C103.511 30.3225 103.798 30.568 104.12 30.7609C104.45 30.9588 104.794 31.1313 105.15 31.277C105.44 31.4223 105.651 31.5003 105.651 31.5003Z" fill="#001E94"/>
<path d="M105.528 20.3921L106.22 20.6089C106.628 20.7499 107.17 20.9385 107.727 21.0816C108.216 21.2722 108.72 21.4224 109.234 21.5305C109.65 21.6411 109.928 21.7343 109.928 21.7343C109.928 21.7343 109.642 21.7105 109.212 21.6476C108.686 21.5721 108.167 21.4539 107.66 21.2941C107.107 21.1142 106.576 20.8865 106.174 20.7195C105.953 20.623 105.737 20.5137 105.528 20.3921Z" fill="#001E94"/>
<path d="M110.374 22.4252C110.085 22.4513 109.795 22.4513 109.506 22.4252C109.242 22.4079 108.943 22.3494 108.617 22.293C108.292 22.2366 107.956 22.1217 107.613 22.0306L107.136 21.8008C106.974 21.7336 106.818 21.65 106.672 21.5514L106.282 21.2739C106.162 21.1979 106.049 21.11 105.946 21.0115C105.597 20.6082 105.389 20.335 105.389 20.335C105.389 20.335 105.655 20.567 106.026 20.9204C106.13 21.0129 106.244 21.093 106.367 21.1589L106.757 21.4083C106.899 21.4945 107.048 21.5671 107.204 21.6251L107.676 21.8224C108.002 21.9265 108.327 22.0566 108.637 22.1303C108.947 22.2041 109.248 22.2756 109.504 22.306C110.022 22.3949 110.374 22.4252 110.374 22.4252Z" fill="#001E94"/>
<path d="M91.996 62.5766L97.3367 3.99854L89.5566 62.3446" fill="white"/>
<path d="M92.2414 62.5989L97.5799 4.02298C97.5873 3.9577 97.5686 3.89214 97.5277 3.8407C97.4868 3.78926 97.4272 3.75616 97.3619 3.74868C97.2967 3.7412 97.2311 3.75996 97.1797 3.80083C97.1282 3.8417 97.0951 3.90133 97.0876 3.9666L89.3076 62.3126L89.802 62.3777L96.0056 15.8383L91.747 62.5555L92.2414 62.5989Z" fill="#001E94"/>
<path d="M81.501 39.8616L86.5229 39.9006L86.5272 39.404L81.5031 39.3672" fill="#001E94"/>
<path d="M83.208 37.2397L87.87 37.2744L87.8743 36.7779L83.2123 36.7432" fill="#001E94"/>
<path d="M91.4124 8.89984L102.337 6.84424C102.337 6.84424 102.042 14.7956 103.577 16.3134C103.577 16.3134 92.9519 13.9608 87.1992 16.7666C87.1906 16.7666 89.0554 11.5019 91.4124 8.89984Z" fill="white"/>
<path d="M91.411 8.89904L91.4566 9.1419L102.372 7.08413L102.335 6.84344L102.086 6.8326C102.086 6.8326 102.064 7.45275 102.064 8.3743C102.056 9.8711 102.129 11.3672 102.281 12.8563C102.47 14.424 102.752 15.8248 103.4 16.4904L103.575 16.3126L103.628 16.0698C100.748 15.4794 97.8178 15.1686 94.8782 15.1417C92.157 15.1417 89.2991 15.467 87.0873 16.5447L87.1979 16.7615L87.4321 16.8461C87.4321 16.8461 87.547 16.5208 87.7552 15.9917C88.384 14.4023 89.8802 10.9655 91.604 9.06384L91.4197 8.89687L91.4652 9.13973L91.411 8.89904L91.2267 8.73208C88.8155 11.4078 86.9638 16.6683 86.9551 16.6813L87.0245 16.948L87.2977 16.987C89.388 15.9657 92.1873 15.6339 94.8696 15.6361C96.8814 15.6484 98.8899 15.802 100.88 16.0958C101.68 16.2086 102.34 16.3126 102.799 16.4102C103.259 16.5078 103.513 16.5533 103.513 16.5533L103.784 16.4297L103.74 16.1348C103.278 15.7012 102.932 14.3264 102.765 12.7977C102.614 11.3274 102.541 9.85014 102.548 8.37213C102.548 7.45709 102.569 6.85428 102.569 6.85428L102.483 6.65696L102.277 6.60059L91.3612 8.66052L91.2224 8.73641L91.411 8.89904Z" fill="#001E94"/>
<path d="M89.3896 16.9681L104.503 16.0552C104.503 16.0552 104.405 24.3925 106.648 26.5717C106.648 26.5717 92.1022 23.2671 84.5 27.2807C84.5 27.2786 86.1046 19.7284 89.3896 16.9681Z" fill="white"/>
<path d="M89.3911 16.9676L89.4084 17.2148L104.517 16.2998L104.504 16.0548H104.255V16.2065C104.26 17.8388 104.36 19.4693 104.557 21.0897C104.847 23.3101 105.357 25.6432 106.48 26.7534L106.651 26.5756L106.708 26.3327C102.836 25.5182 98.8937 25.0875 94.9377 25.0469C91.219 25.0469 87.3225 25.5174 84.3865 27.0635L84.5036 27.2803L84.7465 27.3302C84.7465 27.3302 84.844 26.8662 85.0457 26.1202C85.6376 23.8868 87.1772 19.1403 89.5537 17.1584L89.3932 16.9698L89.4106 17.217L89.3932 16.9698L89.2349 16.779C87.5263 18.2209 86.3033 20.8251 85.4837 23.0672C84.9905 24.4247 84.5821 25.8115 84.2607 27.2196L84.354 27.469L84.6207 27.4906C87.4287 26.0053 91.2624 25.5391 94.9377 25.5391C97.6498 25.5579 100.357 25.7709 103.039 26.1766C104.123 26.3349 105.012 26.4954 105.63 26.6103C106.248 26.7252 106.597 26.8076 106.597 26.8076L106.87 26.684L106.827 26.3891C105.879 25.4914 105.309 23.1995 105.049 21.0181C104.857 19.4185 104.757 17.809 104.752 16.1979V16.0548L104.674 15.8704L104.489 15.8032L89.3759 16.7183L89.2328 16.7746L89.3911 16.9676Z" fill="#001E94"/>
<path d="M84.9746 26.923C84.9746 26.923 90.8118 21.6821 95.3025 22.1374C98.2623 22.4388 106.322 26.1836 106.322 26.1836C106.322 26.1836 91.3214 22.699 84.9746 26.923Z" fill="#001E94"/>
<path d="M86.524 27.4824L105.588 26.897C105.588 26.897 106.508 39.9439 109.686 43.0317C109.686 43.0317 91.3941 35.5921 80.6174 41.2818C80.6087 41.2883 80.8689 31.7888 86.524 27.4824Z" fill="white"/>
<path d="M86.523 27.4821V27.7315L105.587 27.1525V26.9032L105.34 26.9205C105.34 26.9205 105.57 30.1925 106.207 33.8592C106.505 35.6974 106.929 37.5129 107.476 39.2931C108.018 40.9692 108.671 42.3895 109.521 43.22L109.694 43.0422L109.787 42.8102C109.772 42.8102 100.188 38.9071 90.747 38.9071C87.1345 38.9071 83.5415 39.4774 80.508 41.0755L80.6251 41.2923H80.8723C80.8723 41.2923 80.8875 40.7134 80.9981 39.7745C81.3277 36.9253 82.5441 30.8322 86.69 27.6924L86.5404 27.4929V27.7423V27.4929L86.3908 27.2956C83.47 29.4987 81.9825 32.9962 81.2019 35.9365C80.7348 37.6831 80.4521 39.4738 80.3584 41.2793L80.4755 41.4962H80.7227C83.6521 39.948 87.1692 39.3798 90.7296 39.382C95.3808 39.382 100.101 40.3491 103.653 41.3183C105.429 41.8041 106.906 42.2876 107.953 42.6519C109 43.0162 109.581 43.2547 109.583 43.2547L109.883 43.1614L109.85 42.8492C109.109 42.1336 108.456 40.7654 107.931 39.1261C107.14 36.6672 106.611 33.599 106.283 31.151C106.118 29.928 106.006 28.8568 105.932 28.0936C105.858 27.3303 105.826 26.875 105.826 26.875C105.821 26.8113 105.792 26.7519 105.745 26.709C105.698 26.6662 105.636 26.6433 105.572 26.6451L86.5057 27.2349L86.3647 27.2848L86.523 27.4821Z" fill="#001E94"/>
<path d="M109.234 42.5262C109.234 42.5262 97.4451 35.9409 95.112 35.3489C92.7788 34.7569 87.1888 36.3615 87.1888 36.3615C86.2716 35.8671 84.5586 32.5582 83.7195 30.6089C81.1608 34.6225 80.6989 39.69 80.623 40.991C92.3452 34.5163 109.234 42.5262 109.234 42.5262Z" fill="#001E94"/>
<path d="M83.5421 27.6296L107.899 27.1699C107.961 27.1641 108.019 27.1355 108.06 27.0895C108.102 27.0436 108.125 26.9837 108.125 26.9216C108.125 26.8595 108.102 26.7996 108.06 26.7537C108.019 26.7078 107.961 26.6791 107.899 26.6733L83.5421 27.133C83.5076 27.1298 83.4727 27.1338 83.4398 27.1448C83.4069 27.1558 83.3766 27.1736 83.351 27.197C83.3253 27.2203 83.3048 27.2488 83.2908 27.2805C83.2768 27.3123 83.2695 27.3466 83.2695 27.3813C83.2695 27.416 83.2768 27.4503 83.2908 27.4821C83.3048 27.5138 83.3253 27.5423 83.351 27.5657C83.3766 27.589 83.4069 27.6068 83.4398 27.6178C83.4727 27.6288 83.5076 27.6328 83.5421 27.6296Z" fill="#001E94"/>
<path d="M111.892 61.9935L111.797 61.9761C111.682 61.9284 100.138 57.2882 88.9858 57.2882C84.1612 57.2882 80.0804 58.1555 76.8604 59.8512L76.7433 59.8793L76.611 59.8403L76.4961 59.6235C76.5178 59.0272 77.1466 44.9481 84.7987 40.555L84.9245 40.5225L106.543 42.7667C106.6 42.7741 106.653 42.801 106.692 42.8429C106.732 42.8848 106.756 42.9391 106.76 42.9966C106.76 43.1353 107.788 57.0323 112.068 61.5793L112.09 61.8894L111.892 61.9935Z" fill="white"/>
<path d="M84.9229 40.7741L106.515 43.0184C106.515 43.0184 107.5 57.0888 111.891 61.7529C111.891 61.7529 100.316 57.0476 88.982 57.0454C84.6453 57.0454 80.3476 57.735 76.7417 59.6366C76.7417 59.6366 77.2989 45.1499 84.9229 40.7719V40.7741ZM84.9229 40.2776L84.6735 40.3426C76.9021 44.8029 76.269 59.0143 76.2473 59.6171C76.2447 59.7034 76.2648 59.7888 76.3055 59.8649C76.3462 59.9409 76.4061 60.005 76.4793 60.0508L76.7417 60.1288L76.965 60.0725C80.1503 58.3898 84.19 57.5377 88.9733 57.5398C100.077 57.5398 111.578 62.1628 111.696 62.2083L111.882 62.2452C111.979 62.2449 112.073 62.2163 112.154 62.1629C112.235 62.1095 112.298 62.0337 112.337 61.9448C112.375 61.8558 112.386 61.7577 112.369 61.6623C112.353 61.567 112.308 61.4787 112.242 61.4082C108.024 56.9262 107.012 43.1181 107.001 42.9772C106.993 42.8622 106.945 42.7537 106.866 42.6699C106.787 42.5861 106.682 42.5322 106.567 42.5175L84.9727 40.2754L84.9229 40.2776Z" fill="#001E94"/>
<path d="M100.195 44.7422C100.195 44.7422 99.386 44.907 98.1717 45.126C96.9574 45.345 95.3333 45.5878 93.7071 45.8242C92.0808 46.0605 90.4545 46.2448 89.2208 46.3641C87.987 46.4834 87.1738 46.5397 87.1738 46.5397C87.1738 46.5397 87.9783 46.3749 89.1926 46.1559C90.4068 45.9369 92.0309 45.6941 93.6572 45.4577C95.2835 45.2214 96.9097 45.0392 98.1457 44.92C99.3817 44.8007 100.195 44.7422 100.195 44.7422Z" fill="#001E94"/>
<path d="M76.75 59.6389C76.75 59.6389 89.7601 49.6645 111.899 61.7553C111.892 61.7466 91.7312 37.6432 76.75 59.6389Z" fill="#001E94"/>
<path d="M83.6265 40.6026L111.381 43.6383C111.414 43.6422 111.446 43.6397 111.478 43.6309C111.509 43.6221 111.538 43.6072 111.563 43.587C111.589 43.5668 111.61 43.5418 111.626 43.5134C111.641 43.485 111.651 43.4537 111.655 43.4215C111.662 43.3563 111.643 43.2908 111.603 43.2393C111.562 43.1877 111.503 43.1542 111.438 43.1461L83.6829 40.1104C83.6176 40.1032 83.5522 40.1222 83.5009 40.1633C83.4497 40.2044 83.4169 40.2641 83.4097 40.3294C83.4025 40.3947 83.4215 40.4601 83.4626 40.5113C83.5037 40.5626 83.5634 40.5954 83.6287 40.6026" fill="#001E94"/>
<path d="M107.237 15.6318L104.071 15.8378C98.3571 16.1934 86.802 16.9047 86.0972 16.9025H86.0604C86.0281 16.9065 85.9968 16.9168 85.9685 16.9328C85.9402 16.9489 85.9153 16.9704 85.8953 16.996C85.8752 17.0217 85.8604 17.0511 85.8518 17.0825C85.8431 17.1139 85.8407 17.1466 85.8446 17.179C85.8486 17.2113 85.8589 17.2425 85.875 17.2708C85.891 17.2992 85.9125 17.3241 85.9382 17.3441C85.9639 17.3641 85.9932 17.3789 86.0246 17.3876C86.056 17.3963 86.0888 17.3987 86.1211 17.3947L86.0929 17.1779V17.3947H86.1233L86.0951 17.1779V17.3947C87.1055 17.3947 107.26 16.1327 107.267 16.1327C107.299 16.1307 107.331 16.1224 107.36 16.1081C107.39 16.0938 107.416 16.074 107.437 16.0496C107.459 16.0252 107.475 15.9969 107.486 15.9661C107.496 15.9354 107.501 15.9028 107.499 15.8704C107.497 15.8379 107.489 15.8061 107.474 15.7769C107.46 15.7477 107.44 15.7216 107.416 15.7C107.391 15.6785 107.363 15.6619 107.332 15.6513C107.302 15.6408 107.269 15.6363 107.237 15.6383V15.6318Z" fill="#001E94"/>
<path d="M104.702 6.13312L89.3266 9.04521C89.2622 9.05758 89.2054 9.09502 89.1686 9.14931C89.1318 9.2036 89.118 9.27028 89.1304 9.33469C89.1428 9.3991 89.1802 9.45596 89.2345 9.49276C89.2888 9.52956 89.3555 9.54329 89.4199 9.53093L104.785 6.621C104.817 6.61502 104.847 6.60279 104.875 6.585C104.902 6.56722 104.926 6.54423 104.944 6.51735C104.962 6.49047 104.975 6.46023 104.982 6.42834C104.989 6.39646 104.989 6.36356 104.983 6.33152C104.977 6.29949 104.965 6.26895 104.947 6.24164C104.929 6.21433 104.906 6.19079 104.88 6.17237C104.853 6.15395 104.822 6.141 104.791 6.13426C104.759 6.12753 104.726 6.12714 104.694 6.13312" fill="#001E94"/>
<path d="M111.256 61.4991C111.256 61.4991 110.768 60.9505 110.095 60.0788C109.423 59.2072 108.578 58.0102 107.773 56.7786C107.378 56.1585 107.008 55.5253 106.663 54.929C106.318 54.3327 106.047 53.7451 105.796 53.2507C105.599 52.85 105.435 52.4346 105.303 52.0082L105.149 51.5269L105.394 51.9735C105.544 52.2576 105.746 52.6587 106.045 53.1206C106.611 54.0552 107.383 55.2889 108.187 56.5119C108.955 57.7544 109.759 58.9773 110.323 59.9205C110.887 60.8638 111.256 61.4991 111.256 61.4991Z" fill="#001E94"/>
<path d="M76.75 59.6386C76.75 59.6386 76.9321 59.0531 77.2466 58.1945C77.561 57.3358 78.0141 56.2061 78.45 55.072C78.6842 54.5126 78.927 53.9553 79.1243 53.4219C79.3217 52.8885 79.558 52.4093 79.6925 51.98C79.8374 51.6452 79.9527 51.2984 80.0372 50.9435C80.1044 50.6811 80.1456 50.5337 80.1456 50.5337C80.1456 50.5337 80.1456 50.6855 80.1305 50.9522C80.1219 51.3265 80.065 51.6982 79.9613 52.058C79.6897 53.1492 79.3382 54.2189 78.9097 55.2585L78.1941 56.9021C77.9643 57.4269 77.7019 57.8952 77.5024 58.3072C77.0709 59.1095 76.75 59.6386 76.75 59.6386Z" fill="#001E94"/>
<path d="M105.777 43.4868C105.777 43.4868 104.957 43.6451 103.719 43.8229C103.099 43.9031 102.377 44.0181 101.601 44.1026C100.824 44.1872 100.005 44.3195 99.1786 44.4279C97.5306 44.623 95.8762 44.8117 94.625 44.9027C93.3739 44.9938 92.5391 45.0307 92.5391 45.0307C92.5391 45.0307 93.3522 44.8464 94.5838 44.6274C95.8155 44.4084 97.4677 44.1633 99.12 43.9357C100.772 43.708 102.438 43.5974 103.689 43.5475C104.94 43.4977 105.777 43.4868 105.777 43.4868Z" fill="#001E94"/>
<path d="M105.606 27.2153L105.372 27.4322C105.222 27.5731 105.016 27.7834 104.741 28.0024C104.083 28.5641 103.385 29.0765 102.652 29.5355C102.247 29.7783 101.861 30.0472 101.466 30.2467C101.072 30.4462 100.684 30.598 100.361 30.7432C99.71 31.0165 99.2764 31.1769 99.2764 31.1769C99.2764 31.1769 99.6732 30.9145 100.274 30.5524C100.582 30.3811 100.924 30.1665 101.312 29.9648C101.701 29.7631 102.067 29.4704 102.46 29.2211C103.264 28.7462 104.029 28.2149 104.628 27.8355L105.606 27.2153Z" fill="#001E94"/>
<path d="M100.948 33.3347L101.685 32.4673C101.902 32.2093 102.165 31.9079 102.44 31.5827C102.715 31.2574 103.002 30.9105 103.281 30.557C103.806 29.9204 104.286 29.2481 104.717 28.5448C104.799 28.4146 104.872 28.2783 104.934 28.1371C104.994 28.0135 105.044 27.903 105.088 27.8141C105.172 27.6319 105.224 27.5278 105.224 27.5278L105.148 27.8336C105.122 27.9311 105.094 28.0504 105.059 28.187C105.03 28.3428 104.98 28.4938 104.91 28.6359C104.745 28.995 104.562 29.3453 104.361 29.6853C104.11 30.0344 103.876 30.4378 103.578 30.789C103.049 31.4419 102.469 32.0523 101.844 32.6148C101.321 33.068 100.948 33.3347 100.948 33.3347Z" fill="#001E94"/>
<path d="M104.505 16.2524C104.278 16.5061 104.034 16.7451 103.777 16.968C103.545 17.1653 103.282 17.4017 102.981 17.6467C102.68 17.8917 102.33 18.102 101.999 18.3384C101.667 18.5747 101.309 18.7721 100.977 18.9694C100.646 19.1667 100.288 19.2578 100.006 19.3792C99.4336 19.596 99.0498 19.7283 99.0498 19.7283C99.0498 19.7283 99.3967 19.4985 99.9171 19.1884C100.184 19.0431 100.483 18.8588 100.817 18.6897C101.151 18.5205 101.467 18.256 101.795 18.0262C102.122 17.7963 102.487 17.612 102.79 17.3756C103.094 17.1393 103.395 16.968 103.658 16.7945L104.505 16.2524Z" fill="#001E94"/>
<path d="M101.529 20.2487L102.017 19.6221C102.31 19.2513 102.735 18.7872 103.117 18.295C103.493 17.8713 103.84 17.4213 104.153 16.9485C104.261 16.7963 104.349 16.6309 104.415 16.4563C104.47 16.3283 104.504 16.2524 104.504 16.2524C104.504 16.2524 104.493 16.3327 104.476 16.4693C104.469 16.6673 104.423 16.862 104.34 17.0417C104.238 17.2998 104.11 17.5462 103.956 17.7768C103.785 18.0396 103.601 18.293 103.403 18.5357C103.026 18.9824 102.612 19.3959 102.165 19.7717C101.961 19.9414 101.749 20.1006 101.529 20.2487Z" fill="#001E94"/>
<path d="M87.1895 16.7659C87.1895 16.7659 93.6143 12.9843 103.034 15.8379C103.034 15.8379 98.0247 12.8022 94.319 12.6504C94.3125 12.6591 89.3817 14.0685 87.1895 16.7659Z" fill="#001E94"/>
<path d="M102.335 6.94824C102.095 7.23837 101.828 7.50485 101.537 7.74403C101.239 7.9895 100.925 8.21617 100.599 8.42272C100.217 8.65006 99.8218 8.85285 99.4146 9.02986L98.7836 9.27055C98.5766 9.34285 98.3651 9.40152 98.1505 9.44618C97.778 9.55156 97.3959 9.61912 97.0099 9.64784C96.3312 9.68254 95.8867 9.68254 95.8867 9.68254C95.8867 9.68254 96.3204 9.57195 96.9709 9.43968C97.3387 9.36278 97.7009 9.26136 98.0551 9.13611C98.2602 9.08563 98.4616 9.02115 98.6579 8.94313L99.2585 8.68292C99.6593 8.52572 100.05 8.34321 100.427 8.1365C100.783 7.93051 101.128 7.7527 101.403 7.56839C101.725 7.37894 102.036 7.17191 102.335 6.94824Z" fill="#001E94"/>
<path d="M102.337 6.94824C102.322 7.19702 102.266 7.44165 102.172 7.67247C102.071 7.90854 101.943 8.13196 101.79 8.33816C101.618 8.57466 101.422 8.79266 101.205 8.98866C100.986 9.18156 100.751 9.35497 100.502 9.5069C100.295 9.65129 100.07 9.7686 99.8323 9.856C99.4203 10.0208 99.1406 10.1097 99.1406 10.1097C99.1406 10.1097 99.3748 9.92105 99.7282 9.67603C99.9352 9.54612 100.132 9.40117 100.318 9.24236C100.545 9.08394 100.758 8.90697 100.956 8.71328C101.347 8.37762 101.693 7.99364 101.988 7.57056C102.124 7.37485 102.241 7.16645 102.337 6.94824Z" fill="#001E94"/>
<path d="M86.4805 28.4321C86.5912 28.666 86.7202 28.8908 86.8664 29.1043C87.0229 29.3183 87.1923 29.5226 87.3738 29.7158C87.5645 29.9458 87.783 30.1512 88.0243 30.3273C88.2406 30.5322 88.4783 30.7132 88.7334 30.8672C88.9405 31.0332 89.1635 31.1785 89.3991 31.3009C89.8002 31.5372 90.0669 31.7172 90.0669 31.7172C90.0669 31.7172 89.7634 31.6435 89.3037 31.5003C89.0405 31.4247 88.7899 31.3107 88.5599 31.1621C88.2799 31.0141 88.0173 30.8352 87.7771 30.6287C87.5331 30.4253 87.3146 30.1931 87.1266 29.937C86.9556 29.7178 86.8101 29.48 86.693 29.2279C86.5835 28.9745 86.512 28.7064 86.4805 28.4321Z" fill="#001E94"/>
<path d="M89.5544 29.878C89.3425 29.8869 89.1302 29.8731 88.9213 29.8368C88.4564 29.7592 88.0092 29.5991 87.6007 29.3641C87.3933 29.2142 87.1956 29.0512 87.0088 28.8762C86.87 28.7005 86.7473 28.5125 86.6424 28.3146C86.5361 27.9287 86.4971 27.688 86.4971 27.688C86.4971 27.688 86.651 27.9048 86.8267 28.2062C86.9329 28.3493 87.1064 28.4751 87.243 28.6399C87.4206 28.7839 87.6066 28.9172 87.8002 29.0389C87.9975 29.1644 88.2033 29.2759 88.416 29.3728C88.6199 29.4639 88.8063 29.5723 88.9798 29.633C89.3246 29.7869 89.5544 29.878 89.5544 29.878Z" fill="#001E94"/>
<path d="M89.4141 17.1396L90.2077 17.3803C90.6825 17.5234 91.2919 17.7468 91.9315 17.9224C92.4981 18.1276 93.0758 18.3006 93.6619 18.4407C94.1367 18.5751 94.4577 18.6792 94.4577 18.6792C94.4577 18.6792 94.1302 18.6488 93.6358 18.5816L92.7945 18.4407L91.86 18.1674C91.2784 17.9898 90.7096 17.7725 90.1578 17.5169C89.7003 17.3088 89.4141 17.1396 89.4141 17.1396Z" fill="#001E94"/>
<path d="M94.963 19.4789C94.6289 19.5068 94.2931 19.5068 93.959 19.4789C93.6153 19.4527 93.2735 19.4056 92.9356 19.3379C92.5626 19.2685 92.181 19.1319 91.7907 19.0235L91.2421 18.7677C91.06 18.6948 90.8857 18.604 90.7217 18.4966L90.275 18.1757C90.1383 18.0863 90.0111 17.9832 89.8955 17.8678C89.4987 17.4016 89.2559 17.0894 89.2559 17.0894C89.2559 17.0894 89.5638 17.3582 89.9909 17.7594C90.1117 17.8623 90.2433 17.9517 90.3834 18.0261L90.8344 18.308C90.9952 18.406 91.1651 18.488 91.3418 18.553L91.8796 18.7872C92.2547 18.8999 92.6233 19.0452 92.9854 19.1233C93.3475 19.2013 93.6815 19.2989 93.9764 19.3401C94.564 19.4442 94.963 19.4789 94.963 19.4789Z" fill="#001E94"/>
<path d="M89.9905 61.1155L75.1134 47.8604L74.7773 48.2398L89.6522 61.495" fill="#001E94"/>
<path d="M91.6454 61.1178L75.7535 46.7764L75.4131 47.1537L91.3049 61.4951" fill="#001E94"/>
<path d="M96.4017 61.1072L77.5023 45.8203L77.1836 46.2171L96.083 61.504" fill="#001E94"/>
<path d="M93.1903 61.1178L76.7022 46L76.3574 46.3751L92.8477 61.4929" fill="#001E94"/>
<path d="M67.9369 61.8222L72.7832 0.262695L65.4932 61.5967L67.9369 61.8222Z" fill="white"/>
<path d="M67.9375 61.8224L68.1912 61.8397L73.0374 0.28237C73.0449 0.215373 73.0255 0.14815 72.9834 0.0954898C72.9625 0.0694149 72.9368 0.0477001 72.9075 0.0315851C72.8783 0.0154701 72.8462 0.00527054 72.813 0.00156877C72.746 -0.00590731 72.6788 0.0135373 72.6261 0.0556251C72.5735 0.0977129 72.5397 0.158996 72.5322 0.225993L65.2422 61.5665L65.2964 61.7573L65.4699 61.8484L67.9136 62.0653L68.1001 62.0067L68.1912 61.8311L67.9375 61.8137L67.9591 61.56L65.7756 61.3735L71.5261 13.0193L67.6838 61.8072L67.9375 61.8289L67.9591 61.5752L67.9375 61.8224Z" fill="#001E94"/>
<path d="M2.97754 48.2374C2.97754 48.2374 3.99667 49.0029 5.7964 50.3537C11.1501 54.4064 23.4511 63.7346 35.9994 73.5161L36.2899 73.1475C19.5546 60.1027 3.25942 47.8623 3.25942 47.8623L2.97971 48.2374H2.97754Z" fill="#001E94"/>
<path d="M5.21973 48.9532C5.21973 48.9532 6.33643 49.647 8.17085 50.8114C13.6806 54.2982 25.6651 62.0001 33.3389 67.7636L33.6186 67.3907C23.3558 59.6822 5.46909 48.5564 5.46692 48.5542L5.21973 48.9532Z" fill="#001E94"/>
<path d="M20.9121 56.7913L35.5463 71.9199L35.8824 71.5946L21.2504 56.4639" fill="#001E94"/>
<path d="M25.8789 58.8236C25.8789 58.8236 26.7116 59.5283 27.967 60.671C29.2225 61.8138 30.8921 63.3858 32.5618 65.1205L32.9 64.7952C29.5391 61.3064 26.1781 58.468 26.1781 58.4658L25.8789 58.8236Z" fill="#001E94"/>
<path d="M64.7015 24.9888C64.7015 24.9888 64.3676 25.546 63.7778 26.5261C61.7157 29.9565 56.5225 38.5627 51.557 46.5422C49.072 50.532 46.6456 54.3634 44.6963 57.3102C43.7205 58.7847 42.8662 60.038 42.1832 60.9769C41.5001 61.9158 40.9819 62.5468 40.7412 62.7354L41.0578 63.1344C41.4438 62.82 42.0531 62.0372 42.9009 60.849C48.7771 52.5811 65.1352 25.2533 65.1374 25.249L64.7015 24.9888Z" fill="#001E94"/>
<path d="M65.8041 25.7261L44.3525 62.2867L44.7927 62.5447L66.2421 25.9841" fill="#001E94"/>
<path d="M66.1826 27.5034L47.8623 62.2968L48.3133 62.5332L66.6337 27.7398" fill="#001E94"/>
<path d="M64.6908 32.1616L50.2344 62.3061L50.6919 62.5251L65.1483 32.3828" fill="#001E94"/>
<path d="M45.4082 56.8785L52.6158 58.0928L52.7003 57.5898L45.4928 56.3755" fill="#001E94"/>
<path d="M47.2852 53.9687L53.9875 55.2198L54.0808 54.7211L47.3806 53.4678" fill="#001E94"/>
<path d="M48.7637 51.6442L55.1213 52.852L55.2167 52.3511L48.8591 51.1455" fill="#001E94"/>
<path d="M50.4238 49.5104L55.9401 50.3625L56.016 49.8595L50.5019 49.0073" fill="#001E94"/>
<path d="M51.5361 47.2122L57.1934 48.5153L57.3061 48.0188L51.6489 46.7178" fill="#001E94"/>
<path d="M52.8799 45.0975L58.5415 45.7589L58.6 45.2558L52.9384 44.5923" fill="#001E94"/>
<path d="M54.0361 43.2806H59.7628V42.771H54.0361" fill="#001E94"/>
<path d="M55.9133 41.0323L61.0523 40.6268L61.0132 40.1216L55.8721 40.5249" fill="#001E94"/>
<path d="M57.249 38.0442H62.2731V37.5347H57.249" fill="#001E94"/>
<path d="M58.9355 35.2757H63.5997V34.7661H58.9355" fill="#001E94"/>
<path d="M41.6392 79.6965L41.4419 79.6011L36.2834 73.1372C34.7373 71.099 32.5841 65.29 32.4952 65.045L32.9289 62.1112L0.390612 47.0628L0.243164 46.846V46.0263L0.358087 45.8095L0.49903 45.7661L0.596606 45.7878L34.1215 59.9103L62.2862 61.3869L75.9859 61.3566L114.799 61.3869C120.871 60.5088 127.768 59.4202 127.768 59.4202H127.81L127.974 59.4788L128.063 59.6718V64.8758L127.924 65.0927L125.732 66.1877C125.47 68.6509 125.125 70.9581 125.121 70.9906C124.655 72.9096 120.35 79.3127 120.177 79.5838L119.96 79.6965H41.6392Z" fill="white"/>
<path d="M0.498985 46.0197L34.0326 60.1443L62.284 61.6361L75.9967 61.608L114.81 61.6361C120.914 60.7558 127.82 59.6673 127.82 59.6673V64.8713L125.509 66.0249C125.242 68.564 124.884 70.9557 124.884 70.9557C124.429 72.8314 119.982 79.447 119.982 79.447H41.6391L36.4828 72.9788C34.9454 70.9514 32.7315 64.9559 32.7315 64.9559L33.1999 61.9592L0.498985 46.8458V46.0262V46.0197ZM0.498985 45.5166L0.217099 45.6012C0.147778 45.6498 0.0916537 45.7148 0.053796 45.7906C0.0159383 45.8663 -0.00245974 45.9502 0.000263846 46.0348V46.8458C0.000579089 46.9428 0.0284691 47.0378 0.0806818 47.1195C0.132895 47.2013 0.207278 47.2666 0.29516 47.3077L32.6492 62.2693L32.2415 64.8887L32.2654 65.1402C32.3586 65.3896 34.5226 71.2311 36.0903 73.2954L41.2532 79.7679C41.3006 79.8276 41.361 79.8758 41.4297 79.9088C41.4984 79.9419 41.5737 79.9589 41.65 79.9587H119.967C120.051 79.9619 120.135 79.9436 120.211 79.9058C120.287 79.8679 120.352 79.8115 120.4 79.7419C120.582 79.4709 124.904 73.0309 125.374 71.0902C125.374 71.023 125.721 68.7874 125.982 66.3697L128.044 65.3375C128.128 65.2953 128.198 65.2306 128.248 65.1506C128.297 65.0706 128.323 64.9784 128.323 64.8843V59.6803C128.323 59.6069 128.308 59.5344 128.277 59.4678C128.246 59.4012 128.201 59.342 128.146 59.2943C128.053 59.2166 127.937 59.1736 127.816 59.1729H127.736C127.666 59.1859 120.797 60.2701 114.771 61.1374L75.9967 61.1092L62.2819 61.1374L34.1366 59.6391L0.696305 45.5448L0.498985 45.5166Z" fill="#001E94"/>
<path d="M44.7475 79.6376L36.7419 71.7947L32.969 61.8701L32.4941 62.0501L36.2866 72.0289L36.3451 72.1199L44.3919 79.9997L44.7475 79.6376Z" fill="#001E94"/>
<path d="M67.8878 5.38662L77.8015 3.21826C77.8015 3.21826 77.5738 11.5708 79.1198 13.1537C79.1198 13.1537 69.8935 11.0851 64.1582 14.0774C64.1734 14.0687 64.8087 7.23189 67.8878 5.38662Z" fill="white"/>
<path d="M67.8871 5.38662L67.9392 5.63381L77.8551 3.46546L77.8008 3.21827H77.5471C77.5471 3.21827 77.5363 3.65194 77.5363 4.34364C77.5363 5.51456 77.5688 7.41837 77.7531 9.19425C77.8306 10.0241 77.9675 10.8473 78.163 11.6575C78.3494 12.3796 78.5814 12.9585 78.9371 13.338L79.1192 13.1602L79.1756 12.913C76.9068 12.4509 74.5978 12.2148 72.2824 12.2083C69.5633 12.2083 66.5081 12.5725 64.0426 13.8584L64.1597 14.0752L64.4134 14.0991C64.4134 14.0991 64.4525 13.6806 64.5609 13.0149C64.7719 11.6585 65.1169 10.3264 65.5908 9.03813C66.1416 7.58967 66.9439 6.24312 68.0151 5.60563L67.885 5.38879L67.937 5.63598L67.885 5.38879L67.7527 5.17196C66.1069 6.17157 65.181 8.39413 64.6238 10.3543C64.286 11.5617 64.0467 12.7945 63.9082 14.0405L64.0188 14.2769L64.2768 14.2921C66.6208 13.0648 69.6066 12.7005 72.2802 12.7005C73.8799 12.707 75.4773 12.8222 77.0614 13.0452C77.6794 13.132 78.1803 13.2209 78.5272 13.2838C78.8742 13.3467 79.0628 13.39 79.0628 13.39L79.3404 13.2664L79.2992 12.965C79.0585 12.7243 78.8243 12.1974 78.6487 11.5122C78.1218 9.46313 78.0502 6.06749 78.0502 4.32847C78.0502 3.64543 78.0502 3.21827 78.0502 3.2161L77.9591 3.01227L77.7423 2.9624L67.8264 5.13076L67.7505 5.16111L67.8871 5.38662Z" fill="#001E94"/>
<path d="M64.9516 13.9455L80.0521 12.8613C80.0521 12.8613 80.0304 21.6193 82.2898 23.8874C82.2898 23.8874 69.3382 20.6349 61.7707 24.9065C61.7707 24.9087 60.526 16.6603 64.9516 13.9455Z" fill="white"/>
<path d="M64.9501 13.9453L64.9675 14.199L80.07 13.1148L80.0505 12.8611H79.7968V12.8806C79.8091 14.4993 79.9061 16.1162 80.0874 17.7247C80.3823 20.1749 80.9092 22.8507 82.1083 24.0758L82.2882 23.8958L82.3511 23.6486C79.0078 22.8801 75.5904 22.4794 72.1599 22.4539C68.5864 22.4539 64.7051 22.9656 61.6455 24.6916L61.7691 24.9084L62.0207 24.8694C62.0207 24.8694 61.9816 24.6114 61.9404 24.1625C61.8992 23.7137 61.8645 23.0784 61.8645 22.3411C61.8645 19.7066 62.3915 15.7927 65.0824 14.1621L64.9501 13.9453L64.9675 14.199L64.9501 13.9453L64.8178 13.7284C61.845 15.5715 61.3528 19.6589 61.3528 22.3433C61.3482 23.2134 61.4032 24.0828 61.5176 24.9453L61.6564 25.1361H61.8927C64.8287 23.4752 68.6341 22.9678 72.1577 22.9678C74.5199 22.9815 76.8775 23.1787 79.2092 23.5576C80.1307 23.705 80.8875 23.8525 81.4122 23.963C81.937 24.0736 82.2232 24.1474 82.2232 24.1474L82.5051 24.0259L82.466 23.7202C81.4513 22.7271 80.8615 20.0795 80.5904 17.6705C80.412 16.0813 80.3165 14.484 80.3042 12.8849L80.2261 12.6941L80.031 12.6226L64.9284 13.7067L64.8157 13.7436L64.9501 13.9453Z" fill="#001E94"/>
<path d="M61.748 24.2489C61.748 24.2489 66.41 18.8844 70.905 19.3267C73.867 19.6194 81.9636 23.4878 81.9636 23.4878C81.9636 23.4878 68.0601 19.7669 61.748 24.2489Z" fill="#001E94"/>
<path d="M62.005 24.9586L81.2188 24.2495C81.2188 24.2495 82.2445 37.9426 85.4493 41.1626C85.4493 41.1626 67.0963 33.4954 56.3673 39.5559C56.3673 39.5537 55.7363 28.8096 62.005 24.9586Z" fill="white"/>
<path d="M62.0042 24.9585L62.015 25.2122L81.2266 24.5053V24.2495L80.9707 24.269C80.9707 24.269 81.2288 27.7036 81.8901 31.5416C82.2026 33.467 82.6408 35.3698 83.202 37.2379C83.7571 38.9921 84.4228 40.4752 85.2771 41.3382L85.4571 41.1604L85.5546 40.9241C85.5395 40.9241 76.0984 36.969 66.7377 36.9668C63.0385 36.9668 59.3436 37.5848 56.2493 39.3325L56.3751 39.5493L56.6288 39.5342C56.6288 39.5342 56.6115 39.2393 56.6115 38.7189C56.61 36.4952 56.9016 34.281 57.4788 32.1336C58.2312 29.447 59.6255 26.7127 62.1516 25.171L62.0193 24.9542L62.0302 25.2079L62.0193 24.9542L61.8871 24.7373C59.1983 26.3896 57.7672 29.2475 56.9888 31.9948C56.4027 34.1873 56.1067 36.4472 56.1084 38.7167C56.1084 39.2479 56.1279 39.558 56.1279 39.5624L56.2602 39.7792H56.5052C59.491 38.0922 63.0992 37.4807 66.7442 37.4807C71.3541 37.4807 76.0161 38.4587 79.5201 39.4323C81.2721 39.9201 82.7336 40.4123 83.7614 40.7788C84.7892 41.1452 85.3638 41.3881 85.366 41.3903L85.6739 41.297L85.6392 40.9913C84.8911 40.2476 84.2276 38.8229 83.6877 37.0883C82.8767 34.5101 82.3216 31.2901 81.9747 28.7228C81.7991 27.4369 81.6776 26.3159 81.5974 25.5158C81.5172 24.7157 81.4825 24.2365 81.4825 24.2365C81.4775 24.1709 81.4474 24.1098 81.3986 24.0658C81.3497 24.0218 81.2858 23.9982 81.2201 24.0001L62.0042 24.7048L61.8827 24.7417L62.0042 24.9585Z" fill="#001E94"/>
<path d="M69.1297 24.6846C69.1297 24.6846 72.753 34.2925 73.2994 35.0211C73.2994 35.0211 83.302 38.4536 84.9738 40.5764C84.9738 40.5764 72.4342 35.0688 64.9209 35.8321L67.8872 24.6846H69.1297Z" fill="#001E94"/>
<path d="M61.7871 25.1623L83.553 24.5118C83.5884 24.5138 83.6239 24.5085 83.6571 24.4961C83.6904 24.4837 83.7207 24.4645 83.7461 24.4398C83.7715 24.415 83.7915 24.3853 83.8049 24.3524C83.8182 24.3195 83.8245 24.2842 83.8235 24.2487C83.8224 24.2133 83.814 24.1784 83.7987 24.1464C83.7835 24.1143 83.7617 24.0858 83.7349 24.0627C83.708 24.0395 83.6766 24.0221 83.6427 24.0117C83.6088 24.0013 83.5731 23.9981 83.5378 24.0022L61.7719 24.6527C61.7083 24.6602 61.6499 24.6912 61.6081 24.7397C61.5662 24.7881 61.5441 24.8505 61.546 24.9145C61.5479 24.9784 61.5737 25.0394 61.6184 25.0853C61.663 25.1311 61.7232 25.1586 61.7871 25.1623Z" fill="#001E94"/>
<path d="M87.8244 61.0442L87.7246 61.0225C87.6119 60.977 76.2432 56.2825 65.1911 56.2825C60.2342 56.2825 56.0601 57.2214 52.7859 59.0689L52.6602 59.1035L52.5279 59.0645L52.4043 58.8477C52.4238 58.221 52.9312 43.4394 60.5486 38.7644L60.6787 38.7275L82.3167 40.9132C82.3762 40.9192 82.4316 40.946 82.4733 40.9888C82.5149 41.0317 82.5401 41.0878 82.5444 41.1474C82.5574 41.2949 83.6915 55.8814 88.0108 60.6257L88.0239 60.9401L87.8244 61.0442Z" fill="white"/>
<path d="M60.6802 38.9749L82.2922 41.1606C82.2922 41.1606 83.3959 55.9249 87.8258 60.7885C87.8258 60.7885 76.4268 56.029 65.1926 56.029C60.7518 56.029 56.337 56.7727 52.6616 58.8478C52.6616 58.8478 53.0953 43.6303 60.6846 38.9749H60.6802ZM60.6846 38.4653L60.4178 38.5412C52.6898 43.2856 52.1781 58.2017 52.1564 58.8348C52.1541 58.9249 52.1758 59.0139 52.2192 59.0928C52.2626 59.1716 52.3263 59.2375 52.4036 59.2837L52.666 59.3574L52.9175 59.2902C56.1505 57.4623 60.2899 56.5364 65.1969 56.5364C76.2013 56.5364 87.531 61.2113 87.6329 61.2591L87.8302 61.2981C87.9287 61.2977 88.025 61.2687 88.1074 61.2147C88.1898 61.1607 88.2548 61.084 88.2945 60.9938C88.3342 60.9037 88.3469 60.8039 88.3311 60.7067C88.3152 60.6094 88.2716 60.5189 88.2053 60.4459C83.938 55.7666 82.8213 41.269 82.7996 41.1216C82.7902 41.0027 82.7395 40.8908 82.6564 40.8053C82.5732 40.7198 82.4628 40.666 82.3442 40.6532L60.7323 38.4697L60.6846 38.4653Z" fill="#001E94"/>
<path d="M75.9862 43.0249C75.9862 43.0249 75.1817 43.2049 73.9696 43.4434C72.7575 43.6819 71.1356 43.9465 69.5115 44.211C67.8874 44.4755 66.259 44.6772 65.0296 44.8138C63.8001 44.9504 62.9805 45.0176 62.9805 45.0176C62.9805 45.0176 63.7849 44.8377 64.9949 44.6013C66.2048 44.365 67.8311 44.0961 69.4551 43.8337C71.0792 43.5713 72.7077 43.3675 73.9371 43.2309C75.1666 43.0943 75.9862 43.0249 75.9862 43.0249Z" fill="#001E94"/>
<path d="M52.6611 58.8476C52.6611 58.8476 65.5823 48.2661 87.8253 60.7883C87.8253 60.7883 67.4645 35.6376 52.6611 58.8476Z" fill="#001E94"/>
<path d="M59.3827 38.8051L87.1571 41.7714C87.1918 41.7777 87.2273 41.7769 87.2616 41.7689C87.2959 41.7608 87.3282 41.7458 87.3564 41.7248C87.3847 41.7037 87.4082 41.677 87.4257 41.6464C87.4431 41.6158 87.454 41.5819 87.4578 41.5469C87.4615 41.5119 87.458 41.4765 87.4474 41.4429C87.4368 41.4093 87.4194 41.3782 87.3963 41.3517C87.3732 41.3251 87.3448 41.3036 87.313 41.2885C87.2811 41.2734 87.2465 41.2651 87.2113 41.264L59.4369 38.2977C59.4022 38.2913 59.3666 38.2922 59.3323 38.3002C59.2981 38.3082 59.2658 38.3232 59.2376 38.3443C59.2093 38.3654 59.1858 38.392 59.1683 38.4226C59.1509 38.4532 59.14 38.4871 59.1362 38.5221C59.1325 38.5572 59.136 38.5926 59.1466 38.6262C59.1572 38.6598 59.1746 38.6908 59.1977 38.7174C59.2208 38.7439 59.2492 38.7654 59.281 38.7805C59.3129 38.7956 59.3475 38.804 59.3827 38.8051Z" fill="#001E94"/>
<path d="M69.8931 18.585C69.8931 18.585 42.175 38.9935 22.2891 54.1459C22.2891 54.1459 51.5922 47.3525 62.2735 46.9752L69.8931 18.585Z" fill="white"/>
<path d="M69.8925 18.5854L69.745 18.3816C69.745 18.3816 42.0205 38.7879 22.1345 53.9426L22.0586 54.2526C22.0834 54.3054 22.1256 54.348 22.1781 54.3732C22.2307 54.3985 22.2903 54.4049 22.347 54.3914C22.347 54.3914 24.1749 53.9686 27.0892 53.3246C35.8211 51.3991 54.3215 47.4961 62.2815 47.2185L62.5179 47.0299L70.1397 18.6569L70.0377 18.3794H69.745L69.8925 18.5832L69.6474 18.5182L62.0278 46.8998L62.2729 46.9648V46.7111C51.5308 47.0949 22.2494 53.8862 22.2386 53.8862L22.2971 54.1356L22.4511 54.3372C32.3908 46.7675 44.2929 37.8794 53.7079 30.8865C58.4154 27.3889 62.5005 24.3662 65.417 22.213C68.3334 20.0599 70.0551 18.7914 70.0594 18.7892L69.9076 18.5724L69.6626 18.5073L69.8925 18.5854Z" fill="#001E94"/>
<path d="M55.7425 16.0552C55.7425 16.0552 29.2344 34.1154 9.35059 49.2591C9.35059 49.2591 38.9789 42.0255 49.6602 41.6461L55.7425 16.0552Z" fill="white"/>
<path d="M55.7421 16.0552L55.5968 15.8384C55.5968 15.8384 29.0887 33.9029 9.19406 49.051L9.11816 49.3633C9.14338 49.4162 9.18599 49.4588 9.23888 49.4841C9.29177 49.5093 9.35172 49.5157 9.40872 49.502C9.40872 49.502 11.2648 49.0532 14.203 48.3637C23.0281 46.3124 41.7128 42.173 49.6685 41.8933L49.9071 41.6981L55.9784 16.1116L55.8852 15.8384H55.5968L55.7421 16.0552L55.4992 15.9945L49.4278 41.581L49.675 41.6396V41.3859C38.907 41.7762 9.31332 49.0142 9.28946 49.0142L9.35018 49.2613L9.50413 49.463C19.4417 41.8955 31.038 33.595 40.1473 27.1875C44.7008 23.9827 48.6386 21.2528 51.4336 19.3229C54.2286 17.3931 55.8787 16.272 55.883 16.272L55.7421 16.0552L55.4992 15.9945L55.7421 16.0552Z" fill="#001E94"/>
<path d="M75.9811 61.232L62.4592 46.7908L62.1058 46.7734L62.0732 47.1247L73.7 61.5508L74.0968 61.232L66.7634 52.1336L75.6103 61.579L75.9811 61.232Z" fill="#001E94"/>
<path d="M69.3592 61.1954L64.372 50.7634L71.1112 61.4404L71.5449 61.1693L62.4898 46.8279C62.4533 46.7765 62.3992 46.7404 62.3378 46.7265C62.2763 46.7126 62.212 46.7219 62.1569 46.7525C62.1019 46.7831 62.06 46.8329 62.0394 46.8924C62.0189 46.952 62.0209 47.017 62.0453 47.0751L68.9017 61.4144L69.3613 61.1975L69.3592 61.1954Z" fill="#001E94"/>
<path d="M46.399 68.6919H44.5039V71.758H46.399V68.6919Z" fill="#001E94"/>
<path d="M54.1698 68.6919H52.2725V71.758H54.1698V68.6919Z" fill="#001E94"/>
<path d="M61.9393 68.6919H60.042V71.758H61.9393V68.6919Z" fill="#001E94"/>
<path d="M69.7098 68.6919H67.8125V71.758H69.7098V68.6919Z" fill="#001E94"/>
<path d="M77.4811 68.6919H75.5859V71.758H77.4811V68.6919Z" fill="#001E94"/>
<path d="M85.2508 68.6919H83.3535V71.758H85.2508V68.6919Z" fill="#001E94"/>
<path d="M93.0204 68.6919H91.123V71.758H93.0204V68.6919Z" fill="#001E94"/>
<path d="M100.794 68.6919H98.8945V71.758H100.794V68.6919Z" fill="#001E94"/>
<path d="M108.559 68.6919H106.664V71.758H108.559V68.6919Z" fill="#001E94"/>
<path d="M116.53 68.3062H114.633V71.3744H116.53V68.3062Z" fill="#001E94"/>
<path d="M124.869 70.9512L34.4209 71.9638L35.5441 73.3299L120.407 72.1416" fill="white"/>
<path d="M124.87 70.9512L102.259 71.3306L79.647 71.6277L34.4239 72.2153L34.6147 71.8033L35.7357 73.1716L35.5428 73.0827L77.9731 72.5688L99.1904 72.3194L120.408 72.1416L99.1926 72.5557L77.9796 72.9005L35.5514 73.577L35.3563 73.4881L34.2266 72.1221L34.2613 71.7686L34.4174 71.7101L79.6427 71.2873L102.256 71.0791L124.87 70.9512Z" fill="#001E94"/>
<path d="M125.492 66.0203L34.4194 66.0962L34.1982 64.9556L127.804 64.8667L125.492 66.0203Z" fill="#001E94"/>
<path d="M70.0845 18.7548L74.6012 13.6874L74.2217 13.3491L69.7051 18.4166" fill="#001E94"/>
<path d="M71.8015 4.28711L54.5371 16.56L54.8298 16.9741L72.0964 4.70126" fill="#001E94"/>
<path d="M67.7321 5.18262L9.9043 48.5497L10.21 48.9573L68.0357 5.59027" fill="#001E94"/>
<path d="M37.6445 62.4167L49.822 62.3604L76.6142 62.4211L103.402 62.716L115.58 62.9328L103.402 62.9892L76.6099 62.9285L49.822 62.6336C42.5168 62.5013 37.6445 62.4167 37.6445 62.4167Z" fill="#001E94"/>
<path d="M82.7803 12.4055L79.7944 12.6375C77.0992 12.8544 73.0335 13.1601 69.5598 13.4203C66.0861 13.6805 63.1914 13.8865 62.8943 13.8865C62.827 13.8865 62.7625 13.9132 62.7149 13.9608C62.6674 14.0084 62.6406 14.0729 62.6406 14.1402C62.6406 14.2075 62.6674 14.272 62.7149 14.3196C62.7625 14.3672 62.827 14.3939 62.8943 14.3939C63.3692 14.3939 68.3152 14.0231 73.1983 13.6523C78.0814 13.2815 82.8193 12.9129 82.8193 12.9129C82.8526 12.9104 82.8851 12.9013 82.9149 12.8861C82.9447 12.871 82.9712 12.8502 82.993 12.8248C83.0147 12.7995 83.0312 12.77 83.0416 12.7383C83.052 12.7065 83.056 12.673 83.0535 12.6397C83.0509 12.6064 83.0418 12.5739 83.0267 12.5441C83.0116 12.5143 82.9907 12.4878 82.9654 12.466C82.94 12.4443 82.9106 12.4278 82.8788 12.4174C82.8471 12.407 82.8136 12.403 82.7803 12.4055Z" fill="#001E94"/>
<path d="M80.1638 2.45117L64.8227 5.62998C64.7566 5.6435 64.6985 5.68273 64.6613 5.73905C64.6241 5.79537 64.6108 5.86416 64.6243 5.9303C64.6378 5.99643 64.677 6.05449 64.7334 6.0917C64.7897 6.12891 64.8585 6.14222 64.9246 6.1287L80.2657 2.9499C80.3318 2.93609 80.3898 2.89659 80.4268 2.84006C80.4638 2.78354 80.4768 2.71463 80.463 2.64849C80.4492 2.58236 80.4097 2.52442 80.3532 2.48741C80.2967 2.45041 80.2278 2.43737 80.1616 2.45117" fill="#001E94"/>
<path d="M62.2725 46.9651L74.4109 13.5182L62.2725 46.9651L77.1148 13.0737L62.2725 46.9651Z" fill="white"/>
<path d="M62.5122 47.0629L74.655 13.6161C74.6712 13.5543 74.6637 13.4887 74.634 13.4322C74.6044 13.3756 74.5546 13.3322 74.4946 13.3105C74.4345 13.2888 74.3685 13.2903 74.3095 13.3147C74.2506 13.3391 74.2028 13.3848 74.1758 13.4426L62.033 46.8894C62.0112 46.9512 62.0142 47.0189 62.0412 47.0785C62.0681 47.1381 62.1171 47.1849 62.1778 47.2093C62.2386 47.2336 62.3064 47.2336 62.367 47.2091C62.4277 47.1847 62.4766 47.1377 62.5035 47.0781L77.3459 13.1867L76.8797 12.9829L65.1923 39.6732L74.6506 13.6052C74.6668 13.5435 74.6594 13.4779 74.6297 13.4213C74.6 13.3648 74.5503 13.3214 74.4902 13.2997C74.4302 13.2779 74.3642 13.2794 74.3052 13.3039C74.2462 13.3283 74.1985 13.3739 74.1714 13.4318L62.0287 46.8786L62.5122 47.0629Z" fill="#001E94"/>
<path d="M10.0586 48.7542C10.0586 48.7542 28.3942 41.642 49.0521 41.5184C49.0521 41.5184 40.37 30.0196 10.0586 48.7542Z" fill="#001E94"/>
<path d="M48.0869 24.2494C48.0869 24.2494 48.5488 23.7181 49.2622 22.9484L50.4916 21.6474C50.9535 21.1833 51.4327 20.6738 51.9097 20.1642C52.8963 19.1754 53.8374 18.152 54.5464 17.3822C54.9129 17.0049 55.1644 16.6558 55.3704 16.4238L55.687 16.0552C55.687 16.0552 55.6003 16.207 55.4528 16.4758C55.2496 16.8521 55.0214 17.2143 54.7698 17.56C54.4424 17.972 54.1063 18.4989 53.6596 18.9825C53.2129 19.466 52.7641 20.0103 52.274 20.5155C51.2896 21.5173 50.2683 22.48 49.4551 23.1565C48.642 23.8331 48.0869 24.2494 48.0869 24.2494Z" fill="#001E94"/>
<path d="M51.2168 24.9082C51.2168 24.9082 51.4336 24.3683 51.8088 23.5834C51.9996 23.1974 52.2056 22.7355 52.4593 22.2542L53.2204 20.7363C53.769 19.7237 54.2872 18.7002 54.6818 17.9348C54.8987 17.5532 55.0244 17.2279 55.1307 16.9959C55.2369 16.7639 55.3041 16.6338 55.3041 16.6338C55.3041 16.6338 55.2738 16.7769 55.2261 17.0263C55.1584 17.3727 55.0642 17.7134 54.9442 18.0454C54.7881 18.4509 54.6428 18.9453 54.4043 19.431C54.1658 19.9167 53.9359 20.4523 53.6714 20.9683C53.1293 21.9918 52.5438 22.9892 52.0625 23.7135C51.5811 24.4377 51.2168 24.9082 51.2168 24.9082Z" fill="#001E94"/>
<path d="M49.659 41.6411C49.659 41.6411 49.4703 40.9689 49.2774 39.9389C49.0449 38.6836 48.8777 37.417 48.7765 36.1443C48.7179 35.4504 48.7223 34.7479 48.6941 34.0952C48.6659 33.4425 48.7526 32.8245 48.77 32.3041C48.8124 31.8817 48.8775 31.4619 48.9651 31.0465C49.0237 30.7494 49.0584 30.5781 49.0584 30.5781C49.0584 30.5781 49.0584 30.7538 49.0584 31.0595C49.0584 31.3652 49.0367 31.7967 49.0584 32.3128C49.1017 33.3493 49.1559 34.7284 49.2752 36.1053C49.3944 37.4822 49.4812 38.8699 49.5592 39.9064C49.6373 40.9429 49.659 41.6411 49.659 41.6411Z" fill="#001E94"/>
<path d="M46.094 30.019C46.094 30.019 46.2262 30.7845 46.4279 31.9337L46.7835 33.8852C46.9093 34.5986 47.0719 35.3532 47.2519 36.1034C47.4318 36.8537 47.6075 37.6018 47.8352 38.2718C48.0221 38.897 48.2592 39.5061 48.5442 40.0932C48.6546 40.3289 48.7829 40.5558 48.928 40.7719C49.0278 40.9465 49.1487 41.1082 49.288 41.2533L49.6609 41.6349L49.2272 41.327C49.0672 41.1988 48.9218 41.0533 48.7936 40.8933C48.6071 40.697 48.4454 40.4785 48.3122 40.2428C47.9543 39.6697 47.6592 39.0598 47.4318 38.4236C47.1781 37.7297 46.9656 36.9751 46.7813 36.2162C46.4737 34.8163 46.2686 33.3959 46.1677 31.9662C46.0636 30.7997 46.094 30.019 46.094 30.019Z" fill="#001E94"/>
<path d="M61.2677 36.3613L61.3652 38.0331C61.3956 38.5318 61.4281 39.1173 61.4628 39.7374C61.4975 40.3576 61.5517 41.0233 61.6016 41.689C61.6515 42.3546 61.7035 43.0138 61.7859 43.6405C61.8683 44.2671 61.9182 44.8374 62.0027 45.3296C62.1892 46.3075 62.276 46.9797 62.276 46.9797C62.276 46.9797 62.0331 46.3574 61.723 45.3903C61.5994 44.9003 61.4693 44.3257 61.3522 43.7034C61.2351 43.081 61.1853 42.4023 61.1007 41.741C61.0161 40.5139 61.011 39.2826 61.0855 38.0548C61.1131 37.4872 61.1739 36.9218 61.2677 36.3613Z" fill="#001E94"/>
<path d="M63.3166 35.6152C63.3166 35.6152 63.2624 36.3134 63.1431 37.3499C63.0239 38.3864 62.8309 39.7676 62.6704 41.1467C62.5685 41.8341 62.4818 42.5214 62.4124 43.1676C62.343 43.8138 62.2649 44.4144 62.2346 44.9326C62.2042 45.4509 62.1912 45.8802 62.2086 46.1838L62.2736 46.6587C62.2736 46.6587 62.2086 46.4982 62.111 46.199C62.0226 45.7813 61.9689 45.357 61.9505 44.9305C61.9375 44.4036 61.9224 43.7856 61.9701 43.1286C62.0178 42.4716 62.085 41.7755 62.1652 41.0817C62.2454 40.3878 62.382 39.7004 62.4926 39.0542C62.6032 38.4081 62.7507 37.8139 62.8612 37.3022C63.1019 36.2831 63.3166 35.6152 63.3166 35.6152Z" fill="#001E94"/>
<path d="M69.8921 18.585C69.8921 18.585 69.4758 19.2355 68.7797 20.1874C68.0837 21.1393 67.0993 22.3406 66.0628 23.5115C65.1057 24.5824 64.0645 25.5751 62.949 26.4799C62.5752 26.774 62.1786 27.0379 61.7629 27.2692L61.2686 27.4861L61.7022 27.189C61.9733 26.9722 62.3332 26.6643 62.7539 26.2674C63.1745 25.8706 63.6364 25.3719 64.1416 24.8515C64.6468 24.3311 65.1673 23.7543 65.679 23.1732L68.5499 20.0117L69.8921 18.585Z" fill="#001E94"/>
<path d="M65.4746 27.6211C65.4746 27.6211 65.7088 27.0616 66.0731 26.2333C66.2661 25.8257 66.4699 25.3378 66.7236 24.8391C66.9773 24.3403 67.2136 23.7852 67.463 23.241C67.7124 22.6967 67.9921 22.1568 68.2414 21.6603C68.4908 21.1637 68.6751 20.6672 68.8399 20.2552C69.1998 19.4312 69.4904 18.8848 69.4904 18.8848C69.4904 18.8848 69.3646 19.4724 69.1174 20.3484C68.9787 20.7821 68.8616 21.3068 68.6534 21.8359C68.4453 22.365 68.1764 22.9071 67.9292 23.4578C67.4581 24.4597 66.9281 25.4328 66.342 26.3721C65.8562 27.1419 65.4746 27.6211 65.4746 27.6211Z" fill="#001E94"/>
<path d="M22.2891 54.1357C22.2891 54.1357 48.7777 41.5246 53.2206 41.5181C57.6636 41.5116 62.1109 46.3166 62.2735 46.965C62.2735 46.965 50.482 44.2589 22.2891 54.1357Z" fill="#001E94"/>
<path d="M0.5 46.1885V46.839L33.2009 61.9611L33.4785 60.6904L0.5 46.1885Z" fill="#001E94"/>
<path d="M87.1908 60.5345C87.1908 60.5345 86.692 59.9577 86.009 59.0427C85.326 58.1276 84.463 56.8743 83.652 55.5885C83.253 54.938 82.8779 54.2875 82.5266 53.6543C82.1754 53.0211 81.9043 52.4183 81.6593 51.9044C81.4606 51.4842 81.2945 51.0492 81.1627 50.6034L81.0088 50.1025C81.0088 50.1025 81.0977 50.2717 81.256 50.5666C81.4526 50.9776 81.6697 51.3786 81.9065 51.7678C82.4811 52.7436 83.2617 54.0381 84.0748 55.3131C84.4608 55.9636 84.8598 56.6141 85.2371 57.2082L86.2389 58.8757C86.8265 59.8558 87.1908 60.5345 87.1908 60.5345Z" fill="#001E94"/>
<path d="M52.6611 58.8471C52.6611 58.8471 52.8346 58.2313 53.1425 57.3293C53.4504 56.4273 53.8906 55.2347 54.3178 54.0399C54.5476 53.4501 54.7839 52.8603 54.9683 52.3052C55.1526 51.7501 55.3911 51.2362 55.5255 50.7874C55.6703 50.437 55.7828 50.0741 55.8616 49.7032C55.931 49.43 55.9679 49.2695 55.9679 49.2695C55.9679 49.2695 55.9679 49.4278 55.9679 49.7032C55.9639 50.0943 55.9107 50.4833 55.8096 50.8611C55.5512 52.0052 55.2107 53.1292 54.7905 54.2242C54.5519 54.8162 54.3112 55.406 54.0857 55.9589C53.8602 56.5118 53.6 57.0084 53.4027 57.4442C52.9842 58.2964 52.6611 58.8471 52.6611 58.8471Z" fill="#001E94"/>
<path d="M81.5584 41.6636C81.5584 41.6636 80.7366 41.8327 79.5028 42.03C78.8827 42.1168 78.1628 42.2469 77.3865 42.3358C76.6103 42.4247 75.7906 42.5765 74.9688 42.6979C73.3209 42.9147 71.6708 43.1316 70.4153 43.2356C69.1598 43.3397 68.3271 43.3896 68.3271 43.3896C68.3271 43.3896 69.1381 43.1923 70.3676 42.9559C71.597 42.7196 73.2471 42.4485 74.8973 42.1948C76.5474 41.9411 78.2127 41.8132 79.4616 41.7481C80.7106 41.6831 81.5584 41.6636 81.5584 41.6636Z" fill="#001E94"/>
<path d="M81.2474 24.5791C81.2474 24.5791 81.1629 24.6637 81.0198 24.8133C80.8229 25.0242 80.6152 25.2247 80.3974 25.4139C80.1242 25.6459 79.8185 25.9321 79.4672 26.214C79.1159 26.4959 78.717 26.7561 78.331 27.0358L77.7347 27.4283C77.5475 27.5633 77.3512 27.685 77.1471 27.7926C76.7503 28.0094 76.3643 28.1721 76.0412 28.3282C75.3907 28.6252 74.957 28.7987 74.957 28.7987C74.957 28.7987 75.3517 28.5212 75.9501 28.1374C76.2537 27.9552 76.6006 27.7275 76.9844 27.5107C77.3682 27.2939 77.7347 26.9881 78.125 26.7214C78.5153 26.4547 78.9208 26.2097 79.2786 25.9495C79.6363 25.6893 79.9789 25.4551 80.2695 25.2491L81.2474 24.5791Z" fill="#001E94"/>
<path d="M76.6465 31.0426C76.6465 31.0426 76.937 30.674 77.3772 30.1211C77.6071 29.8522 77.8521 29.5226 78.1253 29.18C78.3985 28.8374 78.6826 28.4666 78.9601 28.0958C79.4798 27.4205 79.9529 26.7105 80.3761 25.9709C80.4537 25.8311 80.5218 25.6862 80.5799 25.5372C80.6406 25.4071 80.6905 25.2922 80.7317 25.1989L80.8639 24.9019L80.7924 25.2163C80.7707 25.3182 80.7425 25.4331 80.7121 25.5827C80.6849 25.7448 80.6376 25.9029 80.5712 26.0533L80.3305 26.578C80.2504 26.7772 80.1524 26.9688 80.0378 27.1504C79.7906 27.5212 79.5564 27.9419 79.2659 28.3148C78.7396 29.0098 78.1596 29.6623 77.5312 30.2664C77.0194 30.7542 76.6465 31.0426 76.6465 31.0426Z" fill="#001E94"/>
<path d="M80.054 13.0737C79.8359 13.3384 79.6013 13.589 79.3515 13.824C79.1216 14.0408 78.8636 14.288 78.5644 14.5395C78.2651 14.7911 77.9139 15.0187 77.5929 15.2703C77.272 15.5218 76.9056 15.7386 76.5738 15.9446C76.2421 16.1506 75.8843 16.2569 75.6002 16.3783C75.0235 16.6212 74.6396 16.7578 74.6396 16.7578C74.6396 16.7578 74.9844 16.5149 75.507 16.1875C75.7737 16.0314 76.0708 15.8362 76.4047 15.6541C76.7386 15.4719 77.0552 15.1879 77.3761 14.9494C77.697 14.7108 78.0656 14.5157 78.3649 14.2707C78.6641 14.0256 78.9677 13.837 79.217 13.6549L80.054 13.0737Z" fill="#001E94"/>
<path d="M77.1143 17.2934L77.5978 16.6429C77.8862 16.2504 78.309 15.7582 78.682 15.2378C78.8856 14.9982 79.0759 14.7478 79.2523 14.4876C79.4162 14.2709 79.5675 14.045 79.7055 13.811C79.8126 13.6507 79.8986 13.4773 79.9614 13.295C80.0177 13.1605 80.0481 13.0781 80.0481 13.0781C80.0481 13.0781 80.0481 13.1584 80.0264 13.295C80.0216 13.4984 79.979 13.6991 79.9006 13.8869C79.8045 14.1558 79.6802 14.4139 79.5298 14.6567C79.3617 14.9339 79.1785 15.2017 78.9812 15.459C78.6088 15.9319 78.1968 16.3722 77.7496 16.7752C77.3831 17.1026 77.1143 17.2934 77.1143 17.2934Z" fill="#001E94"/>
<path d="M64.1729 14.0687C64.1729 14.0687 69.1492 9.73194 78.5967 12.6592C78.5967 12.6592 74.6221 9.60184 70.9142 9.47607C70.8947 9.47607 65.5844 12.2624 64.1729 14.0687Z" fill="#001E94"/>
<path d="M77.7979 3.30957C77.5663 3.60727 77.3063 3.88178 77.0216 4.12921C76.7295 4.39082 76.421 4.63345 76.0979 4.85561C75.7197 5.09736 75.3264 5.31464 74.9205 5.50611L74.2873 5.76415C74.0815 5.84525 73.8699 5.91049 73.6542 5.9593C73.2803 6.07092 72.8959 6.14359 72.5071 6.17613C71.8219 6.22167 71.373 6.226 71.373 6.226C71.373 6.226 71.8067 6.10891 72.4702 5.9658C72.802 5.92894 73.1576 5.74897 73.5544 5.63621C73.7599 5.57958 73.9607 5.50709 74.155 5.41938L74.7579 5.14833C75.1569 4.97722 75.5451 4.7817 75.9201 4.56288C76.267 4.34604 76.6161 4.15523 76.885 3.95791C77.2013 3.75928 77.5061 3.54282 77.7979 3.30957Z" fill="#001E94"/>
<path d="M77.7978 3.30957C77.7882 3.56511 77.7384 3.81755 77.6504 4.05765C77.5547 4.30198 77.4318 4.53474 77.2839 4.75153C77.1159 5.00123 76.9226 5.23301 76.7072 5.44323C76.491 5.65063 76.2558 5.83721 76.0046 6.0005C75.7973 6.15576 75.5706 6.28332 75.3303 6.37996C74.9118 6.5621 74.6299 6.65968 74.6299 6.65968C74.6299 6.65968 74.8641 6.46236 75.2197 6.19782C75.4272 6.05936 75.6237 5.90494 75.8073 5.73596C76.0355 5.56745 76.2475 5.37798 76.4405 5.17002C76.6539 4.98882 76.8472 4.78528 77.0172 4.56288C77.1746 4.37452 77.3195 4.17605 77.4509 3.96875C77.5867 3.76022 77.7028 3.53954 77.7978 3.30957Z" fill="#001E94"/>
<path d="M38.6523 73.2865L45.4523 79.4424H48.089C48.089 79.4424 47.1154 74.5051 49.6936 73.1304L38.6523 73.2865Z" fill="#001E94"/>
<path d="M46.8945 73.9092L55.7414 74.2258L46.8945 74.5445V73.9092Z" fill="#001E94"/>
<path d="M46.2617 75.0078L55.1064 75.3287L46.2617 75.6431V75.0078Z" fill="#001E94"/>
<path d="M45.4502 75.9692L54.2927 76.2858L45.4502 76.6046V75.9692Z" fill="#001E94"/>
<path d="M45.2686 77.0444L54.1154 77.361L45.2686 77.6798V77.0444Z" fill="#001E94"/>
<path d="M44.6309 77.8921L53.4755 78.2087L44.6309 78.5274V77.8921Z" fill="#001E94"/>
<path d="M45.4502 78.5708L53.4753 78.8874L45.4502 79.2061V78.5708Z" fill="#001E94"/>
<path d="M46.0925 74.2254C46.0925 74.2254 120.077 72.8702 123.256 74.2254L124.16 72.5991L45.2686 73.1954L46.0925 74.2254Z" fill="#001E94"/>
<path d="M122.601 74.0847L82.7031 74.2256C82.7031 74.2256 115.12 75.3293 115.248 75.9603C115.376 76.5913 106.663 79.4297 106.663 79.4297H119.966C119.966 79.4297 124.739 72.8401 122.601 74.0847Z" fill="#001E94"/>
<path d="M108.56 76.2871L100.611 76.3522C95.8404 76.3782 89.4807 76.3522 83.123 76.3001C76.7654 76.2481 70.4057 76.1397 65.6374 76.0247L57.6904 75.8079L65.6396 75.7407C70.41 75.7168 76.7698 75.7515 83.1274 75.7949C89.4872 75.8708 95.8448 75.9554 100.615 76.0703L108.56 76.2871Z" fill="#001E94"/>
<path d="M127.805 64.8665V60.7705L116.53 62.6743L69.4766 62.7307C69.4766 62.7307 108.598 63.8821 109.932 64.9576C109.932 64.9576 120.372 65.5452 126.251 65.6406L127.805 64.8665Z" fill="#001E94"/>
<path d="M125.394 66.9355H94.2715C94.2715 66.9355 118.806 68.0197 120.075 68.3081C121.343 68.5965 121.727 70.8928 121.727 70.8928H124.886C124.93 70.5524 125.173 68.8719 125.394 66.9355Z" fill="#001E94"/>
<path d="M57.2489 62.6268L66.0242 62.603L64.5063 61.6316H62.2729L34.8454 60.1831L34.4118 60.6862L33.4707 62.4208L34.4118 64.5697H61.2191C61.2191 64.5697 57.9254 63.9192 57.2489 62.6268Z" fill="#001E94"/>
<path d="M102.15 61.0506V61.2544L102.285 61.0983L102.15 61.0506V61.2544L102.285 61.0983L102.263 61.1243L102.289 61.1004L102.267 61.1265L102.293 61.1026C102.211 60.9901 102.138 60.8703 102.076 60.7448C101.281 59.2118 99.0646 53.7909 97.0632 48.7755C96.0615 46.2667 95.1117 43.8555 94.4092 42.071C93.7066 40.2864 93.26 39.1329 93.2578 39.1285L93.0214 39.2218L92.8046 39.3519L106.105 61.5385L106.539 61.2761L93.2296 39.0873C93.1957 39.0364 93.1447 38.9995 93.0857 38.9832C93.0268 38.967 92.964 38.9726 92.9088 38.999C92.8537 39.0254 92.8099 39.0708 92.7856 39.1268C92.7613 39.1829 92.758 39.2459 92.7764 39.3042C92.7764 39.3042 94.9252 44.827 97.1391 50.3498C98.2472 53.1122 99.3747 55.8747 100.255 57.939C100.689 58.9755 101.077 59.8406 101.365 60.4499C101.511 60.7557 101.632 60.9964 101.727 61.1677L101.866 61.3845L101.942 61.4712C101.997 61.52 102.066 61.5483 102.139 61.5515L102.15 61.0506Z" fill="#001E94"/>
<path d="M87.0177 40.8847L95.1555 25.0232L94.9387 24.9083L94.7066 25.0145C94.7066 25.0145 96.4999 28.8894 98.4817 33.0374C99.4748 35.1082 100.511 37.2462 101.398 39.0026C102.285 40.7589 103.009 42.1228 103.408 42.6888L103.822 42.3961C103.469 41.8952 102.738 40.5204 101.851 38.7749C100.526 36.149 98.8547 32.6558 97.5147 29.8196C96.1746 26.9834 95.1685 24.8085 95.1685 24.8042L94.9517 24.6567L94.7196 24.7955L86.584 40.657L87.035 40.889L87.0177 40.8847Z" fill="#001E94"/>
<path d="M85.186 40.7133L94.924 25.3896L105.562 42.9055L105.996 42.6432L95.1452 24.7759L94.9327 24.6523L94.7159 24.7694L84.7588 40.4401L85.186 40.7133Z" fill="#001E94"/>
<path d="M96.4155 7.81543C96.4155 7.81543 96.3613 8.52014 96.3613 9.65419C96.3613 11.7532 96.5435 15.3418 97.5908 18.8003C98.6381 22.2588 100.561 25.6046 104.081 27.1398L104.287 26.6801C100.969 25.236 99.1064 22.0442 98.0808 18.6572C97.0552 15.2702 96.8731 11.7185 96.8731 9.65853C96.8731 8.53966 96.9273 7.86097 96.9273 7.8588L96.4155 7.81543Z" fill="#001E94"/>
<path d="M97.3203 7.88204C97.3333 7.89722 100.87 13.3159 106.211 15.957L106.427 15.5016C103.841 14.2245 101.657 12.2491 100.139 10.5903C99.3759 9.75984 98.7753 9.01392 98.3655 8.47183C97.9556 7.92975 97.7431 7.60449 97.7431 7.60449L97.3203 7.88204Z" fill="#001E94"/>
<path d="M96.5202 7.62662C96.5202 7.62662 95.2713 8.5395 93.3371 9.93592C90.438 12.0327 85.9994 15.2245 81.925 18.0694C77.8507 20.9143 74.1472 23.4144 72.7334 24.1061L72.9502 24.5636C74.9126 23.5857 80.8495 19.468 86.3333 15.5758C91.8171 11.6836 96.8173 8.0321 96.8173 8.0321L96.5202 7.62012V7.62662Z" fill="#001E94"/>
<path d="M78.1882 3.10497C78.5309 4.9995 79.0926 6.84778 79.8621 8.61259C81.1631 11.5962 83.3705 15.0743 87.0719 16.9933L87.3039 16.5401C83.7586 14.7078 81.599 11.336 80.3305 8.40877C79.797 7.18181 79.362 5.91439 79.0295 4.61848C78.9015 4.12627 78.8126 3.72729 78.7628 3.45191C78.7129 3.17653 78.6847 3.03125 78.6847 3.03125L78.1816 3.10497H78.1882Z" fill="#001E94"/>
<path d="M78.3555 12.77C79.5155 15.0358 80.8816 17.1901 82.4363 19.2057C85.0275 22.5709 88.7245 26.268 93.2044 27.5235L93.341 27.0334C89.0433 25.8365 85.3939 22.224 82.8375 18.8956C81.7566 17.4824 80.7631 16.0044 79.8625 14.47C79.5199 13.8845 79.2575 13.4032 79.0797 13.0671C78.9019 12.731 78.813 12.5488 78.813 12.5488L78.3555 12.7657V12.77Z" fill="#001E94"/>
<path d="M120.521 60.3524C120.521 60.3524 119.732 59.5913 118.544 58.4312C116.759 56.6965 114.07 54.062 111.783 51.7787C110.64 50.6382 109.597 49.5822 108.821 48.7712C108.43 48.3657 108.11 48.021 107.875 47.7564C107.73 47.6048 107.597 47.4417 107.479 47.2686L107.025 47.4962C107.098 47.6218 107.184 47.7395 107.281 47.8475C108.194 48.9317 111.401 52.1322 114.4 55.0833C117.399 58.0344 120.168 60.721 120.168 60.721L120.521 60.3524Z" fill="#001E94"/>
<path d="M117.855 60.8528L107.662 48.6406L107.273 48.9659L117.465 61.1781" fill="#001E94"/>
<path d="M115.779 61.0374L108.205 51.5054L107.806 51.8219L115.38 61.354" fill="#001E94"/>
<path d="M114.472 61.2546L108.765 53.5938L108.357 53.8995L114.064 61.5581" fill="#001E94"/>
</svg>
