<svg width="46" height="120" viewBox="0 0 46 120" fill="none" xmlns="http://www.w3.org/2000/svg">
<path d="M20.3695 8.40758L20.2566 8.35789L20.2129 8.24193L20.63 0.301466C20.63 0.261528 20.6459 0.223225 20.6741 0.194985C20.7024 0.166744 20.7407 0.150879 20.7806 0.150879C20.8205 0.150879 20.8588 0.166744 20.8871 0.194985C20.9153 0.223225 20.9312 0.261528 20.9312 0.301466L21.3408 8.23742L21.2986 8.35337L21.1842 8.40306L20.3695 8.40758Z" fill="white"/>
<path d="M20.7805 0.314727L21.1901 8.25068H20.3709L20.7805 0.314727ZM20.7805 8.58511e-08C20.6994 -5.98658e-05 20.6215 0.0312814 20.5631 0.0874411C20.5047 0.143601 20.4704 0.220209 20.4672 0.301175L20.0577 8.23712C20.0552 8.27968 20.0615 8.32229 20.0761 8.36232C20.0908 8.40236 20.1135 8.43896 20.1428 8.46987C20.1722 8.50078 20.2076 8.52534 20.2468 8.54203C20.286 8.55872 20.3282 8.56719 20.3709 8.56691H21.1901C21.2327 8.56719 21.2749 8.55872 21.3142 8.54203C21.3534 8.52534 21.3888 8.50078 21.4181 8.46987C21.4475 8.43896 21.4702 8.40236 21.4848 8.36232C21.4995 8.32229 21.5058 8.27968 21.5033 8.23712L21.0922 0.301175C21.0891 0.220469 21.0549 0.144082 20.9968 0.087962C20.9388 0.0318425 20.8612 0.000328649 20.7805 8.58511e-08Z" fill="#001E94"/>
<path d="M10.8259 17.2284L10.7114 17.1501L10.743 17.0146L20.3475 8.15858L21.1772 8.12695L30.8178 17.0146L30.848 17.1501L30.7335 17.2284H10.8259Z" fill="white"/>
<path d="M21.1771 8.25087L30.7334 17.1054H10.8257L20.4302 8.25087H21.1831H21.1771ZM21.1831 8.00391H20.4302L20.2646 8.06866L10.6601 16.9247C10.6232 16.958 10.5973 17.0017 10.5858 17.0501C10.5743 17.0985 10.5777 17.1492 10.5957 17.1956C10.6136 17.2419 10.6452 17.2817 10.6863 17.3097C10.7274 17.3377 10.776 17.3526 10.8257 17.3524H30.7334C30.7821 17.3527 30.8299 17.3385 30.8706 17.3117C30.9114 17.2849 30.9432 17.2467 30.9623 17.2018C30.9808 17.1557 30.9848 17.105 30.9738 17.0566C30.9628 17.0082 30.9372 16.9642 30.9005 16.9307L21.3458 8.07619L21.1831 8.00391Z" fill="#001E94"/>
<path d="M30.733 17.1049L21.877 8.89941H20.3696L12.4803 17.0868L12.4668 17.1049H30.733Z" fill="#001E94"/>
<path d="M10.8256 18.7317L10.7382 18.694L10.7036 18.6067L10.7187 17.4517C10.7187 16.4201 15.664 15.4443 20.8939 15.4443C26.1237 15.4443 31.0992 16.4201 31.0992 17.4532L31.0841 18.6097L30.9606 18.7317H10.8256Z" fill="white"/>
<path d="M20.8938 15.5678C26.4535 15.5678 30.9756 16.6219 30.9756 17.4531L30.9606 18.6081H10.8255L10.8406 17.4531C10.8406 16.6234 15.3326 15.5678 20.8938 15.5678ZM20.8938 15.3208C16.0223 15.3208 10.5936 16.1957 10.5936 17.4531L10.5801 18.6051L10.6509 18.7813L10.8255 18.8551H30.9606C31.0255 18.8551 31.0879 18.8295 31.1341 18.7838C31.1804 18.7382 31.2067 18.6761 31.2075 18.6111L31.2226 17.4561C31.2226 16.1957 25.7789 15.3208 20.8938 15.3208Z" fill="#001E94"/>
<path d="M20.8939 20.2341C26.5218 20.2341 31.0841 19.506 31.0841 18.6078C31.0841 17.7096 26.5218 16.9814 20.8939 16.9814C15.2659 16.9814 10.7036 17.7096 10.7036 18.6078C10.7036 19.506 15.2659 20.2341 20.8939 20.2341Z" fill="#001E94"/>
<path d="M20.8938 17.1054C26.4535 17.1054 30.9606 17.777 30.9606 18.6112C30.9606 19.4455 26.4535 20.1171 20.8938 20.1171C15.3341 20.1171 10.8255 19.444 10.8255 18.6112C10.8255 17.7785 15.3326 17.1054 20.8938 17.1054ZM20.8938 16.8584C17.3264 16.8584 10.5801 17.2243 10.5801 18.6082C10.5801 19.9921 17.3264 20.358 20.8938 20.358C24.4612 20.358 31.2075 19.9921 31.2075 18.6082C31.2075 17.2243 24.4597 16.8659 20.8938 16.8659V16.8584Z" fill="#001E94"/>
<path d="M12.4804 33.3683L12.3554 33.3171L12.3027 33.1906L12.3148 19.6378C12.3148 18.6424 16.6713 17.6274 20.948 17.6274C25.2246 17.6274 29.5661 18.6424 29.5661 19.6378L29.5525 33.1906C29.5527 33.2139 29.5483 33.237 29.5395 33.2585C29.5308 33.2801 29.5178 33.2997 29.5014 33.3162C29.4851 33.3327 29.4656 33.3458 29.4441 33.3548C29.4226 33.3637 29.3996 33.3683 29.3763 33.3683H12.4804Z" fill="white"/>
<path d="M20.9479 17.8026C25.6161 17.8026 29.3808 18.9395 29.3808 19.6353L29.3687 33.1881H12.4803L12.4924 19.6353C12.4924 18.9395 16.2827 17.8026 20.9479 17.8026ZM20.9479 17.4487C16.873 17.4487 12.1385 18.4035 12.1385 19.6353L12.1265 33.1881C12.1264 33.2346 12.1356 33.2806 12.1535 33.3235C12.1713 33.3664 12.1974 33.4053 12.2304 33.4381C12.2627 33.4716 12.3016 33.4983 12.3446 33.5164C12.3875 33.5345 12.4337 33.5437 12.4803 33.5435H29.3762C29.4702 33.5431 29.5602 33.5055 29.6266 33.4389C29.6929 33.3723 29.7301 33.2821 29.7301 33.1881L29.7422 19.6353C29.7422 18.4035 25.0137 17.4487 20.9479 17.4487Z" fill="#001E94"/>
<path d="M16.2087 20.1108L12.0796 21.2914V21.8802L16.2087 20.8186V20.1108Z" fill="white"/>
<path d="M16.2092 20.1107L16.1746 19.9902L12.044 21.1693L11.9536 21.2913V21.8801L12.0018 21.981L12.1102 22.0021L16.2408 20.9404L16.3357 20.8185V20.1107L16.286 20.0098L16.1746 19.9902L16.2092 20.1107H16.0842V20.7206L12.2051 21.7175V21.3862L16.2454 20.2312L16.2092 20.1107H16.0842H16.2092Z" fill="#001E94"/>
<path d="M16.2087 26.6162L12.0796 27.7953V28.3871L16.2087 27.324V26.6162Z" fill="white"/>
<path d="M16.2092 26.6166L16.1746 26.4946L12.044 27.6752L11.9536 27.7957V28.3875L12.0018 28.4869L12.1102 28.5095L16.2408 27.4463L16.3357 27.3244V26.6166L16.286 26.5157L16.1746 26.4946L16.2092 26.6166H16.0842V27.2265L12.2051 28.2249V27.8921L16.2454 26.7386L16.2092 26.6166H16.0842H16.2092Z" fill="#001E94"/>
<path d="M25.5332 20.2871L29.6638 21.4677V22.058L25.5332 20.9964V20.2871Z" fill="white"/>
<path d="M25.5332 20.287L25.4971 20.4089L29.5373 21.5624V21.8952L25.6582 20.8984V20.287H25.5332L25.4971 20.4089L25.5332 20.287H25.4067V20.9962L25.5001 21.1182L29.6322 22.1783L29.7406 22.1573L29.7903 22.0579V21.4676L29.6985 21.3471L25.5679 20.1665L25.4564 20.1876L25.4067 20.287H25.5332Z" fill="#001E94"/>
<path d="M25.5332 26.7939L29.6638 27.973V28.5633L25.5332 27.5017V26.7939Z" fill="white"/>
<path d="M25.5332 26.7939L25.4971 26.9143L29.5373 28.0693V28.4006L25.6582 27.4037V26.7939H25.5332L25.4971 26.9143L25.5332 26.7939H25.4067V27.5016L25.5001 27.6236L29.6322 28.6852L29.7406 28.6626L29.7903 28.5632V27.9729L29.6985 27.8525L25.5679 26.6719L25.4564 26.6915L25.4067 26.7939H25.5332Z" fill="#001E94"/>
<path d="M17.182 17.4487H16.5059V30.4068H17.182V17.4487Z" fill="white"/>
<path d="M16.5054 30.4079V30.5359H17.1831L17.2734 30.4982L17.3111 30.4079V17.4483L17.2734 17.358L17.1831 17.3203H16.5054L16.4151 17.358L16.3774 17.4483V30.4079L16.4151 30.4982L16.5054 30.5359V30.4079H16.6349V17.5763H17.0536V30.2783H16.5054V30.4079H16.6349H16.5054Z" fill="#001E94"/>
<path d="M25.3251 17.4487H24.6475V30.4068H25.3251V17.4487Z" fill="white"/>
<path d="M24.648 30.4079V30.5359H25.3257L25.416 30.4982L25.4537 30.4079V17.4483L25.416 17.358L25.3257 17.3203H24.648L24.5592 17.358L24.52 17.4483V30.4079L24.5592 30.4982L24.648 30.5359V30.4079H24.776V17.5763H25.1962V30.2783H24.648V30.4079H24.776H24.648Z" fill="#001E94"/>
<path d="M16.6664 17.4487H15.9888V30.4068H16.6664V17.4487Z" fill="white"/>
<path d="M15.9893 30.4079V30.5359H16.6669L16.7573 30.4982L16.7949 30.4079V17.4483L16.7573 17.358L16.6669 17.3203H15.9893L15.9004 17.358L15.8628 17.4483V30.4079L15.9004 30.4982L15.9893 30.5359V30.4079H16.1188V17.5763H16.5389V30.2783H15.9893V30.4079H16.1188H15.9893Z" fill="#001E94"/>
<path d="M25.7972 17.4487H25.1211V30.4068H25.7972V17.4487Z" fill="white"/>
<path d="M25.1207 30.4079V30.5359H25.7968L25.8872 30.4982L25.9248 30.4079V17.4483L25.8872 17.358L25.7968 17.3203H25.1207L25.0303 17.358L24.9927 17.4483V30.4079L25.0303 30.4982L25.1207 30.5359V30.4079H25.2502V17.5763H25.6688V30.2783H25.1207V30.4079H25.2502H25.1207Z" fill="#001E94"/>
<path d="M9.36327 33.3328L9.26087 33.2906L9.22021 33.1897L9.23829 31.8631C9.23829 30.6795 14.9169 29.5591 20.9254 29.5591C26.9338 29.5591 32.6486 30.6795 32.6486 31.8661L32.6305 33.1943L32.489 33.3328H9.36327Z" fill="white"/>
<path d="M20.9313 29.6991C27.3177 29.6991 32.5115 30.9129 32.5115 31.8661L32.4949 33.1912H9.36318L9.37975 31.8661C9.37975 30.9129 14.5389 29.6991 20.9253 29.6991H20.9313ZM20.9253 29.416C15.331 29.416 9.09664 30.4219 9.09664 31.8661L9.08008 33.1882L9.1614 33.39L9.36318 33.4743H32.4889C32.5632 33.4744 32.6345 33.4452 32.6875 33.393C32.7404 33.3409 32.7708 33.2701 32.772 33.1958L32.7885 31.8691C32.7885 30.4189 26.5377 29.416 20.9313 29.416H20.9253Z" fill="#001E94"/>
<path d="M20.9312 35.0599C15.2571 35.0599 9.22607 34.4048 9.22607 33.1911C9.22607 31.9773 15.2511 31.3223 20.9312 31.3223C26.6114 31.3223 32.6364 31.9773 32.6364 33.1896C32.6364 34.4018 26.5993 35.0599 20.9312 35.0599Z" fill="#001E94"/>
<path d="M20.9316 31.4728C27.318 31.4728 32.4952 32.2468 32.4952 33.1985C32.4952 34.1502 27.312 34.9182 20.9316 34.9182C14.5512 34.9182 9.36953 34.1457 9.36953 33.191C9.36953 32.2362 14.5392 31.4728 20.9316 31.4728ZM20.9316 31.1897C16.8341 31.1897 9.08643 31.6098 9.08643 33.1985C9.08643 34.7872 16.8341 35.2088 20.9316 35.2088C25.0291 35.2088 32.7783 34.7887 32.7783 33.1985C32.7783 31.6083 25.0231 31.1821 20.9316 31.1821V31.1897Z" fill="#001E94"/>
<path d="M11.4594 47.0779L11.3344 47.0267L11.2817 46.9002L11.2938 34.2283C11.2938 33.245 15.8385 31.9966 20.9479 31.9966C26.0574 31.9966 30.5855 33.245 30.5855 34.2283L30.569 46.9002C30.5692 46.9236 30.5647 46.9468 30.5558 46.9684C30.547 46.9901 30.5339 47.0098 30.5174 47.0263C30.5008 47.0428 30.4812 47.0559 30.4595 47.0648C30.4379 47.0736 30.4147 47.0781 30.3913 47.0779H11.4594Z" fill="white"/>
<path d="M20.9494 32.1747C26.1763 32.1747 30.4093 33.4471 30.4093 34.2287L30.3942 46.9006H11.4594L11.4729 34.2287C11.4729 33.4471 15.7195 32.1747 20.9494 32.1747ZM20.9494 31.8208C16.4965 31.8208 11.119 32.8945 11.119 34.2302L11.1055 46.9021C11.1051 46.9488 11.114 46.995 11.1316 47.0382C11.1492 47.0814 11.1752 47.1207 11.2081 47.1538C11.2411 47.1868 11.2802 47.213 11.3234 47.2308C11.3665 47.2486 11.4127 47.2577 11.4594 47.2575H30.3942C30.4882 47.2575 30.5784 47.2203 30.645 47.1539C30.7116 47.0876 30.7492 46.9976 30.7496 46.9036L30.7631 34.2302C30.7631 32.8945 25.3947 31.8208 20.9494 31.8208Z" fill="#001E94"/>
<path d="M11.9263 32.9302V43.4005H12.232V32.9302" fill="#001E94"/>
<path d="M12.6011 32.4741V41.6178H12.8887V32.4741" fill="#001E94"/>
<path d="M13.4019 32.1743V43.6009H13.7211V32.1743" fill="#001E94"/>
<path d="M14.2886 32.1743V43.2274H14.6033V32.1743" fill="#001E94"/>
<path d="M15.1157 32.1743V41.318H15.4003V32.1743" fill="#001E94"/>
<path d="M29.5527 33.5991V44.2727H29.8614V33.5991" fill="#001E94"/>
<path d="M28.5073 32.9302V43.2273H28.8115V32.9302" fill="#001E94"/>
<path d="M27.4443 32.4741V43.092H27.753V32.4741" fill="#001E94"/>
<path d="M26.3257 32.4741V42.7427H26.6284V32.4741" fill="#001E94"/>
<path d="M25.6538 32.1743V41.318H25.9399V32.1743" fill="#001E94"/>
<path d="M24.833 32.1743V42.8404H25.1417V32.1743" fill="#001E94"/>
<path d="M10.2636 39.5879H9.53174V45.0994H10.2636V39.5879Z" fill="white"/>
<path d="M10.2636 45.0994H10.4066V39.5879L10.3645 39.487L10.2636 39.4448H9.53173L9.43084 39.487L9.38867 39.5879V45.0994L9.43084 45.2003L9.53173 45.2424H10.2636L10.3645 45.2003L10.4066 45.0994H10.2636V44.9563H9.67479V39.7324H10.1205V45.0994H10.2636V44.9563V45.0994Z" fill="#001E94"/>
<path d="M9.78654 39.5879H9.05469V45.0994H9.78654V39.5879Z" fill="white"/>
<path d="M9.78653 45.0994H9.92959V39.5879L9.88743 39.487L9.78653 39.4448H9.05468L8.95379 39.487L8.91162 39.5879V45.0994L8.95379 45.2003L9.05468 45.2424H9.78653L9.88743 45.2003L9.92959 45.0994H9.78653V44.9563H9.19924V39.7324H9.64348V45.0994H9.78653V44.9563V45.0994Z" fill="#001E94"/>
<path d="M12.7456 38.731H12.0122V45.0993H12.7456V38.731Z" fill="white"/>
<path d="M12.7456 45.0993H12.8886V38.731L12.8465 38.6301L12.7456 38.5879H12.0122L11.9128 38.6301L11.8691 38.731V45.0993L11.9128 45.2002L12.0122 45.2423H12.7456L12.8465 45.2002L12.8886 45.0993H12.7456V44.9562H12.1568V38.874H12.601V45.0993H12.7456V44.9562V45.0993Z" fill="#001E94"/>
<path d="M12.3793 38.731H11.6475V45.0993H12.3793V38.731Z" fill="white"/>
<path d="M12.3793 45.0993H12.5224V38.731L12.4802 38.6301L12.3793 38.5879H11.6475L11.5466 38.6301L11.5044 38.731V45.0993L11.5466 45.2002L11.6475 45.2423H12.3793L12.4802 45.2002L12.5224 45.0993H12.3793V44.9562H11.7905V38.874H12.2362V45.0993H12.3793V44.9562V45.0993Z" fill="#001E94"/>
<path d="M16.3564 38.3486H15.6245V45.0995H16.3564V38.3486Z" fill="white"/>
<path d="M16.3564 45.0994H16.4994V38.3486L16.4557 38.2492L16.3564 38.207H15.6245L15.5236 38.2492L15.4814 38.3486V45.0994L15.5236 45.2003L15.6245 45.2425H16.3564L16.4557 45.2003L16.4994 45.0994H16.3564V44.9564H15.7676V38.4931H16.2118V45.0994H16.3564V44.9564V45.0994Z" fill="#001E94"/>
<path d="M15.9887 38.3486H15.2568V45.0995H15.9887V38.3486Z" fill="white"/>
<path d="M15.9891 45.0994H16.1337V38.3486L16.0915 38.2492L15.9891 38.207H15.2573L15.1579 38.2492L15.1157 38.3486V45.0994L15.1579 45.2003L15.2573 45.2425H15.9891L16.0915 45.2003L16.1337 45.0994H15.9891V44.9564H15.4003V38.4931H15.8461V45.0994H15.9891V44.9564V45.0994Z" fill="#001E94"/>
<path d="M21.3349 38.0308H20.603V45.0993H21.3349V38.0308Z" fill="white"/>
<path d="M21.3349 45.0993H21.4779V38.0323L21.4358 37.9299L21.3349 37.8877H20.603L20.5021 37.9299L20.46 38.0323V45.0993L20.5021 45.2002L20.603 45.2424H21.3349L21.4358 45.2002L21.4779 45.0993H21.3349V44.9563H20.7461V38.1738H21.1918V45.0993H21.3349V44.9563V45.0993Z" fill="#001E94"/>
<path d="M21.7177 38.0308H20.9858V45.0993H21.7177V38.0308Z" fill="white"/>
<path d="M21.7177 45.0993H21.8607V38.0323L21.8186 37.9299L21.7177 37.8877H20.9858L20.8834 37.9299L20.8428 38.0323V45.0993L20.8834 45.2002L20.9858 45.2424H21.7177L21.8186 45.2002L21.8607 45.0993H21.7177V44.9563H21.1289V38.1738H21.5746V45.0993H21.7177V44.9563V45.0993Z" fill="#001E94"/>
<path d="M26.5678 38.3486H25.8359V45.0995H26.5678V38.3486Z" fill="white"/>
<path d="M26.5697 45.0994H26.7128V38.3486L26.6706 38.2492L26.5697 38.207H25.8364L25.7355 38.2492L25.6948 38.3486V45.0994L25.7355 45.2003L25.8364 45.2425H26.5697L26.6706 45.2003L26.7128 45.0994H26.5697V44.9564H25.9809V38.4931H26.4267V45.0994H26.5697V44.9564V45.0994Z" fill="#001E94"/>
<path d="M26.934 38.3486H26.2021V45.0995H26.934V38.3486Z" fill="white"/>
<path d="M26.9335 45.0994H27.0781V38.3486L27.0344 38.2492L26.9335 38.207H26.2017L26.1008 38.2492L26.0586 38.3486V45.0994L26.1008 45.2003L26.2017 45.2425H26.9335L27.0344 45.2003L27.0781 45.0994H26.9335V44.9564H26.3447V38.4931H26.7904V45.0994H26.9335V44.9564V45.0994Z" fill="#001E94"/>
<path d="M29.6547 39.0503H28.9229V45.1009H29.6547V39.0503Z" fill="white"/>
<path d="M29.6547 45.0994H29.7978V39.0503L29.7541 38.9479L29.6547 38.9058H28.9228L28.8219 38.9479L28.7798 39.0503V45.0994L28.8219 45.2003L28.9228 45.2425H29.6547L29.7541 45.2003L29.7978 45.0994H29.6547V44.9564H29.0659V39.1934H29.5101V45.0994H29.6547V44.9564V45.0994Z" fill="#001E94"/>
<path d="M30.0209 39.0503H29.2891V45.1009H30.0209V39.0503Z" fill="white"/>
<path d="M30.0194 45.0994H30.164V39.0503L30.1203 38.9479L30.0194 38.9058H29.2891L29.1867 38.9479L29.146 39.0503V45.0994L29.1867 45.2003L29.2891 45.2425H30.0194L30.1203 45.2003L30.164 45.0994H30.0194V44.9564H29.4321V39.1934H29.8763V45.0994H30.0194V44.9564V45.0994Z" fill="#001E94"/>
<path d="M31.7665 39.5879H31.0347V45.0994H31.7665V39.5879Z" fill="white"/>
<path d="M31.766 45.0994H31.9091V39.5879L31.8669 39.487L31.766 39.4448H31.0342L30.9333 39.487L30.8911 39.5879V45.0994L30.9333 45.2003L31.0342 45.2424H31.766L31.8669 45.2003L31.9091 45.0994H31.766V44.9563H31.1772V39.7324H31.623V45.0994H31.766V44.9563V45.0994Z" fill="#001E94"/>
<path d="M32.1322 39.5879H31.4004V45.0994H32.1322V39.5879Z" fill="white"/>
<path d="M32.1322 45.0994H32.2768V39.5879L32.2331 39.487L32.1322 39.4448H31.4004L31.2995 39.487L31.2573 39.5879V45.0994L31.2995 45.2003L31.4004 45.2424H32.1322L32.2331 45.2003L32.2768 45.0994H32.1322V44.9563H31.5434V39.7324H31.9892V45.0994H32.1322V44.9563V45.0994Z" fill="#001E94"/>
<path d="M9.03466 47.3521L8.93377 47.31L8.8916 47.2091L8.90967 44.4669C8.90967 43.2547 14.9407 42.5996 20.6148 42.5996C26.2889 42.5996 32.3185 43.2547 32.3185 44.4684L32.3034 47.2121L32.1603 47.3521H9.03466Z" fill="white"/>
<path d="M20.6212 42.7426C27.0077 42.7426 32.1833 43.5136 32.1833 44.4683L32.1668 47.2105H9.03506L9.05012 44.4683C9.05012 43.5136 14.2288 42.7426 20.6152 42.7426H20.6212ZM20.6152 42.4595C16.5162 42.4595 8.76852 42.8796 8.76852 44.4683L8.75195 47.209L8.83327 47.4108L9.03506 47.4936H32.1668C32.2416 47.4936 32.3134 47.464 32.3664 47.4112C32.4195 47.3584 32.4495 47.2868 32.4499 47.212L32.4679 44.4698C32.4679 42.8796 24.7172 42.4655 20.6212 42.4655L20.6152 42.4595Z" fill="#001E94"/>
<path d="M20.6031 49.0778C14.929 49.0778 8.89795 48.4228 8.89795 47.2105C8.89795 45.9983 14.929 45.3433 20.6031 45.3433C26.2772 45.3433 32.3098 45.9968 32.3098 47.2105C32.3098 48.4243 26.2772 49.0778 20.6031 49.0778Z" fill="#001E94"/>
<path d="M20.6032 45.4848C26.9896 45.4848 32.1668 46.2573 32.1668 47.2105C32.1668 48.1637 26.9896 48.9407 20.6032 48.9407C14.2168 48.9407 9.03506 48.1637 9.03506 47.2105C9.03506 46.2573 14.2107 45.4848 20.5971 45.4848H20.6032ZM20.5971 45.2017C16.5012 45.2017 8.75195 45.6218 8.75195 47.2105C8.75195 48.7992 16.5012 49.2193 20.5971 49.2193C24.6931 49.2193 32.4439 48.7992 32.4439 47.2105C32.4439 45.6218 24.6961 45.2017 20.6032 45.2017H20.5971Z" fill="#001E94"/>
<path d="M8.15523 102.72L8.02723 102.666L7.97754 102.536L10.1611 47.6306C10.1626 47.5847 10.1821 47.5412 10.2153 47.5094C10.2485 47.4776 10.2928 47.46 10.3387 47.4605L30.9602 47.7616C31.0054 47.7624 31.0485 47.7805 31.0808 47.8121C31.113 47.8438 31.1318 47.8866 31.1334 47.9318L33.2913 102.542L33.2416 102.672L33.1151 102.726L8.15523 102.72Z" fill="white"/>
<path d="M10.3395 47.6381L30.9579 47.9392L33.1158 102.55H8.156L10.3395 47.6456V47.6381ZM10.3395 47.2917C10.2481 47.2916 10.1601 47.3268 10.0939 47.3899C10.0277 47.453 9.98839 47.5392 9.98413 47.6305L7.80212 102.529C7.79994 102.576 7.80764 102.624 7.82475 102.669C7.84185 102.713 7.86798 102.754 7.90151 102.788C7.93442 102.822 7.97393 102.849 8.01767 102.868C8.0614 102.887 8.10846 102.896 8.156 102.896H33.1158C33.1636 102.896 33.2108 102.886 33.2548 102.868C33.2987 102.849 33.3385 102.822 33.3718 102.788C33.4049 102.753 33.4306 102.713 33.4474 102.668C33.4642 102.624 33.4718 102.576 33.4697 102.529L31.3118 47.9197C31.308 47.8291 31.2697 47.7434 31.2047 47.6801C31.1398 47.6168 31.0531 47.5808 30.9624 47.5793L10.344 47.2842L10.3395 47.2917Z" fill="#001E94"/>
<path d="M30.7886 55.5665C29.9408 55.1147 29.0162 55.044 28.0781 54.9642C27.5344 54.916 26.9968 54.8422 26.4623 54.7563H15.1501C14.7224 54.8268 14.301 54.931 13.8897 55.0681C13.3702 55.2427 12.8703 55.4626 12.3402 55.6102C11.5772 55.8184 10.7952 55.9495 10.0061 56.0017L9.9082 58.4277C11.6219 57.7937 15.7811 57.348 20.6345 57.348C25.488 57.348 29.6698 57.7997 31.3729 58.4322L31.2705 55.8556C31.1124 55.7517 30.9558 55.6493 30.7886 55.5665Z" fill="#001E94"/>
<path d="M11.017 49.084H10.3394V55.8529H11.017V49.084Z" fill="white"/>
<path d="M11.0167 55.8516V55.7191H10.4701V49.2152H10.8842V55.8516H11.0167V55.7191V55.8516H11.1493V49.0827L11.1101 48.9893L11.0167 48.9502H10.3391L10.2442 48.9893L10.2051 49.0827V55.8516L10.2442 55.9465L10.3391 55.9841H11.0167L11.1101 55.945L11.1493 55.8516H11.0167Z" fill="#001E94"/>
<path d="M10.5751 49.084H9.896V55.8529H10.5751V49.084Z" fill="white"/>
<path d="M10.5754 55.8516V55.7191H10.0272V49.2152H10.4414V55.8516H10.5754V55.7191V55.8516H10.7079V49.0827L10.6687 48.9893L10.5754 48.9502H9.89623L9.80136 48.9893L9.76221 49.0827V55.8516L9.80136 55.9465L9.89623 55.9841H10.5754L10.6687 55.945L10.7079 55.8516H10.5754Z" fill="#001E94"/>
<path d="M13.3193 48.2871H12.6401V55.0545H13.3193V48.2871Z" fill="white"/>
<path d="M13.3195 55.0547V54.9222H12.7728V48.4198H13.1855V55.0547H13.3195V54.9222V55.0547H13.4505V48.2873L13.4128 48.1939L13.3195 48.1548H12.6403L12.5455 48.1939L12.5078 48.2873V55.0547L12.5455 55.1496L12.6403 55.1872H13.3195L13.4128 55.1481L13.4505 55.0547H13.3195Z" fill="#001E94"/>
<path d="M12.9785 48.2871H12.2993V55.0545H12.9785V48.2871Z" fill="white"/>
<path d="M12.9802 55.0547V54.9222H12.432V48.4198H12.8461V55.0547H12.9802V54.9222V55.0547H13.1112V48.2873L13.072 48.1939L12.9802 48.1548H12.2995L12.2061 48.1939L12.167 48.2873V55.0547L12.2061 55.1496L12.2995 55.1872H12.9802L13.072 55.1481L13.1112 55.0547H12.9802Z" fill="#001E94"/>
<path d="M16.6669 47.9336H15.9878V54.7025H16.6669V47.9336Z" fill="white"/>
<path d="M16.6666 54.7022V54.5697H16.1215V48.0658H16.5341V54.7022H16.6666V54.5697V54.7022H16.7992V47.9333L16.7615 47.8399L16.6666 47.8008H15.9875L15.8941 47.8399L15.855 47.9333V54.7022L15.8941 54.7956L15.9875 54.8347H16.6666L16.7615 54.7956L16.7992 54.7022H16.6666Z" fill="#001E94"/>
<path d="M16.3266 47.9336H15.6489V54.7025H16.3266V47.9336Z" fill="white"/>
<path d="M16.3278 54.7022V54.5697H15.7811V48.0658H16.1953V54.7022H16.3278V54.5697V54.7022H16.4603V47.9333L16.4211 47.8399L16.3278 47.8008H15.6486L15.5553 47.8399L15.5161 47.9333V54.7022L15.5553 54.7956L15.6486 54.8347H16.3278L16.4211 54.7956L16.4603 54.7022H16.3278Z" fill="#001E94"/>
<path d="M21.2856 47.6382H20.6064V54.4071H21.2856V47.6382Z" fill="white"/>
<path d="M21.2853 54.4073V54.2748H20.7387V47.7709H21.1528V54.4073H21.2853V54.2748V54.4073H21.4178V47.6384L21.3787 47.5435L21.2853 47.5059H20.6061L20.5128 47.5435L20.4736 47.6384V54.4073L20.5128 54.5006L20.6061 54.5398H21.2853L21.3787 54.5006L21.4178 54.4073H21.2853Z" fill="#001E94"/>
<path d="M21.6376 47.6382H20.96V54.4071H21.6376V47.6382Z" fill="white"/>
<path d="M21.6373 54.4073V54.2748H21.0922V47.7709H21.5048V54.4073H21.6373V54.2748V54.4073H21.7698V47.6384L21.7322 47.5435L21.6373 47.5059H20.9597L20.8648 47.5435L20.8271 47.6384V54.4073L20.8648 54.5006L20.9597 54.5398H21.6373L21.7322 54.5006L21.7698 54.4073H21.6373Z" fill="#001E94"/>
<path d="M26.1371 47.9336H25.4595V54.7025H26.1371V47.9336Z" fill="white"/>
<path d="M26.1373 54.7022V54.5697H25.5922V48.0658H26.0063V54.7022H26.1373V54.5697V54.7022H26.2698V47.9333L26.2322 47.8399L26.1373 47.8008H25.4597L25.3663 47.8399L25.3271 47.9333V54.7022L25.3663 54.7956L25.4597 54.8347H26.1373L26.2322 54.7956L26.2698 54.7022H26.1373Z" fill="#001E94"/>
<path d="M26.4775 47.9336H25.7983V54.7025H26.4775V47.9336Z" fill="white"/>
<path d="M26.4757 54.7022V54.5697H25.9321V48.0658H26.3447V54.7022H26.4757V54.5697V54.7022H26.6097V47.9333L26.5706 47.8399L26.4757 47.8008H25.798L25.7047 47.8399L25.6655 47.9333V54.7022L25.7047 54.7956L25.798 54.8347H26.4757L26.5706 54.7956L26.6097 54.7022H26.4757Z" fill="#001E94"/>
<path d="M28.9985 48.584H28.3208V55.3514H28.9985V48.584Z" fill="white"/>
<path d="M28.9982 55.3511V55.2171H28.453V48.7147H28.8671V55.3511H28.9982V55.2171V55.3511H29.1322V48.5837L29.093 48.4889L28.9982 48.4497H28.3205L28.2271 48.4889L28.188 48.5837V55.3511L28.2271 55.4445L28.3205 55.4836H28.9982L29.093 55.4445L29.1322 55.3511H28.9982Z" fill="#001E94"/>
<path d="M29.3368 48.584H28.6592V55.3514H29.3368V48.584Z" fill="white"/>
<path d="M29.339 55.3511V55.2171H28.7939V48.7147H29.2065V55.3511H29.339V55.2171V55.3511H29.4715V48.5837L29.4324 48.4889L29.339 48.4497H28.6599L28.5665 48.4889L28.5273 48.5837V55.3511L28.5665 55.4445L28.6599 55.4836H29.339L29.4324 55.4445L29.4715 55.3511H29.339Z" fill="#001E94"/>
<path d="M30.956 49.084H30.2783V55.8529H30.956V49.084Z" fill="white"/>
<path d="M30.9577 55.8516V55.7191H30.4125V49.2152H30.8251V55.8516H30.9577V55.7191V55.8516H31.0902V49.0827L31.051 48.9893L30.9577 48.9502H30.2785L30.1851 48.9893L30.146 49.0827V55.8516L30.1851 55.9465L30.2785 55.9841H30.9577L31.051 55.945L31.0902 55.8516H30.9577Z" fill="#001E94"/>
<path d="M31.2963 49.084H30.6187V55.8529H31.2963V49.084Z" fill="white"/>
<path d="M31.2965 55.8516V55.7191H30.7514V49.2152H31.164V55.8516H31.2965V55.7191V55.8516H31.4305V49.0827L31.3914 48.9893L31.2965 48.9502H30.6188L30.524 48.9893L30.4863 49.0827V55.8516L30.524 55.9465L30.6188 55.9841H31.2965L31.3914 55.945L31.4305 55.8516H31.2965Z" fill="#001E94"/>
<path d="M31.522 57.723L31.3895 57.5905C31.3895 56.7382 26.7574 55.7834 20.5577 55.7834C14.2481 55.7834 9.85097 56.7367 9.85097 57.5905L9.71996 57.723L9.58594 57.5905V56.0184C9.58594 54.6962 15.2796 53.9824 20.6345 53.9824C25.9894 53.9824 31.656 54.6962 31.656 56.0184V57.5935L31.522 57.723Z" fill="white"/>
<path d="M20.63 54.1122C26.539 54.1122 31.5174 54.945 31.5174 56.0157V57.5908C31.5174 56.5186 26.4622 55.6512 20.5532 55.6512C14.6441 55.6512 9.71087 56.5186 9.71087 57.5908V56.0187C9.71087 54.948 14.7179 54.1153 20.6254 54.1153L20.63 54.1122ZM20.6254 53.8487C16.1304 53.8487 9.44434 54.427 9.44434 56.0187V57.5938C9.44434 57.6641 9.47226 57.7315 9.52196 57.7812C9.57167 57.8309 9.63908 57.8589 9.70937 57.8589C9.77966 57.8589 9.84707 57.8309 9.89678 57.7812C9.94648 57.7315 9.9744 57.6641 9.9744 57.5938C9.9744 57.0095 13.6066 55.9193 20.5486 55.9193C26.9802 55.9193 31.2403 56.9282 31.2403 57.5938C31.2454 57.6609 31.2756 57.7235 31.3249 57.7692C31.3742 57.8149 31.4389 57.8403 31.5061 57.8403C31.5734 57.8403 31.6381 57.8149 31.6874 57.7692C31.7367 57.7235 31.7669 57.6609 31.7719 57.5938V56.0187C31.787 54.424 25.1175 53.8457 20.63 53.8457L20.6254 53.8487Z" fill="#001E94"/>
<path d="M9.71576 56.9597C9.71576 56.8829 9.76093 56.7866 9.89947 56.6736C10.3768 56.2716 11.7893 55.8785 13.7033 55.6195C16.0002 55.3228 18.3144 55.1799 20.6303 55.1919C23.5788 55.1919 26.3255 55.4012 28.3283 55.7415C29.1375 55.863 29.9325 56.0647 30.7016 56.3438C30.9243 56.4258 31.1338 56.54 31.3235 56.6827C31.373 56.7147 31.4149 56.7569 31.4466 56.8065C31.4783 56.8561 31.499 56.912 31.5072 56.9703L31.6398 57.1043L31.7723 56.9703C31.7654 56.8729 31.7368 56.7782 31.6886 56.6933C31.6404 56.6083 31.5738 56.5353 31.4937 56.4794C30.9094 56.0035 29.5074 55.6376 27.5784 55.3635C25.275 55.0603 22.9536 54.9129 20.6303 54.9223C17.6698 54.9223 14.908 55.1316 12.866 55.475C12.0341 55.5979 11.2164 55.8032 10.425 56.0878C10.1758 56.18 9.94184 56.3089 9.73082 56.4703C9.65028 56.5264 9.58322 56.5996 9.53452 56.6848C9.48581 56.77 9.45667 56.8649 9.44922 56.9628L9.58324 57.0968L9.71576 56.9597Z" fill="#001E94"/>
<path d="M32.397 40.9401L32.2554 40.797C32.2554 39.877 27.2604 38.8485 20.5759 38.8485C13.7723 38.8515 9.03486 39.8755 9.03486 40.797L8.8918 40.9401L8.74121 40.797V39.0999C8.74121 37.6724 14.8807 36.9014 20.6557 36.9014C26.4307 36.9014 32.5385 37.6724 32.5385 39.0999V40.797L32.397 40.9401Z" fill="white"/>
<path d="M20.6591 37.0444C27.0304 37.0444 32.3974 37.9479 32.3974 39.0984V40.7955C32.3974 39.6405 26.9476 38.7024 20.5763 38.7024C14.2049 38.7024 8.88467 39.642 8.88467 40.7971V39.0999C8.88467 37.9479 14.2877 37.0444 20.6591 37.0444ZM20.6591 36.7583C15.8132 36.7583 8.60156 37.3817 8.60156 39.0984V40.7955C8.60156 40.8331 8.60896 40.8703 8.62334 40.905C8.63772 40.9397 8.6588 40.9713 8.68536 40.9979C8.71193 41.0244 8.74347 41.0455 8.77819 41.0599C8.8129 41.0743 8.85011 41.0817 8.88768 41.0817C8.92525 41.0817 8.96246 41.0743 8.99717 41.0599C9.03188 41.0455 9.06342 41.0244 9.08999 40.9979C9.11656 40.9713 9.13764 40.9397 9.15202 40.905C9.16639 40.8703 9.17379 40.8331 9.17379 40.7955C9.17379 40.1661 13.0891 38.9885 20.5763 38.9885C27.5123 38.9885 32.1128 40.0757 32.1128 40.7955C32.1128 40.8714 32.1429 40.9442 32.1966 40.9979C32.2502 41.0515 32.323 41.0817 32.3989 41.0817C32.4748 41.0817 32.5475 41.0515 32.6012 40.9979C32.6548 40.9442 32.685 40.8714 32.685 40.7955V39.0999C32.685 37.3832 25.4929 36.7598 20.6591 36.7598V36.7583Z" fill="#001E94"/>
<path d="M8.88438 40.1179C8.89291 40.0548 8.91512 39.9944 8.94945 39.9408C8.98379 39.8872 9.02942 39.8418 9.08315 39.8077C9.59666 39.374 11.1221 38.9508 13.1852 38.6677C15.6633 38.3476 18.1601 38.1936 20.6588 38.2069C23.8377 38.2069 26.7997 38.4313 28.9592 38.7972C29.8318 38.9262 30.6894 39.1421 31.5191 39.4417C31.7601 39.5293 31.9866 39.6526 32.1908 39.8077C32.3414 39.9296 32.3895 40.0335 32.388 40.1179L32.5386 40.2609L32.6817 40.1179C32.6744 40.0124 32.6435 39.9099 32.5914 39.8179C32.5393 39.7259 32.4672 39.6468 32.3805 39.5863C31.7511 39.0743 30.2392 38.6828 28.1641 38.3816C25.6795 38.0599 23.1761 37.9055 20.6708 37.9193C17.4784 37.9193 14.4968 38.1437 12.2982 38.5217C11.401 38.6539 10.5192 38.8754 9.66593 39.1827C9.39596 39.281 9.14218 39.4191 8.91299 39.5923C8.82643 39.653 8.75447 39.7321 8.70237 39.8241C8.65027 39.9161 8.61934 40.0185 8.61182 40.1239L8.75487 40.267L8.88438 40.1179Z" fill="#001E94"/>
<path d="M31.5147 49.8051L31.3821 49.6726C31.3821 48.8203 26.7501 47.8656 20.5504 47.8656C14.2408 47.8656 9.84515 48.8173 9.84515 49.6726L9.71113 49.8051L9.57861 49.6726V48.099C9.57861 46.7753 15.2708 46.0615 20.6272 46.0615C25.9836 46.0615 31.6472 46.7753 31.6472 48.099V49.6726L31.5147 49.8051Z" fill="white"/>
<path d="M20.6302 46.1942C26.5392 46.1942 31.5176 47.027 31.5176 48.0992V49.6728C31.5176 48.6021 26.4624 47.7332 20.5534 47.7332C14.6443 47.7332 9.7111 48.6021 9.7111 49.6728V48.0992C9.7111 47.027 14.7196 46.1942 20.6272 46.1942H20.6302ZM20.6272 45.9292C16.1336 45.9292 9.44607 46.5075 9.44607 48.0992V49.6728C9.44331 49.7094 9.44814 49.7461 9.46024 49.7808C9.47235 49.8154 9.49148 49.8472 9.51643 49.8741C9.54138 49.901 9.57162 49.9224 9.60524 49.9371C9.63887 49.9518 9.67516 49.9594 9.71185 49.9594C9.74854 49.9594 9.78484 49.9518 9.81846 49.9371C9.85209 49.9224 9.88232 49.901 9.90727 49.8741C9.93222 49.8472 9.95135 49.8154 9.96346 49.7808C9.97557 49.7461 9.98039 49.7094 9.97764 49.6728C9.97764 49.0885 13.6098 47.9983 20.5504 47.9983C26.982 47.9983 31.2496 49.0057 31.2496 49.6728C31.2496 49.7431 31.2775 49.8105 31.3272 49.8602C31.3769 49.9099 31.4443 49.9378 31.5146 49.9378C31.5849 49.9378 31.6523 49.9099 31.702 49.8602C31.7517 49.8105 31.7797 49.7431 31.7797 49.6728V48.0992C31.7736 46.5075 25.1102 45.9292 20.6302 45.9292H20.6272Z" fill="#001E94"/>
<path d="M9.70782 49.0433C9.70782 48.965 9.75451 48.8686 9.89154 48.7557C10.3689 48.3536 11.7829 47.9621 13.6969 47.7016C15.9937 47.4039 18.3079 47.261 20.6239 47.2739C23.5724 47.2739 26.3191 47.4817 28.3219 47.822C29.1306 47.9434 29.9251 48.1452 30.6937 48.4244C30.9174 48.5052 31.1276 48.6194 31.3171 48.7632C31.4526 48.8761 31.5008 48.9725 31.4993 49.0508L31.6333 49.1833L31.7658 49.0508C31.7588 48.9532 31.7302 48.8584 31.682 48.7732C31.6338 48.6881 31.5673 48.6147 31.4873 48.5584C30.903 48.0825 29.5025 47.7166 27.572 47.4425C25.2703 47.1419 22.9511 46.996 20.6299 47.0058C17.6694 47.0058 14.9076 47.2137 12.8671 47.557C12.0347 47.6799 11.2165 47.8852 10.4246 48.1699C10.1738 48.2609 9.93823 48.3893 9.72589 48.5509C9.64494 48.6064 9.57766 48.6795 9.52914 48.7648C9.48062 48.8501 9.45212 48.9454 9.4458 49.0433L9.57681 49.1758L9.70782 49.0433Z" fill="#001E94"/>
<path d="M30.7602 56.9536L32.0522 92.5404L30.4771 56.9657L30.7602 56.9536Z" fill="#001E94"/>
<path d="M29.849 56.5259L30.9573 90.417L29.5659 56.5364L29.849 56.5259Z" fill="#001E94"/>
<path d="M28.8006 56.2881L29.7057 87.3196L28.519 56.2986L28.8006 56.2881Z" fill="#001E94"/>
<path d="M27.5902 56.083L28.6594 83.6013L27.3071 56.0966L27.5902 56.083Z" fill="#001E94"/>
<path d="M26.6175 56.083L27.4473 78.5566L26.3359 56.0966L26.6175 56.083Z" fill="#001E94"/>
<path d="M25.6 56.0005L26.4764 75.0904L25.3184 56.0155L25.6 56.0005Z" fill="#001E94"/>
<path d="M24.6415 55.8423L25.4592 69.8454L24.3584 55.8604L24.6415 55.8423Z" fill="#001E94"/>
<path d="M23.6961 55.9976L24.5003 67.6109L23.4146 56.0202L23.6961 55.9976Z" fill="#001E94"/>
<path d="M22.871 55.8394L23.5562 65.3098L22.5879 55.8635L22.871 55.8394Z" fill="#001E94"/>
<path d="M10.7152 56.9672L9.896 70.3333L10.4321 56.9536L10.7152 56.9672Z" fill="#001E94"/>
<path d="M11.6385 56.5365L11.0166 67.323L11.3554 56.5244L11.6385 56.5365Z" fill="#001E94"/>
<path d="M12.7814 56.5396L12.0933 65.3098L12.4983 56.5215L12.7814 56.5396Z" fill="#001E94"/>
<path d="M13.3191 69.7505L13.1851 69.6165V64.8113C13.1851 64.6408 13.2186 64.472 13.2839 64.3145C13.3491 64.157 13.4447 64.0139 13.5653 63.8934C13.6858 63.7728 13.8289 63.6772 13.9864 63.612C14.1439 63.5468 14.3127 63.5132 14.4831 63.5132C14.6536 63.5132 14.8224 63.5468 14.9799 63.612C15.1374 63.6772 15.2805 63.7728 15.401 63.8934C15.5215 64.0139 15.6171 64.157 15.6824 64.3145C15.7476 64.472 15.7812 64.6408 15.7812 64.8113V69.6165L15.6487 69.7505H13.3191Z" fill="#001E94"/>
<path d="M14.4828 63.6469C14.6358 63.6467 14.7873 63.6767 14.9287 63.7351C15.0701 63.7935 15.1987 63.8792 15.3069 63.9873C15.4152 64.0954 15.501 64.2238 15.5596 64.3651C15.6182 64.5065 15.6484 64.658 15.6484 64.811V69.6162H13.3188V64.811C13.3188 64.5022 13.4414 64.2062 13.6597 63.9879C13.878 63.7695 14.1741 63.6469 14.4828 63.6469ZM14.4828 63.3804C14.1037 63.3812 13.7402 63.5321 13.4721 63.8003C13.204 64.0684 13.053 64.4318 13.0522 64.811V69.6162C13.0522 69.6869 13.0803 69.7547 13.1303 69.8047C13.1803 69.8547 13.2481 69.8827 13.3188 69.8827H15.6484C15.6833 69.8827 15.7179 69.8758 15.7501 69.8624C15.7824 69.849 15.8117 69.8294 15.8363 69.8046C15.8609 69.7798 15.8804 69.7504 15.8937 69.7181C15.9069 69.6858 15.9136 69.6511 15.9134 69.6162V64.811C15.913 64.4317 15.7622 64.068 15.494 63.7998C15.2258 63.5316 14.8621 63.3808 14.4828 63.3804Z" fill="#001E94"/>
<path d="M14.8233 63.6983C14.6492 63.6445 14.4648 63.6324 14.2852 63.6629C14.1055 63.6934 13.9356 63.7658 13.789 63.8741C13.6424 63.9824 13.5234 64.1236 13.4415 64.2864C13.3596 64.4492 13.317 64.629 13.3174 64.8112V69.6164H14.0041V64.8112C14.0038 64.5625 14.0832 64.3203 14.2307 64.1201C14.3781 63.9198 14.5858 63.772 14.8233 63.6983Z" fill="white"/>
<path d="M13.6579 88.0722L13.5239 87.9382V83.1345C13.5239 82.7902 13.6607 82.46 13.9041 82.2166C14.1476 81.9732 14.4777 81.8364 14.822 81.8364C15.1663 81.8364 15.4964 81.9732 15.7399 82.2166C15.9833 82.46 16.1201 82.7902 16.1201 83.1345V87.9427L15.9875 88.0768L13.6579 88.0722Z" fill="#001E94"/>
<path d="M14.8237 81.9677C14.9767 81.9679 15.1282 81.9982 15.2696 82.057C15.4109 82.1157 15.5393 82.2017 15.6474 82.3101C15.7555 82.4185 15.8412 82.5471 15.8995 82.6886C15.9579 82.8301 15.9879 82.9817 15.9877 83.1347V87.943H13.6581V83.1392C13.6581 82.83 13.7809 82.5334 13.9994 82.3145C14.2179 82.0957 14.5144 81.9726 14.8237 81.9722V81.9677ZM14.8237 81.7072C14.4441 81.7076 14.0802 81.8586 13.812 82.1271C13.5437 82.3957 13.3931 82.7597 13.3931 83.1392V87.943C13.3929 87.9779 13.3996 88.0125 13.4128 88.0449C13.426 88.0772 13.4455 88.1066 13.4702 88.1314C13.4948 88.1561 13.5241 88.1758 13.5563 88.1892C13.5886 88.2026 13.6232 88.2095 13.6581 88.2095H15.9877C16.0584 88.2095 16.1262 88.1814 16.1762 88.1314C16.2261 88.0815 16.2542 88.0137 16.2542 87.943V83.1392C16.2548 82.9509 16.2183 82.7643 16.1467 82.5902C16.0751 82.416 15.9698 82.2577 15.8369 82.1242C15.704 81.9908 15.5461 81.8848 15.3723 81.8125C15.1984 81.7402 15.012 81.7028 14.8237 81.7026V81.7072Z" fill="#001E94"/>
<path d="M15.1626 82.019C15.0526 81.9858 14.9386 81.9686 14.8237 81.9678C14.5145 81.9682 14.218 82.0913 13.9995 82.3101C13.781 82.5289 13.6582 82.8256 13.6582 83.1348V87.9431H14.3374V83.1393C14.3361 82.8887 14.4158 82.6443 14.5644 82.4425C14.7131 82.2407 14.9228 82.0922 15.1626 82.019Z" fill="white"/>
<path d="M31.373 43.8887L31.3821 46.6414L31.6637 46.6399L31.6561 43.8872" fill="#001E94"/>
<path d="M30.4771 43.6011V46.3463H30.7602V43.6011" fill="#001E94"/>
<path d="M29.5659 43.4009V46.1461H29.849V43.4009" fill="#001E94"/>
<path d="M28.519 43.2275V45.9728H28.8006V43.2275" fill="#001E94"/>
<path d="M27.4688 43.0918V45.837H27.7519V43.0918" fill="#001E94"/>
<path d="M26.3359 42.7443L26.3781 45.6461L26.6612 45.6416L26.6175 42.7397" fill="#001E94"/>
<path d="M25.3184 42.8994V45.6446H25.6015V42.8994" fill="#001E94"/>
<path d="M24.3584 42.8403V45.584H24.6415V42.8403" fill="#001E94"/>
<path d="M23.4146 42.7427V45.4849H23.6977V42.7427" fill="#001E94"/>
<path d="M9.44161 43.8872L9.43408 46.6896L9.71719 46.6911L9.72321 43.8887" fill="#001E94"/>
<path d="M10.1973 43.6011V46.3463H10.4789V43.6011" fill="#001E94"/>
<path d="M11.1162 43.4009V46.1461H11.3993V43.4009" fill="#001E94"/>
<path d="M12.1582 43.0918V45.837H12.4413V43.0918" fill="#001E94"/>
<path d="M13.1763 42.8994V45.8374H13.4594V42.8994" fill="#001E94"/>
<path d="M24.8401 20.1108H16.9614V20.8186H24.8401V20.1108Z" fill="white"/>
<path d="M24.8406 20.8186V20.6921H17.0884V20.2374H24.7141V20.8186H24.8406V20.6921V20.8186H24.9656V20.1109L24.9295 20.022L24.8406 19.9844H16.9619L16.8731 20.022L16.8369 20.1109V20.8186L16.8731 20.9075L16.9619 20.9451H24.8406L24.9295 20.9075L24.9656 20.8186H24.8406Z" fill="#001E94"/>
<path d="M24.8723 26.6162H16.9951V27.324H24.8723V26.6162Z" fill="white"/>
<path d="M24.8734 27.324V27.1975H17.1212V26.7427H24.7469V27.324H24.8734V27.1975V27.324H24.9984V26.6162L24.9622 26.5274L24.8734 26.4897H16.9947L16.9058 26.5274L16.8682 26.6162V27.324L16.9058 27.4128L16.9947 27.4505H24.8734L24.9622 27.4128L24.9984 27.324H24.8734Z" fill="#001E94"/>
<path d="M18.9502 4.28125C18.9499 4.64312 19.0569 4.99695 19.2577 5.298C19.4585 5.59905 19.7441 5.83379 20.0783 5.97255C20.4125 6.1113 20.7803 6.14784 21.1353 6.07753C21.4903 6.00723 21.8164 5.83324 22.0725 5.57757C22.3286 5.3219 22.5031 4.99604 22.574 4.64118C22.6449 4.28633 22.609 3.91842 22.4708 3.58398C22.3326 3.24954 22.0983 2.9636 21.7976 2.76231C21.4969 2.56102 21.1432 2.45342 20.7813 2.45313C20.5411 2.45293 20.3031 2.50006 20.0811 2.59182C19.859 2.68359 19.6572 2.81819 19.4871 2.98795C19.3171 3.15771 19.1822 3.35929 19.09 3.5812C18.9979 3.8031 18.9504 4.04098 18.9502 4.28125Z" fill="white"/>
<path d="M18.9497 4.28116H18.8233C18.8218 4.66866 18.9353 5.04789 19.1495 5.37081C19.3637 5.69373 19.6689 5.94581 20.0265 6.09514C20.3841 6.24446 20.7779 6.2843 21.1582 6.20962C21.5384 6.13494 21.8879 5.94909 22.1625 5.67561C22.437 5.40213 22.6242 5.05333 22.7003 4.67338C22.7765 4.29343 22.7382 3.89943 22.5902 3.54128C22.4423 3.18313 22.1914 2.87695 21.8693 2.66151C21.5472 2.44606 21.1684 2.33106 20.7809 2.33105C20.2617 2.33105 19.7638 2.5373 19.3966 2.90443C19.0295 3.27156 18.8233 3.76949 18.8233 4.28869H19.0687C19.0675 3.95125 19.1664 3.62103 19.3529 3.3398C19.5394 3.05856 19.8051 2.83894 20.1164 2.70871C20.4277 2.57848 20.7706 2.54348 21.1018 2.60814C21.433 2.67281 21.7376 2.83423 21.977 3.07199C22.2165 3.30976 22.38 3.61319 22.447 3.94391C22.514 4.27464 22.4815 4.61781 22.3534 4.93002C22.2254 5.24223 22.0077 5.50947 21.7278 5.69793C21.4478 5.8864 21.1183 5.98763 20.7809 5.98882C20.3283 5.98842 19.8943 5.80833 19.5744 5.48812C19.2544 5.16792 19.0747 4.7338 19.0747 4.28116H18.9497Z" fill="#001E94"/>
<path d="M19.3623 119.875L19.3156 119.866C18.9603 119.715 10.6117 116.271 9.83918 115.74L0.192559 111.102L0.132324 110.942C0.145877 110.912 1.46803 107.873 1.99358 106.82L3.32176 106.257L3.97381 102.521L4.09578 102.42H4.89691C5.14688 101.968 6.60758 99.4461 8.11496 98.916H9.90845L14.0225 99.7126C14.2559 99.4341 15.2709 98.2444 15.9289 97.8815C16.6472 97.4824 19.5912 96.3289 19.7162 96.2808L23.1797 97.6089L27.476 98.9221L30.3371 100.642C30.891 100.481 31.4637 100.396 32.0403 100.387C33.0718 100.387 37.2807 102.355 37.4614 102.438L39.6043 104.76H42.4654L45.0646 106.778L45.1097 106.894L45.0314 106.991C45.0043 107.001 42.3344 108.022 41.0077 108.921L41.2592 110.171L41.211 110.294C41.0258 110.428 36.6603 113.631 34.6786 114.425C32.6968 115.219 22.8635 117.854 22.7656 117.879L19.4256 119.858L19.3623 119.875Z" fill="#001E94"/>
<path d="M19.7613 96.3881L23.142 97.7163L27.4473 99.0324L30.3325 100.769C30.8906 100.6 31.4694 100.511 32.0523 100.504H32.0643C33.0672 100.504 37.4177 102.543 37.4177 102.543L39.5425 104.884H42.4654L44.9877 106.876C44.9877 106.876 42.2003 107.931 40.8722 108.867L41.1372 110.195C41.1372 110.195 36.6196 113.508 34.6333 114.309C32.6471 115.111 22.7369 117.761 22.7369 117.761L19.3698 119.753C19.3698 119.753 10.6854 116.169 9.91592 115.638L0.245209 110.991C0.245209 110.991 1.57339 107.938 2.10797 106.876L3.43615 106.345L4.09573 102.55H4.96913C4.96913 102.55 6.56084 99.6001 8.15556 99.0399H9.90839L14.0706 99.8395C14.0706 99.8395 15.2753 98.3788 15.9876 97.9813C16.6999 97.5837 19.7613 96.3881 19.7613 96.3881ZM19.7613 96.1411L19.6725 96.1592C19.546 96.2074 16.5945 97.3639 15.8686 97.7659C15.2301 98.1183 14.2784 99.2116 13.9743 99.573L9.95658 98.7854H9.90839H8.15556L8.07274 98.8005C6.58795 99.323 5.16038 101.705 4.82457 102.297H4.09573C4.03775 102.297 3.9815 102.317 3.93708 102.354C3.89265 102.391 3.86294 102.443 3.85328 102.5L3.21328 106.164L2.00859 106.643L1.88059 106.764C1.35504 107.821 0.0735395 110.768 0.0208339 110.894C-0.00490432 110.952 -0.00687019 111.018 0.0153559 111.078C0.0375819 111.138 0.0822395 111.186 0.139798 111.213L9.80148 115.861C10.5544 116.38 18.912 119.833 19.2689 119.981L19.3623 120L19.4873 119.964L22.8258 117.991C23.5561 117.794 32.7766 115.317 34.7222 114.54C36.7205 113.74 41.0965 110.53 41.2817 110.393C41.3196 110.365 41.3488 110.327 41.3659 110.283C41.3829 110.24 41.3872 110.192 41.3781 110.146L41.1447 108.979C42.4789 108.099 45.0479 107.116 45.0735 107.105C45.1144 107.09 45.1506 107.064 45.1782 107.031C45.2058 106.997 45.2239 106.956 45.2307 106.913C45.2374 106.87 45.2325 106.826 45.2166 106.785C45.2006 106.745 45.1741 106.709 45.1398 106.682L42.616 104.691L42.4654 104.637H39.6509L37.5999 102.378L37.5231 102.321C37.0713 102.11 33.0928 100.258 32.0643 100.258C31.4896 100.268 30.9184 100.35 30.3642 100.502L27.5753 98.8231L27.5211 98.799L23.2143 97.4813L19.8517 96.1607L19.7613 96.1411Z" fill="#001E94"/>
<path d="M24.2052 98.5898L27.9699 99.3427L27.4519 99.031L23.1466 97.7149L19.7659 96.3867C19.7659 96.3867 16.715 97.5809 15.9877 97.9814C15.2604 98.382 14.0707 99.8397 14.0707 99.8397L9.90848 99.0325H8.15565C6.56093 99.5927 4.96922 102.55 4.96922 102.55H4.09582L3.43173 106.345L2.10806 106.877C1.6563 107.767 0.659413 110.054 0.346191 110.772L2.90618 107.441L5.14691 106.968L4.43915 103.074H5.38334L8.56976 100.183H13.6415L12.7576 103.369C12.7576 103.369 14.5872 101.127 15.2363 100.773C15.8853 100.419 17.8926 100.242 18.364 99.8879C18.8353 99.534 19.9572 97.0553 19.9572 97.0553L24.2052 98.5898Z" fill="white"/>
<path d="M23.5558 112.983L19.627 112.85L17.5037 110.772C17.5037 110.772 17.6377 109 18.9644 108.602C20.2911 108.205 22.7291 106.08 22.7291 106.08L26.9621 106.477L22.6147 104.619C22.6147 104.619 18.3003 105.548 17.6377 106.212C16.9752 106.876 15.1621 109.525 15.1621 109.525L15.9873 110.777L13.3189 109.536C13.3189 109.536 9.45784 110.113 8.15526 110.777C7.19903 111.263 5.97024 112.394 5.12695 113.337L9.9081 115.638C10.6776 116.169 19.362 119.753 19.362 119.753L19.4734 119.687L12.6398 116.169C12.6398 116.169 11.8959 114.044 12.0931 113.38C12.2904 112.716 12.0931 110.772 12.0931 110.772L19.2295 114.177L23.5558 112.983Z" fill="white"/>
<path d="M39.2926 104.609C38.1662 104.537 37.0925 104.506 36.7567 104.619C35.9586 104.886 35.0294 107.008 34.7644 107.142C34.4994 107.276 32.1096 107.539 31.5223 108.071C30.935 108.602 30.9576 112.188 30.9576 112.188C30.9576 112.188 28.259 111.656 27.4474 112.188C26.845 112.585 25.2247 115.74 24.4507 117.297C25.3813 117.044 26.5966 116.71 27.872 116.353L28.6596 112.984L34.9361 114.177L33.1155 112.188V109.132L35.162 108.071L39.1525 109.797L35.9661 107.538L37.0292 105.547L42.4655 104.884H39.5425L39.2926 104.609Z" fill="white"/>
</svg>
